<?xml version="1.0" encoding="UTF-8" standalone="no"?>
<svg viewBox="0 0 1570 1111" xmlns="http://www.w3.org/2000/svg">
<g transform="translate(200.27264,-311.27807)">
<g transform="matrix(4.29108,0,0,4.29108,-1325.2264,-428.29792)">
<path d="m264.66115,311.01114c24.93922,41.90468 47.33363,76.68386 72.27285,118.58855 51.23569-24.59991 72.95147-32.913 117.57063-48.35156 19.51028,5.5986 40.03848-4.58067 48.35156-12.21514 36.81504-5.08964 79.73764-11.1972 121.13336-15.26891-1.01793-6.61653 1.01793-9.16134 0-15.77787-42.92261-31.3861-86.35417-64.29909-129.27678-95.68519-78.38042,22.22475-151.6712,46.48536-230.05162,68.71012z" fill="#001873" fill-rule="evenodd" stroke="#fefefe" stroke-width="5"/>
<path d="m274.33146,312.53802 67.18322,106.88239c39.69917-20.86751 86.82198-51.95048 123.68878-43.64739-1.78947-12.27188 3.97878-19.14539 11.18661-27.09857-59.88807-10.34893-89.74727,24.09095-132.33057,40.7171l-2.54482,25.95715c1.18758-8.31307 1.35723-16.62615 2.54481-24.93922-19.34062-30.02886-42.24398-67.69219-61.5846-97.72105-6.27723,3.05378-6.95584,12.7241-8.14343,19.84959z" fill="#fff" fill-rule="evenodd" stroke="#001873" stroke-width="3.75"/>
<path d="m470.79147,360.38062c16.45649-31.3861 29.80263-33.60346 62.09358-38.17229 25.29841-3.57946 43.03551-2.73505 68.82301-3.92264-2.20551,7.46481 1.58365,17.32535 4.97674,27.33497-24.26061,1.01793-43.43158-.50896-70.237,3.05378-17.81374-1.52689-33.59162,9.67032-45.29778,21.37648 1.01793-21.71578-11.19721-8.31306-20.35855-9.6703z" fill="#fff" fill-rule="evenodd" stroke="#001873" stroke-width="3.75"/>
<path d="m396.48276,273.85678 76.34457,73.79974c-61.66944-7.63446-94.58244,29.77437-129.2768,41.98951-20.01924-31.72541-41.31089-65.48667-61.33013-97.21208 25.10888-12.04547 41.68577-31.89095 78.12594-34.86401 14.12444-1.15238 25.10888,8.31307 36.13642,16.28684z" fill="#fff" fill-rule="evenodd" stroke="#001873" stroke-width="2.5"/>
<path d="m476.49663,348.91674c18.9543-32.03036 58.06253-27.35177 124.88243-32.39025l-105.80817-71.97835c-46.1861,8.9973-77.25675-10.07697-102.20924,25.55232l83.13498,78.81628z" fill="#fff" fill-rule="evenodd" stroke="#001873" stroke-width="2.5"/>
</g>
<g transform="matrix(.9814,-.19199,.19199,.9814,-124.58905,101.3841)">
<path d="m428.04225,647.56759-133.34014,171.72593c-29.90597-6.90194-64.33755-6.45482-94.95434,6.06091l75.97237,124.13223 59.38807-69.58399 141.42136-167.68532-48.48732-64.64976z" fill="#eee" fill-rule="evenodd" stroke="#000" stroke-width="2"/>
<path d="m494.97475,333.51974 40.4061,58.58885" fill="none" stroke="#000" stroke-dasharray="3.99999983, 7.99999965" stroke-width="2" transform="translate(-200.27264,486.78392)"/>
</g>
<g transform="matrix(-2.4141448e-2,.4076,.4076,2.4141448e-2,462.21328,536.00754)">
<path d="m197.72247,435.66483 96.97964,383.62869-67.73252,48.56462 105.89396,154.90866 11.84317-127.40023 23.57887-237.11529-170.56312-222.58645z" fill="#eee" fill-rule="evenodd" stroke="#000" stroke-width="2"/>
<path d="m494.97475,333.51974 50.77432,75.85074" fill="none" stroke="#000" stroke-dasharray="3.99999983, 7.99999965" stroke-width="2" transform="translate(-200.27264,486.78392)"/>
</g>
<path d="m486.14259,332.85535c-37.1616.44699-74.6449,26.50468-76.4376,74.09375-20.8272,1.07262-33.4145-.55715-36.6874,8.0625-3.3295,8.76848 14.9084,16.0741 42.125,21.03125-1.7056,4.34157-3.1541,8.86817-4.3438,13.53125-1.1472,1.31079-1.8438,3.02885-1.8438,4.90625 0,.7139.1248,1.37744.3126,2.03125-2.9799,15.61635-2.5905,30.81628.6562,44.53125-32.4973-3.72226-59.769-6.34773-84.4688-10.21875-.5975-8.78135-1.5317-17.18663-4.0624-25.53125l-4.3438-17.78125c-3.1796-2.96742-6.7147-4.31321-12.625,6.03125l2.25,21.03125-.8125-3.96875c-.7759-8.55498-3.9063-19.46875-3.9063-19.46875h-.0937l-.375-1.8125c-5.5152-7.57308-8.8601-4.62414-12.0625-.9375-.5207-3.05169-.9744-5.12209-1.2812-6.46875-.0902-1.12131-.2655-2.3492-.5313-3.625-.9788-4.69015-5.5188-6.11979-10.25-6.875-4.099-.65432-5.1844,6.78669-5.1875,10.9375-.0076,7.9351.0764,10.88248-.3438,10.96875l-3.7187-9.625c0,0-9.7336-3.12121-12.8125-.125-2.32,2.25776-1.3121,6.32964-2.2188,9.4375-1.4768,5.06271-1.0271,6.89276-1.6874,12.125-.2292,1.81584-.3696,3.78846-.5,5.8125-24.334-10.04086-49.4744-24.48511-78.9376-46.3125-11.0237-26.37056-31.5207-45.22657-63.75-47-51.7896-2.84974-87.7489,38.90093-89.125,95.5625-1.2035,49.55861 37.2538,109.4749 86.8126,108.28125 23.3861-.56329 48.6378-15.64569 63.375-43.1875 12.6424-7.55296 29.8093-13.05061 49.7187-17.03125 5.4361,15.03842 15.9933,39.3468 27.9063,41 5.1848.71953 10.3901,1.31036 15.625,1.75-4.2278,8.22581 7.9807,26.54187 8.5937,27.65625 .6314,1.14757 25.4759,30.43917 27.25,32.53125-1.663,1.23679-3.3703,2.4828-5.1875,3.78125 0,0 76.4502,70.1857 127.9688,94.6875 .1161,44.56299 7.0169,89.45758-8.9688,136.53125 26.5064,7.08284 62.0345,15.88987 102,21.21875 38.18766,4.47023 95.04883,2.21947 130.1875.09375 5.0254-.7998 10.0477-1.74858 15.0625-2.78125 44.49489-12.94864 75.21794-24.19559 129.5312-63.53125 4.2645-3.80194 8.4706-7.78901 12.5938-11.96875-63.1969-120.13412-223.1876-234.73184-269.2188-274.875 10.2704-12.69782 18.0211-28.63435 21.7813-46.59375 2.9588-14.13227 3.1442-28.00122.9375-40.75 14.3833-2.1054 25.7178-5.31087 31.7812-9.75 4.3334-3.17247-1.1108-10.01442-26.25-17.71875-.4379-54.9596-37.2759-80.13449-74.4374-79.6875zm-124.7188,178.46875h2.5c.3379,8.72235-.6768,24.00614-11.4062,27.875-5.8067,2.09377-12.0426,3.91664-18.5313,5.4375-4.1266-5.47545-8.6344-11.79784-14.0625-19.15625l-6.4688,3.8125c-.5519-.85659-1.0664-1.65862-1.5937-2.46875 .2869-7.55999 5.1787-11.23482 9.1563-15.03125 13.5386-.35034 27.1272-.4765 40.4062-.46875zm18.4688.125c11.7057.10056 22.5473.23154 33.3124.40625 5.2363,14.167 13.6893,26.14859 24.6563,34.375-.001.01026.001.021 0,.03125-.0085.03064-.4352,1.63728-1.0625,4.3125-2.1579,4.83192-7.6721,7.50978-19.875,10.84375-42.6836,11.66169-57.5431,10.76865-72.1562-3.90625 8.2967-2.34946 16.1703-5.27068 23.4374-8.8125 9.6099-4.68359 11.8257-27.23027 11.6876-37.25zm-115,3.4375c3.4207,5.55432 6.2812,10.03125 6.2812,10.03125l5.0625,13.8125c-1.2871-.51969-2.5848-.70596-3.7187-.09375-2.6564,1.43463-3.2139,5.06066-3.125,8.46875-5.0501-.99385-9.9119-2.34771-14.5-4.0625-5.4728-2.04533-10.2808-16.60747-12.7813-25.59375 7.3761-.99594 14.992-1.85113 22.7813-2.5625zm6.8437,49.75c1.04.05361 2.0856.11423 3.125.15625 1.2269,2.38938 2.5749,4.72047 3.9063,6.9375-2.25-2.84713-4.7031-5.45803-7.0313-7.09375z" fill="#fff" stroke="#000" stroke-dashoffset="1.5" stroke-linecap="round" stroke-linejoin="round" stroke-width="26"/>
<g transform="matrix(.52569,-.85067,.85067,.52569,-73.02989,689.24211)">
<path d="m328.14017,731.8665-62.62567,120.90137-78.83275,14.13874c67.50471,22.43598 90.17016,60.35894 117.63825,102.21037l1.6006-55.73996 71.80769-165.03998-49.58812-16.47054z" fill="#eee" fill-rule="evenodd" stroke="#000" stroke-width="2"/>
<path d="m446.93062,369.14714c30.00818,15.89246 47.0489,36.67167 60.12193,55.90477" fill="none" stroke="#000" stroke-dasharray="3.99999983, 7.99999965" stroke-width="2" transform="translate(-200.27264,486.78392)"/>
</g>
<path d="m486.14259,332.85535c-37.1616.44699-74.6449,26.50468-76.4376,74.09375-20.8272,1.07262-33.4145-.55715-36.6874,8.0625-3.3295,8.76848 14.9084,16.0741 42.125,21.03125-1.7056,4.34157-3.1541,8.86817-4.3438,13.53125-1.1472,1.31079-1.8438,3.02885-1.8438,4.90625 0,.7139.1248,1.37744.3126,2.03125-2.9799,15.61635-2.5905,30.81628.6562,44.53125-32.4973-3.72226-59.769-6.34773-84.4688-10.21875-.5975-8.78135-1.5317-17.18663-4.0624-25.53125l-4.3438-17.78125c-3.1796-2.96742-6.7147-4.31321-12.625,6.03125l2.25,21.03125-.8125-3.96875c-.7759-8.55498-3.9063-19.46875-3.9063-19.46875h-.0937l-.375-1.8125c-5.5152-7.57308-8.8601-4.62414-12.0625-.9375-.5207-3.05169-.9744-5.12209-1.2812-6.46875-.0902-1.12131-.2655-2.3492-.5313-3.625-.9788-4.69015-5.5188-6.11979-10.25-6.875-4.099-.65432-5.1844,6.78669-5.1875,10.9375-.0076,7.9351.0764,10.88248-.3438,10.96875l-3.7187-9.625c0,0-9.7336-3.12121-12.8125-.125-2.32,2.25776-1.3121,6.32964-2.2188,9.4375-1.4768,5.06271-1.0271,6.89276-1.6874,12.125-.2292,1.81584-.3696,3.78846-.5,5.8125-24.334-10.04086-49.4744-24.48511-78.9376-46.3125-11.0237-26.37056-31.5207-45.22657-63.75-47-51.7896-2.84974-87.7489,38.90093-89.125,95.5625-1.2035,49.55861 37.2538,109.4749 86.8126,108.28125 23.3861-.56329 48.6378-15.64569 63.375-43.1875 12.6424-7.55296 29.8093-13.05061 49.7187-17.03125 5.4361,15.03842 15.9933,39.3468 27.9063,41 5.1848.71953 10.3901,1.31036 15.625,1.75-4.2278,8.22581 7.9807,26.54187 8.5937,27.65625 .6314,1.14757 25.4759,30.43917 27.25,32.53125-1.663,1.23679-3.3703,2.4828-5.1875,3.78125 0,0 76.4502,70.1857 127.9688,94.6875 .1161,44.56299 7.0169,89.45758-8.9688,136.53125 26.5064,7.08284 62.0345,15.88987 102,21.21875 52.3298,5.48039 88.98792,3.22962 130.1875.09375 5.0254-.7998 10.0477-1.74858 15.0625-2.78125 35.40351-8.90803 84.30932-29.24635 129.5312-63.53125 4.2645-3.80194 8.4706-7.78901 12.5938-11.96875-63.1969-120.13412-223.1876-234.73184-269.2188-274.875 10.2704-12.69782 18.0211-28.63435 21.7813-46.59375 2.9588-14.13227 3.1442-28.00122.9375-40.75 14.3833-2.1054 25.7178-5.31087 31.7812-9.75 4.3334-3.17247-1.1108-10.01442-26.25-17.71875-.4379-54.9596-37.2759-80.13449-74.4374-79.6875zm-124.7188,178.46875h2.5c.3379,8.72235-.6768,24.00614-11.4062,27.875-5.8067,2.09377-12.0426,3.91664-18.5313,5.4375-4.1266-5.47545-8.6344-11.79784-14.0625-19.15625l-6.4688,3.8125c-.5519-.85659-1.0664-1.65862-1.5937-2.46875 .2869-7.55999 5.1787-11.23482 9.1563-15.03125 13.5386-.35034 27.1272-.4765 40.4062-.46875zm18.4688.125c11.7057.10056 22.5473.23154 33.3124.40625 5.2363,14.167 13.6893,26.14859 24.6563,34.375-.001.01026.001.021 0,.03125-.0085.03064-.4352,1.63728-1.0625,4.3125-2.1579,4.83192-7.6721,7.50978-19.875,10.84375-42.6836,11.66169-57.5431,10.76865-72.1562-3.90625 8.2967-2.34946 16.1703-5.27068 23.4374-8.8125 9.6099-4.68359 11.8257-27.23027 11.6876-37.25zm-115,3.4375c3.4207,5.55432 6.2812,10.03125 6.2812,10.03125l5.0625,13.8125c-1.2871-.51969-2.5848-.70596-3.7187-.09375-2.6564,1.43463-3.2139,5.06066-3.125,8.46875-5.0501-.99385-9.9119-2.34771-14.5-4.0625-5.4728-2.04533-10.2808-16.60747-12.7813-25.59375 7.3761-.99594 14.992-1.85113 22.7813-2.5625zm6.8437,49.75c1.04.05361 2.0856.11423 3.125.15625 1.2269,2.38938 2.5749,4.72047 3.9063,6.9375-2.25-2.84713-4.7031-5.45803-7.0313-7.09375z" fill="#fff" stroke="#f2f2f2" stroke-dashoffset="1.5" stroke-linecap="round" stroke-linejoin="round" stroke-width="24"/>
<g transform="matrix(3.79864,0,0,3.79864,2050.1062,-204.43658)">
<path d="m-357.20398,312.71783 1.60714,11.07143c.23175,1.59648.62882,4.16099 3.57143,1.42857l12.5-11.60714" stroke="#000" stroke-dashoffset="1.5" stroke-linecap="round" stroke-linejoin="round" stroke-width="1.25"/>
<path d="m-456.10857,194.79619c-1.77846-5.67276 3.57514-5.59863 3.38769-8.89607-.19308-3.39648-.30355-6.50042-1.24038-9.58939l-1.14495-4.6869c-.83708-.78118-1.76284-1.13007-3.31876,1.59313l.58897,5.53031-1.36522-6.64697c-1.77738-2.44062-2.70272-.7329-3.74518.40463 0,0 .50746-1.32942.0967-3.30125-.25768-1.23469-1.45177-1.61707-2.69729-1.81588-1.07905-.17225-1.36761,1.78611-1.36842,2.87882-.002,2.08893.0205,2.867-.0901,2.88971l-.97621-2.53398c0,0-2.5692-.82376-3.37973-.035-.61078.59436-.3438,1.67137-.58247,2.48952-.38878,1.33277-.26495,1.81181-.43876,3.18921-.32257,2.55649-.36042,6.10729.81397,8.40087 1.19922,2.34203 4.38976,7.33938 4.38976,7.33938l3.15284,8.55978" fill="#e6d3a3" stroke="#000" stroke-dashoffset="1.5" stroke-linecap="round" stroke-linejoin="round" stroke-width="1.25"/>
<path d="m-384.74165,307.2861c3.02323,6.46614-.20846,9.89289-17.63991,11.45798-3.68167.33056-8.20817,2.98962-3.82583,3.18923 .3596.0164 16.04383-.23907 24.43307-.63135 1.76783-.0827 4.89234-2.73924 6.62912-2.39911 .61049.11956 1.41424,2.19489 2.73172,2.29855 1.69027.133 3.33991-1.26114 4.71816-.84646 2.43004.73115-3.94886-10.5286-3.16198-11.83679" stroke="#000" stroke-dashoffset="1.5" stroke-linecap="round" stroke-linejoin="round" stroke-width="1.25"/>
<path d="m-393.26668,315.34193c4.58152,1.51127 21.72365,3.83468 26.76162,2.02556-2.79975.25218-5.8482-34.92191-.17412-34.56197 4.53486.28768 4.05263,32.8562 3.19188,33.64592 4.27426.80359 7.84625,1.16767 23.21775.44905 13.72039-12.92932 17.59303-31.08405 6.24474-56.8316-21.57305,12.63606-49.28466,17.25185-66.08578,12.0921-2.91933,12.01257-8.92306,27.29816 6.84391,43.18094z" fill="#4d4d4d" stroke="#000" stroke-dashoffset="1.5" stroke-linecap="round" stroke-linejoin="round" stroke-width="1.25"/>
<path d="m-423.27463,196.436c.11904,2.95285-.77141,3.87691-5.53571,5.17857-16.79518,4.58865-17.22796,1.79788-25.53572-9.46428l-13.03571,7.67856c3.56388,7.02271 19.61997,33.63374 41.96428,26.60715-5.59876,17.65404 1.67397,34.97007-4.64286,53.57144 22.7947,6.09101 70.89022,17.04329 102.5-15-16.89452-32.11565-60.08122-62.74756-71.42856-72.85716l-24.28572,4.28572z" fill="#8b97ad" stroke="#000" stroke-dashoffset="1.5" stroke-linecap="round" stroke-linejoin="round" stroke-width="1.25"/>
<path d="m-423.2965,197.61262c0,0-3.59211,12.96316 1.00323,14.5695 4.92102,1.72018 10.56035-11.53509 10.56035-11.53509s4.70391,11.29586 9.10966,10.16236c6.01771-1.54822 4.19883-18.162 4.19883-18.162" stroke="#000" stroke-width="1.25"/>
<path d="m-411.73292,200.64703c-3.26421,16.96722.76441,35.26134 4.56352,53.74425 3.05628,14.86901 8.41461,24.87153 10.31267,31.91644" fill="none" stroke="#000" stroke-dashoffset="1.5" stroke-linecap="round" stroke-linejoin="round" stroke-width="1.25"/>
<path d="m-71.72083,535.16406a1.51523,1.51523 0 1,1 -3.03046,0 1.51523,1.51523 0 1,1 3.03046,0z" transform="matrix(1.11785,0,0,1.11785,-335.21932,-383.10526)"/>
<path d="m-71.72083,535.16406a1.51523,1.51523 0 1,1 -3.03046,0 1.51523,1.51523 0 1,1 3.03046,0z" transform="matrix(1.2357,0,0,1.2357,-323.37365,-423.22331)"/>
<path d="m-71.72083,535.16406a1.51523,1.51523 0 1,1 -3.03046,0 1.51523,1.51523 0 1,1 3.03046,0z" transform="matrix(1.35355,0,0,1.35355,-310.63556,-461.6309)"/>
<path d="m-52.02286,499.11426a17.04632,21.52887 0 1,1 -34.09265,0 17.04632,21.52887 0 1,1 34.09265,0z" fill="#e6d3a3" stroke="#000" stroke-dashoffset="1.5" stroke-linecap="round" stroke-linejoin="round" stroke-width="1.10911" transform="matrix(1.11575,.20294,-.22961,1.09666,-220.04677,-356.42583)"/>
<path d="m-421.58791,183.09672c-2.93403,1.7403-6.28425,2.19814-9.1875,1.96875 .21637,1.03549.47896,2.03215.8125,3 2.61992-.19712 5.47427-.9073 6.78125-1.71875 0,0 6.93185,6.75177 11.625,6.9375 2.68613.1063 7.40625-3.15625 7.40625-3.15625-7.55718,1.13501-11.90237-4.1262-17.4375-7.03125z" stroke="#000" stroke-dashoffset="1.5" stroke-linecap="round" stroke-linejoin="round" stroke-width="1.25"/>
<path d="m-71.72083,535.16406a1.51523,1.51523 0 1,1 -3.03046,0 1.51523,1.51523 0 1,1 3.03046,0z" transform="matrix(1.29463,0,0,1.29463,-334.13376,-519.38032)"/>
<path d="m-430.71334,160.95161c-5.48281.28237-8.7974-.14703-9.65901,2.12211-2.6742,7.04278 47.5439,10.41614 56.28781,4.01464 1.14075-.83516-.29228-2.63894-6.91022-4.66712-.23057-28.93645-38.77471-26.52546-39.71858-1.46963z" stroke="#000" stroke-dashoffset="1.5" stroke-linecap="round" stroke-linejoin="round" stroke-width="1.25"/>
<path d="m-71.72083,535.16406a1.51523,1.51523 0 1,1 -3.03046,0 1.51523,1.51523 0 1,1 3.03046,0z" transform="matrix(1.64818,0,0,1.64818,-294.59432,-707.09742)"/>
<path d="m-475.31623,188.16203c0,0 1.75208,7.83004 3.84765,8.61322 7.60076,2.84073 18.05952,1.74246 25.70543-1.01452 4.01214-1.44671 2.86552-8.96854 2.86552-8.96854l4.17961.38582c.37213,0 .35291,9.48951-2.91971,11.0845-8.7123,4.24615-20.6665,5.13889-31.93468,3.57516-4.56159-.63303-8.36915-13.89051-8.36915-13.89051l6.62533.21487z" fill="#f1d27e" stroke="#000" stroke-dashoffset="1.5" stroke-linecap="round" stroke-linejoin="round" stroke-width="1.25"/>
<path d="m-422.99862,186.6369c-34.97803-4.46844-47.47596-2.27327-76.9039-26.16993l1.84863,38.46637c9.58625-12.17328 51.26078-10.58492 75.03616-10.26051 1.55037-.74936.82702-1.39459.0191-2.03593h1e-005z" fill="#f1d27e" stroke="#000" stroke-dashoffset="1.5" stroke-linecap="round" stroke-linejoin="round" stroke-width="1.25"/>
<path d="m-462.55827,173.06326c0,0 .14014,2.75854.38902,4.11298 .24256,1.32016.004,3.06711 1.07074,3.88181 .57985.44285 1.5646.38387 2.18885.006 .52495-.31761.7432-1.02862.84957-1.63289 .36208-2.05702-1.01535-6.84867-1.01535-6.84867" fill="#e6d3a3" stroke="#000" stroke-dashoffset="1.5" stroke-linecap="round" stroke-linejoin="round" stroke-width="1.25"/>
<path d="m-471.64055,171.36642c0,0-.30906,4.49106.29653,5.96239 .34989.85007.9472,1.74124 1.79692,2.09197 .66539.27465 1.65523.35133 2.15293-.16874 .61389-.64148.11078-1.77442.0913-2.66209-.0316-1.43934-.3781-4.97426-.3781-4.97426" fill="#e6d3a3" stroke="#000" stroke-dashoffset="1.5" stroke-linecap="round" stroke-linejoin="round" stroke-width="1.25"/>
<path d="m-466.84149,169.88455c0,0 .34306,2.49128.59194,3.84571 .24256,1.32017.004,3.06711 1.07074,3.88182 .57984.44285 1.56459.38387 2.18885.006 .52495-.31761.7432-1.02861.84957-1.63288 .36208-2.05702-.66553-6.24378-.66553-6.24378" fill="#e6d3a3" stroke="#000" stroke-dashoffset="1.5" stroke-linecap="round" stroke-linejoin="round" stroke-width="1.25"/>
<path d="m-510.07829,153.22915c-13.6337-.7502-23.10456,10.24743-23.46683,25.1637-.31685,13.0464 9.81068,28.81695 22.85715,28.50272 9.07403-.21856 19.21205-8.73729 19.98731-23.82922 .75551-14.70755-4.67293-29.02807-19.37763-29.8372z" fill="#f1d27e" stroke="#000" stroke-dashoffset="1.5" stroke-linecap="round" stroke-linejoin="round" stroke-width="1.25"/>
<path d="m-505.81472,173.09228c8.13414-6.58626 14.16651,3.52942 12.85672,9.55818-2.36734,10.89657-12.93984,8.22358-11.04165-1.44821 .96205-4.90193 5.48508-7.16177 6.35274,0" fill="none" stroke="#000" stroke-dashoffset="1.5" stroke-linecap="round" stroke-linejoin="round" stroke-width="1.25"/>
<path d="m-459.77079,218.43205c0,0-7.24927-8.54623-7.42142-8.85914s-3.81769-5.77627-1.98014-7.6745c.46931-.48481 1.40387.0832 1.97545.4418 1.96872,1.23513 4.33081,5.46415 4.33081,5.46415s-4.31421-5.72514-4.71456-9.12544c-.12313-1.04586-.16804-2.56641.75854-3.06683 .66769-.36047 1.54332.2958 2.14759.75471 2.66976,2.02756 5.75888,8.2452 5.75888,8.2452s-4.66368-8.84771-4.75759-9.20367-.49062-1.78307.11319-2.20228c.74354-.51622 1.85535.28795 2.58963.81726 2.33575,1.68377 5.07029,6.99353 5.07029,6.99353s-3.77787-5.17379-4.31939-8.22188c-.12286-.69158-.29187-1.67754.2775-2.08887 .71972-.51994 2.12104-.23997 2.61697.4965 3.27335,4.86104 9.81097,15.92553 10.43804,15.45391" fill="#e6d3a3" stroke="#000" stroke-dashoffset="1.5" stroke-linecap="round" stroke-linejoin="round" stroke-width="1.25"/>
<path d="m-402.62326,210.80939c-21.13652,13.99012-30.68045,8.07321-45.01907-5.40134-3.28141,4.05579-5.02521,7.49671-13.74488,13.72727 0,0 25.28075,23.2098 38.26791,26.6845 11.75009,3.14373 40.16436-11.12215 40.16436-11.12215" fill="#8b97ad" stroke="#000" stroke-dashoffset="1.5" stroke-linecap="round" stroke-linejoin="round" stroke-width="1.25"/>
</g>
</g>
</svg>
