<?xml version="1.0" encoding="UTF-8" standalone="no"?>
<svg viewBox="0 0 744.09448819 1052.3622047" xmlns="http://www.w3.org/2000/svg">
<g transform="matrix(4.33842,0,0,4.33842,-1871.2167,-147.9083)">
<path d="m551.57605,114.16504c0,0 5.19424,1.81873 6.16956,7.27538s-12.82908,18.56011-17.37476,26.19932-6.33287,12.35937-6.00635,13.81428c.32215,1.45538 6.4962,11.6406 3.89689,11.6406s-24.68306,1.8192-27.92676,1.09203c-3.24812-.72775-3.24812-31.64758-2.59938-38.1958s10.3622-24.93728 21.52317-28.06161c2.90385-.81321 21.66884,2.96168 22.31763,6.2358z" fill="#252413"/>
<path d="m529.48827,109.75088c0,0 2.32572,1.0416 3.02308,3.90541s2.42724,4.54707 4.18371,4.947c1.75198.39895 13.71185,1.56211 13.71185,1.56211s-5.34444,8.59196-9.29865,14.05955-9.29427,23.95347-8.83078,25.25554 1.41659,8.77036 1.41659,8.77036l-23.26641,3.2054c0,0-3.25253-15.36162-2.78914-18.74599 .4678-3.38426 1.86237-16.4022 3.25694-18.74588s5.34439-11.71622 7.67015-15.36109c2.32574-3.64537 10.69316-10.41457 10.92266-8.85241z" fill="#bd0179"/>
<path d="m535.04391,121.75473c.74144.51859 5.5165,3.12334 3.87916,3.53167s-5.03104-.0682-4.60737,1.56217 3.21288,3.32745.78564,3.73535c-2.42287.40778-5.27377,1.42626-5.45482,2.6488s-.84733,4.82236-1.15175,4.89016-13.58388-5.7726-13.58388-5.7726c-2.84652-.27197 5.2164-3.87182 5.64007-4.95842s.42367-5.97675.42367-5.97675 3.0937-1.97 3.64086-2.51329c.5429-.5433 8.48665,1.49444 10.42842,2.85291z" fill="#de6ea6"/>
<path d="m541.94236,125.78902c0,0-1.91967,7.63235-7.03012,14.31153s-5.9579,15.50446-5.11057,16.93567 1.49164,8.82526.85182,8.82526-18.52226,3.10008-20.442,2.38465c-1.91533-.71474 1.91974-2.38523 1.91974-2.38523s9.36921-1.43063 11.71266-2.62301-3.41142-4.05469-2.13156-6.20167 4.04686-4.53221 4.47052-5.96342c.42804-1.43121-9.36921-5.96296-8.30122-5.48589 1.06359.47661 7.87756-.9546 11.49638-4.29397s12.3482-16.45802 12.3482-16.45802c.21615,3.33937.21615.9541.21615.9541z" fill="#930c7a"/>
<path d="m530.21163,77.40195c0,0-2.47581-6.43383-5.70186-3.48554 0,0-5.45913,6.07611-.84733,10.34381 .11915.11153.60902-.9081.60902-.9081s4.04249-4.85908 5.94017-5.95017z" fill="#26231f"/>
<path d="m528.95397,78.22732c0,0-1.79617-5.65132-4.25433-3.20994 0,0-3.27459,2.51424.11033,7.40182 .0971.13808 0,0 0,0s1.7697-3.39869 4.144-4.19188z" fill="#f09b75"/>
<path d="m570.82687,98.01569c0,0 6.37266-2.63936 6.49623,2.02241 0,0-.9356,9.12133-6.83164,8.01446-.15446-.0287.21184-1.11078.21184-1.11078s.63108-6.60311.12357-8.92609z" fill="#26231f"/>
<path d="m571.09537,99.62256c0,0 4.98692-2.18257 4.95161,1.4984 0,0 .44574,4.41705-5.06636,4.75272-.15446.01 0,0 0,0s1.13419-3.72249.11475-6.25112z" fill="#f09b75"/>
<path d="m523.56535,84.7595c-3.82184,9.37472 1.01503,21.29466 10.94474,28.51814 1.39012,1.00996 2.10509,3.34041 3.685,4.14619 1.79617.91995 4.39111.23675 6.20501.77563 11.1389,3.31266 21.98649-.43656 25.72892-9.62356 4.35589-10.68359-2.53761-24.6757-15.39764-31.25345s-26.8102-3.24757-31.16603,7.43705z" fill="#26231f"/>
<path d="m525.42369,85.32451c-3.59235,8.81881.84733,19.97694 10.04446,26.69711 1.28423.93837 2.14917,2.65076 3.60996,3.39876 1.66818.85274 3.87041.66582 5.55621,1.16165 10.33577,3.04381 20.43317-.53634 23.95485-9.17963 4.09555-10.05068-2.24631-23.1386-14.16187-29.23643s-24.90816-2.89178-29.00361,7.15855z" fill="#f4b891"/>
<path d="m538.92756,84.32951c.29568,1.28849 1.61523,3.11291 2.74502,3.39434l-2.74502-3.39434z" fill="#26231f"/>
<path d="m541.67284,87.72482c-.0132.34852-1.27101.1617-2.08744-.98006-.85175-1.08333-.94443-2.37375-.65757-2.41527 .27803-.05408.71052.76808 1.42105,1.67714 .69287.94091 1.34602,1.40486 1.32396,1.71819z" fill="#26231f"/>
<path d="m540.91011,83.89215c-.11916,1.34113.63991,3.04291 1.56668,3.8742l-1.56668-3.8742z" fill="#26231f"/>
<path d="m542.47576,87.76732c-.12798.2496-1.08565-.27709-1.62847-1.50284-.50752-1.2605-.18536-2.45635.0618-2.37236 .30893.07099.45898.90378.85176,1.89249 .43249.97181.88705,1.69835.71493,1.98271z" fill="#26231f"/>
<path d="m542.10528,84.02681c-.48104,1.10118-.11033,2.71169.68846,3.51022l-.68846-3.51022z" fill="#26231f"/>
<path d="m542.79365,87.5376c-.12798.2486-1.02386-.28579-1.31513-1.51253-.22949-1.2605.43249-2.18356.62667-1.99768 .26921.19309.20301.88781.35747,1.74279 .20301.84679.51634,1.48401.33099,1.76742z" fill="#26231f"/>
<path d="m540.60934,87.46936c-.18094.96211.43249,1.92561 1.37692,2.15103 .94884.22741 1.86237-.36879 2.04772-1.32987 .18094-.96216-.4369-1.92239-1.38132-2.14881s-1.85796.3674-2.04332,1.32764z" fill="#26231f"/>
<path d="m558.83151,93.13631c-1.06358.59273-3.15985.67034-4.09104-.09986l4.09104.09986z" fill="#26231f"/>
<path d="m554.74052,93.03701c.22508-.25261.95767-.01681 2.03007-.0074 1.07241-.02323 1.89768-.18489 2.06098.10728 .15445.23877-.77232,1.00156-2.06098,1.02183-1.31071.01385-2.2419-.92197-2.03007-1.12169z" fill="#26231f"/>
<path d="m557.82545,91.17191c-.82526.9808-2.47139,1.44995-3.64089,1.21018l3.64089-1.21018z" fill="#26231f"/>
<path d="m554.18458,92.38125c.0794-.33172.8694-.4207 1.80941-.68864 .92236-.3154 1.58434-.73362 1.83148-.52056 .22066.15523-.37513,1.21216-1.55787,1.60715-1.18273.34308-2.16246-.12408-2.08302-.39795z" fill="#26231f"/>
<path d="m556.95185,90.2477c-.42809,1.12911-1.75646,1.86817-2.81563,1.71739l2.81563-1.71739z" fill="#26231f"/>
<path d="m554.13605,91.96449c.0706-.3421.7017-.49683 1.40782-.87699 .67521-.43256 1.09888-.94224 1.40781-.8404 .25595.04449.0662,1.20869-.9356,1.83851-1.01945.55665-1.96388.14978-1.88003-.12112z" fill="#26231f"/>
<path d="m555.60978,93.76707c-.52959.78602-1.58434.89429-2.35224.24322s-.9709-1.81477-.44132-2.6008 1.57993-.89132 2.35224-.24124 .97091,1.81527.44132,2.59883z" fill="#26231f"/>
<path d="m528.37565,82.73751c-2.1051,2.10393-1.11654,7.18966 2.20218,11.35609s7.71866,5.84223 9.82375,3.73829 .61345-7.18246-2.70966-11.35146-7.21117-5.84777-9.31627-3.74291z" fill="#f4b891"/>
<path d="m528.42916,82.77663c-2.09185,2.08845-1.11212,7.13374 2.18013,11.26655 3.29666,4.13329 7.65693,5.79377 9.7443,3.70514s.61345-7.12757-2.67876-11.26259c-3.29225-4.13346-7.15822-5.79899-9.24567-3.7091z" fill="#f4b791"/>
<path d="m528.48173,82.81481c-2.07421,2.07347-1.10772,7.07827 2.15805,11.17693s7.59514,5.74497 9.66938,3.67211 .60897-7.07225-2.65681-11.17326-7.10083-5.74975-9.17062-3.67578z" fill="#f4b791"/>
<path d="m528.53082,82.85348c-2.05655,2.05755-1.09889,7.02235 2.1404,11.08738s7.53331,5.69606 9.58994,3.6385 .61334-7.01638-2.6259-11.08338-7.04348-5.70105-9.10444-3.64251z" fill="#f4b690"/>
<path d="m528.5832,82.89144c-2.04332,2.04213-1.09448,6.96695 2.11833,10.99786s7.47158,5.64703 9.51487,3.60489 .60896-6.96102-2.6038-10.99407-6.9861-5.65225-9.0294-3.60869z" fill="#f4b590"/>
<path d="m528.6367,82.92962c-2.03007,2.02666-1.09006,6.91148 2.09627,10.90882s7.40975,5.59811 9.43543,3.57129 .60908-6.90569-2.5729-10.90473c-3.18633-3.99779-6.93314-5.60301-8.9588-3.57537z" fill="#f4b490"/>
<path d="m528.68927,82.96874c-2.01243,2.01073-1.08566,6.85605 2.07419,10.81882s7.34357,5.54908 9.3604,3.5386c2.01243-2.01106.60908-6.8503-2.55082-10.81582-3.15545-3.96402-6.87577-5.55427-8.88377-3.5416z" fill="#f3b490"/>
<path d="m528.73836,83.00687c-1.99477,1.99576-1.07682,6.80063 2.05655,10.72982s7.2862,5.50062 9.28095,3.50488c1.9992-1.99563.60908-6.79486-2.51993-10.72592s-6.81839-5.50548-8.81757-3.50878z" fill="#f3b38f"/>
<path d="m528.79072,83.04487c-1.98152,1.9798-1.0724,6.74469 2.03449,10.64025 3.10248,3.89643 7.22001,5.45171 9.20151,3.47127 1.98596-1.98033.60908-6.73949-2.49343-10.63655s-6.76103-5.45674-8.74257-3.47497z" fill="#f3b28e"/>
<path d="m528.84424,83.08305c-1.96829,1.96487-1.068,6.68927 2.01242,10.5512s7.15821,5.40222 9.12655,3.43766 .60459-6.68363-2.46703-10.54721c-3.076-3.86214-6.70806-5.4075-8.67194-3.44165z" fill="#f2b18f"/>
<path d="m528.89219,83.12168c-1.95063,1.94943-1.05916,6.63385 1.99036,10.46159s7.10084,5.35342 9.05152,3.40417c1.955-1.94879.60896-6.6283-2.44055-10.45787s-6.65069-5.35826-8.60133-3.40788z" fill="#f2b18d"/>
<path d="m528.94591,83.16035c-1.93299,1.93397-1.05476,6.57837 1.96828,10.37205s7.03906,5.30496 8.97649,3.37148 .60459-6.5734-2.41405-10.36896c-3.02306-3.79407-6.59775-5.30952-8.53072-3.37457z" fill="#f3b08e"/>
<path d="m528.99826,83.19896c-1.91974,1.91854-1.05034,6.52297 1.94622,10.28256s6.97727,5.25593 8.89705,3.33787 .60897-6.51758-2.38757-10.27918c-2.99215-3.76027-6.53595-5.26073-8.4557-3.34126z" fill="#f3af8e"/>
<path d="m529.05178,83.23714c-1.9065,1.90307-1.04592,6.4675 1.92416,10.1934s6.91549,5.20713 8.82197,3.30438 .6046-6.46227-2.36104-10.18984-6.48299-5.21149-8.38509-3.30794z" fill="#f3ae8e"/>
<path d="m529.09973,83.27511c-1.88885,1.88759-1.0371,6.41158 1.9065,10.10386s6.85371,5.1581 8.74253,3.27066 .6046-6.4063-2.33455-10.10041-6.42563-5.16269-8.31448-3.27411z" fill="#f3ae8d"/>
<path d="m529.15324,83.31329c-1.87561,1.87217-1.03269,6.35665 1.88444,10.01435 2.91271,3.65922 6.79191,5.10965 8.66757,3.23762s.60459-6.35104-2.31256-10.01114c-2.91271-3.65841-6.36826-5.1135-8.23945-3.24084z" fill="#f2ac8d"/>
<path d="m529.2058,83.35246c-1.85796,1.85669-1.02828,6.3007 1.86237,9.92478 2.88623,3.62561 6.73013,5.06027 8.58805,3.20448s.6046-6.29564-2.28159-9.92223c-2.88622-3.62466-6.31088-5.06476-8.16883-3.20702z" fill="#f2ac8c"/>
<path d="m529.25375,83.39107c-1.8403,1.84078-1.01944,6.24479 1.84472,9.83529s6.66836,5.01124 8.5131,3.17075 .60022-6.2402-2.25959-9.83233-6.25351-5.01597-8.09823-3.17371z" fill="#f1ab8c"/>
<path d="m529.30727,83.42854c-1.82707,1.82584-1.01504,6.18987 1.82265,9.74625 2.82887,3.55736 6.60656,4.96279 8.43365,3.13715s.6046-6.18484-2.22869-9.74296-6.20055-4.96723-8.02761-3.14044z" fill="#f1ab8c"/>
<path d="m529.36079,83.46722c-1.81383,1.81038-1.00621,6.1339 1.79617,9.65667 2.80679,3.52332 6.54919,4.91344 8.36299,3.10357s.60023-6.12951-2.20657-9.65367c-2.80239-3.52273-6.14318-4.91794-7.95259-3.10658z" fill="#f2a98a"/>
<path d="m529.40873,83.50535c-1.79617,1.79494-.99738,6.07898 1.77852,9.56714s6.48742,4.86494 8.28356,3.0705 .60022-6.07369-2.17568-9.56433-6.08581-4.86871-7.8864-3.0733z" fill="#f2a88b"/>
<path d="m529.46226,83.54446c-1.78294,1.77904-.99298,6.02308 1.75645,9.47762 2.75384,3.45606 6.42562,4.81603 8.20859,3.03735s.60011-6.01879-2.15368-9.47498-6.02844-4.8204-7.81136-3.03998z" fill="#f2a88a"/>
<path d="m529.5148,83.58268c-1.76528,1.76402-.98856,5.96811 1.73439,9.38855s6.36384,4.76709 8.12908,3.00372 .60022-5.96293-2.12271-9.38559-5.97548-4.77122-7.74076-3.00667z" fill="#f2a78a"/>
<path d="m529.56718,83.62131c-1.75205,1.74809-.98415,5.9117 1.71231,9.29901s6.30206,4.71809 8.04964,2.97003 .60022-5.90699-2.09623-9.29614-5.9181-4.72198-7.66572-2.9729z" fill="#f1a689"/>
<path d="m529.61627,83.65883c-1.73439,1.73311-.97532,5.85672 1.69467,9.20993s6.24026,4.66918 7.97465,2.93596 .60025-5.85117-2.06979-9.20636c-2.66998-3.35281-5.86514-4.67318-7.59953-2.93953z" fill="#f0a589"/>
<path d="m529.66864,83.69744c-1.72115,1.7172-.97091,5.80081 1.6726,9.11991s6.17849,4.62068 7.89522,2.90334 .60024-5.79631-2.04331-9.11749-5.80336-4.62394-7.52451-2.90577z" fill="#f0a48a"/>
<path d="m529.72215,83.73557c-1.70791,1.70227-.96649,5.74589 1.65054,9.03088 2.61702,3.28595 6.11669,4.57134 7.82019,2.86977s.59582-5.74099-2.01683-9.0277c-2.61703-3.28524-5.7504-4.57516-7.4539-2.87295z" fill="#f0a488"/>
<path d="m529.7747,83.77469c-1.69025,1.68683-.96207,5.68997 1.62848,8.94135s6.0505,4.5223 7.74076,2.83616 .60022-5.68513-1.99036-8.93833-5.69303-4.52641-7.37888-2.83918z" fill="#f0a388"/>
<path d="m529.82382,83.81271c-1.67261,1.67087-.95326,5.6345 1.61081,8.85177s5.99313,4.47396 7.66574,2.80244 .5958-5.62966-1.96388-8.84884-5.64008-4.47767-7.31267-2.80536z" fill="#f0a288"/>
<path d="m529.87617,83.85089c-1.65936,1.65588-.94883,5.57859 1.58876,8.76223 2.53317,3.18458 5.92693,4.42496 7.5863,2.76943s.59577-5.5744-1.9374-8.75962c-2.53318-3.18285-5.58271-4.42843-7.23766-2.77204z" fill="#f0a187"/>
<path d="m529.92969,83.8895c-1.64612,1.63998-.94442,5.52318 1.56228,8.67271s5.86956,4.37608 7.51569,2.7362c1.64172-1.63973.59577-5.51892-1.91093-8.67063s-5.52532-4.3792-7.16704-2.73828z" fill="#f0a187"/>
<path d="m529.97764,83.92817c-1.62847,1.6245-.9356,5.46772 1.54462,8.58363s5.80778,4.32705 7.43625,2.70259 .59579-5.46356-1.88444-8.58076-5.46795-4.33095-7.09643-2.70546z" fill="#f09f87"/>
<path d="m530.03135,83.9668c-1.61082,1.60908-.93119,5.41229 1.52255,8.4941s5.746,4.27816 7.36123,2.66902c1.61087-1.60863.59137-5.40774-1.85796-8.49148s-5.415-4.28165-7.02582-2.67163z" fill="#ef9e86"/>
<path d="m530.08371,84.00497c-1.59758,1.5936-.92677,5.35682 1.50049,8.40501s5.6842,4.22871 7.28178,2.63545 .59579-5.35241-1.83147-8.40215c-2.42286-3.04774-5.35763-4.23241-6.9508-2.63831z" fill="#ef9c86"/>
<path d="m530.13281,84.04293c-1.57992,1.57818-.91794,5.30092 1.48284,8.315 2.40078,3.01506 5.62242,4.18075 7.20676,2.60233s.59137-5.29706-1.80941-8.31282c-2.39637-3.01344-5.29585-4.18363-6.88019-2.60451z" fill="#ef9c86"/>
<path d="m530.18518,84.08111c-1.56669,1.56324-.91354,5.246 1.46077,8.22596s5.56063,4.13182 7.12732,2.56918 .59137-5.24165-1.77852-8.2234-5.24289-4.13493-6.80957-2.57173z" fill="#ef9b85"/>
<path d="m530.2387,84.11978c-1.55345,1.54728-.90912,5.19003 1.4387,8.13639 2.34342,2.94729 5.49885,4.08235 7.04788,2.53559s.59579-5.18632-1.75203-8.13456c-2.34342-2.94536-5.18552-4.0852-6.73455-2.53742z" fill="#ef9b84"/>
<path d="m530.29125,84.15841c-1.53579,1.5323-.9047,5.13461 1.41664,8.04734s5.43707,4.03345 6.97286,2.50188 .59137-5.13036-1.72556-8.04463-5.13255-4.0369-6.66394-2.5046z" fill="#ef9b84"/>
<path d="m530.34035,84.19752c-1.51814,1.51639-.89588,5.0792 1.39899,7.95782s5.37527,3.98453 6.89342,2.46827 .59136-5.075-1.69909-7.95526-5.07517-3.98816-6.59332-2.47084z" fill="#ef9983"/>
<path d="m530.39271,84.23619c-1.5049,1.50091-.89147,5.02324 1.37251,7.86776 2.26397,2.8455 5.31791,3.93602 6.82281,2.43518s.59137-5.01918-1.6726-7.86592c-2.26398-2.84353-5.01781-3.93892-6.52272-2.43702z" fill="#ef9883"/>
<path d="m530.44624,84.27432c-1.49167,1.48549-.88706,4.96831 1.35043,7.77872s5.25613,3.88714 6.74337,2.40207 .59137-4.96432-1.64612-7.77659c-2.23307-2.81022-4.96044-3.89013-6.44768-2.4042z" fill="#ee9783"/>
<path d="m530.49418,84.31228c-1.47401,1.47006-.87381,4.91241 1.33279,7.6892s5.19433,3.83811 6.66834,2.36846 .58697-4.90895-1.61964-7.68723-4.90748-3.84138-6.38149-2.37043z" fill="#ee9783"/>
<path d="m530.54789,84.35051c-1.45636,1.45458-.8694,4.85743 1.31072,7.60011s5.13255,3.78918 6.58891,2.33484 .59137-4.85358-1.59316-7.5979-4.85012-3.79214-6.30647-2.33705z" fill="#ee9682"/>
<path d="m530.60026,84.38913c-1.44312,1.43911-.86499,4.80103 1.28865,7.51009s5.07077,3.74034 6.51389,2.30172 .58696-4.79772-1.56669-7.50852-4.79273-3.7429-6.23585-2.30329z" fill="#ed9482"/>
<path d="m530.65376,84.4278c-1.42987,1.42414-.86057,4.74605 1.2666,7.42101 2.12716,2.67594 5.00898,3.69131 6.43445,2.2681s.58695-4.74234-1.54022-7.41913c-2.12716-2.67406-4.73535-3.69416-6.16083-2.26997z" fill="#ed9482"/>
<path d="m530.70173,84.46643c-1.41223,1.40821-.85175,4.69013 1.24893,7.33148s4.9472,3.64289 6.35943,2.23497 .58695-4.68747-1.51373-7.32979-4.68242-3.64537-6.09463-2.23665z" fill="#ee9482"/>
<path d="m530.75523,84.50454c-1.39898,1.3928-.84733,4.63522 1.22688,7.24245s4.88541,3.59343 6.27998,2.20137c1.39899-1.39211.58696-4.63161-1.48725-7.24042s-4.62504-3.59613-6.01961-2.20339z" fill="#ee9282"/>
<path d="m530.8078,84.54256c-1.38134,1.37732-.84293,4.57926 1.2048,7.15287 2.04331,2.57361 4.82362,3.54451 6.20496,2.16775s.58254-4.57575-1.46078-7.15109c-2.04772-2.57218-4.57207-3.54735-5.94898-2.16953z" fill="#ed9182"/>
<path d="m530.85574,84.58123c-1.36368,1.3619-.8341,4.52433 1.18715,7.06334s4.75743,3.49605 6.12553,2.13462 .58695-4.52037-1.43429-7.0617-4.5103-3.49865-5.87839-2.13626z" fill="#ed9181"/>
<path d="m530.90926,84.61986c-1.35044,1.34647-.82968,4.46792 1.16509,6.97381s4.69565,3.44717 6.0505,2.10101 .58254-4.46502-1.40782-6.97188c-1.99476-2.5046-4.45733-3.44986-5.80777-2.10294z" fill="#ed9081"/>
<path d="m530.96277,84.65853c-1.3372,1.3305-.82527,4.41246 1.13861,6.88423 1.96829,2.47228 4.63827,3.39817 5.97547,2.06789s.58254-4.40965-1.38134-6.88349-4.39995-3.40013-5.73274-2.06863z" fill="#ed8e81"/>
<path d="m531.01072,84.69599c-1.31954,1.31553-.81644,4.35755 1.12096,6.7952s4.57649,3.34926 5.89604,2.03427 .58695-4.35428-1.35485-6.79361c-1.93299-2.43653-4.34259-3.35188-5.66215-2.03586z" fill="#ed8d80"/>
<path d="m531.06329,84.73462c-1.3019,1.3001-.81203,4.30162 1.09888,6.70517 1.91092,2.40504 4.51471,3.30081 5.82101,2.00115 1.3019-1.29916.58255-4.29891-1.32837-6.70429-1.91092-2.40271-4.28522-3.30258-5.59152-2.00203z" fill="#ed8d80"/>
<path d="m531.11679,84.77284c-1.28865,1.28463-.80761,4.24616 1.07683,6.6161s4.45291,3.25137 5.74158,1.96753 .58254-4.24305-1.3019-6.61491-4.22785-3.2534-5.51651-1.96872z" fill="#ed8c7f"/>
<path d="m531.16916,84.81196c-1.27541,1.2692-.8032,4.19074 1.05476,6.52657s4.39114,3.20243 5.66655,1.93391c1.271-1.26801.58255-4.18768-1.27541-6.52508-1.85355-2.33464-4.17489-3.2051-5.4459-1.93539z" fill="#ed8a7f"/>
<path d="m531.21826,84.85014c-1.25776,1.25373-.79437,4.13527 1.03711,6.43749s4.32935,3.15399 5.58711,1.9008 .58254-4.13281-1.24894-6.43621-4.11751-3.15586-5.37528-1.90207z" fill="#ed8a7e"/>
<path d="m531.27063,84.8881c-1.24452,1.23781-.78996,4.07937 1.01504,6.34797s4.26756,3.10454 5.51208,1.86718 .57814-4.07744-1.22244-6.34683-4.06456-3.10712-5.30468-1.86831z" fill="#eb897d"/>
<path d="m531.32433,84.92623c-1.22687,1.22289-.78555,4.02444.99297,6.25843 1.77411,2.23497 4.20578,3.0561 5.43266,1.83405s.58254-4.02157-1.19599-6.25749c-1.7741-2.2328-4.00276-3.05783-5.22964-1.83499z" fill="#eb877c"/>
<path d="m531.37228,84.9649c-1.20921,1.20691-.77672,3.96848.97533,6.16885s4.144,3.00716 5.35763,1.80043 .57812-3.9657-1.16951-6.16811-3.94982-3.0086-5.16345-1.80118z" fill="#eb877c"/>
<path d="m531.4258,85.00352c-1.19598,1.19194-.77231,3.91307.95325,6.07983 1.72115,2.16676 4.08221,2.95822 5.27819,1.76682s.57813-3.91036-1.14302-6.0783-3.89245-2.96029-5.08842-1.76835z" fill="#eb867b"/>
<path d="m531.47817,85.04219c-1.18274,1.17651-.7679,3.85765.92677,5.9903s4.02484,2.90879 5.20758,1.7337 .57813-3.85497-1.11654-5.9894-3.83949-2.91111-5.01781-1.7346z" fill="#ea847b"/>
<path d="m531.52726,85.0802c-1.16508,1.16055-.75906,3.80168.90913,5.90072s3.96306,2.86033 5.12814,1.70008 .57812-3.79961-1.09007-5.90001c-1.66377-2.09716-3.77769-2.86237-4.9472-1.70078z" fill="#ea837b"/>
<path d="m531.57964,85.11833c-1.15185,1.14562-.75466,3.74676.88705,5.81168s3.90127,2.81139 5.05312,1.66647 .57371-3.74425-1.06358-5.8107c-1.64172-2.06284-3.72474-2.81307-4.87659-1.66746z" fill="#ea837b"/>
<path d="m531.63334,85.15745c-1.13419,1.1297-.74583,3.69086.86499,5.72166 1.61523,2.0313 3.83949,2.76245 4.97368,1.63335s.57812-3.68888-1.03711-5.72082c-1.61081-2.02957-3.66736-2.76483-4.80156-1.63419z" fill="#ea8179"/>
<path d="m531.6857,85.19562c-1.12095,1.11472-.74141,3.63539.84293,5.63258s3.7777,2.71352 4.89865,1.59973 .57372-3.63301-1.01062-5.63194c-1.58435-1.99482-3.61442-2.71509-4.73096-1.60037z" fill="#ea8078"/>
<path d="m531.73481,85.23425c-1.1033,1.0988-.73259,3.57947.82527,5.54305s3.71591,2.66458 4.81921,1.56662 .57373-3.57814-.98414-5.54261-3.55704-2.6663-4.66034-1.56706z" fill="#ea8078"/>
<path d="m531.78717,85.27221c-1.09006,1.08333-.72818,3.52406.80321,5.45303s3.65413,2.61612 4.73977,1.53349 .57814-3.52228-.95325-5.45323-3.49967-2.61756-4.58973-1.53329z" fill="#ea7e77"/>
<path d="m531.84068,85.31044c-1.07682,1.06786-.72376,3.46859.78114,5.36394s3.59234,2.56718 4.66475,1.49987 .57372-3.46691-.93118-5.36384c-1.50491-1.89343-3.4423-2.56837-4.51471-1.49997z" fill="#ea7d78"/>
<path d="m531.88883,85.34856c-1.05476,1.05292-.71494,3.41367.76348,5.27491 1.47401,1.86174 3.52615,2.51825 4.58532,1.46626s.57371-3.41154-.9003-5.27402c-1.47842-1.86011-3.38933-2.51958-4.4485-1.46715z" fill="#e97c77"/>
<path d="m531.94235,85.38768c-1.04152,1.0375-.71053,3.35775.74142,5.18538s3.46436,2.46931 4.51029,1.43265c1.04151-1.03617.57371-3.35568-.87823-5.18464s-3.33196-2.47084-4.37348-1.43338z" fill="#e97c77"/>
<path d="m531.99471,85.4252c-1.02828,1.02203-.70612,3.30229.71494,5.0963 1.42546,1.79402 3.40699,2.41987 4.43527,1.39952s.57371-3.3008-.84734-5.09581c-1.42547-1.79154-3.2746-2.42204-4.30287-1.40001z" fill="#e97a76"/>
<path d="m532.04823,85.46382c-1.01504,1.00611-.7017,3.24687.69287,5.00629 1.39899,1.76039 3.34521,2.37142 4.36025,1.36639 1.01061-1.00552.56929-3.24544-.82528-5.00643s-3.21722-2.3728-4.22784-1.36624z" fill="#e97a76"/>
<path d="m532.09617,85.50199c-.99738.99108-.69287,3.19141.67523,4.9172s3.28342,2.32296 4.2808,1.33278 .57371-3.18958-.79879-4.91706c-1.36368-1.72351-3.15985-2.32356-4.15724-1.33292z" fill="#e87975"/>
<path d="m532.14988,85.54111c-.97973.97517-.68846,3.13549.65316,4.82768s3.22164,2.27353 4.20578,1.29916 .56931-3.13421-.77231-4.82772-3.1069-2.27477-4.08663-1.29911z" fill="#e87975"/>
<path d="m532.20224,85.57978c-.96649.95974-.68405,3.08007.63109,4.73815s3.15985,2.22459 4.12634,1.26555 .56931-3.07836-.74583-4.73785c-1.31072-1.65589-3.04952-2.22608-4.0116-1.26584z" fill="#e87875"/>
<path d="m532.25135,85.61796c-.94884.94427-.67522,3.02461.61344,4.64857s3.09806,2.17615 4.05131,1.23243 .56931-3.02298-.71934-4.64852c-1.28867-1.62208-2.99215-2.17679-3.94541-1.23248z" fill="#e87775"/>
<path d="m532.30371,85.65592c-.9356.92884-.67081,2.9687.59137,4.55904s3.03628,2.12721 3.97188,1.1993 .56931-2.96811-.69287-4.55963-2.93479-2.12805-3.87038-1.19871z" fill="#e87673"/>
<path d="m532.35723,85.69455c-.92236.91342-.66639,2.91278.56931,4.46951 1.23127,1.55672 2.97449,2.07827 3.89243,1.16568s.56931-2.91224-.66197-4.4698c-1.23129-1.5545-2.88183-2.07926-3.79977-1.1654z" fill="#e87673"/>
<path d="m532.40537,85.73272c-.90029.89795-.65756,2.85781.55166,4.38043 1.2048,1.52262 2.91271,2.02932 3.81741,1.13207s.56931-2.85688-.63991-4.38092c-1.20481-1.51975-2.82445-2.02953-3.72916-1.13158z" fill="#e87573"/>
<path d="m532.45773,85.77184c-.88705.88248-.65315,2.80191.52518,4.2909s2.85533,1.98038 3.74239,1.09846 .5693-2.80126-.60902-4.29106-2.76708-1.98127-3.65855-1.0983z" fill="#e87473"/>
<path d="m532.51125,85.81046c-.87381.86705-.64874,2.74699.50311,4.20187s2.79356,1.93095 3.66737,1.06484 .56489-2.7457-.58696-4.20172c-1.15185-1.45217-2.7097-1.93248-3.58352-1.06499z" fill="#e87472"/>
<path d="m532.56477,85.84753c-.86058.85157-.64433,2.69152.48104,4.11229s2.73177,1.88251 3.58792,1.03222 .56931-2.69058-.55605-4.11284-2.65675-1.88329-3.51291-1.03166z" fill="#e87472"/>
<path d="m532.61272,85.88616c-.84292.83616-.6355,2.63609.46339,4.02276s2.66998,1.83406 3.5129.9986 .56489-2.63501-.53399-4.02301c-1.09447-1.38454-2.59938-1.8345-3.4423-.99835z" fill="#e87272"/>
<path d="m532.66527,85.92483c-.82527.82068-.62668,2.58014.44132,3.93368s2.6082,1.78462 3.43347.96498 .56489-2.57944-.50311-3.93363-2.54642-1.78576-3.37168-.96503z" fill="#e87171"/>
<path d="m532.71879,85.96345c-.81203.80526-.62668,2.52472.41926,3.84415 1.0415,1.31894 2.54641,1.73568 3.35844.93137s.56489-2.52388-.48104-3.84426c-1.04151-1.31652-2.48463-1.73652-3.29666-.93127z" fill="#e86f70"/>
<path d="m532.77115,86.00207c-.79879.78983-.62226,2.4688.39719,3.75462s2.48463,1.68674 3.27901.89775c.79879-.78899.56489-2.46832-.45456-3.75492-1.01062-1.28271-2.42726-1.68724-3.22164-.89746z" fill="#e86f70"/>
<path d="m532.82026,86.04074c-.78114.77436-.60902,2.41383.37954,3.66504s2.42284,1.6383 3.20398.86463 .56048-2.41275-.42809-3.66554-2.37429-1.63849-3.15543-.86414z" fill="#e86e70"/>
<path d="m532.87262,86.07941c-.7679.75888-.60461,2.35792.35747,3.57552s2.36106,1.58885 3.12454.83151c.7679-.75785.5649-2.35768-.4016-3.57666-.95766-1.21419-2.31692-1.5893-3.08041-.83037z" fill="#e76d6f"/>
<path d="m532.92632,86.11688c-.75024.74297-.60019,2.30251.33541,3.486 .93118,1.18348 2.29486,1.54041 3.04952.79788s.56048-2.30211-.37512-3.48683-2.25956-1.54051-3.00981-.79705z" fill="#e76c6f"/>
<path d="m532.97428,86.15555c-.73259.72799-.59137,2.24655.31775,3.39642 .90471,1.14987 2.2375,1.49195 2.97009.76476 .737-.7267.56047-2.24654-.34864-3.39745-.90471-1.14661-2.2022-1.49177-2.9392-.76373z" fill="#e76c6f"/>
<path d="m533.02779,86.19467c-.71935.71207-.58695,2.19112.29127,3.30689s2.17572,1.44252 2.89506.73114 .56489-2.19097-.31774-3.30812c-.87823-1.11274-2.14924-1.44297-2.86859-.72991z" fill="#e76a6f"/>
<path d="m533.08015,86.23279c-.70611.69714-.58254,2.13625.26921,3.21786 .85615,1.08164 2.11392,1.39358 2.82003.69753 .7017-.69557.56048-2.13542-.29568-3.21825-.85175-1.07947-2.09186-1.39423-2.79356-.69714z" fill="#e7696d"/>
<path d="m533.12926,86.27151c-.68846.68117-.57372,2.08024.25155,3.12828s2.05214,1.34464 2.7406.66441 .56048-2.08084-.2648-3.12986c-.82526-1.04472-2.03889-1.34454-2.72735-.66283z" fill="#e6676d"/>
<path d="m533.18182,86.30899c-.67081.66624-.56931,2.02522.22948,3.03924s1.99036,1.29571 2.66557.6308c.67081-.66541.56048-2.02479-.24272-3.04004-.79878-1.0114-1.97711-1.29625-2.65233-.63001z" fill="#e7666d"/>
<path d="m533.23533,86.34716c-.65757.65122-.56489,1.96965.20742,2.94967s1.92856,1.24726 2.58614.59768 .56047-1.96922-.21184-2.95066-1.92416-1.24701-2.58172-.59669z" fill="#e7666d"/>
<path d="m533.2877,86.38578c-.64433.63529-.56048,1.91414.18535,2.86014s1.86679,1.19831 2.51112.56406 .55605-1.91365-.18977-2.86132c-.74142-.94283-1.86679-1.19772-2.5067-.56287z" fill="#e6656c"/>
<path d="m569.06623,101.81277c-.0397,3.16189-4.11752,5.65542-9.10448,5.57385-4.9825-.0801-8.9941-2.7056-8.95438-5.86503s4.4441-5.22335 9.43102-5.14277 8.66755,2.27502 8.62784,5.43395z" fill="#f4b891"/>
<path d="m569.008,101.79394c-.0441,3.13866-4.08656,5.61439-9.02938,5.53331-4.9472-.0791-8.92349-2.68483-8.88377-5.82152s4.40879-5.18677 9.35158-5.10668c4.94724.08009 8.60128,2.2592 8.56157,5.39489z" fill="#f4b791"/>
<path d="m568.94666,101.77511c-.0397,3.11542-4.04698,5.57335-8.95444,5.49278-4.90307-.0781-8.84847-2.66508-8.80875-5.77851s4.36907-5.1497 9.27214-5.07011c4.90745.0791 8.53075,2.24388 8.49105,5.35584z" fill="#f4b791"/>
<path d="m568.88957,101.75743c-.0441,3.09218-4.02039,5.53134-8.88376,5.45175s-8.77344-2.64481-8.73813-5.73502 4.33818-5.11261 9.20152-5.03451 8.4557,2.22855 8.42037,5.31778z" fill="#f4b690"/>
<path d="m568.82707,101.73859c-.0398,3.06946-3.9808,5.49031-8.8044,5.4117s-8.70283-2.62502-8.66752-5.69199 4.29846-5.07604 9.12208-4.99842 8.38954,2.21273 8.34984,5.27871z" fill="#f4b590"/>
<path d="m568.76561,101.72026c-.0397,3.04572-3.94546,5.44878-8.72933,5.37067s-8.62781-2.60475-8.5925-5.6485 4.25874-5.03945 9.04265-4.96233 8.31889,2.19741 8.27918,5.24016z" fill="#f4b490"/>
<path d="m568.70864,101.70143c-.0398,3.02249-3.91462,5.40775-8.65877,5.33013s-8.55278-2.58448-8.51747-5.60548 4.22343-5.00238 8.96321-4.92576 8.25273,2.18159 8.21303,5.20111z" fill="#f3b490"/>
<path d="m568.64695,101.6826c-.0353,2.99925-3.87917,5.36572-8.58367,5.2891-4.70005-.0742-8.48217-2.56421-8.44245-5.56198s4.18372-4.9653 8.88819-4.88967 8.17763,2.16577 8.13793,5.16255z" fill="#f3b38f"/>
<path d="m568.58882,101.66377c-.0397,2.97651-3.84832,5.32469-8.50868,5.24906-4.66034-.0742-8.41156-2.54445-8.37625-5.51898s4.15282-4.92872 8.81316-4.85407c4.66035.07514 8.10711,2.15044 8.07177,5.12399z" fill="#f3b28e"/>
<path d="m568.52737,101.64543c-.0353,2.95278-3.81299,5.28317-8.43362,5.20754-4.62063-.0727-8.33654-2.52369-8.30123-5.47498s4.1131-4.89214 8.73373-4.81799 8.04083,2.13512 8.00112,5.08543z" fill="#f2b18f"/>
<path d="m568.47039,101.62725c-.0397,2.92955-3.78214,5.24214-8.36305,5.16749s-8.26151-2.5044-8.2262-5.43197 4.0778-4.85505 8.65429-4.78238 7.9703,2.1198 7.93496,5.04686z" fill="#f2b18d"/>
<path d="m568.40778,101.60892c-.0353,2.90631-3.74681,5.20061-8.28358,5.12695s-8.1909-2.48462-8.15559-5.38945 4.03808-4.81799 8.57485-4.74581 7.89965,2.10397 7.86432,5.00831z" fill="#f3b08e"/>
<path d="m568.3508,101.59009c-.0397,2.88356-3.71596,5.15909-8.213,5.08642s-8.11588-2.46387-8.08057-5.34596 3.99836-4.7814 8.49982-4.70972 7.82897,2.08865 7.79375,4.96926z" fill="#f3af8e"/>
<path d="m568.28935,101.57126c-.0353,2.86082-3.68063,5.11806-8.13795,5.04588s-8.04085-2.44409-8.00996-5.30295c.0397-2.85787 3.96747-4.74432 8.42481-4.67313s7.75843,2.07283 7.7231,4.9302z" fill="#f3ae8e"/>
<path d="m568.23122,101.55292c-.0397,2.83711-3.64978,5.07652-8.06737,5.00484-4.4132-.0692-7.96583-2.42382-7.93494-5.25943 .0397-2.83512 3.92775-4.70774 8.34537-4.63705s7.69216,2.05701 7.65694,4.89164z" fill="#f3ae8d"/>
<path d="m568.16953,101.53475c-.0352,2.81436-3.61433,5.03499-7.98786,4.9648-4.37789-.0687-7.89963-2.40405-7.86432-5.21643s3.89244-4.67067 8.26592-4.60146c4.37787.0702 7.6216,2.04217 7.58626,4.85309z" fill="#f2ac8d"/>
<path d="m568.10818,101.5164c-.0353,2.79064-3.57911,4.99348-7.91291,4.92378s-7.82461-2.38378-7.7893-5.17292 3.85272-4.63409 8.18648-4.56537c4.33819.06921 7.55095,2.02636 7.51573,4.81451z" fill="#f2ac8c"/>
<path d="m568.0511,101.49757c-.0352,2.7679-3.54377,4.95245-7.84223,4.88324-4.29405-.0672-7.74958-2.36351-7.71427-5.12992s3.81742-4.597 8.11146-4.52928 7.48038,2.01104 7.44504,4.77595z" fill="#f1ab8c"/>
<path d="m567.98861,101.47825c-.0353,2.74466-3.50856,4.91141-7.76288,4.8427s-7.67897-2.34324-7.64366-5.08642 3.7777-4.55992 8.03203-4.49319 7.40972,1.99521 7.37451,4.73691z" fill="#f1ab8c"/>
<path d="m567.93151,101.45991c-.0353,2.72143-3.47759,4.8694-7.69218,4.80216s-7.60395-2.32346-7.57306-5.0434c.0353-2.71896 3.7424-4.52335 7.95701-4.4571s7.34357,1.97989 7.30823,4.69834z" fill="#f2a98a"/>
<path d="m567.87017,101.44108c-.031,2.69819-3.44238,4.82837-7.61725,4.76163s-7.52892-2.30369-7.49803-4.99991c.0353-2.6962 3.70709-4.48676 7.87757-4.42101s7.27293,1.96407 7.23771,4.65929z" fill="#f2a88b"/>
<path d="m567.81194,101.42275c-.0353,2.67445-3.41142,4.78684-7.54656,4.72059-4.13076-.0643-7.4539-2.28343-7.42301-4.9564 .0353-2.67298 3.66738-4.45018 7.79813-4.38542 4.13523.06624 7.2024,1.94875 7.17144,4.62123z" fill="#f2a88a"/>
<path d="m567.75047,101.40392c-.0308,2.65171-3.37605,4.7458-7.46708,4.68005-4.09545-.0638-7.38329-2.26316-7.3524-4.91339 .0353-2.64975 3.63207-4.41311 7.72311-4.34884 4.09101.06525 7.13171,1.93342 7.09637,4.58218z" fill="#f2a78a"/>
<path d="m567.6935,101.38573c-.0353,2.62898-3.3452,4.70478-7.39652,4.63953-4.05131-.0628-7.30826-2.24289-7.27737-4.86989s3.59235-4.37603 7.64367-4.31275 7.06118,1.9176 7.03022,4.54311z" fill="#f1a689"/>
<path d="m567.63204,101.3674c-.0308,2.60526-3.30986,4.66275-7.32145,4.59898s-7.23324-2.22311-7.20676-4.82688c.0353-2.60327 3.55704-4.33944 7.56864-4.27666s6.99053,1.90179 6.95957,4.50456z" fill="#f0a589"/>
<path d="m567.57368,101.34906c-.0352,2.58202-3.27897,4.62123-7.25084,4.55795s-7.16263-2.20284-7.13174-4.78337c.0353-2.58053 3.52174-4.30286 7.4892-4.24057s6.92434,1.88646 6.89338,4.466z" fill="#f0a48a"/>
<path d="m567.51234,101.32974c-.031,2.55878-3.24373,4.5802-7.17148,4.51741s-7.09202-2.18257-7.06113-4.74036 3.48202-4.2653 7.41418-4.204 6.84928,1.87064 6.81843,4.42695z" fill="#f0a488"/>
<path d="m567.45525,101.31141c-.0352,2.53554-3.21276,4.53817-7.1008,4.47638s-7.01699-2.16232-6.9861-4.69687 3.44672-4.22871 7.33475-4.1684 6.78311,1.85531 6.75215,4.38889z" fill="#f0a388"/>
<path d="m567.39275,101.29258c-.031,2.5123-3.17754,4.49764-7.02585,4.43634s-6.94197-2.14255-6.91108-4.65386 3.407-4.19213 7.25531-4.13232 6.71247,1.83999 6.68162,4.34984z" fill="#f0a288"/>
<path d="m567.3313,101.27374c-.0309,2.48957-3.1422,4.45612-6.94638,4.3958-3.8086-.0583-6.87136-2.12276-6.84047-4.61035s3.37169-4.15555 7.17587-4.09672c3.8086.06031 6.64182,1.82467 6.61098,4.31127z" fill="#f0a187"/>
<path d="m567.27432,101.2554c-.031,2.46634-3.11135,4.41459-6.87581,4.35477-3.76887-.0573-6.79633-2.10249-6.76985-4.56684s3.33638-4.11897 7.10084-4.06063c3.76888.05932 6.57567,1.80884 6.54482,4.2727z" fill="#f0a187"/>
<path d="m567.21171,101.23657c-.0265,2.4431-3.0716,4.37306-6.80075,4.31473-3.72474-.0578-6.72131-2.08271-6.69483-4.52433s3.29666-4.08189 7.02582-4.02405c3.72474.05833 6.5006,1.79303 6.46976,4.23365z" fill="#f09f87"/>
<path d="m567.15473,101.21889c-.031,2.41986-3.04074,4.33203-6.72576,4.2737s-6.6507-2.06244-6.62422-4.48083 3.26136-4.04481 6.94638-3.98796 6.43008,1.7777 6.4036,4.19509z" fill="#ef9e86"/>
<path d="m567.09328,101.20006c-.0265,2.39663-3.00541,4.29051-6.65071,4.23317s-6.57567-2.04219-6.54919-4.43733 3.22164-4.00824 6.86694-3.95237 6.36381,1.76238 6.33296,4.15653z" fill="#ef9c86"/>
<path d="m567.03608,101.18123c-.031,2.3739-2.97452,4.24947-6.5801,4.19262-3.60558-.0549-6.50506-2.02191-6.47417-4.39383s3.18634-3.97164 6.7875-3.91627c3.6056.05636 6.29324,1.74656 6.26677,4.11748z" fill="#ef9c86"/>
<path d="m566.97346,101.16289c-.0265,2.35017-2.93917,4.20795-6.50503,4.15209-3.56146-.0544-6.43004-2.00214-6.40356-4.35131s3.15103-3.93457 6.71249-3.8797c3.56586.05586 6.22707,1.73123 6.1961,4.07892z" fill="#ef9b85"/>
<path d="m566.91649,101.14406c-.031,2.32743-2.90832,4.16643-6.43005,4.11155-3.52616-.0539-6.35943-1.98187-6.33295-4.30781s3.11131-3.89798 6.63746-3.84361c3.52173.05487 6.15201,1.71541 6.12554,4.03987z" fill="#ef9b84"/>
<path d="m566.85504,101.12638c-.0265,2.3037-2.87298,4.1249-6.355,4.07052s-6.2844-1.96209-6.25792-4.2648 3.076-3.86042 6.55802-3.80752 6.08586,1.70008 6.0549,4.0018z" fill="#ef9b84"/>
<path d="m566.79691,101.10755c-.031,2.28095-2.84212,4.08386-6.28442,4.02998s-6.20938-1.94133-6.1829-4.22129 3.03628-3.82384 6.47858-3.77144 6.01521,1.68476 5.98874,3.96275z" fill="#ef9983"/>
<path d="m566.73545,101.08872c-.0265,2.25772-2.80679,4.04283-6.20937,3.98993s-6.13435-1.92204-6.10787-4.17828 3.00098-3.78725 6.39914-3.73584 5.94457,1.66943 5.9181,3.92419z" fill="#ef9883"/>
<path d="m566.67398,101.06989c-.0265,2.23448-2.77144,4.0013-6.12989,3.9489s-6.06374-1.90178-6.04167-4.13478c.0309-2.23251 2.96567-3.75018 6.32853-3.69975s5.87399,1.65362 5.84303,3.88563z" fill="#ee9783"/>
<path d="m566.61702,101.05156c-.0265,2.21074-2.7406,3.95928-6.05932,3.90786s-5.98872-1.88151-5.96665-4.09128c.0265-2.20976 2.92595-3.71359 6.24909-3.66366s5.80335,1.6378 5.77688,3.84708z" fill="#ee9783"/>
<path d="m566.5544,101.03271c-.022,2.18802-2.70525,3.91827-5.98426,3.86735s-5.91369-1.86125-5.89162-4.04827c.0265-2.18604 2.89064-3.67652 6.16965-3.62709s5.7327,1.62247 5.70623,3.80801z" fill="#ee9682"/>
<path d="m566.4972,101.01389c-.0265,2.16527-2.67436,3.87723-5.90923,3.8268-3.2393-.048-5.8475-1.84098-5.82102-4.00476s2.85093-3.63994 6.09021-3.591 5.66651,1.60666 5.64004,3.76896z" fill="#ed9482"/>
<path d="m566.43585,100.99621c-.0221,2.14155-2.63913,3.8357-5.83429,3.78626s-5.77247-1.82169-5.74599-3.96176 2.81562-3.60286 6.01079-3.5554 5.59596,1.59132 5.56949,3.7309z" fill="#ed9482"/>
<path d="m566.37766,100.97738c-.0265,2.11831-2.60379,3.79416-5.76364,3.74572s-5.69745-1.80093-5.67097-3.91825c.0221-2.11683 2.7759-3.56628 5.93576-3.51932s5.52533,1.57551 5.49885,3.69184z" fill="#ee9482"/>
<path d="m566.31623,100.95904c-.0221,2.09508-2.56849,3.75264-5.68862,3.70469s-5.62242-1.78067-5.60035-3.87525c.0265-2.09309 2.74501-3.52919 5.86073-3.48272s5.45472,1.56019 5.42824,3.65328z" fill="#ee9282"/>
<path d="m566.25922,100.93972c-.0265,2.07233-2.5376,3.71161-5.6136,3.66415s-5.55181-1.7604-5.52974-3.83174c.0265-2.07036 2.70529-3.49213 5.78129-3.44664s5.38411,1.54436 5.36205,3.61423z" fill="#ed9182"/>
<path d="m566.19779,100.92088c-.0221,2.0491-2.5023,3.67009-5.53857,3.62412-3.03629-.045-5.47679-1.74112-5.45472-3.78873s2.66557-3.45555 5.70185-3.41056c3.03629.04597 5.31791,1.52855 5.29144,3.57517z" fill="#ed9181"/>
<path d="m566.13963,100.90254c-.0265,2.02587-2.47139,3.62857-5.46796,3.58308-2.99215-.044-5.40176-1.72084-5.37969-3.74522s2.63026-3.41896 5.62241-3.37496c2.99657.04548 5.2473,1.51371 5.22524,3.5371z" fill="#ed9081"/>
<path d="m566.0782,100.88371c-.0221,2.00263-2.43609,3.58754-5.38852,3.54255-2.95684-.0435-5.33115-1.70058-5.30908-3.70172s2.59054-3.38238 5.54739-3.33888c2.95243.04499 5.17227,1.4979 5.15021,3.49805z" fill="#ed8e81"/>
<path d="m566.02119,100.86538c-.0221,1.97939-2.4052,3.54601-5.31791,3.50201s-5.25613-1.68081-5.23848-3.65922c.0265-1.97791 2.55966-3.3453 5.47237-3.30278s5.10608,1.48306 5.08402,3.45999z" fill="#ed8d80"/>
<path d="m565.95842,100.8472c-.0221,1.95616-2.36989,3.50449-5.24288,3.46148s-5.18552-1.66055-5.16345-3.61571c.0221-1.95469 2.51993-3.30823 5.39293-3.2667s5.03546,1.46675 5.0134,3.42093z" fill="#ed8d80"/>
<path d="m565.897,100.82837c-.0221,1.93342-2.33458,3.46345-5.16786,3.42094s-5.11049-1.64028-5.08842-3.57222 2.48463-3.27163 5.3135-3.2306 4.96926,1.45143 4.94278,3.38188z" fill="#ed8c7f"/>
<path d="m565.83999,100.81003c-.0221,1.91019-2.3037,3.42192-5.09284,3.3799s-5.03988-1.61999-5.01781-3.5287 2.44491-3.23505 5.23406-3.19452 4.89865,1.4356 4.87659,3.34332z" fill="#ed8a7f"/>
<path d="m565.77856,100.7907c-.0177,1.88696-2.26839,3.3809-5.01781,3.33987s-4.96486-1.60072-4.94279-3.48619c.0221-1.88498 2.40519-3.19749 5.15903-3.15794s4.82363,1.42028 4.80157,3.30426z" fill="#ed8a7e"/>
<path d="m565.72039,100.77237c-.0221,1.86323-2.2375,3.33937-4.9472,3.29883s-4.88983-1.57995-4.86776-3.44269 2.36988-3.1609 5.07959-3.12234 4.75743,1.40495 4.73537,3.2662z" fill="#eb897d"/>
<path d="m565.65897,100.75403c-.0177,1.83999-2.20219,3.29735-4.87217,3.25781s-4.81481-1.55969-4.79716-3.39919 2.33458-3.12432 5.00457-3.08626 4.68682,1.38914 4.66476,3.22764z" fill="#eb877c"/>
<path d="m565.60196,100.73636c-.0221,1.81724-2.16689,3.25631-4.79715,3.21726s-4.7442-1.53943-4.72655-3.35569 2.29928-3.08773 4.92514-3.05066 4.61621,1.37431 4.59856,3.18909z" fill="#eb877c"/>
<path d="m565.53938,100.71703c-.0177,1.79401-2.13159,3.21529-4.72213,3.17721s-4.66917-1.52014-4.65152-3.31316 2.25956-3.05017 4.85011-3.01408 4.5456,1.35799 4.52354,3.15003z" fill="#eb867b"/>
<path d="m565.48218,100.6987c-.0221,1.77027-2.1007,3.17376-4.65153,3.13618s-4.59855-1.49988-4.57648-3.26966 2.21983-3.01359 4.77067-2.978 4.47498,1.34267 4.45734,3.11148z" fill="#ea847b"/>
<path d="m565.42075,100.67986c-.0177,1.74754-2.06538,3.13272-4.57209,3.09565s-4.52794-1.4796-4.50587-3.22616 2.18453-2.977 4.69123-2.9419 4.40879,1.32684 4.38673,3.07241z" fill="#ea837b"/>
<path d="m565.36258,100.66152c-.0221,1.72431-2.03447,3.09071-4.50146,3.05462-2.46698-.0346-4.45292-1.45933-4.43527-3.18315s2.14923-2.93993 4.61622-2.90532c2.46698.03609 4.33817,1.31152 4.32051,3.03385z" fill="#ea837b"/>
<path d="m565.30116,100.64335c-.0177,1.70107-1.99918,3.04967-4.42645,3.01458-2.42726-.0341-4.37789-1.43956-4.36024-3.14015s2.11392-2.90285 4.53678-2.86973c2.42726.03609 4.27198,1.29571 4.24991,2.9953z" fill="#ea8179"/>
<path d="m565.23973,100.62452c-.0132,1.67784-1.96387,3.00864-4.35141,2.97403-2.38314-.0331-4.30288-1.41928-4.28523-3.09663s2.0742-2.86627 4.46175-2.83364c2.38313.0351 4.19696,1.28038 4.17489,2.95624z" fill="#ea8078"/>
<path d="m565.18273,100.60618c-.0177,1.65461-1.93299,2.96712-4.2764,2.93301-2.34782-.0326-4.23226-1.39903-4.21461-3.05314s2.03448-2.82968 4.38231-2.79805c2.34341.0346 4.12635,1.26555 4.1087,2.91818z" fill="#ea8078"/>
<path d="m565.12015,100.58735c-.0132,1.63187-1.89768,2.92559-4.20138,2.89247s-4.15723-1.37925-4.13958-3.01013 1.99918-2.79261 4.30288-2.76146 4.06014,1.24973 4.03808,2.87912z" fill="#ea7e77"/>
<path d="m565.06313,100.56901c-.0177,1.60814-1.86679,2.88407-4.13076,2.85194s-4.08221-1.35899-4.06897-2.96712c.0177-1.60665 1.96387-2.75603 4.22785-2.72538s3.98953,1.23391 3.97188,2.84056z" fill="#ea7d78"/>
<path d="m565.00171,100.55018c-.0132,1.5854-1.83148,2.84303-4.05132,2.8114s-4.0116-1.33871-3.99836-2.92362c.0177-1.58391 1.92856-2.71944 4.14841-2.68929s3.91892,1.21809 3.90127,2.80151z" fill="#e97c77"/>
<path d="m564.94334,100.53085c-.0176,1.56266-1.80058,2.80151-3.9807,2.77086s-3.94099-1.31893-3.92334-2.8801 1.88885-2.68238 4.07339-2.65321 3.84831,1.20277 3.83065,2.76245z" fill="#e97c77"/>
<path d="m564.88192,100.51252c-.0132,1.53892-1.76527,2.75998-3.90568,2.73032s-3.86596-1.29916-3.84831-2.8376c.0132-1.53694 1.84913-2.64529 3.99395-2.61711s3.7777,1.18695 3.76004,2.72439z" fill="#e97a76"/>
<path d="m564.82492,100.49369c-.0177,1.51569-1.7344,2.71895-3.83508,2.68978s-3.79094-1.2789-3.77329-2.79409c.0132-1.51421 1.81382-2.60871 3.91452-2.58103s3.7115,1.17162 3.69385,2.68534z" fill="#e97a76"/>
<path d="m564.76349,100.47536c-.0132,1.49244-1.69908,2.67742-3.75564,2.64875s-3.72033-1.25864-3.70709-2.75059c.0177-1.49147 1.77853-2.57213 3.83949-2.54494s3.64089,1.1558 3.62324,2.64678z" fill="#e87975"/>
<path d="m564.70532,100.45718c-.0176,1.46971-1.66376,2.63639-3.68502,2.60822s-3.6453-1.23837-3.63206-2.7071c.0177-1.46773 1.74321-2.53505 3.76005-2.50885s3.57028,1.14047 3.55703,2.60772z" fill="#e87975"/>
<path d="m564.64389,100.43884c-.0132,1.44599-1.62846,2.59438-3.60999,2.56718s-3.57028-1.21858-3.55704-2.66358 1.7035-2.49847 3.68503-2.47276 3.49966,1.12466 3.482,2.56916z" fill="#e87875"/>
<path d="m564.58689,100.42001c-.0177,1.42275-1.59758,2.55335-3.53498,2.52714s-3.49967-1.19831-3.48643-2.62107 1.6682-2.46139 3.60559-2.43667c1.9374.0267 3.42905,1.10933 3.41582,2.5306z" fill="#e87775"/>
<path d="m564.52431,100.40118c-.0132,1.39952-1.56228,2.51181-3.45996,2.48611-1.89767-.0242-3.42464-1.17854-3.4114-2.57757s1.62848-2.42432 3.52615-2.40059c1.89768.0262 3.35844,1.09401 3.34521,2.49205z" fill="#e87673"/>
<path d="m564.46289,100.38235c-.009,1.37678-1.52697,2.47078-3.38493,2.44557-1.85795-.0232-3.34962-1.15827-3.34079-2.53407 .0177-1.37529 1.59317-2.38773 3.45112-2.36499 1.85796.02571 3.29225,1.07868 3.2746,2.45349z" fill="#e87673"/>
<path d="m564.40588,100.36401c-.0132,1.35305-1.49609,2.42876-3.31433,2.40455-1.81381-.0227-3.27459-1.13802-3.26576-2.49057s1.55786-2.35115 3.37609-2.3289c1.81383.02521 3.21723,1.06286 3.204,2.41492z" fill="#e87573"/>
<path d="m564.34426,100.34584c-.009,1.32981-1.46078,2.38773-3.23488,2.36449-1.77853-.0227-3.2084-1.11823-3.19516-2.44804s1.51815-2.31358 3.29666-2.29232c1.77411.02422 3.15103,1.04704 3.13338,2.37588z" fill="#e87473"/>
<path d="m564.2861,100.32749c-.0133,1.30708-1.42989,2.34671-3.16428,2.32397s-3.13337-1.09796-3.12013-2.40455 1.48283-2.27749 3.21723-2.25623 3.08041,1.03172 3.06718,2.33681z" fill="#e87472"/>
<path d="m564.22468,100.30866c-.009,1.28384-1.39458,2.30518-3.08925,2.28294s-3.05835-1.0777-3.04511-2.36104 1.44312-2.24042 3.13779-2.22064 3.0098,1.01639 2.99657,2.29874z" fill="#e87472"/>
<path d="m564.16765,100.28983c-.0132,1.26061-1.36368,2.26366-3.01863,2.2424s-2.98332-1.05742-2.97008-2.31754 1.40782-2.20383 3.05835-2.18455 2.9436,1.00057 2.93036,2.25969z" fill="#e87272"/>
<path d="m564.10508,100.2715c-.009,1.23687-1.32837,2.22213-2.9392,2.20185-1.61523-.0193-2.91271-1.03764-2.90388-2.27452s1.37251-2.16725 2.98774-2.14847c1.61081.02126 2.86857.98525 2.85534,2.22114z" fill="#e87171"/>
<path d="m564.04807,100.25333c-.0133,1.21413-1.29749,2.18108-2.86859,2.16131s-2.83769-1.01788-2.82886-2.23151 1.33279-2.12969 2.9083-2.11189c1.57109.02027 2.80238.96943 2.78915,2.18209z" fill="#e86f70"/>
<path d="m563.98665,100.2345c-.009,1.19139-1.25777,2.13956-2.79357,2.12077-1.53137-.0178-2.76266-.99761-2.75383-2.18801s1.29748-2.0931 2.82886-2.07629 2.73177.9541 2.71854,2.14353z" fill="#e86f70"/>
<path d="m563.92847,100.21615c-.0132,1.16767-1.22686,2.09854-2.71853,2.08025s-2.69205-.97734-2.68322-2.1455 1.25776-2.05602 2.74942-2.03971 2.66116.93829 2.65233,2.10496z" fill="#e86e70"/>
<path d="m563.86686,100.19732c-.009,1.14493-1.19156,2.05701-2.64351,2.03972s-2.62144-.95757-2.6082-2.10201 1.22246-2.01943 2.66998-2.00411 2.59497.92346 2.58173,2.0664z" fill="#e76d6f"/>
<path d="m563.80544,100.17948c-.004,1.1212-1.15627,2.01499-2.56849,1.99818s-2.54642-.93729-2.53759-2.05849 1.18715-1.98286 2.59937-1.96803c1.40781.01829 2.51994.90763 2.50671,2.02834z" fill="#e76c6f"/>
<path d="m563.74842,100.16016c-.009,1.09796-1.12536,1.97396-2.49345,1.95764-1.37251-.0148-2.47581-.91702-2.46698-2.01498s1.14743-1.94579 2.51994-1.93195c1.36808.0173 2.44932.89182 2.44049,1.98929z" fill="#e76c6f"/>
<path d="m563.68584,100.14133c-.004,1.07472-1.09005,1.93243-2.41843,1.9176s-2.40078-.89726-2.39195-1.97248c.009-1.07324 1.11212-1.9087 2.4405-1.89535 1.32837.01631 2.38313.876 2.36988,1.95023z" fill="#e76a6f"/>
<path d="m563.62883,100.12299c-.009,1.05149-1.05917,1.8909-2.34782,1.87657s-2.32576-.87699-2.31693-1.92897 1.0724-1.87213 2.36106-1.85927c1.28866.01533 2.31252.86067 2.30369,1.91167z" fill="#e7696d"/>
<path d="m563.56741,100.10481c-.009,1.02875-1.02387,1.84987-2.27281,1.83604s-2.25073-.85672-2.2419-1.88548 1.0371-1.83504 2.28604-1.82317c1.24452.01483 2.23749.84535 2.22867,1.87261z" fill="#e6676d"/>
<path d="m563.50924,100.08647c-.009,1.00502-.99297,1.80835-2.19777,1.79501-1.20922-.0124-2.18012-.83645-2.17571-1.84197 .009-1.00403 1.0018-1.79846 2.21102-1.78759 1.2048.01434 2.17129.82953 2.16246,1.83455z" fill="#e7666d"/>
<path d="m563.44781,100.06764c-.009.9818-.95766,1.76732-2.12274,1.75447s-2.1051-.81667-2.10069-1.79847c.009-.98129.96649-1.76187 2.13158-1.75149s2.10068.8142 2.09185,1.79549z" fill="#e7666d"/>
<path d="m563.3908,100.04881c-.009.95906-.92678,1.72629-2.05214,1.71442s-2.03007-.79689-2.02566-1.75594c.009-.95806.92678-1.72481 2.05214-1.71492s2.03449.79838 2.02566,1.75644z" fill="#e6656c"/>
<path d="m547.98411,96.5268c0,0 .15888-7.83404-3.8439-1.67092 0,0 1.7035,2.37636 3.8439,1.67092z" fill="#f4b891"/>
<path d="m547.89103,96.47198c0,0 .15446-7.50184-3.68061-1.59974 0,0 1.62847,2.27552 3.68061,1.59974z" fill="#f4b38b"/>
<path d="m547.7991,96.41748c0,0 .14564-7.17111-3.51732-1.52953 0,0 1.55786,2.17466 3.51732,1.52953z" fill="#f2af85"/>
<path d="m547.70602,96.362c0,0 .14122-6.8394-3.35403-1.45835 0,0 1.48725,2.07382 3.35403,1.45835z" fill="#f2a97f"/>
<path d="m547.61295,96.30651c0,0 .13239-6.50768-3.19075-1.38815 0,0 1.41223,1.97396 3.19075,1.38815z" fill="#f2a579"/>
<path d="m547.52543,96.25218c0,0 .12356-6.17598-3.03187-1.31696 0,0 1.34162,1.87262 3.03187,1.31696z" fill="#f09e74"/>
<path d="m547.43234,96.1962c0,0 .11474-5.84377-2.86858-1.24627 0,0 1.26659,1.77276 2.86858,1.24627z" fill="#ef9a6e"/>
<path d="m547.33927,96.14121c0,0 .11033-5.51255-2.7053-1.17557 0,0 1.19598,1.67191 2.7053,1.17557z" fill="#ef9469"/>
<path d="m547.24733,96.08737c0,0 .1015-5.18133-2.542-1.10537 0,0 1.12537,1.57205 2.542,1.10537z" fill="#ee8f62"/>
<path d="m547.15426,96.03189c0,0 .0971-4.84962-2.37872-1.03468 0,0 1.05476,1.47119 2.37872,1.03468z" fill="#ec875a"/>
<path d="m548.10728,95.33146c-.37071.02669-.48546-1.39655-1.14302-2.14649-.78556-.67974-1.41223-.02126-1.7035.02966-.1015.05833-.33099-.54082.17653-1.04902 .42808-.52055 1.50931-.71632 2.28162.0262 1.30631,1.67932.57372,3.22468.38837,3.13965z" fill="#26231f"/>
<path d="m529.28933,88.48107c-.0838.0262.45456,2.54988 2.23749,6.21503 1.73439,3.61867 4.84129,8.88548 10.25188,11.31133 11.18309,4.54258 20.76407-1.46032 20.42868-1.42775 .106-.56799-9.08238,4.26439-19.66963-.0963-10.50341-5.03852-12.80269-16.64114-13.24842-16.00229z" fill="#26231f"/>
<path d="m527.14956,88.68513c.18536-.30897.70611-.41002 1.55786-.81989 .84292-.3804 1.52696-.70095 1.76528-.45668 .24714.23897-.28685,1.19698-1.32837,1.66513-1.04593.56505-2.21543-.02966-1.99477-.38856z" fill="#26231f"/>
<path d="m561.73143,103.32212c.34864-.0549.75024.38906 1.30189,1.03172 .56931.62734.94884,1.10538.89147,1.48554-.0441.36236-1.02827.22641-1.72115-.57346-.70611-.79541-.78996-1.9082-.47221-1.9438z" fill="#26231f"/>
<path d="m533.88795,99.53904c.053-.17006 1.4696.71236 2.54201,3.08081 .5693,1.13752 1.09447,2.56719 1.74762,4.03098 .73701,1.47911 1.44312,2.95574 3.06718,1.9616 6.84045-2.28046 12.71007-1.31796 12.61293-.87946-.0221.27288-5.67534-.0722-12.27311,2.12622-.60903.35247-2.19337.62586-2.9083-.29414-.75466-.7445-1.12096-1.60566-1.46078-2.38625-.63991-1.58391-1.06799-3.00568-1.52254-4.1506-.83411-2.34522-1.9021-3.32454-1.80501-3.48916z" fill="#26231f"/>
<path d="m546.32069,107.40472c0,0-5.48561-1.47515-8.9235-4.34291-.76348-.63821 1.30631,6.98869 3.24812,5.50811 2.19336-1.66845 3.71592-1.08116 5.67538-1.1652z" fill="#da013c"/>
<path d="m533.41567,85.51718c-.053.2588.1677.53637.49428.61794 .32216.08305.62667-.06031.67963-.32054s-.1677-.53781-.48987-.61938c-.32657-.08305-.63108.06179-.68404.32197z" fill="#9e2c14"/>
<path d="m531.38539,83.32302c-.053.25924.1677.53633.49428.61844 .32216.08256.63108-.0618.68405-.32108s-.17212-.53731-.49429-.61888c-.32657-.08305-.63108.0613-.68404.32153z" fill="#9e2c14"/>
<path d="m531.23596,86.2512c-.0485.26023.1677.53638.49427.61893s.63109-.06135.68405-.32153-.1677-.53731-.49428-.61943-.63109.06179-.68404.32202z" fill="#9e2c14"/>
<path d="m535.87871,88.61165c-.053.26052.1677.53786.49428.62042s.63108-.06278.68405-.32133-.16771-.53638-.49429-.61948-.63108.06179-.68404.32039z" fill="#9e2c14"/>
<path d="m562.03061,98.10103c-.053.25904.1677.53638.49428.61893s.63108-.0613.68405-.32183-.16771-.53638-.49429-.61893-.63108.06179-.68404.32183z" fill="#9e2c14"/>
<path d="m559.65274,100.26679c-.053.26003.1677.53736.49428.61992s.63108-.0623.68405-.32183-.16771-.53736-.49429-.61893-.63108.0613-.68404.32084z" fill="#9e2c14"/>
<path d="m565.46063,100.3541c-.0486.25904.17211.53588.49427.61893 .32658.0821.63109-.0618.68405-.32182s-.1677-.53638-.49428-.61795-.63109.0603-.68404.32084z" fill="#9e2c14"/>
<path d="m557.71934,97.60184c-.0485.26003.1677.53736.49427.61943 .32217.08256.63109-.06179.68405-.32084s-.17211-.53736-.49428-.61943c-.32657-.08157-.63109.06179-.68404.32084z" fill="#9e2c14"/>
<path d="m534.36542,170.54803c0,0 10.06645,12.00395 8.76898,15.27806l-1.30184,3.27354c0,0 19.81085,45.10691 19.16206,52.74519 0,0-24.35642-3.27307-27.60451,1.45538 0,0-1.94626-8.00302-2.2729-5.09284 0,0-8.76898-6.18337-16.88486-.36278 0,0 .64873-35.28504-3.24812-42.19719s-4.22344-19.64316-.64875-23.28112 19.80641-5.09235 23.38115-3.27312l.64879,1.45488z" fill="#252413"/>
<path d="m549.62611,236.38954c0,0-2.27283,29.46457-5.8431,33.82967s-7.47156-.72764-5.52093-3.27308 3.57028-21.82628 2.27281-28.73835 9.09122-5.4557 9.09122-1.81824z" fill="#252413"/>
<path d="m523.64909,230.9326c0,0 .64875,20.37085-.32658,22.19062s-9.41777,5.09284-7.14498,6.18337 9.7444.72717 11.36839-1.45538 4.86783-20.00604 3.57037-24.00834-5.84314-7.27542-7.4672-2.91027z" fill="#252413"/>
<path d="m542.15805,263.30818c0,0-29.55083.36336-29.87741,4.36516-.32216,4.00082 12.66586,6.54819 20.133,6.18334s13.31465-1.45484 13.64129-4.36511c.32216-2.91026 1.94615-7.63827-3.89688-6.18339z" fill="#252413"/>
<path d="m522.67429,250.94062c.93112-.31441 7.79366-.36434 7.46714,4.36515-.32227,4.72801-27.27806,14.91367-30.1996,12.00338s9.73995-12.00338 22.73246-16.36853z" fill="#252413"/>
<path d="m569.70582,83.86349c-1.20481,1.17696 6.36821,10.9826 1.3549,11.57879-1.42994.17011-3.78663-5.87434-5.23406-6.1295-1.44318-.25551-2.96128,7.8321-3.53503,5.03852-1.16511-5.67223-2.61703-9.43446-2.61703-7.25191s-5.82543,4.70543-4.85011,1.06797c.97094-3.63769.23387-4.62878-.0926-3.53676-.32215,1.09053-1.82265,6.28488-5.01343,4.68218-2.2066-1.10687.52955-5.95962.52955-5.95962s-9.37359,6.60623-7.59507,2.61807 6.15201-6.0235 5.2385-6.19338c-2.26403-.42297-13.85307,2.56927-11.90244.75019s4.26758-1.14036 5.44149-2.87876c1.6726-2.46936-2.81563-.33309-5.08842-1.78823-2.27722-1.45503.1015-4.56648 5.62241-2.38385s-2.72736-11.86501.51634-8.5909c3.2481,3.27367 3.40705,2.36851 5.03104,3.82354s.48984-7.82519 2.76263-3.82354c2.27727,4.00121 1.6462,7.00451 2.29488,8.45958s.28693-8.74778 3.55264-7.73203c-1.04587,6.27939.32664,6.91129.32664,8.73036s1.94614-6.18424 6.16967-6.18424-2.59942,4.72921-1.95063,6.91187 3.57025-4.72924 7.79366-3.27421-8.44245,6.91179-3.89689,6.54775 11.5979,1.78731 11.06835,3.56047c-.45451,1.53226-4.7265.78161-5.92694,1.95765z" fill="#252413"/>
<path d="m555.3362,81.47929c.17218.29062 1.1254,3.77616.77678,4.93827-.34425,1.162 1.64609-.00046 2.42286-2.22709s4.75297.19359 4.32044,4.06734c0,0 .95334-1.64574 1.38575-2.324s2.85102.96887 3.37171,2.8082 0-4.45452 0-4.45452c-2.33459-.48421.51631-2.51713 2.59056-2.61415s-2.41838-3.67962-6.56687-1.93682-1.38574-2.51766.51643-3.87328-3.80423.29014-5.1856,2.51765c-1.38575,2.22702 0-5.32587 0-5.32587 1.72999-2.51765-3.06268,2.97334-3.11125,3.58308-.26035,3.09843-1.29747-3.48609-.69288-5.32589s-2.9392,1.83935-2.33458,3.77618-2.59056-2.90477-2.67883-5.22884-3.02746,1.065-1.55786,3.87323-.42808,1.5492-1.38134.38767 .0883,2.03294.0883,2.03294c1.81383.77484-4.58532,2.32406-5.44589,2.90477s9.50603-1.83929 9.93854-.96789-4.4088,4.16385-4.58092,5.32585 6.39469-3.9702 6.39469-3.9702c.95333.09703-2.93473,5.13232-2.41839,6.29432s3.11126-4.74468 4.23666-4.64811c1.12102.09703-.26035.09703-.0883.38718z" fill="#39372c"/>
<path d="m504.53128,43.72079c0,0-23.11194,4.00601-23.9372,7.08801s-3.30108,13.25246 3.02746,12.63544 18.70752-2.46499 18.70752-2.46499l44.57344,8.62902c0,0-1.65495-11.71104 4.39985-14.17649 0,0-40.99421-14.17649-46.77107-11.71099z" fill="#26231f"/>
<path d="m498.11427,68.2666c0,0-18.43397-3.082-20.63618.92449s-9.62519,16.95002-5.22523,17.56647 22.56025.30799 22.56025.30799l28.33722,4.93148c0,0-2.20223-16.94996 3.57473-19.41546l-28.61079-4.31497z" fill="#26231f"/>
<path d="m466.83891,95.18739c0,0 4.13076,7.70408.82527,9.55342 0,0 19.53723.92445 21.18781-4.00626s1.65047-9.86189 0-9.5539-19.25925,2.15737-22.01308,4.00675z" fill="#26231f"/>
<path d="m488.85154,107.51475c0,0-15.40647-4.62271-17.88227-2.46485s-7.52451,11.4824-6.69924,17.33752 8.6234,3.00271 15.22554,2.69472 32.18991,4.93021 32.18991,4.93021-.55165-15.10105 4.39997-16.94995c4.95599-1.84938-27.23391-5.54765-27.23391-5.54765z" fill="#26231f"/>
<path d="m477.19644,160.98322c0,0-13.91046-1.23046-14.64306,2.46089s-2.19777,9.02302 1.46519,10.25292 13.5441,2.05111 13.5441,2.05111 30.43793,2.31848 31.57207-.183c1.13864-2.50136-1.46965-3.4288-1.48726-18.56-4.76182,0-24.5904,2.3378-30.45104,3.97808z" fill="#26231f"/>
<path d="m464.38508,133.09487c0,0 3.65855,15.99483 0,22.14712 0,0 13.17781,4.10119 16.84083-.41088s6.58884-17.22475 2.19774-20.09548c-4.3956-2.87071-16.11261-2.46089-19.03857-1.64076z" fill="#26231f"/>
<path d="m462.55315,160.16186c.92236-.66787 15.74187-2.4604 16.10821.82064s-1.09892,3.69134-2.19774,3.28152-11.71269-2.87071-11.71269-.40982-1.83148,8.20238.72818,8.61212 13.18225-1.23037 13.18225,1.64033-.73258,4.92181-.73258,4.92181-14.64304-.82017-16.10822-3.28113-5.49443-11.07349.73259-15.58547z" fill="#252413"/>
<path d="m463.28626,134.73465c1.42988.35594 13.9104-2.87071 16.10814,1.22996s1.46527,19.68666-2.93032,19.27635c-4.39111-.41078-14.27671-2.87024-14.64301.41031s.73259,4.51058.73259,4.51058 13.17784,1.64125 16.10816.82063 27.51635-.87749 28.61528-2.51828c1.09444-1.64034 1.33717-24.15222.30892-27.01107-1.02389-2.85836-13.54416-2.87072-23.06345-2.87072s-21.6026-.82063-22.7015.82063-1.83147,4.51049 1.46519,5.33161z" fill="#26231f"/>
<path d="m477.48256,164.03157c0,0 28.35044.18736 29.51992-1.68131s.49871-3.17622-.6664-3.9232c-2.33896-1.49443-27.35303,1.1212-28.51812,2.24141s-1.0018,2.61612-.3354,3.3631z" fill="#26231f"/>
<path d="m477.65108,173.37201c0,0 30.18631-2.2424 31.0204-.93384s1.00179,3.17573 0,3.73683-29.29484,3.46641-30.74237,2.85391-1.27983-5.84377-.27803-5.6569z" fill="#26231f"/>
<path d="m467.66379,104.74121c-.84292.57937-6.32412,11.71076-5.22523,18.49135s.90029,5.61929.90029,5.61929 17.8073,3.00916 18.63253.23629-1.37688-5.54758-1.37688-5.54758-13.75598,2.46534-13.75598,0 .27804-13.2522 2.20218-15.10108c1.92858-1.84939 17.33503,2.46534 17.8823,0s.27807-4.9307.27807-4.9307-14.58125-2.15786-19.53728,1.23243z" fill="#26231f"/>
<path d="m486.09784,103.50895c1.1342,0 34.94372,5.23868 34.11849,7.70403s-.27807,2.77382-3.02747,2.77382-31.36463-3.08181-31.91628-4.93069-.82527-5.54716.82526-5.54716z" fill="#26231f"/>
<path d="m480.59471,123.54021c-1.44753-.35-.27362,4.31424 1.37691,5.54766s28.88886,5.54715 30.26574,3.08131c1.37251-2.46535 1.65058-4.9307.82523-4.9307s-18.26179-.26398-32.46788-3.69827z" fill="#26231f"/>
<path d="m466.56483,91.7976c0,0 22.56028-5.54716 23.93717-1.84889 1.37251,3.69778 1.65057,12.94414-2.20212,13.56013s-23.01929,4.87876-23.84455,3.02941 1.28424-3.02941 3.76005-3.95432 17.88227-.92444 18.70762-3.38978 .55154-6.16412-1.65058-6.16412-18.43396,4.31522-19.53285,3.0823-1.92416-4.31473.82526-4.31473z" fill="#26231f"/>
<path d="m490.50192,89.94872c0,0 30.26133,1.54091 31.08657,7.70452s.55165,13.25171-2.47581,12.94371-31.08657-5.85511-33.01514-7.08812c-1.92416-1.23336 2.4758-2.4658 2.4758-5.23963s.55165-9.86189 1.92858-8.32049z" fill="#26231f"/>
<path d="m494.35008,66.21852c0,0-16.91144-1.45172-20.21252,1.3223s-7.23765,21.70647-5.58712,22.93937 24.70072,1.62503 25.79964-.53185 1.10331-4.62291-1.09892-4.3148-19.53286,3.38978-19.53286.30845 2.47581-13.56044 4.39997-14.79297c1.9286-1.23252 17.6087,1.23253 18.43393-.30848s1.37688-4.31404 1.37688-4.31404-1.1033-.30798-3.579-.30798z" fill="#26231f"/>
<path d="m497.92915,66.52728c0,0 32.46353.92449 33.01519,4.31404l.54727,3.38999-1.92416.61651c0,0-31.6383-3.39003-33.01521-4.00649s0-4.62202 1.37691-4.31404z" fill="#26231f"/>
<path d="m494.35015,85.94274c0,0 30.64975,3.06604 30.32311,5.84727s-1.43431,4.32264-3.35847,4.32264c-1.92854,0-28.33714-4.62271-28.33714-4.62271s-.27803-6.16371 1.3725-5.5472z" fill="#26231f"/>
<path d="m505.08304,41.8717c0,0 2.74939,4.93052 0,5.23851s-20.35814,1.84947-22.28671,4.00699c-1.92416,2.15748-2.74942,10.17005.55165,10.47805s20.35807-5.23901 20.35807-2.7731-2.20212,8.30169-2.20212,8.30169-23.10757,1.25177-23.93283-.90511-1.92857-14.17704-.82527-17.25905 23.10752-8.32049 28.33721-7.08798z" fill="#26231f"/>
<path d="m505.08339,41.87174c0,0 51.99639,6.47201 51.72269,10.78601-.27358,4.3155-2.20211,3.39002-2.20211,3.39002s-48.4217-7.08805-49.52058-8.93752 0-5.23851 0-5.23851z" fill="#26231f"/>
<path d="m503.70609,58.82215c0,0 45.39415,7.39654 45.12057,10.16952l-.27358,2.77406c0,0-1.377,1.54089-3.57912,1.23244s-43.19203-5.85499-44.84258-6.4715 .82528-8.32098 3.57471-7.70452z" fill="#26231f"/>
<path d="m505.03885,48.35528c0,0-3.72033,5.42243-1.11653,9.80117 0,0-21.9689,4.79633-22.71032,2.91925-.74583-1.8765.19418-9.28214 1.58434-9.95851s22.24251-2.76191 22.24251-2.76191z" fill="#fefbde"/>
<path d="m482.84049,133.26691c0,0 4.32934,19.35794-3.12014,25.61451 0,0 24.76247-1.66842 25.87901-2.92019s2.43173-19.50029 1.31519-20.12664-23.51359-3.81889-24.07406-2.56768z" fill="#ab0a15"/>
<path d="m462.22252,130.51998c0,0-.93119,3.12779.74583,3.12779 1.6726,0 13.77357-2.71055 16.01114.41723l.1853-2.29381c0,0-13.77801-3.12778-16.94227-1.25121z" fill="#e20415"/>
<path d="m463.15357,155.33678 .18535,1.45983c0,0 13.40289,2.71104 13.9634,2.08568s.93112-1.87706.37072-1.87706-13.77364-3.54502-14.51947-1.66845z" fill="#e20415"/>
<path d="m478.66131,160.98267c0,0-.8032,2.06985.31775,2.06985s26.62041-.83447 26.62041-1.46032-.93111-1.87657-.93111-1.87657-25.38919.44887-26.00705,1.26704z" fill="#d2650c"/>
<path d="m479.53506,175.56504c0,0-.74583,2.2943.93119,2.08568s27.3663-1.2517 27.5516-2.50291-.74144-1.66796-.74144-1.66796-26.6248.41724-27.74135,2.08519z" fill="#d2650c"/>
<path d="m477.19678,160.98263c0,0 .10588,2.06937-.45463,1.86076s-12.10098-.83398-12.8424,0c-.74583.83446-1.49167,6.88191 0,9.59289l13.95894,2.29431-.1853,2.91973c0,0-13.40293-1.87709-14.33412-2.50297s-3.53497-3.12776-2.79355-9.59292c.34864-3.01112 3.35403-5.00436 3.35403-5.00436l13.29703.43256z" fill="#d2650c"/>
<path d="m466.31753,135.10813c0,0 4.09545,13.3466.55606,18.14284 0,0 11.73034,4.37948 12.84688,2.71106s2.97889-18.14286.37509-20.01943c-2.60821-1.87706-13.77803-.83447-13.77803-.83447z" fill="#fefbde"/>
<path d="m478.04802,165.55463c0,0-.74581,5.00533.93124,7.71637 0,0-13.77803-1.04308-14.15315-2.29429-.37071-1.25122-.74142-5.83883.37512-6.46419s12.84679,1.04211 12.84679,1.04211z" fill="#fefbde"/>
<path d="m479.90583,165.55407c0,0-1.3019,5.83931.56048,7.29914s26.81022-1.04308 26.81022-1.04308-1.67705-6.88142-.3751-8.34125c0,0-25.87466.83398-26.9956,2.08519z" fill="#d9b68b"/>
<path d="m485.86327,112.37781c0,0-3.16426,10.42694-1.67259,11.26092l26.62042,2.2943c0,0-2.41838-9.38435 1.67705-10.84418 0,0-25.87904-3.96176-26.62488-2.71104z" fill="#d9b68b"/>
<path d="m497.77902,72.54635c0,0-2.97891,8.34174-1.86237,13.34661l25.3185,3.54481c0,0-2.04766-12.51173 1.67705-14.80589 0,0-24.01664-3.33689-25.13318-2.08553z" fill="#d9b68b"/>
<path d="m506.71619,49.1896c0,0-2.41844,5.00484-1.48725,8.34174l39.83802,8.3413c0,0-.56052-7.92465 3.53491-10.01023 0,0-41.51498-7.7151-41.88568-6.6728z" fill="#d9b68b"/>
<path d="m485.49341,105.49537c0,0 .37072,3.12827-.56051,2.71104s-15.45061-2.08469-16.75251.41773c-1.3063,2.50194-4.84127,14.80592-1.11653,16.8911s13.58819-.20809 13.58819-.20809 .56051,3.33683-.37061,3.33683-15.07996,0-15.82579-.62577-3.34962-11.47003 2.41844-20.01992c3.26576-4.83578 18.61932-2.50292 18.61932-2.50292z" fill="#009935"/>
<path d="m487.54089,106.12039c0,0-2.16246,1.50877-.61784,2.31853 1.54903.80975 30.77764,5.60598 31.33378,4.98062s.3751-1.87757.3751-1.87757-30.90568-5.83931-31.09104-5.42158z" fill="#009935"/>
<path d="m482.32842,126.14128c0,0-.74583,3.12828 0,3.12828 .74142,0 27.86059,3.1085 28.29749,2.29331s1.48726-2.29331 1.48726-2.29331-28.85356-3.96275-29.78475-3.12828z" fill="#009935"/>
<path d="m484.19122,110.70857c0,0-2.42287,7.29865-1.49163,12.30347 0,0-15.89636,3.14117-15.86105.52805s.41042-12.6229 2.82885-13.45688 13.96343-.20862 14.52383.62536z" fill="#fefbde"/>
<path d="m488.85119,91.18046c0,0 3.84831,7.52556-.11916,11.89274-.13239.1487-.27803.29361-.43249.43494 13.3897,3.02942 30.33192,5.32373 30.88795,5.11517s1.49175-10.21835.56051-11.26144-30.14656-7.14985-30.89681-6.18141z" fill="#21276e"/>
<path d="m465.57176,93.19097c0,0-.18535,1.66796.56048,1.87657 .74142.20862 19.73142-2.2933 19.91673-2.91916s1.12102-2.29431-.74133-1.66845-19.36075,1.66845-19.73588,2.71104z" fill="#21276e"/>
<path d="m465.75709,104.24381c0,0-.37071,1.45934.56048,1.45934s18.712-.84535 19.77997-2.19493 .14122-1.97545.14122-1.97545-18.42954,2.08519-19.92119,2.71104-.56048,0-.56048,0z" fill="#21276e"/>
<path d="m469.11089,96.94478c0,0 2.41844,3.54502 1.11654,5.21346 0,0 16.0111-.62635 17.12764-2.2943s1.48726-5.83882 0-5.83882-17.12764,2.29431-18.24418,2.91966z" fill="#fefbde"/>
<path d="m496.10644,67.95817c0,0 0,2.08508-.93561,2.08508-.92686,0-16.3951-2.53841-17.87792-.43498s-5.57829,16.49278-4.27199,17.9523c1.3019,1.4601 20.84796-.83478 20.84796-.20867s-1.48726,1.87732-1.48726,1.87732-20.85236,1.04219-21.59819-.20855c-.74142-1.25108 2.6082-18.97742 4.84128-20.64536s18.42958-1.25087 20.48173-.41714z" fill="#e20415"/>
<path d="m495.36114,87.35148c0,0-2.57289,2.48092-1.01061,2.59659 1.56668.11519 26.51447,5.32865 27.44571,4.91142s1.16948-2.44607 1.16948-2.44607-26.85874-6.31375-27.60458-5.06194z" fill="#e20415"/>
<path d="m497.92897,68.68369c0,0-.70611,1.35947.78114,1.56804s31.09099,3.96205 31.46171,3.3364c.37509-.62521-.55603-1.87652-.55603-1.87652s-30.42022-4.3874-31.68682-3.02792z" fill="#e20415"/>
<path d="m496.10701,72.54543c0,0-4.24988,9.48356-1.75646,13.39633 0,0-19.6564,1.61916-19.6564-.04972s.3354-13.63725 3.42464-14.74326 17.98822,1.39665 17.98822,1.39665z" fill="#fefbde"/>
<path d="m504.29787,42.72436c0,0 1.30184,3.54543-.56052,3.54543s-21.78358,2.08558-23.27083,4.17068-3.34962,11.88666.74583,13.13798 21.11716-2.59919 21.11716-2.59919l-1.01065,3.22496c0,0-20.85234,1.87697-21.96887,1.25131s-1.86238-13.97232-.93119-15.64028 24.38732-7.71608 25.87907-7.09089z" fill="#fec611"/>
<path d="m506.53067,43.14138c0,0-.93119,2.50217.18535,2.9198s47.84352,9.17598 48.03331,8.34177-.18979-2.0856-.18979-2.0856-48.02887-9.59355-48.02887-9.17596z" fill="#fec611"/>
<path d="m504.4833,61.28433c0,0-2.23309,3.12883-.93119,3.54546s42.4462,7.29851 43.19201,6.88187c.74144-.41714.55603-1.45988.55603-1.45988s-41.70032-9.59261-42.81685-8.96745z" fill="#fec611"/>
<path d="m483.63021,113.21121c-.0397.13793-.48545.0989-1.18274.046-.69728-.0559-1.65053-.10876-2.71411-.0865-2.12276.0391-3.86156.32232-3.92334.0405-.0662-.25806 1.65495-1.00898 3.91009-1.05397 1.12096-.0242 2.1404.15029 2.84652.39549 .71053.24273 1.1033.53044 1.06358.65848z" fill="#26231f"/>
<path d="m483.07032,114.87885c.004.28425-1.33279.49633-2.97008.53341-1.62847.0391-2.95685-.044-2.98333-.32529-.0265-.27486 1.30189-.64859 2.96567-.68814s2.98774.20466 2.98774.48002z" fill="#26231f"/>
<path d="m476.927,140.94642c-.0221.14188-.5693.14683-1.43429.15523l-3.40258.0395c-1.34161.005-2.57731-.0756-3.45995-.26053s-1.4034-.42613-1.38133-.55961c.0221-.14089.5693-.14583 1.43871-.15423l3.40257-.0395c1.3372-.005 2.5729.0756 3.45554.26003 .88705.17797 1.40781.42613 1.38133.55911z" fill="#26231f"/>
<path d="m476.18604,144.90856c-.053.2897-1.82265.0336-3.9454-.32726-2.11834-.37324-3.8439-.43602-3.87479-.71484-.009-.13446.42808-.30897 1.16067-.39696s1.74763-.0702 2.8421.10875c2.19336.37374 3.86597,1.07325 3.81742,1.33031z" fill="#26231f"/>
<path d="m477.85767,139.48732c.004.13594-.61345.2788-1.61524.28573s-2.37871-.1409-3.86597-.42614-2.80679-.59322-3.76446-.80728c-.95766-.21998-1.55786-.36928-1.54903-.51215 .004-.13644.62667-.23976 1.62406-.19972 .99738.0346 2.36547.2363 3.83948.51957 1.47843.28376 2.80239.54379 3.76446.71137s1.5667.28476 1.5667.42862z" fill="#26231f"/>
<path d="m488.2863,168.8915c-.009.2803-1.99036.49435-4.43969.76674s-4.46616.35396-4.49705.0677c-.0309-.26893 1.93299-.8058 4.41321-1.0772 2.48904-.27684 4.52794-.0371 4.52353.24273z" fill="#26231f"/>
<path d="m491.82181,121.96911c-.053.29761-1.90209-.0158-4.12193-.24915-1.10771-.10876-2.10951-.12112-2.83769-.0919-.72818.0242-1.19598.0643-1.23128-.0756-.0353-.12755.38394-.41872 1.14301-.63426 .75025-.2195 1.83589-.32331 3.0054-.20813 1.16508.11173 2.19335.38214 2.91713.63327s1.15183.4904 1.12536.62585z" fill="#26231f"/>
<path d="m531.10339,60.86722c-.0308.13759-1.50487-.16032-3.86593-.72076s-5.60478-1.37738-9.21036-2.11891-6.89787-1.21319-9.28982-1.46037-3.88362-.34709-3.88362-.49628c0-.13036 1.49607-.29256 3.92334-.21915s5.77246.42772 9.4133,1.1784 6.87578,1.68485 9.20162,2.42061 3.74232,1.2832 3.71147,1.41646z" fill="#26231f"/>
<path d="m515.65232,55.23674c-.0618.27713-2.26839-.1009-4.97368-.56194-2.70089-.47502-4.90307-.82359-4.89424-1.10651s2.28162-.37798 5.03105.10426c2.75384.46929 4.89424,1.29867 4.83687,1.56419z" fill="#26231f"/>
<path d="m478.41901,76.92586c-.0177-.13807.87382-.42148 2.339-.7879 1.46519-.35871 3.49967-.80768 5.79453-1.06306s4.41317-.20323 5.92253.10283c1.50936.29449 2.36543.79754 2.32573.91391-.0441.14672-.93561-.09996-2.40515-.20278-1.46516-.11439-3.49969-.06179-5.75484.19503-2.25073.25009-4.28963.58368-5.7813.76135s-2.42284.21915-2.4405.08062z" fill="#26231f"/>
<path d="m487.54106,80.26304c0-.2805.66639-.50741 1.48725-.50741 .82526,0 1.49166.22691 1.49166.50741s-.6664.50642-1.49166.50642c-.82086,0-1.48725-.2274-1.48725-.50642z" fill="#26231f"/>
<path d="m494.24489,82.34727c-.0662.12359-.83847-.25538-2.17576-.50646-1.32831-.2631-3.20834-.42095-5.28254-.34081-2.07863.07529-3.94541.3674-5.26936.69472-1.32838.31811-2.10511.69273-2.16689.56964-.0662-.11489.64433-.74395 1.99035-1.25907 1.34162-.52283 3.27019-.9409 5.41501-1.01862s4.09987.19601 5.46351.65705c1.37251.44992 2.09186,1.09055 2.02568,1.20356z" fill="#26231f"/>
<path d="m477.30247,97.57025c-.053.2976-1.85354-.01038-3.97188.36928-2.11833.36632-3.70709,1.34514-3.84832,1.09055-.0618-.1137.26038-.50918.90912-.95955 .64433-.44986 1.6373-.92641 2.79798-1.13256s2.23307-.10826 2.97009.07465 1.16508.42564 1.14301.55763z" fill="#26231f"/>
<path d="m477.67245,98.61259c0,.29612-1.74322.4464-3.81743.86661-2.07861.40536-3.69826,1.06088-3.813.80184-.053-.12161.29568-.45629.94884-.82558s1.6064-.74993 2.70088-.97289c2.19777-.44294 3.98953-.1315 3.98071.13001z" fill="#26231f"/>
<path d="m502.62089,80.47055c0,.29256-1.76528.47023-3.90127.58556-2.13599.10816-3.85714.31382-3.91892.04059-.0662-.26987 1.66377-.94047 3.87037-1.05293 2.19337-.1178 3.94982.16027 3.94982.42678z" fill="#26231f"/>
<path d="m496.66235,79.42668c-.0794.28243-2.64793-.49049-5.85632-.90472-1.60641-.21-3.06277-.26601-4.12193-.25588s-1.72556.05359-1.75204-.09027c-.0221-.12937.61343-.43014 1.69908-.62373 1.08565-.19745 2.61702-.25489 4.2764-.03767 3.33637.43355 5.83871,1.66701 5.75481,1.91226z" fill="#26231f"/>
<path d="m485.13505,137.33309c0,0 19.86824,0 20.05803,1.71195s-.76354,1.71196-.76354,1.71196-18.72078,1.49838-19.29449.64216-1.53139-3.85201 0-4.06607z" fill="#e20415"/>
<path d="m547.32213,129.34515c0,0-39.7894,26.76432-52.45527,47.49858l3.57028.72775c0,0 29.18014-26.87562 51.5903-34.15055 0,0 5.74163-17.34989-2.70531-14.07578z" fill="#26231f"/>
<path d="m563.58852,111.98162c0,0 4.22342-2.54642 7.47151,0s3.90127,10.86791 3.90127,10.86791-18.27952,23.09175-24.72716,23.35279c-1.74762.0702-3.85713-20.39749-6.12994-20.39749s16.56275-13.45936 19.48432-13.82321z" fill="#252413"/>
<path d="m495.49758,174.66809c0,0-9.88559-4.53175-9.31188-1.53646 .34424,1.78018 2.64793,3.05858 2.74502,4.67264 .053.96005-2.43609.48497-4.34259.96005-1.45636.36286-.20301,1.67537 1.48283,2.36795 1.59317.65353 3.25253.85276 3.08483,1.60019-.16329.74754 1.01063,3.1787 2.34341,2.4323 1.3372-.748 1.14743-.89429 1.81383-.33423s-.45014,1.85429 1.38579,1.29424 1.82265-1.29424 2.32573-1.29424 .44128,1.96904 2.10946,1.03516c.63556-.35645 4.17047-4.03535 2.18462-8.10245-.80325-1.63878-.56937-.79196-1.57116-2.28639s-1.0812-1.92996-4.24989-.80876z" fill="#26231f"/>
<path d="m552.9668,141.77564c0,0 20.91858-19.26702 20.68471-21.60977s-3.25259-8.07083-5.11494-7.8108-22.31314,12.75734-22.31314,12.75734 6.74337,11.97668 5.11491,17.18427l1.62846-.52104z" fill="#bd0179"/>
<path d="m516.24017,173.01884c.67079-.21407 12.83364-3.88613 15.85224-1.54239s8.93229,12.05431 8.00106,13.61695-1.60189,3.5836-1.60189,3.5836 19.95645,45.00563 20.42419,49.17103l-24.39612,1.1879-5.03104-14.9863 .69725,9.89403-14.40909.52046c0,0-.93118-30.72267-1.62847-35.40911s-3.25253-8.33139-3.94981-11.97668c-.69729-3.64494 0-11.71626.93118-12.23681s3.48202-1.30213 5.1105-1.82268z" fill="#532d84"/>
<path d="m546.69107,131.88219c0,0 3.94983,6.24865 1.85798,7.8108s-37.15914,17.26485-50.17368,37.05234l-2.12276-.3416c0,0 6.27557-8.07174 7.90405-9.63346 1.62405-1.56161 31.3779-29.68055 42.53441-34.88808z" fill="#f4b891"/>
<path d="m496.60514,176.16733c0,0-8.15122-4.1066-8.59254-3.2568-.44573.8498 2.78032,2.97354 2.40079,4.24799s-6.00637,1.48652-5.11932,2.12375c.88264.63722 5.11932.84929 5.05312,1.98236-.0618,1.13256-.18977,2.33588.6355,2.05305 .82086-.28327 2.78032-.84929 2.97008.35396s.0618,1.13253 1.2004.49583 2.40081-.7089 2.46262-.3545c.0662.3545.88704.14145 1.39012-.42509 .50745-.56604 1.39898-1.92502.66191-4.37603-.37061-1.23687-.79427-1.84147-.80751-2.26612s-1.30633-1.21562-2.25517-.5784z" fill="#f4b891"/>
<path d="m547.77665,241.41157c0,0-3.44676,20.19588-3.44676,22.57271s-.79438,3.56438-.79438,3.56438-18.55747,2.67239-16.43913.29706 13.78688-2.07931 13.78688-2.07931 .79438-23.16641 2.1227-23.76062c1.32393-.59422 5.03552-2.07926 4.77069-.59422z" fill="#f4b891"/>
<path d="m530.54357,237.25434-3.18192,14.25617c0,0-12.4585,7.7223-13.78687,6.53394-1.32396-1.18743 12.1981-7.42478 12.1981-7.42478s-1.32843-13.06823 0-13.95905c1.32394-.89132 4.77069.59372 4.77069.59372z" fill="#f4b891"/>
<path d="m516.81387,187.80582c-.35747-.63772 4.68682,3.81691 6.17407,3.81691s6.81396,30.05375 6.81396,30.05375l-7.44946-27.43021c0,0-2.98333-1.9087-5.53857-6.44045z" fill="#252413"/>
<path d="m515.53794,198.30125c0,2.14649 1.48725,34.34725 1.48725,34.34725s3.4114-1.66946 8.94557-.23825c0,0-5.1105-3.10112-6.81399-2.62405s-3.61883-31.48495-3.61883-31.48495z" fill="#7d5399"/>
<path d="m526.39486,195.43884 9.36923,40.07196c0,0 6.81394-4.05422 11.07269-4.53175 0,0-5.53412-1.19296-8.08934.23824s-12.35258-35.77845-12.35258-35.77845z" fill="#7d5399"/>
<path d="m568.98222,114.30658c0,0-17.88671,8.1094-18.95029,10.49516 0,0 4.25874,7.1563 3.83066,11.21052 0,0 3.40699-7.87169 1.91974-10.25646 1.91533-2.38522 15.967-11.92627 13.19989-11.44922z" fill="#d60078"/>
<path d="m529.89858,172.8802c-.63993,0-16.82319,1.9087-18.31043,4.77101-1.39899,2.68584-1.67261,8.73275-.64433,11.63614 .0662.19036.1368.36681.21624.5284 1.27984,2.62359-1.06358-10.01805 3.40699-11.68797s15.33153-5.24758 15.33153-5.24758z" fill="#7d5399"/>
<path d="m524.43064,117.40783c.8783,0 16.87168,7.90374 13.46475,10.05072s-16.61134-4.77101-15.97142-2.86231 13.33229,8.34862 11.50078,8.34862c-2.77149,0-10.64903-3.81586-10.64903-3.10101 0,.71532 6.01956,6.43992 5.11042,7.15581s-5.32227-4.77012-12.98799-6.20178c-2.55525-.4765 6.81398.95413 5.96223.47706s-4.04691-3.81639-4.04691-3.81639 4.89866-.47704 6.60215.95411-5.11048-5.96291-5.11048-5.96291 13.57503,3.88465 16.60687,3.33937c1.28423-.23087-12.39667-8.38129-10.48137-8.38129z" fill="#dbd800"/>
<path d="m522.92129,119.13541c0,0 0,3.00518 1.95063,2.18554s-1.95063-2.18554-1.95063-2.18554z" fill="#6fb419"/>
<path d="m529.75253,128.425c2.8068-1.3481 1.70792-4.37158-.48985-3.82532-2.19337.54676-1.21805,4.64447.48985,3.82532z" fill="#6fb419"/>
<path d="m522.18827,132.52327c0,0-4.63387,1.09252-1.95065,1.91217s1.95065-1.91217 1.95065-1.91217z" fill="#6fb419"/>
<path d="m546.22343,125.11242 2.59497-1.10043c0,0 5.92692,12.25452 5.16344,17.36071l-2.6435.92398c0,0-2.54202-14.04164-5.11491-17.18426z" fill="#6fb419"/>
<path d="m571.608,118.56549c0,0 .30454,2.55286-.30454,3.23357-.6046.68073-16.10376,15.99878-16.10376,15.99878s8.65871-10.72301 10.3313-12.93526 3.4953-7.31842 3.4953-7.31842 2.12707-.68073 2.5817,1.02133z" fill="#930c7a"/>
<path d="m510.06517,170.50547 .36188.95163c0,0 16.5274-4.7201 23.26645-3.2054l-.0265-1.62889c0,0-12.54678-.36978-23.60186,3.88266z" fill="#6fb419"/>
<path d="m534.51942,239.0357c0,0 18.12943-2.71302 24.56394-.12507l-.16332-2.58795c0,0-21.89392-.12062-24.40062,2.71302z" fill="#d6daed"/>
<path d="m515.77618,234.46453c0,0 11.62-1.46873 14.92104.01s.41929-.63178.41929-.63178l-.7503-.84683c0,0-11.84943-.20516-14.59003,1.46873z" fill="#d6daed"/>
<path d="m511.12923,174.84148c0,0 14.60774-4.79722 20.96272-3.36507l1.24452,1.43214c0,0-15.01814-1.47861-22.93983,4.25244l.73259-2.31951z" fill="#d6daed"/>
<path d="m526.18308,177.65895c0,0-3.45562,1.48949-6.91551,4.17236s-6.12112,8.64382-6.12112,8.64382-3.45995-11.92189 13.03663-12.81618z" fill="#7d5399"/>
<path d="m530.91809,174.46046c0,0 8.63664,7.5567 7.82461,9.97509s-1.88886,4.23213-1.88886,4.23213 18.88853,42.31781 19.96973,47.45658c0,0-15.6492-1.81321-20.77734.90717 0,0 9.71348-5.1383 14.57245-4.83629 4.85448.30212-15.65369-40.80696-16.99971-42.31873s1.07682-3.92961 1.34602-5.44086-4.0469-9.97509-4.0469-9.97509z" fill="#372569"/>
<path d="m544.67,270.62596c0,0-23.84893,2.88901-29.65229-1.92502 0,0 6.01519-4.09227 16.54515-3.61077 0,0-12.24669,2.40751-9.66938,3.61077s19.55489,2.16528 22.77652,1.92502z" fill="#372569"/>
<path d="m528.553,255.46437c0,0-25.78195,13.23731-27.28685,10.34882 0,0 7.30826-8.66455 11.81854-9.86781 0,0-8.16441,6.73904-5.5871,6.73904s21.05541-7.22005 21.05541-7.22005z" fill="#372569"/>
<path d="m559.91745,79.34862c0,0 2.42284-5.32543 7.34798-6.29382 0,0-6.0505,3.77667-5.79012,5.90664s-1.12537,1.065-1.55786.38718z" fill="#777457"/>
<path d="m560.43777,81.38264c0,0 6.74337-3.09792 12.96594-.19309 0,0-8.29676-1.25907-12.53345.96795 0,0-1.46959-.29064-.43249-.77485z" fill="#777457"/>
<path d="m555.42504,66.85737c.18536-.32731-3.28342,2.42061-1.46959,10.65132l.77672.38767c0,0-2.16247-6.00369.69287-11.03899z" fill="#777457"/>
<path d="m562.77309,68.98757c.34422-.30754-5.01341,2.80877-5.96666,8.03761l.86499,1.54872c0,0 .43249-5.42292 5.10167-9.58633z" fill="#777457"/>
<path d="m553.26267,80.31729c0,0-3.5438,2.6147-3.37168,7.84353 0,0 1.81823-6.58496 3.63206-7.26227l-.26038-.58126z" fill="#777457"/>
<path d="m550.67165,79.25266c0,0-8.23945,6.18858-6.13877,5.61651 4.58091-4.55202 6.39474-4.16435 6.39474-4.16435 1.38574-.38767 1.20921-1.35512-.25597-1.45217z" fill="#777457"/>
<path d="m565.88361,84.28692c0,0 4.40879,2.22697 5.35764,8.61843l-3.5438-6.19739c-1.9021-1.74279-1.81384-2.42105-1.81384-2.42105z" fill="#777457"/>
<path d="m545.48122,75.28269c0,0-4.4088-2.03339-7.43184-1.06499 0,0 6.31088.38767 7.43184,1.93639v-.8714z" fill="#777457"/>
<path d="m549.63458,68.11607c0,0-.43249,6.58496 2.41844,9.19915h.86498c0,0-2.33457-2.51765-3.28342-9.19915z" fill="#777457"/>
<path d="m556.89426,82.64185c0,0 .26038,3.4851-.60461,5.32539 0,0 1.64172-3.00088.94884-5.32539s-.34423,0-.34423,0z" fill="#777457"/>
</g>
</svg>
