<svg fill-rule="evenodd" height="1793.997593942" image-rendering="optimizeQuality" shape-rendering="geometricPrecision" text-rendering="geometricPrecision" viewBox="0 0 5418.8 4880.18" width="1991.997589102" xml:space="preserve" xmlns="http://www.w3.org/2000/svg" xmlns:xlink="http://www.w3.org/1999/xlink"><defs>
  
 <filter height="3.1308" id="filter3778" width="1.8352" x="-.4176" y="-1.0654"><feGaussianBlur stdDeviation="10.431"></feGaussianBlur></filter><linearGradient id="linearGradient3808"><stop offset="0" stop-color="#ff7f2a"></stop><stop offset="1" stop-color="#fca"></stop></linearGradient><linearGradient id="linearGradient3736"><stop offset="0" stop-color="#ff0"></stop><stop offset="1" stop-color="#d4aa00"></stop></linearGradient><linearGradient gradientUnits="userSpaceOnUse" id="linearGradient3752" x1="1573.8076" x2="855.9304" y1="1097.5217" y2="1370.1681"><stop offset="0" stop-color="#d4aa00"></stop><stop offset="1" stop-color="#ffe680"></stop></linearGradient><linearGradient gradientUnits="userSpaceOnUse" id="linearGradient3760" x1="3465.1377" x2="4390.0947" y1="662.6538" y2="717.8751"><stop offset="0" stop-color="#d4aa00"></stop><stop offset="1" stop-color="#fea"></stop></linearGradient><linearGradient gradientUnits="userSpaceOnUse" id="linearGradient3822" x1="794.3236" x2="4477.8893"><stop offset="0" stop-color="#483737"></stop><stop offset=".507" stop-color="#ac9393"></stop><stop offset="1" stop-color="#483737"></stop></linearGradient><linearGradient gradientUnits="userSpaceOnUse" id="linearGradient3832" x1="1049.8361" x2="271.8863" y1="4831.2183" y2="2980.5156"><stop offset="0" stop-color="#504"></stop><stop offset="1" stop-color="#cd87de"></stop></linearGradient><linearGradient gradientUnits="userSpaceOnUse" id="linearGradient3840" x1="4291.3057" x2="5252.4844" y1="4807.3535" y2="2978.96"><stop offset="0" stop-color="#441650"></stop><stop offset="1" stop-color="#cd87de"></stop></linearGradient><linearGradient gradientUnits="userSpaceOnUse" id="linearGradient3790" x1="1957.1528" x2="1679.1172" xlink:href="#linearGradient3808" y1="1974.4369" y2="2639.5417"></linearGradient><linearGradient gradientUnits="userSpaceOnUse" id="linearGradient3798" x1="3107.4573" x2="3261.9075" xlink:href="#linearGradient3808" y1="1843.5966" y2="2475.9915"></linearGradient><linearGradient gradientUnits="userSpaceOnUse" id="linearGradient3806" x1="3221.9424" x2="2823.97" xlink:href="#linearGradient3808" y1="2797.6404" y2="1794.5315"></linearGradient><linearGradient gradientUnits="userSpaceOnUse" id="linearGradient3814" x1="1875.3777" x2="2246.0918" xlink:href="#linearGradient3808" y1="2808.5439" y2="1669.1428"></linearGradient><radialGradient cx="2562.5049" cy="1094.3893" gradientTransform="matrix(1.16651,-.12289,.143,1.35741,-583.18533,-32.19582)" gradientUnits="userSpaceOnUse" id="radialGradient3770" r="587.5808"><stop offset="0" stop-color="#fca"></stop><stop offset="1" stop-color="#f95"></stop></radialGradient><radialGradient cx="1903.1927" cy="513.2269" gradientTransform="matrix(.40089,1.69899,-1.48138,.34954,1900.5125,-2977.8023)" gradientUnits="userSpaceOnUse" id="radialGradient3734" r="361.5895" xlink:href="#linearGradient3736"></radialGradient><radialGradient cx="2977.6892" cy="314.2039" gradientTransform="matrix(-1.2089,.01972,-.02177,-1.33412,6584.251,607.21624)" gradientUnits="userSpaceOnUse" id="radialGradient3744" r="349.9928" xlink:href="#linearGradient3736"></radialGradient></defs>
 
 <g transform="matrix(.94342,0,0,.94342,153.28962,138.05408)">
  
  
   <path d="m627.761,4474.18 221.048,3.3639 114.122,260.127-171.345,4.8435-163.826-268.334zm264.49-18.3629c0-21.3653 16.304-47.2976 21.7625-70.7275l9.1954.7923 122.222,260.901-38.9272,64.7399c-12.1189-8.8793-114.252-234.287-114.252-255.706zm3487.4,272.028-31.3646-59.4559 102.091-343.146c7.4893,5.0151 48.9651,58.2318 48.9651,65.2864 0,31.4842-106.714,327.806-119.692,337.315zm250.519,5.5558-204.392,20.6636 122.883-345.322 249.659-45.5298-168.151,370.188zm-3782.13-299.612-59.1581-5.1751-164.849-.8694 45.1722-86.6151 212.285,5.9221-33.4495,86.7376zm3639.06-145.705 303.664-43.8286 18.4602,68.9145-269.502,52.2933-52.623-77.3793zm-2952.87-343.68 228.503,87.0489c-23.5784,5.4932-140.503,59.2342-150.242,41.8584-14.2741-25.4705 18.3764-35.7946-25.165-78.6333-13.3758-13.1589-46.058-39.7619-53.0962-50.274zm-288.35-21.7625 38.0838-48.9651c99.1976,23.1109 147.911,35.5026 210.814,99.2988 24.8893,25.2421 67.5997,44.5225 71.8456,85.9308 4.9312,48.0918 11.1309,98.6087 11.1309,146.645-3.9143,2.721-13.9396,11.209-16.4592,11.8837l-54.2683-6.4426c6.2517-5.4343 16.3223-9.5173 16.3223-16.3223 0-46.2421-11.7449-97.4357-43.9837-114.66l-20.3359,27.3587 15.8683,61.8849-174.612,47.179v-54.4052c0-57.3855-95.3546-156.348-141.455-168.658 10.1487-13.8519 93.3324-27.2026 119.693-27.2026 19.1735,0 152.988,55.157 174.098,65.2864 5.4594-4.7451 21.7625-14.8495 21.7625-21.7625 0-28.9164-64.631-44.2478-87.0499-54.4042-12.461-5.6454-97.7374-38.0848-108.81-38.0848-18.7802,0-11.6466,3.2435-32.6437,5.4402zm2513.54,92.49-.399,73.3396-309.713-46.137c54.5883-47.4489 282.772-96.1354 299.329-158.55l103.273,11.6552c-14.2037,21.2102-92.49,104.035-92.49,119.693zm244.825-92.49v5.4411c0,12.7348 9.0277,21.7625 21.7625,21.7625 21.7528,0 19.7345-27.9342 81.5712-27.2412 42.8377.48 58.0602-5.4025 92.5266-5.4025l46.2517.7315-73.4543,282.178c-55.9195-4.6536-75.784-54.4062-152.336-54.4062l-86.5217-.1031-11.4075-65.1833c8.7231-13.0278 27.2026-25.2604 27.2026-43.524 0-12.7357-9.0277-21.7625-21.7625-21.7625-12.5333,0-54.4052,44.4888-54.4052,48.9651 0,29.327 10.7299,66.6696 15.7546,93.0558 9.8084,51.5097 27.4831,32.0769 71.2943,32.0769l40.2902,1.4487-56.6125,91.0403c-23.6854-5.5172-141.454-44.6768-141.454-65.2864v-174.098c0-25.003 197.021-254.589 223.053-271.963l79.5567,11.5656 34.7045,91.7401c-44.9409,0-136.014,12.8697-136.014,48.9651zm-1414.15-684.257 10.46,189.168c-27.5554-.6159-104.342-22.4439-114.432-37.8833-9.7149-14.8649-47.1771-84.5139-48.5072-102.77l152.479-48.5149zm2203.03,956.285-293.79,43.5249c51.4181-97.1744 159.255-221.78 224.166-319.889 60.5866-91.5733 43.2502-80.5822 166.317-105.711 30.2465-6.1756 207.978-39.1065 207.978-64.0507v-5.4401c0-14.5498-7.8537-16.092-16.3214-21.7625-64.9896,15.1406-128.945,28.739-194.698,44.6874-30.7834,7.4662-63.6074,15.0336-97.8627,21.829-48.4658,9.6147-41.6743,18.1219-67.4561,52.2365-68.392,90.4977-135.638,190.995-200.436,283.774-14.437,20.6704-93.6997,127.487-98.0824,141.303-18.7561,59.1099-39.0487,123.423-55.2216,184.163-14.8322,55.7035-37.1807,124.253-56.7975,182.591-22.2338,66.124 27.3857,103.652 57.8405,161.208-43.1953,20.7263-55.6467,15.7411-102.29,4.3596-55.8433-13.6264-44.109-22.8401-71.808-64.2059 8.3279-100.086 28.9713-237.148 46.6797-339.599 12.3213-71.2769 83.7515-206.148 114.792-271.488 41.9904-88.3887 81.4324-176.407 119.686-266.594 33.0495-77.9161 83.096-194.052 129.056-257.225 108.391-148.987 217.641-299.437 321.072-451.487 53.5117-78.666 106.497-148.573 159.765-226.515 19.1552-28.0277 84.3124-65.9043 135.037-56.4804 27.3886,5.0893 72.4779-.6304 89.5425,8.4012 18.2347,9.6523 25.563,28.7448 52.9343,43.8912l6.5968,179.487v174.098c0,41.1239-67.8012,237.002-82.6517,292.747-42.5601,159.775-52.4668,127.188-149.982,225.417-63.8686,64.336-128.97,119.989-192.451,182.948-17.7768,17.6313-137.022,196.204-151.615,223.783zm-2147.37-756.318-9.9173-201.349 160.6529,43.4623c-3.6598,15.6746-37.5084,106.032-44.7568,113.264-7.9886,7.9713-91.5251,43.363-105.979,44.6228zm-1552.21,1213.33c0-18.3108-69.8167-161.395-81.6088-184.979-15.0654-30.1309-28.4585-62.3582-43.524-92.489-35.7503-71.5006-16.3223-30.9184-16.3223-92.49 0-21.9061-109.388-319.556-124.455-365.194-31.4446-95.2428-9.8171-117.616-114.765-130.061-65.9727-7.8219-142.951-27.0387-212.345-27.0387-12.5362,0-16.3223,3.7861-16.3223,16.3214v5.4411c0,12.1979 4.3066,11.9434 10.8812,21.7625l255.378,34.9782c16.3927,31.1439 152.664,430.632 152.664,454.671 0,18.5691-188.672,5.4411-223.063,5.4411-24.6724-16.5219-74.3768-109.748-92.6317-141.312-17.1021-29.5718-94.4939-86.3963-124.99-108.954-43.9433-32.502-85.7158-69.8379-129.6-104.344-53.5387-42.0984-45.8864-92.6134-64.0131-169.931-29.9044-127.548-58.5759-257.893-83.4286-384.46-16.7869-85.4932-27.1216-107.325-60.2733-173.671-8.7356-17.4838-77.3629-149.085-76.1677-157.776l5.4401-54.4052c31.0138-16.411 118.708-92.49 146.895-92.49h97.9301c17.2496,0 35.0833,36.1243 43.5182,48.9718 18.5219,28.2118 22.416,24.8662 44.8994,47.5896 33.0919,33.4456 57.7026,55.5513 92.5642,86.9747 62.8083,56.6163 123.118,120.896 184.772,179.745 43.4555,41.4796 56.0255,38.959 85.818,99.161 15.4982,31.3174 52.8774,87.7236 63.1543,116.385 31.8552,88.8465 49.8412,196.894 77.599,286.919 49.4325,160.324 97.4578,433.065 165.659,563.376 62.9211,120.224 78.5089,97.2342 90.7589,273.759 3.1471,45.3611 9.8461,119.856 17.5503,167.561 7.7969,48.2769 7.2446,34.4394-41.5345,42.43-29.6942,4.8637-47.393,7.6465-79.4015,7.6465h-5.4411l-103.294-6.4503-12.6259-36.5619 45.1934-.5128c47.4614,0 47.6262-14.5902 72.8972-52.2345 8.9381-13.3131 52.2355-73.5806 52.2355-83.7794zm1022.83-1713.78c57.3402-4.7712 43.8179-19.9725 116.439-7.6272 35.5421,6.0426 87.6455,13.0683 122.946,13.0683l34.61,83.0671-1.0593,4.8888-272.935-93.397zm2056.53,1632.17c-10.1535-11.6813-27.2026-71.1304-27.2026-92.49 0-41.7919 96.4747-374.632 114.947-434.548 28.3959-92.0967 19.0838-122.139 79.5856-192.443 22.9066-26.6166 111.129-130.009 122.924-154.545 24.8604-51.7131 46.7472-145.241 66.7776-205.249 23.7741-71.2249 44.5389-138.98 68.0229-209.446 33.7955-101.407 53.4616-90.2046 120.353-157.116 35.3117-35.3223 107.729-106.604 145.606-131.114l97.8665-6.2527h16.3214c-7.8469,29.3887-209.419,297.761-243.773,349.248-84.7529,127.023-165.551,216.97-236.911,361.551-66.9327,135.613-118.432,277.762-186.681,411.781-65.5081,128.635-137.838,272.34-137.838,460.623zm-2981.43,38.0838c0-125.799-14.2249-155.997-63.1138-236.117-52.3039-85.7168-52.9681-107.117-84.4782-209.313-46.6999-151.463-80.0328-311.504-126.463-466.557-14.7049-49.1068-47.3708-203.048-65.2604-233.971-32.7806-56.6645-68.421-140.43-110.896-182.893-48.7896-48.7752-102.403-93.5609-152.455-141.336-30.0923-28.7236-131.412-120.691-148.131-145.659 179.607,14.9459 174.188,40.8781 270.676,137.366 67.8523,67.8523 142.03,132.992 186.331,221.711 25.7568,51.582 178.207,576.754 179.538,636.546 51.1887,27.085 179.539,119.539 179.539,190.419v125.133l-27.5332,266.549-37.7532,38.1224zm1507.03-1670.25c42.5312-3.5384 114.187-59.8453 163.217-59.8453h32.6437c46.7867,0 62.2791,39.9046 70.7275,76.1677-64.2329,5.3447-321.716,141.454-364.518,141.454-1.4921,0-9.9414-3.7485-16.3214-5.4401 50.8013-44.1572 105.786-50.6056 114.251-152.336zm-293.79-10.8803c0-70.2273 58.2694-125.134 130.574-125.134 52.3695,0 114.251,53.6033 114.251,108.811v38.0838c0,45.5298-58.1797,97.9301-108.811,97.9301h-32.6427c-49.6465,0-103.371-67.2007-103.371-119.692zm598.462,1256.77 11.1723-799.698-5.7322-.064h-21.7615c-28.7988,0-21.7625,153.57-21.7625,190.419v212.182c0,143.311-5.4411,276.736-5.1953,424.544l-152.581,212.001c-34.7507-.774-122.77-29.3993-162.13-39.1701-92.2972-22.9124-66.1597-17.3508-96.972-109.769-17.4626-52.3753-33.7791-101.359-50.3174-150.983-15.5551-46.6739-25.1891-119.18-66.4383-141.172l-20.4603,27.3318 75.3252,234.224c-55.2977-4.6016-483.468-175.23-570.576-207.424-92.4389-34.1637-190.223-74.5252-285.601-106.119-46.2807-15.3305-105.964-26.9337-130.762-65.0985-26.9915-41.5403-52.3483-77.6944-79.4863-116.373-106.147-151.282-208.412-310.088-312.212-465.788-53.7305-80.5967-104.286-153.709-157.776-233.944-48.2682-72.4018-117.105-163.369-155.601-236.121 73.6134,17.1503 165.756,59.1697 241.506,84.9284 81.7148,27.7886 156.954,59.8926 239.273,87.1607 157.205,52.0745 325.082,113.501 478.931,173.935 153.91,60.4584 323.271,120.912 480.029,172.838 58.3417,19.3267 67.2566,16.8573 90.809,72.4085 13.0114,30.6889 33.5218,94.7638 58.9846,104.232 18.7552,6.9746 250.713,66.1761 260.258,66.1761 17.2631,0 99.0347-36.2129 117.942-45.2744 61.0511-29.2557 59.8386-11.796 92.3685-70.848 70.0586-127.176 46.4773-93.5165 184.678-147.196 159.936-62.122 318.134-116.952 477.198-181.109 154.319-62.2425 320.361-127.286 476.314-181.994 73.7792-25.8811 437.857-155.267 480.433-185.128l4.5341,6.3471c1.8256,1.8256-5.0286,3.6425-6.0696,4.8117s-3.7003,4.1649-5.0035,5.8777c-.2024.2651-6.8204,10.595-8.5351,13.2273-6.5313,10.0263-11.0258,17.373-17.5368,25.9871-14.3213,18.9499-24.0594,35.8505-38.0838,54.4062-25.351,33.542-50.0697,69.7106-73.838,105.701-48.3337,73.1864-99.6593,137.896-147.993,211.083-45.1963,68.4354-98.2087,147.529-147.587,211.491-53.316,69.061-96.5373,145.603-149.853,214.664-49.3786,63.9601-102.391,143.055-147.587,211.491-35.0997,53.1473-37.9344,54.783-100.464,79.0738-40.9533,15.9088-84.7606,39.5277-128.04,56.9392-86.3935,34.7565-164.161,72.5444-249.83,109.247-61.6671,26.4199-199.384,97.8299-253.971,110.546zm-636.546-1294.85c-39.8198-9.2764-89.2687-39.6636-127.026-57.9523-35.5941-17.2409-52.5121-78.9928-52.5121-127.027 0-23.3403 109.835,3.0218 129.284,23.0521 15.3189,15.7768 82.8975,72.4162 82.8975,91.2003 0,.2978-30.2022,41.3928-32.6437,70.7266zm-369.958,16.3223c32.2668-60.9808 57.0886-131.518 90.6085-192.301 23.1167-41.9181 92.2982-118.131 125.598-157.312 43.6136-51.3169 83.7206-104.497 125.539-157.371 16.5103-20.8757 45.8093-62.0594 70.8914-70.5627 16.7503-5.6782 88.4668-31.7974 104.217-31.7974 9.8933,0 104.928,25.8782 116.188,30.7082 8.3038,3.5625 63.6787,56.3744 78.2728,68.6224 46.7395,39.226 101.786,101.69 146.942,146.847 41.789,41.7899 117.824,102.153 149.477,144.313 8.1911,10.9111 67.7597,203.41 69.4976,224.293l-64.9876,22.5345c-44.3384-84.0011-13.2379-90.6827-120.035-98.6598-98.4863-7.3563-89.3044,26.2725-163.174,43.4825 7.2416-10.8147 72.0558-69.1593 88.4986-85.6002 29.2961-29.2952 38.8125-73.2481 58.3966-110.26-12.1189-25.2565-13.6206-76.5773-38.8337-86.3-32.2919-12.4514-78.4858-13.3073-102.678-.8097-20.0844,10.3752-66.8354,30.1868-82.7905,42.3451-23.6777,18.0429-30.3111,55.2216-53.1656,71.9671 0-94.9643-3.1201-116.657-21.6805-190.502-10.7627-42.8194-10.4215-37.9296-47.2118-56.1585-17.4298-8.6373-53.7199-30.8085-72.5628-30.8085-7.8325,0-54.1093,27.1062-65.2912,32.6389-20.9036,10.3405-48.9602,17.7016-48.9602,48.9699v97.9301c0,24.337 6.7684,32.3989 14.1497,51.1367 4.0213,10.2084 4.9698,14.8611 8.1814,24.4623 .107.32 3.9972,11.6032 4.2131,12.1083 .8444,1.9741 3.3245,8.5805 3.8729,7.0084 .268-.7682 3.148,2.2931 2.2266,3.2146l-4.5341,6.3471c-22.3793-32.9733-40-50.1381-87.7863-55.4819-38.2361-4.2748-77.9566-16.1517-119.862-16.1517-7.5829,14.33-21.7615,55.5484-21.7615,76.1677 0,8.6653 25.7346,82.8078 30.4268,100.146 15.4683,57.1523 31.5574,31.8263 67.5034,63.0705l-54.2683-6.4426c-31.2817-3.281-122.802,22.6781-130.711,44.5264l-54.4062-16.3214zm848.727,375.398c33.1247-2.7567 353.372-135.559 408.042-157.776 128.392-52.1757 274.922-115.206 405.958-159.86 103.102-35.1344 784.162-318.908 812.728-318.908 10.1487,0 29.8803,47.9858 32.6437,59.8453-57.852,30.6118-176.187,68.1289-244.143,93.1724-78.826,29.0504-163.453,60.8208-243.814,93.5001-156.376,63.59-327.132,128.55-485.146,184.043-156.521,54.9681-330.893,121.159-484.952,184.237-40.509,16.5864-79.975,29.0051-122.977,45.6811-61.1562,23.7172-53.4307,33.1044-83.6965,84.9611-28.9867,49.6668-19.8309,65.0127-79.5152,89.1424-21.7422,8.7896-99.2834,46.7877-116.428,46.7877-62.1153,0-179.498-54.41-244.825-59.8463-6.2797-26.953-31.2017-78.8636-43.4873-103.408-28.3554-56.6501-21.6699-42.9726-82.4175-64.4777-70.8673-25.0869-145.356-50.1603-215.157-78.6323-138.323-56.4226-292.403-105.742-432.27-155.312-144.582-51.2408-284.087-106.416-431.153-156.427-69.2162-23.5379-150.096-51.2523-215.501-78.2882-49.8133-20.5914-162.286-64.5442-212.183-76.1686 9.2166-34.5156 90.2114,11.074 116.26,19.7547 43.2599,14.4177 80.2439,26.7399 122.433,40.7837 74.8221,24.9066 172.88,54.3445 247.21,84.6643 150.814,61.5177 339.069,117.995 494.09,169.658 84.5052,28.1626 161.469,55.6525 247.529,84.3442 78.0655,26.0267 174.164,54.9508 246.87,85.0055 143.27,59.2236 113.645.5928 188.675,143.199 34.8038,66.1501 11.7584,51.1907 88.0224,75.1941 34.6736,10.913 95.7122,22.8266 125.904,37.3127 21.7798-10.4504 132.985-54.9093 142.408-64.3322 9.3198-9.3197 54.1392-127.447 58.8921-147.849zm-233.944-500.531c28.0527-53.0172 81.0208-146.895 157.776-146.895h5.4401c18.7571,0 21.0665,4.0242 38.0838,5.4401l11.2822,43.4044c-29.5034,55.1214-85.4864,152.274-147.296,168.777-7.6512-32.8423-38.4723-56.5383-65.2864-70.7266zm-223.063-266.588c15.5474-3.6223 63.7539-32.6437 65.2864-32.6437 6.9467,0 56.9701,24.0575 63.35,29.14 13.2524,10.5564 18.1971,47.2407 22.6328,64.416 9.8894,38.2862 11.9473,114.366 11.9473,162.151v21.7625h-38.0838c-24.2088,0-54.6105,13.2341-70.7275,21.7625-9.8798-42.4107-54.4052-130.411-54.4052-168.658v-97.9301zm217.623,625.665c27.8108,0 740.468-291.283 826.965-326.434 137.062-55.6997 273.705-109.231 412.724-163.974 59.8164-23.5543 376.177-159.292 414.241-162.459l9.9501,38.3691-24.0151,41.708c-39.6964,5.0989-299.629,114.877-362.091,136.788-115.592,40.5494-245.628,90.2856-358.32,136.771-119.027,49.099-241.846,88.5111-362.824,137.707-61.5813,25.0425-121.466,44.5852-181.216,69.0494-32.2562,13.2071-163.232,46.8638-163.232,81.5933 0,6.6219 11.2533,16.3214 21.7625,16.3214h5.4402c3.7215,0 1340.53-497.881 1425.43-538.616l15.156,17.4877 28.0894-7.7158 10.6557,33.9295c-64.2734,34.0992-161.952,66.0903-235.687,95.5069-81.3475,32.4548-153.184,59.7017-234.966,91.4673-156.109,60.6357-314.773,132.535-472.144,186.164-154.542,52.6644-320.956,126.763-472.003,186.306-54.1237,21.3355-66.1019,37.0583-123.362,21.509-39.4603-10.7154-87.3043-25.3009-127.157-36.0616-86.7858-23.4338-167.306,34.3016-249.254,53.3941l-1506.75-517.697c12.8919-8.3154 45.1259-26.3602 64.9982-26.3602 7.6927,0 1245.9,406.538 1305.73,435.245 5.4594-4.7462 21.7615-14.8505 21.7615-21.7625 0-37.3975-115.755-57.6197-148.939-68.6831-56.9961-19.002-106.189-35.5056-163.218-54.4042-109.045-36.1358-217.384-74.2736-325.08-110.165-74.5146-24.8334-632.421-204.219-646.735-223.755 13.4018-7.5299-1.3871-5.4411 10.8812-5.4411 36.2823,0 703.193,213.149 790.94,242.766 94.1777,31.7887 744.054,241.444 792.263,241.444zm-588.309-808.099 6.5698,2.8377 12.65,86.7906c.4974,18.6115-98.5142,121.415-121.607,128.455l102.387-218.083zm1008.36-45.5828 9.7506-.4868c15.158,56.7706 76.1551,59.5089 87.0489,190.42l-119.948-136.124 23.1485-53.8095zm-947.788,92.0032c-5.9741-25.6421-27.2257-140.565-27.3491-163.274-.1398-25.6874 41.6193-109.24 49.1116-141.397l114.656,146.586-136.419,158.086zm810.644-163.217c0-19.5523 93.6023-192.016 103.37-233.944l53.1888,158.145-76.2544,162.249c-9.901-6.9033-80.3046-79.575-80.3046-86.4494zm-440.686-136.014c7.526-3.9827 29.0764-16.3223 38.0838-16.3223 .8858,0 52.4649,44.0233 59.8463,48.9651l-29.1381,47.7968-8.9458,1.1682-59.8463-81.6078zm-603.902-136.014c35.7792-23.9591 12.9044-24.3495 67.0368-47.2147 21.4347-9.0547 55.2486-24.2512 74.4173-34.3941 2.2574,101.319 81.6088,141.443 81.6088,174.098 0,.7152-39.2405,99.7509-42.8415,109.494-19.4472,52.6211-26.0199,51.5222-11.5646,113.569-59.1205,88.2894-111.19,196.258-148.977,308.029-19.6381,58.0872-73.5796,80.3307-117.69,110.814-45.3322,31.328-72.5232,95.5262-108.731,119.773l-86.8552-27.8349c55.264-104.177 147.296-242.349 215.217-344.335 29.9227-44.9312 29.4407-39.76 34.8548-106.599 3.2232-39.7841 11.2552-87.0508 15.8047-125.65 8.4609-71.7945 27.7202-182.925 27.7202-249.748zm1252.74-189.779 168.551,37.7021-2.6198,5.2397 7.9144,179.429-19.7701,217.468c-.2333,28.2484 230.002,427.272 247.117,500.7379-52.5517-27.8069-281.066-125.357-308.181-148.8269-19.4626-16.8467-28.7949-150.188-45.3891-183.114-19.8627-39.4101-69.6942-87.3014-92.5555-130.507 4.6199-8.7309 38.0838-81.0825 38.0838-87.0489 0-45.2811-53.1666-181.919-64.7129-233.683l71.5622-157.397zm-1415.95-22.4034c0-33.3618 37.3648-70.7266 70.7266-70.7266 45.2908,0 81.6088,32.4721 81.6088,76.1677 0,39.7089-39.9836,76.1677-81.6088,76.1677-38.5426,0-70.7266-39.2453-70.7266-81.6088zm669.112-403.611c10.247,39.1027 61.6141,58.0708 92.6683,77.0747 42.1581,25.7982 16.2192,75.6202 16.2192,125.236h-65.2874c-14.6934,0-15.0009,2.5977-27.2026,5.4401-14.5951-27.5833-21.8155-103.37-48.9651-103.37h-5.4401c-12.5362,0-16.3223,3.7862-16.3223,16.3214 0,40.1764 15.5541,52.5796 16.3223,87.0489h-59.8463c-12.7348,0-21.7625,9.0277-21.7625,21.7625v5.4411c0,29.3511 200.42,16.3214 239.385,16.3214l31.6258,28.2638 11.5126,91.4779c-38.4424-.9147-35.2703-16.2491-75.5527-16.5999-28.9463-.2525-58.2723.2285-87.2783.2285-39.6337.0009-146.895-16.9344-146.895,16.3223 0,11.5068 1.948,7.1722 5.4401,21.7625 58.9451,13.7324 144.128,4.5235 212.397,5.2261 88.4774.9099 75.8978,52.2162 103.156,109.025l-20.9229,17.2486c-3.3157-30.6832-46.5515-49.8923-77.0072-49.8923-6.458,0-109.564,33.8158-124.441,38.7759-21.2179,7.0749-109.503,24.7678-109.503,48.273v5.4411c0,17.0154 9.7641,15.4134 21.7625,21.7615 45.0999-10.5063 183.173-65.2864 217.622-65.2864 11.5068,0 7.1732,1.948 21.7625,5.4411l6.8966,168.589c-23.3895,5.178-26.817,16.3898-39.5393,16.3898-17.2727,0-66.338-92.49-87.0489-92.49h-5.4411c-12.7348,0-21.7625,9.0277-21.7625,21.7625 0,14.0264 85.2782,114.137 100.117,133.827 40.4029,53.6139 72.3574,64.1972 79.4217,149.082-116.921,56.1016-91.2929.3856-180.549,113.241-44.2141,55.904-85.365,107.74-131.054,162.736-32.5926,39.2308-109.103,124.69-129.216,164.576-16.7628,33.2413-85.9684,174.012-92.356,201.433l-260.984-82.137c33.3483-62.8044 80.7393-97.08 138.023-138.754 38.8549-28.2677 133.903-87.1703 157.781-119.687 23.2526-31.6663 242.091-284.665 258.969-295.968 6.9312,13.0991 19.3894,38.0838 38.0848,38.0838 12.7348,0 21.7615-9.0267 21.7615-21.7615 0-53.4895-272.028-307.848-272.028-408.043 0-55.2717 33.7897-93.691 22.9779-164.429-9.5164-62.2656-19.8395-118.16 21.4637-150.205 31.4061-24.3669 71.9478-63.5418 103.913-91.9483 34.6611-30.8017 41.9172-85.1848 63.9245-125.305l103.198-7.737zm611.596,612.529c-25.7452,63.4724-59.8424,123.77-83.0507,183.538-11.3661,29.273-27.8918,64.5799-42.3769,93.636-11.5964,23.2594-50.8475,64.1192-50.8475,79.7263 0,6.9129 16.3031,17.0173 21.7625,21.7625l59.0694-55.1483c48.1853,32.4895 203.049,232.448 260.48,290.536 64.1664,64.8999 330.445,147.926 360.521,188.976l-369.577,147.847c-8.2749-34.8375-62.5577-218.021-77.6867-233.758-52.0292-54.1199-104.744-98.8757-157.99-152.121-41.8873-41.8873-113.86-122.796-156.424-153.688-30.5048-22.1403-47.8826-59.374-88.033-69.7424-23.7924-6.1447-107.827-21.669-107.827-44.51v-27.2026l5.5442,3.5866 177.024-273.655c-11.5386-11.7487-9.5327-18.2809-24.7919-18.2809-29.2836,0-130.573,20.3234-130.573,43.524v5.4411c0,17.0154 9.7641,15.4134 21.7615,21.7625l48.567-12.6239-55.4587,93.3035c-10.6566-7.1799-69.2759-50.5979-69.2759-64.3582v-97.9301c27.5159-7.3477 37.3098-34.2351 58.6164-50.195 9.8711-7.393 57.6641-23.7452 74.0413-29.3289 26.7785-9.1299 139.37-43.4256 139.37-67.3713v-5.4401c0-15.2592-6.5322-13.2543-16.3214-21.7625l-195.347,72.1146c-5.495-22.7745-22.2752-48.486-22.2752-72.1146 0-6.5602 49.5656-47.5732 57.8308-50.9805 31.1709-12.8514 58.3282-5.7023 84.7115.9282 42.1707,10.5969 125.633,39.1711 167.569,39.1711 7.6243,0 10.8812-7.4171 10.8812-16.3214v-5.4411c0-29.5496-117.975-47.4084-150.164-56.5768-105.133-29.9477-68.9974-13.5772-159.948,7.6117l-4.4232-43.6608c8.9111-14.6895 118.64-92.3531 140.437-92.3531h10.8812c28.2012,0 219.799,87.2503 250.265,103.371 11.9984-6.349 21.7625-4.7471 21.7625-21.7625v-5.4411c0-21.8068-30.3082-28.2966-48.9651-32.6427l34.6062-124.554-8.4176-16.5113-20.9971-4.8762c-27.3857,23.0676-39.2829,83.6917-48.7154,124.179l-76.1677-32.6437c7.2282-31.0253 40.9138-97.4443 56.3195-128.659 23.5678-47.7515 23.8416-83.523 96.0159-83.523h76.1677c8.2643,99.3152 49.1617,221.362 97.9301,277.469-53.1281,100.405-122.535,258.35-166.48,366.693zm373.222-611.519c0-30.6591 34.557-70.7275 65.2864-70.7275h10.8812c44.4021,0 76.1677,32.955 76.1677,76.1677 0,31.6702-32.5541,70.7275-65.2864,70.7275h-21.7625c-37.8891,0-65.2864-36.9455-65.2864-76.1677zm-2720.28-179.539c171.087,0 351.805-32.7295 522.425-32.5116 93.9908.1195 156.399-23.8493 226.2-51.2678 63.3905-24.9009 147-46.9004 203.472-73.997 18.4265,79.0901 25.3577,114.47 65.2874,174.098-82.2391,43.5153-158.777,91.4972-241.172,134.227-27.5322,14.2789-183.192,167.753-183.192,192.207 0,24.6107 63.3394,95.6602 80.1186,115.742 15.0433,18.0043 25.9968,39.7176 43.3408,54.5893 25.0136,21.4473 48.7058,4.9331 72.4008,25.5293l-396.577,63.4252c-50.5853,4.59-377.367-96.0689-468.472-96.0689l-55.4664-86.3742 67.7723-364.939 63.8618-54.6587zm1147.96,255.707v-65.2864c26.7043,7.1298 72.1444,70.7266 92.49,70.7266h5.4401c12.7348,0 21.7625-9.0267 21.7625-21.7615 0-15.0866-113.263-111.697-131.851-129.297-25.2257-23.882-93.4828-120.959-96.091-157.639l63.856-25.3635c6.406,22.922 67.8908,107.56 84.4994,130.738 24.0449,33.5536 110.05,37.1084 150.314,56.4274l-6.2035-.853-26.204,190.557c4.3105,7.2165 63.0329,98.3889 70.4914,109.528-18.7648,12.5651-107.391,97.9301-119.693,97.9301-2.3104,0-32.476-18.7956-38.0838-21.7625 17.7701-76.2747 20.9788-71.3348-10.7318-125.282-13.3189-22.6579-59.9957-84.0088-59.9957-108.662zm37.9739-538.95-19.5735,218.158-52.864-62.8035-96.1286,40.7952-32.4288-129.932 200.995-66.2175zm1448.66-113.734 47.6301,5.0526c-.48,20.4766-21.2333,148.877-26.2513,164.401-9.9935,30.9126-55.3855,109.4691-55.3855,135.0351 0,12.5352 3.7861,16.3214 16.3214,16.3214h10.8812c19.7528,0 36.906-66.9163 54.4062-87.049 3.9924,17.1379 16.3214,31.9294 16.3214,43.5241 0,15.8307-21.7625,59.8877-21.7625,81.6088 0,19.1214 30.101,99.1639 38.0838,114.2509l-33.8601,48.0918c-41.4699-27.7114-93.5888-47.1048-109.768-105.765-20.2424-73.3955-38.7026-87.2118-68.554-143.628l107.138-87.2734 24.7987-184.571zm90.5767-171.697 61.6439,198.321-60.9345,17.2226 6.3346-65.6701c-.7692-2.5726-9.1694-12.4639-11.9348-16.4438l-103.507-9.394c-31.4716,15.237-32.5068,43.6579-32.5068,91.0018l-98.0169-169.105 238.922-45.9327zm54.9556,30.0586c72.049,0 197.467-7.7419 267.106-15.8028 77.6549-8.9882 154.05-40.5417 223.591-59.3171 63.5804-17.1648 404.773-126.18 434.198-126.18 72.9107,0 142.031,126.402 178.634,175.003 17.9455,23.8271 147.799,192.632 147.799,205.836v48.9651c0,37.2019-130.413,110.538-162.128,131.662-59.7345,39.787-114.181,79.7841-174.098,119.692-82.59,55.0115-85.7766,64.3062-193.552,100.239-61.8377,20.6164-163.492,47.7795-215.578,72.771l27.1342-43.5731c.068-61.3519 16.3031-134.327 16.3898-195.811 .1321-92.6895 32.635-102.342-16.358-168.621-49.0672-66.3795-46.6103-47.1163-138.224-68.5174-30.0798-7.0257-148.122-37.2848-171.851-34.8895l-174.135,15.9541-48.9275-157.409zm-1365.58-92.489c12.5593-18.7561 84.6084-70.5174 107.911-87.9482 52.0022-38.8964 51.3497-44.0888 122.636-67.7838 51.6581-17.1715 96.6376-33.8514 145.704-50.1564 40.3914-13.423 42.6719-97.6082 42.6719-147.748 32.8374,24.0594 23.3162,79.014 68.4672,94.7493 42.7008,14.8813 82.6835,27.2556 122.644,40.5726 68.0894,22.6916 185.779,54.3011 244.133,82.3008l-24.2358,162.859c.6988,12.6287 28.8884,198.481 33.197,209.019 13.9473,34.1136 69.5863,109.955 92.2384,147.147 16.7676,27.5303 76.0973,133.292 90.6046,148.779 24.3881,26.0353 74.7835,119.163 74.7835,164.602 0,17.6245-51.0567,150.568-59.8463,163.218l-18.6501-113.858-18.5952-17.6428c-97.6381.9273-80.7605,28.8441-55.2447-80.6815l54.4206,21.7239 23.5832-25.5293c-36.1156-66.4209-203.137-47.419-203.137-12.516v5.4411c0,17.0154 9.7651,15.4134 21.7625,21.7615l54.3184-11.3574-18.0062,87.1453-30.8721.3807c-50.7704,0-117.18,188.067-141.454,233.944-19.001-4.4271-18.3195-10.8812-38.0838-10.8812h-48.9651c-34.8124,0-129.254,87.0489-146.895,87.0489-8.9862,0-17.6534-15.6264-21.7625-21.7625 5.4286-65.2296 28.739-125.5-20.6058-164.373-20.2578-15.958-45.4604-26.4537-67.7395-41.0709-26.1105-17.131-27.6392-38.6477-53.1088-55.7026-10.8138,0-133.277,12.1574-138.222,14.1141-23.7731,9.4056-39.6077,76.3441-52.1979,100.137l-6.0464,3.4295-46.9361-82.7596c21.294-10.568 47.5424-6.6642 47.5424-29.4812v-5.4401c0-14.5498-7.8537-16.092-16.3223-21.7625-45.2657,3.7668-125.133,41.4131-125.133,81.6088v5.4401c0,17.0163 9.7651,15.4134 21.7625,21.7625l37.8583-27.486-4.6941,3.2965 56.0428,91.4866 5.6589.6583-112.364,100.051-4.2642-4.7895c-10.6518-20.1306-48.9651-72.2987-48.9651-92.489v-65.2874c0-66.3968 93.9483-353.4 115.374-439.563 27.8976-112.185 51.8808-102.833 10.4369-213.982-21.9186-58.7822-45.0826-150.876-71.4051-200.623zm380.38-404.326c.4588,52.3174-4.8155,147.631-44.5823,163.426-47.4942,18.8641-99.694,36.3122-148.774,52.5256-67.9863,22.4603-78.1436,43.4276-127.142,79.6-16.3358,12.0591-108.847,76.425-108.847,92.4534 0,56.9257 97.9301,243.256 97.9301,299.231 0,9.1241-107.13,398.64-114.252,413.482-31.2904-2.6034-67.7318-17.106-100.255-24.8768-34.0336-8.1313-44.0657-36.7431-57.5205-62.1721l15.932-6.4551 29.5005-292.59c-1.8786-.4925-154.213-499.737-165.142-522.543l723.153-192.08zm522.752,246.55c-20.442-30.528-212.912-82.7606-264.543-99.9745-20.787-6.9303-130.718-41.4362-138.035-46.9438-3.283-2.4714-62.4921-107.963-43.3341-113.484 4.829-1.3918 162.97-11.7275 173.885-11.6253 41.1335.3846 123.696-6.083 168.273-11.2658 89.4364-10.3983 242.606-26.818 332.259-26.818-1.3639,61.2092-47.1241,215.86-61.1581,287.038-13.0644,66.2628-58.5345,221.9-58.5345,284.22 0,7.6686 141.454,231.085 141.454,261.148v32.6427l-95.1551,68.9424c-18.2231-61.5119-146.978-210.076-155.264-264.649-5.55-36.5551-28.3699-149.674-27.299-179.527 1.8352-51.2157 22.8854-124.818 27.4522-179.703zm-2932.46,2687.64v21.7625c20.2781,23.3288 61.7557,118.144 79.7745,154.17 34.0982,68.1752 43.309,90.8697 60.4487,173.495 27.086,130.576 52.5035,260.989 83.9876,389.342 13.8828,56.598 15.4307,142.664 57.1638,176.779 44.3433,36.2505 86.6884,66.8007 130.616,103.328 37.5045,31.1853 98.0178,72.5454 128.11,105.834 26.0662,28.8354 66.0248,111.078 91.0037,148.381-5.9712,6.8696-70.7266,122.687-70.7266,125.133 0,17.5648 200.779,342.754 217.622,342.754l96.3966.5041 28.7824,80.4145 125.086,11.5714h38.0848l153.345-26.339-.6882-6.3375-16.6433-168.624c51.9916-77.6434 63.1418-54.6597 80.3943-169.871 11.876-79.3051 17.5359-148.316 17.5359-238.171 11.9068-6.3009 76.0231-29.3154 92.7522-29.2566l180.336,25.0397 53.5975-50.2104-5.3409-86.0532 211.83-77.1421c63.2584,33.4726 178.817,65.4773 253.533,94.6626 85.9009,33.5536 169.219,59.5215 254.133,94.064 40.9427,16.6549 84.964,33.2384 126.761,47.3361 73.516,24.7977 39.8169,41.1201 70.7102,103.388 9.6851,19.5195 237.043,79.4728 274.164,79.4728 21.7692,0 134.035-165.919 154.583-193.613 49.5723-66.8142 148.786-92.3473 226.221-127.415 40.0434-18.1344 81.1798-32.369 121.626-52.4707 60.9239-30.2793 61.0377-23.8907 137.273-10.4976 77.0747,13.5415 238.39,45.1548 306.954,46.6826v114.251c0,20.36 171.932,81.6078 195.86,81.6078 25.8204,0 81.3447-130.573 97.9301-130.573 10.6538,0 89.7121,41.7379 103.371,48.9651-9.364,40.1928-59.8463,197.562-59.8463,223.063 0,60.2482 55.0047,171.007 54.4794,244.751-.6727,94.2934 75.9151,136.088 168.583,136.088 67.7675,0 146.117-45.0218 204.304-62.283 133.631-39.6424 107.539,42.5321 172.844-93.744 57.2082-119.38 106.9-252.858 165.388-365.828l-31.1237-109.25c76.8694-145.274 226.893-309.104 349.596-412.083 107.572-90.2798 104.621-82.9273 148.878-231.961 13.9194-46.8754 74.7652-269.129 89.1068-291.732v-97.9301c-18.2877-28.8229-5.5375-181.13-5.4391-228.505 .1176-56.4978 5.2647-57.6024-30.4682-83.7842-22.5895-16.5517-36.559-35.1768-62.0227-52.2288l-108.712-6.8349-38.1831,1.3948c-54.7888,0-145.573,79.4285-157.776,125.133h-87.0489l-86.9843,6.1823c-65.4455,43.0401-132.102,130.728-194.909,179.812-95.1734,74.3777-86.2113,121.205-126.841,243.118-30.7882,92.383-58.7369,192.765-90.968,284.43-19.5696,55.6582-148.931,175.12-158.605,211.353l-81.5683,5.8902c-63.5235-120.426 7.6908-137.201-179.578-152.785l-122.248,133.104-100.991-12.0552c8.6999-33.2818 344.857-499.948 391.972-567.098 43.8604-62.5124 386.204-535.195 386.204-565.894 0-.2669-61.3326-119.693-70.7275-119.693-35.0033,0-88.8398,40.0521-130.574,43.5249l-24.5722-71.7656-35.0033,3.6136 16.5296-40.3962c-10.2027-20.5287-24.818-92.7531-49.4431-92.7531-18.9913,0-312.117,121.753-355.883,139.208-57.4096,22.896-317.699,135.005-356.83,138.261-11.6938-50.1921-134.757-275.038-166.823-339.149-29.486-58.9537-55.4761-111.609-85.4228-170.297-16.7734-32.8721 7.4209-166.829 7.4209-225.03v-76.1677l-6.5322-135.951 2.4916-4.9929-190.506-54.1016c4.6016-6.5524 58.5325-127.008 58.5325-131.387 0-2.7808-58.6733-112.635-65.2864-125.134l73.7435-189.28 .2863-5.7832 108.236,76.9764c-2.7278,71.9343 49.633,123.528 116.965,123.528 61.8569,0 119.693-53.3064 119.693-114.251v-16.3223c0-90.0485-78.0704-110.587-157.776-108.811-12.5237-26.0999-38.2515-91.6784-33.0061-114.157 13.8461-59.3383 35.1344-56.5286 5.8035-114.346-21.2719-41.9326-32.9165-58.3667-19.8781-117.808 7.4951-34.1763 70.5241-42.8656 101.352-50.9834 85.8315-22.602 188.269-20.2983 266.33-4.9158 40.4212,7.9655 83.3052,19.0135 125.134,27.2026 59.0087,11.5531 58.2867,21.3615 87.4393,64.8961 0,78.9003-10.7424,155.37-16.2847,233.981-3.8141,54.0804-3.0844,60.2829-29.486,95.6467-12.8774,17.2477-46.7183,56.4062-46.7183,78.4145 0,17.0163 9.7641,15.4144 21.7615,21.7625 59.507-28.553 177.73-60.1499 248.222-83.6522 42.7933-14.2673 82.3317-27.6942 122.448-40.7682 38.6988-12.6124 68.8981-39.8651 101.571-61.6468 55.8472-37.2318 361.432-240.332 381.927-270.94l6.0936-103.323c-51.4162-75.8544-111.414-150.374-167.063-225.357-29.3164-39.5007-53.9348-74.344-82.9514-112.91-19.8299-26.3573-81.2916-75.2635-120.597-75.2635-18.4564,0-401.904,115.21-446.746,129.953-39.0525,12.8389-191.604,60.4015-227.695,60.654-31.007.2169-255.034,10.5005-266.775,16.1344l-25.3876-39.4256-262.446,52.9777c.7576-59.8511 46.4908-218.048 59.721-285.19 11.6543-59.1427 59.455-228.994 59.455-277.859 0-2.8887-7.8363-11.9405-10.8812-16.3214h-32.6427c-16.2973,10.3405-364.922,28.6812-418.965,32.6023-131.276,9.5231-294.375,14.7387-403.257,48.3096-117.047,36.0896-237.625,59.6564-356.353,95.213-110.874,33.2037-247.051,70.5993-355.664,95.9031v16.3214c0,17.2785 149.759,499.688 163.217,527.734-35.8515,17.2024-250.265,67.2007-250.265,97.9301v5.4411c0,14.6934 2.5977,15.0009 5.4402,27.2026-61.2854,14.2779-143.518,52.5584-208.786,74.1223-35.4495,11.7121-69.7232,28.4624-103.529,37.9258-30.9762,8.671-90.0022,8.7954-123.314,12.7001-71.3791,8.3684-198.067,16.0746-265.997,16.9122-87.847,1.0834-176.268,16.1161-261.353,16.1161-84.8763,56.8361-89.9675,90.6239-108.24,207.312-11.4345,73.0177-44.0955,197.359-44.0955,266.016 0,14.5257 54.7493,94.3377 65.2864,114.251 52.1169,1.1614 195.387,39.6569 257.954,52.1584 56.7995,11.3487 207.225,51.2128 253.459,51.2128 58.0101,0 224.514-38.1282 293.789-48.9651 43.8893-6.8667 272.029-25.6151 272.029-65.2874 0-12.1979-4.3066-11.9425-10.8812-21.7615-18.092,0-196.692-28.8017-206.294-33.0909-12.7907-5.712-103.818-120.008-103.818-135.567 0-6.0802 74.9734-77.705 85.6975-88.4012 38.7055-38.6072 35.8525-50.1044 90.1468-78.5109 67.3993-35.2626 156.012-81.3504 215.876-121.437 7.0353,13.2957 65.2874,97.4251 65.2874,97.9301v48.9641c0,84.1351-21.2853,55.5406 21.7769,119.678 20.3668,30.3352 39.4786,62.1104 59.8309,92.5045-7.9144,95.1127-27.6942,32.5251-98.0853,65.1312-32.1753,14.9045-65.1312,51.4837-65.1312,98.0853v21.7625c0,57.7094 56.1508,108.811 114.251,108.811h10.8812c75.2992,0 114.251-61.9408 114.251-141.455l123.778-99.5408c1.3561,85.7573 47.8209,165.803-34.9618,204.678-30.7246,14.4283-63.0097,30.8653-93.5271,42.4868-42.6497,16.2404-37.0399,36.0713-71.4562,59.1176l-51.1376,440.427-244.519,390.799c-37.6163-2.1061-201.62-59.3432-249.171-74.2168-48.1381-15.0587-205.634-71.4996-249.493-71.4996-6.1708,0-45.8055,49.3178-75.3898,60.6241-25.6594,9.8065-65.6961,27.9274-87.8277,42.7471l-81.1384-28.4894c-19.3788,11.2918-54.8756,61.321-54.8756,88.3357 0,23.7269 669.377,971.124 739.917,1104.43-41.3061-9.6224-143.194-48.9651-179.539-48.9651-16.7985,0-80.8463,96.8641-92.49,114.252l-59.6911,6.6748c-5.9568-70.9618-72.0558-263.438-92.7194-343.915-33.4871-130.422-51.3834-210.484-110.591-319.214-29.1487-53.529-160.283-177.701-208.975-226.27-62.604-62.4449-34.6023-51.6485-128.599-89.0229-27.8378-11.0692-148.623-23.8763-188.306-23.8763-7.3766-13.9415-44.4869-76.1677-59.8453-76.1677h-152.336c-15.7777,0-141.395,99.6391-163.217,114.251l-10.8812,65.2864z"></path>
   <path d="m3003.19,4183.79c54.5864-12.7165 192.304-84.1264 253.971-110.546 85.6686-36.7026 163.436-74.4905 249.83-109.247 43.2791-17.4115 87.0865-41.0304 128.04-56.9392 62.5297-24.2907 65.3645-25.9264 100.464-79.0738 45.1963-68.4354 98.2087-147.53 147.587-211.491 53.316-69.061 96.5373-145.603 149.853-214.664 49.3786-63.9611 102.391-143.055 147.587-211.491 48.3337-73.1864 99.6593-137.896 147.993-211.083 23.7683-35.9903 48.487-72.1589 73.838-105.701 14.0244-18.5556 23.7625-35.4563 38.0838-54.4062 6.511-8.6142 11.0056-15.9609 17.5368-25.9871 1.7147-2.6323 8.3327-12.9622 8.5351-13.2273 1.3032-1.7128 3.9664-4.7124 5.0035-5.8777s7.8952-2.9861 6.0696-4.8117l-4.5341-6.3472c-42.5765,29.861-406.654,159.247-480.433,185.128-155.954,54.7079-321.995,119.751-476.314,181.994-159.064,64.1568-317.263,118.987-477.198,181.109-138.201,53.6794-114.62,20.0198-184.678,147.196-32.53,59.0521-31.3174,41.5924-92.3685,70.848-18.9075,9.0615-100.679,45.2744-117.942,45.2744-9.5453,0-241.503-59.2015-260.258-66.1761-25.4628-9.4681-45.9732-73.543-58.9846-104.232-23.5524-55.5513-32.4673-53.0818-90.809-72.4085-156.759-51.9261-326.119-112.38-480.029-172.838-153.85-60.4343-321.726-121.86-478.931-173.935-82.3191-27.2681-157.559-59.3721-239.273-87.1607-75.7493-25.7587-167.892-67.7781-241.506-84.9284 38.4964,72.7517 107.333,163.719 155.601,236.121 53.4905,80.2352 104.046,153.347 157.776,233.944 103.8,155.7 206.065,314.506 312.212,465.788 27.138,38.6785 52.4948,74.8327 79.4863,116.373 24.7977,38.1648 84.4811,49.768 130.762,65.0985 95.3778,31.594 193.162,71.9555 285.601,106.119 87.1077,32.1936 515.278,202.822 570.576,207.424l-75.3252-234.224 20.4603-27.3318c41.2492,21.9919 50.8832,94.4978 66.4383,141.172 16.5382,49.6244 32.8548,98.6077 50.3174,150.983 30.8123,92.4187 4.6748,86.8571 96.972,109.769 39.36,9.7709 127.38,38.3961 162.13,39.1701l152.581-212.001c-.2458-147.809 5.1953-281.233 5.1953-424.544v-212.182c0-36.8491-7.0363-190.419 21.7625-190.419h21.7615l5.7322.064-11.1723,799.698z" fill="url(#linearGradient3822)"></path>
   <path d="m4793.13,4194.67c14.5931-27.5785 133.838-206.152 151.615-223.783 63.4811-62.9596 128.582-118.612 192.451-182.948 97.5147-98.2289 107.421-65.6421 149.982-225.417 14.8505-55.746 82.6517-251.624 82.6517-292.747v-174.098l-6.5968-179.487c-27.3713-15.1464-34.6997-34.2389-52.9343-43.8912-17.0645-9.0315-62.1538-3.3119-89.5425-8.4012-50.7241-9.4238-115.881,28.4528-135.037,56.4804-53.2678,77.9422-106.253,147.849-159.765,226.515-103.431,152.05-212.681,302.5-321.072,451.487-45.9597,63.1726-96.0062,179.309-129.056,257.225-38.2535,90.1863-77.6954,178.205-119.686,266.594-31.0408,65.3404-102.471,200.211-114.792,271.488-17.7084,102.451-38.3518,239.512-46.6797,339.599 27.699,41.3658 15.9647,50.5796 71.808,64.2059 46.6431,11.3815 59.0945,16.3667 102.29-4.3596-30.4547-57.5561-80.0743-95.0838-57.8405-161.208 19.6169-58.3378 41.9654-126.887 56.7975-182.591 16.1729-60.7398 36.4655-125.053 55.2216-184.163 4.3828-13.8153 83.6454-120.632 98.0824-141.303 64.7977-92.7792 132.044-193.276 200.436-283.774 25.7818-34.1146 18.9903-42.6218 67.4561-52.2365 34.2553-6.7953 67.0792-14.3628 97.8627-21.829 65.7529-15.9483 129.708-29.5468 194.698-44.6874 8.4677,5.6705 16.3214,7.2127 16.3214,21.7625v5.4401c0,24.9442-177.732,57.8752-207.978,64.0507-123.067,25.1283-105.731,14.1372-166.317,105.711-64.9115,98.1094-172.748,222.715-224.166,319.889l293.79-43.5249z" fill="url(#linearGradient3840)"></path>
   <path d="m54.4052,3003.19-5.4401,54.4052c-1.1952,8.6913 67.432,140.293 76.1677,157.776 33.1517,66.3457 43.4864,88.1776 60.2733,173.671 24.8527,126.567 53.5242,256.911 83.4286,384.46 18.1267,77.3176 10.4745,127.833 64.0131,169.931 43.8845,34.5059 85.6571,71.8418 129.6,104.344 30.4962,22.5577 107.888,79.3822 124.99,108.954 18.2549,31.5642 67.9593,124.791 92.6317,141.312 34.3912,0 223.063,13.128 223.063-5.4411 0-24.0391-136.271-423.528-152.664-454.671l-255.378-34.9782c-6.5746-9.819-10.8812-9.5646-10.8812-21.7625v-5.4411c0-12.5352 3.7861-16.3214 16.3223-16.3214 69.3945,0 146.373,19.2169 212.345,27.0387 104.948,12.4446 83.3206,34.8182 114.765,130.061 15.0674,45.6378 124.455,343.288 124.455,365.194 0,61.5716-19.4279,20.9894 16.3223,92.49 15.0654,30.1309 28.4585,62.3582 43.524,92.489 11.7921,23.5842 81.6088,166.668 81.6088,184.979 0,10.1988-43.2975,70.4663-52.2355,83.7794-25.271,37.6443-25.4358,52.2345-72.8972,52.2345l-45.1934.5128 12.6259,36.5619 103.294,6.4503h5.4411c32.0085,0 49.7073-2.7828 79.4015-7.6465 48.779-7.9905 49.3313,5.8469 41.5345-42.43-7.7043-47.7043-14.4032-122.2-17.5503-167.561-12.2499-176.525-27.8378-153.535-90.7589-273.759-68.2012-130.311-116.226-403.052-165.659-563.376-27.7578-90.0254-45.7438-198.072-77.599-286.919-10.2769-28.6609-47.6561-85.0672-63.1543-116.385-29.7925-60.202-42.3625-57.6814-85.818-99.161-61.6536-58.8496-121.963-123.129-184.772-179.745-34.8616-31.4234-59.4723-53.529-92.5642-86.9747-22.4834-22.7235-26.3775-19.3778-44.8994-47.5896-8.4349-12.8475-26.2686-48.9718-43.5182-48.9718h-97.9301c-28.1867,0-115.881,76.079-146.895,92.49z" fill="url(#linearGradient3832)"></path>
   <path d="m2524.42,1229.57c32.5608,0 81.8854-20.92 119.693-21.7625l-109.822,69.0783-114.08-62.1355c35.7464-.7248 72.1685,14.8196 104.21,14.8196zm-342.755-397.161c0-99.8791 61.3172-239.385 157.776-239.385 94.1344,0 152.335,148.868 152.335,250.265v54.4062c0,105.961-58.5827,245.122-153.07,248.806-94.517,3.6849-157.042-139.846-157.042-237.925v-76.1677zm380.839-87.0499c0-83.683 43.3601-184.979 125.133-184.979 122.54,0 201.301,197.723 201.301,331.874v16.3223c0,89.9213-38.7325,195.86-125.134,195.86h-5.4401c-112.442,0-195.86-193.12-195.86-315.553v-43.5249zm-386.279-228.503c0-17.8588 161.889-103.37 179.538-103.37 14.6857,0 21.7625,14.4842 21.7625,27.2026 0,17.424-152.904,84.9486-174.098,103.37-15.2457-7.3149-27.2026-2.3808-27.2026-21.7625v-5.4401zm598.461-59.8463v5.4411c0,12.7348-9.0267,21.7615-21.7615,21.7615-21.4145,0-206.741-56.3802-206.741-76.1677v-5.4401c0-17.0163 9.7641-15.4144 21.7625-21.7625 29.0638,13.9454 206.741,51.7034 206.741,76.1677zm-745.356,59.8463c26.3226,49.7468 49.4865,141.841 71.4051,200.623 41.4439,111.149 17.4607,101.797-10.4369,213.982-21.4261,86.1631-115.374,373.166-115.374,439.563v65.2874c0,20.1904 38.3132,72.3584 48.9651,92.489l4.2642,4.7895 112.364-100.051-5.6589-.6583-56.0428-91.4866 4.6941-3.2965-37.8583,27.486c-11.9974-6.349-21.7625-4.7461-21.7625-21.7625v-5.4401c0-40.1957 79.867-77.8419 125.133-81.6088 8.4686,5.6705 16.3223,7.2127 16.3223,21.7625v5.4401c0,22.8169-26.2484,18.9132-47.5424,29.4812l46.9361,82.7596 6.0464-3.4295c12.5902-23.7934 28.4248-90.7319 52.1979-100.137 4.9456-1.9566 127.408-14.1141 138.222-14.1141 25.4695,17.0549 26.9983,38.5716 53.1088,55.7026 22.2791,14.6172 47.4817,25.1129 67.7395,41.0709 49.3448,38.8732 26.0344,99.1437 20.6058,164.373 4.109,6.1361 12.7762,21.7625 21.7625,21.7625 17.6409,0 112.083-87.0489 146.895-87.0489h48.9651c19.7643,0 19.0829,6.4542 38.0838,10.8812 24.2743-45.8768 90.6837-233.944 141.454-233.944l30.8721-.3807 18.0062-87.1453-54.3184,11.3574c-11.9974-6.3481-21.7625-4.7461-21.7625-21.7615v-5.4411c0-34.903 167.021-53.9049 203.137,12.516l-23.5832,25.5293-54.4206-21.7239c-25.5158,109.526-42.3933,81.6088 55.2447,80.6815l18.5952,17.6428 18.6501,113.858c8.7896-12.65 59.8463-145.593 59.8463-163.218 0-45.4382-50.3955-138.566-74.7835-164.602-14.5073-15.4866-73.837-121.248-90.6046-148.779-22.6521-37.1913-78.2911-113.033-92.2384-147.147-4.3086-10.5381-32.4982-196.39-33.197-209.019l24.2358-162.859c-58.3542-27.9997-176.044-59.6092-244.133-82.3008-39.9605-13.317-79.9432-25.6912-122.644-40.5726-45.151-15.7353-35.6298-70.6899-68.4672-94.7493 0,50.14-2.2806,134.325-42.6719,147.748-49.0663,16.305-94.0457,32.9849-145.704,50.1564-71.2866,23.695-70.634,28.8875-122.636,67.7838-23.3027,17.4308-95.3518,69.1921-107.911,87.9482z" fill="url(#radialGradient3770)"></path>
   <path d="m614.783,1147.96-63.8618,54.6587-67.7723,364.939 55.4664,86.3742c91.1049,0 417.887,100.659 468.472,96.0689l396.577-63.4252c-23.695-20.5962-47.3872-4.082-72.4008-25.5293-17.344-14.8717-28.2976-36.585-43.3408-54.5893-16.7792-20.0815-80.1186-91.1309-80.1186-115.742 0-24.4546 155.66-177.928 183.192-192.207 82.3953-42.7297 158.933-90.7116 241.172-134.227-39.9297-59.6275-46.8609-95.0076-65.2874-174.098-56.4718,27.0966-140.082,49.0962-203.472,73.997-69.8012,27.4185-132.21,51.3873-226.2,51.2678-170.62-.2178-351.339,32.5116-522.425,32.5116z" fill="url(#linearGradient3752)"></path>
   <path d="m3394.91,609.342 48.9275,157.409 174.135-15.9541c23.7288-2.3952 141.771,27.8638 171.851,34.8895 91.6138,21.401 89.1569,2.1379 138.224,68.5174 48.993,66.2792 16.49,75.9315 16.358,168.621-.087,61.4839-16.3214,134.459-16.3898,195.811l-27.1342,43.5731c52.0861-24.9915 153.741-52.1545 215.578-72.771 107.775-35.9325 110.962-45.2271 193.552-100.239 59.9167-39.9075 114.363-79.9046 174.098-119.692 31.7155-21.1244 162.128-94.4602 162.128-131.662v-48.9651c0-13.2042-129.854-182.009-147.799-205.836-36.6023-48.6007-105.723-175.003-178.634-175.003-29.4243,0-370.617,109.016-434.198,126.18-69.541,18.7754-145.936,50.329-223.591,59.3171-69.6393,8.0609-195.057,15.8028-267.106,15.8028z" fill="url(#linearGradient3760)"></path>
   <path d="m2801.89,1507.03 76.1677,32.6437c9.4325-40.4877 21.3297-101.112 48.7154-124.179l20.9971,4.8763 8.4176,16.5113-34.6062,124.554c18.6568,4.3461 48.9651,10.8359 48.9651,32.6427v5.4411c0,17.0154-9.7641,15.4134-21.7625,21.7625-30.4663-16.1209-222.064-103.371-250.265-103.371h-10.8812c-21.7972,0-131.526,77.6636-140.437,92.3531l4.4232,43.6608c90.9507-21.189 54.8148-37.5595 159.948-7.6118 32.1887,9.1684 150.164,27.0272 150.164,56.5768v5.4411c0,8.9043-3.2569,16.3214-10.8812,16.3214-41.9365,0-125.399-28.5742-167.569-39.1711-26.3833-6.6305-53.5406-13.7796-84.7115-.9282-8.2653,3.4073-57.8308,44.4204-57.8308,50.9805 0,23.6285 16.7802,49.34 22.2752,72.1146l195.347-72.1146c9.7892,8.5082 16.3214,6.5033 16.3214,21.7625v5.4401c0,23.9457-112.592,58.2414-139.37,67.3713-16.3773,5.5838-64.1703,21.936-74.0413,29.3289-21.3065,15.9599-31.1005,42.8473-58.6164,50.195v97.9301c0,13.7603 58.6193,57.1783 69.2759,64.3582l55.4587-93.3035-48.567,12.6239c-11.9974-6.349-21.7615-4.7471-21.7615-21.7625v-5.4411c0-23.2006 101.289-43.524 130.573-43.524 15.2592,0 13.2533,6.5322 24.7919,18.2809l-177.024,273.655-5.5442-3.5866v27.2026c0,22.841 84.0348,38.3653 107.827,44.51 40.1504,10.3684 57.5282,47.6021 88.033,69.7424 42.5639,30.8914 114.537,111.8 156.424,153.688 53.2466,53.2457 105.961,98.0015 157.99,152.121 15.129,15.7373 69.4118,198.921 77.6867,233.758l369.577-147.847c-30.0759-41.0507-296.354-124.076-360.521-188.976-57.4308-58.0882-212.294-258.047-260.48-290.536l-59.0694,55.1483c-5.4594-4.7451-21.7625-14.8495-21.7625-21.7625 0-15.6071 39.2511-56.4669 50.8475-79.7263 14.4852-29.0561 31.0109-64.363 42.3769-93.636 23.2083-59.7682 57.3055-120.066 83.0507-183.538 43.9452-108.344 113.352-266.288 166.48-366.693-48.7684-56.1074-89.6658-178.154-97.9301-277.469h-76.1677c-72.1743,0-72.4481,35.7715-96.0159,83.523-15.4057,31.2143-49.0913,97.6333-56.3195,128.659z" fill="url(#linearGradient3806)"></path>
   <path d="m2606.03,3139.2c-48.2094,0-698.086-209.655-792.263-241.444-87.7467-29.6171-754.658-242.766-790.94-242.766-12.2683,0 2.5205-2.0887-10.8812,5.4411 14.3136,19.5359 572.22,198.922 646.735,223.755 107.696,35.891 216.035,74.0288 325.08,110.165 57.0298,18.8988 106.222,35.4023 163.218,54.4042 33.1835,11.0634 148.939,31.2856 148.939,68.6831 0,6.912-16.3021,17.0163-21.7615,21.7625-59.8299-28.7072-1298.04-435.245-1305.73-435.245-19.8723,0-52.1063,18.0448-64.9982,26.3602l1506.75,517.697c81.948-19.0925 162.469-76.8279 249.254-53.3941 39.8525,10.7607 87.6966,25.3462 127.157,36.0616 57.2602,15.5493 69.2383-.1735 123.362-21.509 151.047-59.5436 317.461-133.642 472.003-186.306 157.371-53.6283 316.035-125.528 472.144-186.164 81.7823-31.7656 153.618-59.0125 234.966-91.4673 73.7348-29.4166 171.413-61.4078 235.687-95.5069l-10.6557-33.9295-28.0894,7.7159-15.156-17.4877c-84.8937,40.7345-1421.71,538.616-1425.43,538.616h-5.4401c-10.5092,0-21.7625-9.6996-21.7625-16.3214 0-34.7295 130.976-68.3863 163.232-81.5933 59.7499-24.4642 119.635-44.0069 181.216-69.0494 120.978-49.1964 243.798-88.6085 362.824-137.707 112.692-46.485 242.728-96.2212 358.32-136.771 62.4623-21.9109 322.394-131.689 362.091-136.788l24.0151-41.708-9.9502-38.3691c-38.0636,3.1673-354.424,138.905-414.241,162.459-139.019,54.7435-275.663,108.274-412.724,163.974-86.4966,35.1507-799.154,326.434-826.965,326.434z" fill="#ccc"></path>
   <path d="m2247.05,1334.22c-22.0073,40.1205-29.2634,94.5035-63.9245,125.305-31.9651,28.4065-72.5068,67.5814-103.913,91.9483-41.3032,32.0451-30.98,87.9395-21.4637,150.205 10.8118,70.7381-22.9779,109.157-22.9779,164.429 0,100.195 272.028,354.553 272.028,408.043 0,12.7348-9.0267,21.7615-21.7615,21.7615-18.6954,0-31.1535-24.9847-38.0848-38.0838-16.8785,11.3024-235.717,264.301-258.969,295.968-23.8782,32.5165-118.926,91.4191-157.781,119.687-57.2833,41.6743-104.674,75.9498-138.023,138.754l260.984,82.137c6.3876-27.4214 75.5932-168.192 92.356-201.433 20.1123-39.8853 96.6231-125.345 129.216-164.576 45.6888-54.9951 86.8397-106.832 131.054-162.736 89.2562-112.856 63.6276-57.1397 180.549-113.241-7.0643-84.885-39.0188-95.4684-79.4217-149.082-14.8389-19.6901-100.117-119.801-100.117-133.827 0-12.7348 9.0277-21.7625 21.7625-21.7625h5.4411c20.7109,0 69.7762,92.49 87.0489,92.49 12.7222,0 16.1498-11.2118 39.5393-16.3898l-6.8966-168.589c-14.5893-3.4931-10.2557-5.4411-21.7625-5.4411-34.449,0-172.522,54.7801-217.622,65.2864-11.9984-6.3481-21.7625-4.7461-21.7625-21.7615v-5.4411c0-23.5052 88.2856-41.1981 109.503-48.273 14.8765-4.9601 117.983-38.7759 124.441-38.7759 30.4557,0 73.6915,19.2091 77.0072,49.8923l20.9229-17.2486c-27.2585-56.8091-14.6789-108.115-103.156-109.025-68.2687-.7027-153.451,8.5062-212.397-5.2261-3.4921-14.5902-5.4401-10.2557-5.4401-21.7625 0-33.2567 107.261-16.3214 146.895-16.3223 29.006,0 58.332-.481 87.2783-.2285 40.2824.3509 37.1103,15.6852 75.5527,16.5999l-11.5126-91.4779-31.6258-28.2638c-38.9648,0-239.385,13.0297-239.385-16.3214v-5.4411c0-12.7348 9.0277-21.7625 21.7625-21.7625h59.8463c-.7682-34.4693-16.3223-46.8725-16.3223-87.0489 0-12.5352 3.7861-16.3214 16.3223-16.3214h5.4401c27.1496,0 34.37,75.7869 48.9651,103.37 12.2017-2.8425 12.5092-5.4401 27.2026-5.4401h65.2874c0-49.6157 25.939-99.4376-16.2192-125.236-31.0543-19.0038-82.4213-37.972-92.6683-77.0747l-103.198,7.737z" fill="url(#linearGradient3814)"></path>
   <path d="m1686.56,304.607c10.9294,22.8063 163.264,522.05 165.142,522.543l-29.5005,292.59-15.932,6.4551c13.4548,25.4291 23.4868,54.0409 57.5205,62.1721 32.5232,7.7708 68.9646,22.2733 100.255,24.8768 7.1221-14.8418 114.252-404.358 114.252-413.482 0-55.9744-97.9301-242.305-97.9301-299.231 0-16.0283 92.5112-80.3943 108.847-92.4534 48.9988-36.1725 59.1562-57.1397 127.142-79.6 49.0798-16.2134 101.28-33.6616 148.774-52.5256 39.7668-15.7951 45.0411-111.108 44.5823-163.426l-723.153,192.08z" fill="url(#radialGradient3734)"></path>
   <path d="m2932.46,359.077c-4.5669,54.8852-25.617,128.487-27.4522,179.703-1.0709,29.8533 21.749,142.972 27.299,179.527 8.2855,54.5739 137.04,203.138 155.264,264.649l95.1551-68.9424v-32.6427c0-30.0624-141.454-253.479-141.454-261.148 0-62.3196 45.47-217.957 58.5345-284.22 14.0341-71.1786 59.7942-225.829 61.1581-287.038-89.6533,0-242.822,16.4197-332.259,26.818-44.5775,5.1828-127.14,11.6504-168.273,11.2658-10.915-.1022-169.056,10.2335-173.885,11.6253-19.1581,5.5211 40.0511,111.013 43.3341,113.484 7.3168,5.5076 117.248,40.0135 138.035,46.9438 51.6312,17.2139 244.101,69.4465 264.543,99.9745z" fill="url(#radialGradient3744)"></path>
   <path d="m1996.69,2905.26 54.4062,16.3214c7.9086-21.8482 99.429-47.8074 130.711-44.5264l54.2683,6.4426c-35.9459-31.2441-52.035-5.9182-67.5034-63.0705-4.6922-17.3383-30.4268-91.4808-30.4268-100.146 0-20.6193 14.1787-61.8377 21.7615-76.1677 41.9056,0 81.6261,11.8769 119.862,16.1517 47.7862,5.3437 65.4069,22.5085 87.7863,55.4819l4.5341-6.3472c.9215-.9214-1.9586-3.9827-2.2266-3.2145-.5484,1.5721-3.0285-5.0343-3.8728-7.0084-.2159-.5051-4.1062-11.7882-4.2132-12.1083-3.2116-9.6012-4.1601-14.2538-8.1814-24.4623-7.3814-18.7378-14.1497-26.7997-14.1497-51.1367v-97.9301c0-31.2682 28.0566-38.6294 48.9602-48.9699 11.182-5.5326 57.4588-32.6389 65.2912-32.6389 18.8429,0 55.1329,22.1711 72.5628,30.8085 36.7903,18.2289 36.4491,13.3391 47.2118,56.1585 18.5605,73.8447 21.6805,95.5378 21.6805,190.502 22.8545-16.7455 29.488-53.9242 53.1656-71.9671 15.9551-12.1584 62.7061-31.9699 82.7905-42.3451 24.1924-12.4977 70.3863-11.6417 102.678.8097 25.2132,9.7226 26.7149,61.0434 38.8337,86.3-19.5841,37.012-29.1005,80.9649-58.3966,110.26-16.4428,16.4409-81.2569,74.7855-88.4986,85.6002 73.8698-17.2101 64.6879-50.8388 163.174-43.4825 106.797,7.977 75.6963,14.6587 120.035,98.6598l64.9876-22.5345c-1.7378-20.8824-61.3066-213.382-69.4976-224.293-31.6538-42.1601-107.688-102.523-149.477-144.313-45.1568-45.1568-100.203-107.621-146.942-146.847-14.5941-12.248-69.969-65.0599-78.2728-68.6224-11.26-4.83-106.295-30.7082-116.188-30.7082-15.7498,0-87.4663,26.1192-104.217,31.7974-25.0821,8.5033-54.3811,49.687-70.8914,70.5627-41.8179,52.8736-81.9249,106.054-125.539,157.371-33.3001,39.1807-102.482,115.394-125.598,157.312-33.5199,60.7822-58.3417,131.32-90.6085,192.301z" fill="#606"></path>
   <path d="m2845.41,3280.66c-4.7529,20.4024-49.5723,138.53-58.8921,147.849-9.4229,9.4229-120.629,53.8818-142.408,64.3322-30.1916-14.4861-91.2302-26.3997-125.904-37.3127-76.2641-24.0035-53.2187-9.0441-88.0224-75.1941-75.0303-142.606-45.4055-83.9751-188.675-143.199-72.7054-30.0547-168.804-58.9788-246.87-85.0055-86.06-28.6918-163.024-56.1816-247.529-84.3442-155.022-51.663-343.276-108.14-494.09-169.658-74.3295-30.3198-172.388-59.7576-247.21-84.6643-42.189-14.0437-79.173-26.366-122.433-40.7837-26.0488-8.6807-107.044-54.2703-116.26-19.7547 49.8962,11.6244 162.369,55.5773 212.183,76.1686 65.405,27.0358 146.285,54.7503 215.501,78.2882 147.066,50.0109 286.571,105.186 431.153,156.427 139.867,49.5694 293.947,98.8892 432.27,155.312 69.8012,28.472 144.29,53.5454 215.157,78.6323 60.7475,21.5051 54.0621,7.8277 82.4175,64.4777 12.2856,24.5442 37.2077,76.4549 43.4873,103.408 65.3269,5.4363 182.71,59.8463 244.825,59.8463 17.1445,0 94.6857-37.998 116.428-46.7877 59.6844-24.1298 50.5285-39.4757 79.5152-89.1424 30.2658-51.8567 22.5403-61.2439 83.6965-84.9611 43.0015-16.6761 82.4676-29.0947 122.977-45.6811 154.059-63.0782 328.43-129.269 484.952-184.237 158.015-55.4934 328.771-120.453 485.146-184.043 80.3615-32.6794 164.988-64.4498 243.814-93.5001 67.9564-25.0435 186.291-62.5606 244.143-93.1724-2.7634-11.8596-22.495-59.8453-32.6437-59.8453-28.5655,0-709.625,283.774-812.728,318.908-131.036,44.6546-277.566,107.685-405.958,159.86-54.6703,22.2174-374.917,155.02-408.042,157.776z" fill="#c93"></path>
   <path d="m1191.48,4608.15 37.7532-38.1224 27.5332-266.549v-125.133c0-70.8798-128.35-163.334-179.539-190.419-1.3311-59.7923-153.781-584.964-179.538-636.546-44.3009-88.7183-118.479-153.858-186.331-221.711-96.4872-96.4882-91.0683-122.42-270.676-137.366 16.7185,24.9674 118.039,116.935 148.131,145.659 50.0514,47.7756 103.665,92.5613 152.455,141.336 42.4753,42.4627 78.1157,126.229 110.896,182.893 17.8896,30.9232 50.5555,184.864 65.2604,233.971 46.4301,155.053 79.7629,315.094 126.463,466.557 31.5102,102.196 32.1743,123.596 84.4782,209.313 48.8889,80.1196 63.1138,110.318 63.1138,236.117z" fill="#909"></path>
   <path d="m3025.53,1909.9c11.5463,51.7642 64.7129,188.402 64.7129,233.683 0,5.9664-33.464,78.3181-38.0838,87.0489 22.8613,43.2059 72.6929,91.0972 92.5555,130.507 16.5941,32.9261 25.9264,166.267 45.3891,183.114 27.1149,23.4695 255.629,121.02 308.181,148.827-17.1156-73.4659-247.351-472.49-247.117-500.738l19.7701-217.468-7.9144-179.429 2.6198-5.2396-168.551-37.7021-71.5622,157.397z" fill="url(#linearGradient3798)"></path>
   <path d="m1844.35,1942.28c0,66.8229-19.2593,177.953-27.7202,249.748-4.5495,38.5995-12.5815,85.8662-15.8047,125.65-5.4141,66.8392-4.9322,61.668-34.8548,106.599-67.9207,101.986-159.953,240.158-215.217,344.335l86.8552,27.8349c36.2081-24.2464 63.3992-88.4446 108.731-119.773 44.11-30.4836 98.0516-52.7271 117.69-110.814 37.787-111.77 89.8567-219.739 148.977-308.029-14.4553-62.0468-7.8826-60.948 11.5646-113.569 3.601-9.7429 42.8415-108.779 42.8415-109.494 0-32.6553-79.3514-72.7787-81.6088-174.098-19.1687,10.1429-52.9825,25.3394-74.4173,34.3941-54.1324,22.8651-31.2576,23.2555-67.0368,47.2147z" fill="url(#linearGradient3790)"></path>
   <path d="m4172.91,4570.07c0-188.283 72.3295-331.988 137.838-460.623 68.2494-134.019 119.748-276.168 186.681-411.781 71.3598-144.581 152.158-234.528 236.911-361.551 34.3536-51.4875 235.926-319.859 243.773-349.248h-16.3214l-97.8665,6.2527c-37.8776,24.5095-110.295,95.7913-145.606,131.114-66.8913,66.9115-86.5573,55.7093-120.353,157.116-23.484,70.4663-44.2488,138.221-68.0229,209.446-20.0304,60.0082-41.9172,153.536-66.7776,205.249-11.795,24.5355-100.018,127.928-122.924,154.545-60.5017,70.3044-51.1897,100.347-79.5856,192.443-18.4727,59.9157-114.947,392.756-114.947,434.548 0,21.3596 17.0491,80.8087 27.2026,92.49z" fill="#909"></path>
   <path d="m4004.25,3922.64c0-36.0953 91.0731-48.9651 136.014-48.9651l-34.7045-91.7401-79.5567-11.5656c-26.0324,17.3739-223.053,246.96-223.053,271.963v174.098c0,20.6097 117.769,59.7692 141.454,65.2864l56.6125-91.0403-40.2902-1.4487c-43.8112,0-61.4859,19.4328-71.2943-32.0769-5.0247-26.3862-15.7546-63.7288-15.7546-93.0558 0-4.4763 41.8719-48.9651 54.4052-48.9651 12.7348,0 21.7625,9.0267 21.7625,21.7625 0,18.2636-18.4795,30.4962-27.2026,43.524l11.4075,65.1833 86.5217.1031c76.5523,0 96.4168,49.7526 152.336,54.4062l73.4543-282.178-46.2517-.7316c-34.4664,0-49.6889,5.8826-92.5266,5.4026-61.8367-.693-59.8183,27.2412-81.5712,27.2412-12.7348,0-21.7625-9.0277-21.7625-21.7625v-5.4411z" fill="#c6c"></path>
   <path d="m4548.66,4408.74-122.88,345.33 204.39-20.67 168.15-370.19z" fill="#900"></path>
   <path d="m2606.03,761.679c0-50.9381 27.0503-152.336 70.7266-152.336h21.7625c56.0399,0 106.506,104.422 123.162,154.307 27.8484,83.4064 27.2624,146.768 7.4122,231.973-16.5768-23.856-20.5711-65.2874-70.7275-65.2874-58.4882,0-59.3509,35.6799-76.1677,70.7275-41.8478-28.0229-76.1677-162.075-76.1677-239.384zm-43.5249-16.3223v43.5249c0,122.433 83.418,315.553 195.86,315.553h5.4401c86.4012,0 125.134-105.939 125.134-195.86v-16.3223c0-134.151-78.7615-331.874-201.301-331.874-81.7726,0-125.133,101.296-125.133,184.979z"></path>
   <path d="m2225.19,865.049c0-82.084 36.9079-223.063 108.811-223.063h5.4401c72.824,0 108.811,145.366 108.811,228.504 0,79.1914-19.2622,105.779-32.6437,163.217-19.7393-28.4084-25.51-73.5546-83.8382-62.5027-65.7819,12.4649-47.6513,50.8697-63.057,78.8241-24.0073-45.3717-43.524-99.48-43.524-168.657v-16.3223zm-43.5249-32.6427v76.1677c0,98.0786 62.5249,241.61 157.042,237.925 94.4872-3.6839 153.07-142.845 153.07-248.806v-54.4062c0-101.397-58.201-250.265-152.335-250.265-96.4592,0-157.776,139.506-157.776,239.385z"></path>
   <path d="m1523.36,4194.67c0,6.805-10.0706,10.888-16.3223,16.3223l54.2683,6.4426c2.5196-.6747 12.5449-9.1627 16.4592-11.8837 0-48.0359-6.1997-98.5528-11.1309-146.645-4.2459-41.4083-46.9563-60.6887-71.8456-85.9308-62.9028-63.7963-111.616-76.1879-210.814-99.2988l-38.0838,48.9651c20.9971-2.1967 13.8635-5.4402 32.6437-5.4402 11.073,0 96.3494,32.4394 108.81,38.0848 22.4189,10.1564 87.0499,25.4879 87.0499,54.4042 0,6.913-16.3031,17.0173-21.7625,21.7625-21.1099-10.1294-154.924-65.2864-174.098-65.2864-26.3602,0-109.544,13.3507-119.693,27.2026 46.1004,12.3097 141.455,111.272 141.455,168.658v54.4052l174.612-47.179-15.8683-61.8849 20.3359-27.3587c32.2389,17.2245 43.9837,68.4181 43.9837,114.66z" fill="#c6c"></path>
   <path d="m1654.49,1100.41c2.6083,36.6795 70.8654,133.757 96.091,157.639 18.5884,17.5995 131.851,114.21 131.851,129.297 0,12.7348-9.0277,21.7615-21.7625,21.7615h-5.4401c-20.3456,0-65.7857-63.5967-92.49-70.7266v65.2864c0,24.6531 46.6768,86.004 59.9957,108.662 31.7107,53.9474 28.5019,49.0075 10.7318,125.282 5.6078,2.9668 35.7734,21.7625 38.0838,21.7625 12.302,0 100.928-85.365 119.693-97.9301-7.4585-11.1386-66.1809-102.311-70.4914-109.528l26.204-190.557 6.2035.853c-40.2641-19.319-126.269-22.8738-150.314-56.4274-16.6086-23.1774-78.0935-107.816-84.4994-130.738l-63.856,25.3635z" fill="#fc9"></path>
   <path d="m2606.03,761.679c0,77.3089 34.3199,211.361 76.1677,239.384 16.8168-35.0476 17.6795-70.7275 76.1677-70.7275 50.1564,0 54.1507,41.4314 70.7275,65.2874 19.8501-85.205 20.4362-148.567-7.4122-231.973-16.6558-49.8856-67.1217-154.307-123.162-154.307h-21.7625c-43.6763,0-70.7266,101.398-70.7266,152.336z" fill="#fff"></path>
   <path d="m2225.19,865.049v16.3223c0,69.1766 19.5166,123.285 43.524,168.657 15.4057-27.9544-2.7249-66.3592 63.057-78.8241 58.3282-11.0518 64.0989,34.0943 83.8382,62.5027 13.3815-57.4376 32.6437-84.0252 32.6437-163.217 0-83.1384-35.9874-228.504-108.811-228.504h-5.4401c-71.9035,0-108.811,140.979-108.811,223.063z" fill="#fff"></path>
   <path d="m791.587,4742.52 171.345-4.85-114.123-260.12-221.048-3.37z" fill="#900"></path>
   <path d="m2404.73,2927.02c0,52.4909 53.7247,119.692 103.371,119.692h32.6427c50.6316,0 108.811-52.4003 108.811-97.9301v-38.0838c0-55.2081-61.882-108.811-114.251-108.811-72.3044,0-130.574,54.9064-130.574,125.134z" fill="#ff9"></path>
   <path d="m3224.58,935.552-107.138,87.2735c29.8513,56.4158 48.3116,70.2321 68.554,143.628 16.1787,58.6598 68.2976,78.053 109.768,105.765l33.8601-48.0918c-7.9828-15.0876-38.0838-95.1301-38.0838-114.251 0-21.721 21.7625-65.778 21.7625-81.6088 0-11.5945-12.329-26.3862-16.3214-43.524-17.5002,20.1325-34.6534,87.0489-54.4062,87.0489h-10.8812c-12.5352,0-16.3214-3.7861-16.3214-16.3214 0-25.5659 45.392-104.122 55.3855-135.035 5.018-15.5242 25.7712-143.925 26.2513-164.401l-47.6301-5.0526-24.7987,184.571z" fill="#fc9"></path>
   <path d="m2388.41,2513.54v97.9301c0,38.2467 44.5254,126.247 54.4052,168.658 16.117-8.5284 46.5187-21.7625 70.7275-21.7625h38.0838v-21.7625c0-47.7843-2.0579-123.864-11.9473-162.151-4.4358-17.1754-9.3805-53.8596-22.6328-64.416-6.3799-5.0825-56.4033-29.14-63.35-29.14-1.5326,0-49.7391,29.0214-65.2864,32.6437z" fill="#cc3"></path>
   <path d="m3759.43,4015.13c0-15.6573 78.2863-98.4824 92.49-119.693l-103.273-11.6552c-16.5566,62.415-244.74,111.102-299.329,158.55l309.713,46.137 .399-73.3396z" fill="#d45500"></path>
   <path d="m3101.03,625.216 98.0169,169.105c0-47.3438 1.0352-75.7648 32.5068-91.0018l103.507,9.394c2.7654,3.9799 11.1656,13.8712 11.9348,16.4438l-6.3346,65.6701 60.9345-17.2226-61.6439-198.321-238.922,45.9327z" fill="#f96"></path>
   <path d="m2698.52,2937.9c-8.4657,101.731-63.4502,108.179-114.251,152.336 6.3799,1.6916 14.8293,5.4401 16.3214,5.4401 42.802,0 300.285-136.109 364.518-141.454-8.4484-36.2631-23.9408-76.1677-70.7275-76.1677h-32.6437c-49.0296,0-120.685,56.3069-163.217,59.8453z" fill="#cc3"></path>
   <path d="m1632.15,1060.86 96.13-40.79 52.86,62.8 19.58-218.156-201,66.218z" fill="#f96"></path>
   <path d="m2611.47,2780.13c26.8142,14.1883 57.6352,37.8843 65.2864,70.7266 61.8097-16.5035 117.793-113.656 147.296-168.777l-11.2822-43.4044c-17.0173-1.4159-19.3267-5.4401-38.0838-5.4401h-5.4401c-76.7556,0-129.724,93.878-157.776,146.895z" fill="#cc3"></path>
   <path d="m2078.29,2377.52 136.419-158.086-114.656-146.586c-7.4922,32.1569-49.2513,115.71-49.1116,141.397 .1234,22.709 21.375,137.632 27.3491,163.274z" fill="#606"></path>
   <path d="m2187.11,2703.96c0,48.034 16.918,109.786 52.5121,127.027 37.7571,18.2886 87.206,48.6759 127.026,57.9523 2.4415-29.3337 32.6437-70.4287 32.6437-70.7266 0-18.7841-67.5785-75.4235-82.8975-91.2003-19.4492-20.0304-129.284-46.3925-129.284-23.0521z" fill="#cc3"></path>
   <path d="m2888.94,2214.31c0,6.8744 70.4037,79.5461 80.3046,86.4494l76.2544-162.249-53.1888-158.145c-9.7679,41.9278-103.37,214.392-103.37,233.944z" fill="#606"></path>
   <path d="m4379.65,4727.85c12.9777-9.5096 119.692-305.831 119.692-337.315 0-7.0546-41.4757-60.2714-48.9651-65.2864l-102.091,343.146 31.3646,59.4559z" fill="#630"></path>
   <path d="m4809.23,4313.17-18.46-68.91-303.67,43.83 52.63,77.37z" fill="#630"></path>
   <path d="m2645.77,3438.35c14.4534-1.2598 97.9899-36.6515 105.979-44.6228 7.2484-7.231 41.0969-97.5889 44.7568-113.264l-160.653-43.4623 9.9174,201.349z" fill="#7f7f7f"></path>
   <path d="m2437.63,3286.9c1.3301,18.2559 38.7923,87.9048 48.5072,102.77 10.0899,15.4394 86.8764,37.2674 114.432,37.8833l-10.46-189.168-152.479,48.5149z" fill="#666"></path>
   <path d="m669.204,4341.13-45.172,86.62 164.849.87 59.158,5.17 33.45-86.74z" fill="#630"></path>
   <path d="m892.251,4455.82c0,21.4184 102.134,246.826 114.252,255.706l38.9272-64.7399-122.222-260.901-9.1954-.7923c-5.4585,23.43-21.7625,49.3622-21.7625,70.7275z" fill="#630"></path>
   <path d="m1681.13,1730.1c0,42.3635 32.1839,81.6088 70.7266,81.6088 41.6251,0 81.6088-36.4587 81.6088-76.1677 0-43.6955-36.318-76.1677-81.6088-76.1677-33.3618,0-70.7266,37.3648-70.7266,70.7266z" fill="#936"></path>
   <path d="m3335.06,1327.5c0,39.2222 27.3973,76.1677 65.2864,76.1677h21.7625c32.7324,0 65.2864-39.0573 65.2864-70.7275 0-43.2126-31.7656-76.1677-76.1677-76.1677h-10.8812c-30.7294,0-65.2864,40.0685-65.2864,70.7275z" fill="#936"></path>
   <path d="m2116.38,2937.9 272.935,93.397 1.0593-4.8888-34.61-83.0671c-35.3001,0-87.4036-7.0257-122.946-13.0683-72.6206-12.3454-59.0983,2.856-116.439,7.6272z" fill="#cc3"></path>
   <path d="m2546.18,402.602v5.4401c0,19.7875 185.327,76.1677 206.741,76.1677 12.7348,0 21.7615-9.0267 21.7615-21.7615v-5.4411c0-24.4642-177.677-62.2223-206.741-76.1677-11.9984,6.3481-21.7625,4.7461-21.7625,21.7625z"></path>
   <path d="m1534.24,3944.41c7.0383,10.5121 39.7205,37.1151 53.0962,50.274 43.5413,42.8386 10.8909,53.1628 25.165,78.6333 9.739,17.3759 126.663-36.3652 150.242-41.8584l-228.503-87.0489z" fill="#d45500"></path>
   <path d="m2176.22,516.853v5.4401c0,19.3817 11.9569,14.4476 27.2026,21.7625 21.1938-18.4217 174.098-85.9462 174.098-103.37 0-12.7184-7.0768-27.2026-21.7625-27.2026-17.6486,0-179.538,85.5115-179.538,103.37z"></path>
   <path d="m1915.33,2549.19c23.0926-7.0402 122.104-109.844 121.607-128.455l-12.65-86.7906-6.5698-2.8377-102.387,218.083z" fill="#fff"></path>
   <path d="m3002.93,2339.33 119.948,136.124c-10.8938-130.911-71.8909-133.65-87.0489-190.42l-9.7506.4868-23.1485,53.8095z" fill="#fff"></path>
   <path d="m2524.42,1229.57c-32.0413,0-68.4634-15.5445-104.21-14.8196l114.08,62.1355 109.822-69.0783c-37.8072.8424-87.1318,21.7625-119.693,21.7625z"></path>
   <path d="m2448.25,2078.29 59.8463,81.6078 8.9458-1.1682 29.1381-47.7968c-7.3814-4.9418-58.9605-48.9651-59.8463-48.9651-9.0075,0-30.5579,12.3396-38.0838,16.3223z" fill="#606"></path>
  
 </g>
<path d="m871.7767,446.752a30.0613,11.5235 0 1,1 -60.1225,0 30.0613,11.5235 0 1,1 60.1225,0z" fill="#f00" fill-rule="evenodd" filter="url(#filter3778)" opacity=".5" stroke="#000" transform="matrix(2.71112,-.22316,.22316,2.71112,-91.97965,191.93179)"></path><path d="m871.7767,446.752a30.0613,11.5235 0 1,1 -60.1225,0 30.0613,11.5235 0 1,1 60.1225,0z" fill="#f00" fill-rule="evenodd" filter="url(#filter3778)" opacity=".5" stroke="#000" transform="matrix(2.71112,-.22316,.22316,2.71112,382.31645,161.94755)"></path></svg>
