<?xml version="1.0" encoding="UTF-8" standalone="no"?>
<svg viewBox="0 0 744.09448819 1052.3622047" xmlns="http://www.w3.org/2000/svg">
<g transform="matrix(3.72602,0,0,3.72602,-46.79683,-1462.7801)">
<path d="m94.78634,616.94615c0,0-57.80895-6.30307-59.65349-2.59539-1.84503,3.70767 1.53769,19.2897 6.76504,22.25582s50.12099,14.4648 50.12099,14.4648l64.88104-23.73894c0,0-11.99198-16.68936-9.84005-23.36809 2.15285-6.67379-48.58312,10.38641-52.27353,12.9818z" fill="#26231f"/>
<path d="m91.77396,416.66927c0,0-18.19572-6.89723-19.40848-6.27039 0,0-.63498-1.04013-1.03965-1.25468-1.42775-.75191-4.62556-1.28631-7.97183,1.35898-.28567.22592-.58526,1.39211-.86621,1.67191l-12.30355,10.24302 3.4659,21.84159 11.35063-2.1944c0,0 9.01091-1.25327 9.96367-1.46286s17.84883,1.67244 17.84883,1.67244l-1.03931-25.60561z" fill="#26231f"/>
<path d="m50.73284,448.84783c0,0 36.36653-6.47753 36.92002-5.74292s23.6914,12.95353 23.6914,12.95353-3.26582,6.54235-1.2177,10.01419l-19.31837-4.33943c0,0-38.4148,7.14442-39.74352,6.54327s-9.24358-16.15749-.33183-19.42864z" fill="#26231f"/>
<path d="m92.74801,464.75039c0,0 1.62759,9.8164-2.71279,11.78001 0,0 26.85479,9.4881 27.39712,7.19724s2.44139-10.14164 0-11.12443c-2.0548-.82557-16.40648-6.51856-22.35547-7.71589-1.12007-.22493-1.9427-.29216-2.32886-.13693z" fill="#26231f"/>
<path d="m102.24127,476.85682 31.19468,11.77847c0,0-3.79802,8.50633-2.71279,11.77906s-27.66765-4.58021-28.21049-5.56209 1.35618-3.5989 1.35618-3.5989-4.06897-15.70461-2.44138-15.05058l.8138.65404z" fill="#26231f"/>
<path d="m56.12785,501.72392c0,0 4.34038,16.03146-.2715,19.63083 0,0 39.87492,1.30909 42.85864-6.54373s4.6114-17.66928-4.88233-17.01426c-9.49408.65452-37.70481,3.92716-37.70481,3.92716z" fill="#26231f"/>
<path d="m32.5284,567.48888c0,0 6.51026,25.19431.2715,31.082s57.50567,8.50794 61.03276,5.56151c3.52617-2.94137 6.78129-34.35268 1.89849-37.29755s-63.20275.65404-63.20275.65404z" fill="#26231f"/>
<path d="m30.90105,561.59956c0,0 66.18639-.65404 68.08488.32676s45.84271-11.12496 49.91132-7.1978c6.45568,6.23035 5.69605,32.39305.27162,36.97084-11.94249,10.08486-46.38538,21.59828-49.3691,21.92457s-69.17543-2.65961-70.89931-6.82203c-.8141-1.9626-.16938-10.19362 2.81426-10.51992 3.55297-.39051 56.13358,8.12226 59.40516,4.90892 7.32373-7.19781 4.6114-30.10127.54279-31.41128s-59.44626.72671-61.57571-.9828c-.81326-.65397-2.16958-6.21698.8141-7.19726z" fill="#26231f"/>
<path d="m100.34301,520.37253c0,0-67.00092,7.19879-69.44195,12.76025s-1.08477,27.15691 2.71257,28.13867 65.3723.65408 65.3723.65408 39.60363-3.92566 40.41747-7.19781-1.62802-2.61761-3.25523-4.25392-1.6271-17.66824.81429-18.9773 2.44094-6.21651.54233-6.54328-37.16178-4.58069-37.16178-4.58069z" fill="#26231f"/>
<path d="m37.14035,537.38706c0,0-1.89891,17.01425.81327,18.32323s59.94811,3.59937 60.48998-.65455 1.62802-25.52102-1.08477-25.84828-55.87897,4.90845-60.21848,8.1796z" fill="#26231f"/>
<path d="m97.3585,529.20723 36.63222,4.10018c0,0 .25816,16.84022 2.15722,17.16697 0,0-36.34761,5.23568-37.70468,4.58113-1.35618-.65547-3.52571-24.53874-1.08476-25.84828z" fill="#26231f"/>
<path d="m54.77158,497.14285c0,0 46.11342-6.54427 47.74098-2.29034s.00046,24.21253-2.16955,25.52059-45.29992,7.52549-46.65662,6.54419-1.35587-4.90834 0-6.21744 39.56988-4.52979 41.50244-5.88872c3.25477-2.29085 4.06896-13.08759 1.35617-14.06988s-40.41714,4.25388-42.31601,1.96407-1.62736-5.23422.5426-5.56247z" fill="#26231f"/>
<path d="m101.15656,494.52563c0,0 31.19473,4.25294 32.00811,8.50686s-1.35616,20.61265-3.52663,20.93987-29.56625-2.94482-31.19428-3.27215 4.34039-24.21051 2.7128-26.17458z" fill="#26231f"/>
<path d="m101.42733,476.20278c0,0-60.48965,4.90795-61.57486,9.16089s1.35627,14.39659 2.98364,14.72381 59.67645-2.61761 60.76168-4.58067 .27093-4.25345.27093-4.25345-58.32004,4.908-58.86264,2.29039-.54216-4.90846.5426-4.90846c1.08521,0 55.06538-5.56197 56.42155-6.87052s2.44094-6.21602-.5429-5.56199z" fill="#26231f"/>
<path d="m101.97011,481.76536c0,0-55.53798,4.31769-57.43689,6.60853s-.06938,5.82453 2.10059,6.80525 57.23491-3.92513 57.23491-3.92513l26.58328,7.85229c0,0 0-5.88872 1.08523-6.21651 1.08477-.32826-28.21049-12.76025-29.56712-11.12443z" fill="#26231f"/>
<path d="m47.13466,472.14909c2.44103,0 47.2858-10.39678 47.94161-7.26158 .65489,3.13618-.70127,13.27839-1.515,13.27839s-45.57116,5.56197-46.11376,4.25392c-.40337-.9744-.37839-1.62894.18575-2.39168 .30946-.41975.89301-.30258 1.171-.55372 1.08477-.98176.37883-4.7883.37883-4.7883s-1.54723.44588-2.49108.0672c-.33227-.13293-.3215-2.60424.44264-2.60424z" fill="#26231f"/>
<path d="m48.80425,474.56649c0,0 43.67179-7.52556 43.94318-5.56248s-1.62756,7.85283-1.62756,7.85283l-42.31562,2.61712c0,0 .81322-4.57971 0-4.90747z" fill="#26231f"/>
<path d="m50.43169,450.35445c4.25679-4.22875 32.09-5.38949 36.77057-6.57249 4.44325,3.27411 22.76075,12.5008 23.71972,12.78946 1.08476.32722 1.08476-.98176 1.35616-2.29085s-21.85678-13.91262-21.85678-13.91262c-1.21851-.86759-1.93786-1.26802-2.79623-1.70256-5.61629.65453-39.79139,4.73295-41.53338,7.43609-1.89891,2.94437-5.42598,24.21252 3.5258,26.50188 0,0 33.574-5.41672 41.47896-7.31752 .0079.0406.01462.0881.02337.12016 .27105.9813 19.53071,4.58021 19.53071,4.58021s1.08512,0 .81326-2.61761-18.98769-7.19827-18.98769-7.19827c-.2379-.17299-.44047-.14433-.61484.009-5.26272.39397-38.0029,6.81063-39.80226,5.88032-1.89847-.98234-6.23886-11.12498-1.62736-15.70564z" fill="#26231f"/>
<path d="m97.86145,618.80482c0,0 2.76758-4.82491.61472-6.30797s-64.88105-7.0495-65.80376-5.19073c-.92235,1.85383-11.75063,26.5963-1.91099,33.27009 9.83966,6.67873 57.50272,20.33776 61.83904,18.59268 1.84521-.74155-1.50395-12.17602-1.50395-12.17602s-48.97756-9.96125-51.35185-15.21119c-1.84451-4.07851-3.6896-17.80177.92272-17.80177s56.57843,7.04947 57.19408,4.82491z" fill="#26231f"/>
<path d="m93.05457,659.67796c0,0 65.6909-24.92545 66.61327-31.60414 .92237-6.67379-2.45992-7.0495-2.15228-7.0495 2.34161,0-66.72629,19.66054-67.64865,26.70505-.9228,7.04946 1.34294,11.94859 3.18766,11.94859z" fill="#26231f"/>
<path d="m97.8616,618.80402c0,0 54.73342-15.21131 55.34906-18.17747 .61473-2.96613 1.22957-11.12792-1.53801-10.75715s-53.50345,17.43098-54.42625,19.66049c-.92236,2.22456-2.15276,9.64485.6152,9.27413z" fill="#26231f"/>
<path d="m31.10398,563.48391c0,0-1.62305,2.54444.3241,3.27163s61.99231-1.09103 63.61504,2.18209 7.55277,24.28858-.97347,32.35651-61.26976-2.72395-61.26976-2.72395-1.37181,5.26986.25129,5.99657 62.96599,5.81851 65.56231,4.36521c2.5962-1.45837 8.76322-30.90706 1.94706-42.53977-2.98464-5.09532-69.45656-2.90829-69.45656-2.90829z" fill="#e20415"/>
<path d="m104.13138,565.3023c0,0 8.38547,30.32722-3.57072,43.26448 0,0 47.47809-16.87237 48.20457-19.27498s5.42202-23.89804-.74501-30.44231c-2.53761-2.69275-39.02064,8.27105-43.88884,6.45281z" fill="#ae0915"/>
<path d="m96.01717,612.2049c0,0 2.08264,5.12151-1.23083,4.74086s-53.94524-6.19921-56.54188-4.01416c-4.65713,3.91034-4.50544,15.4832-2.64405,19.30953 1.94759,3.99933 53.92493,17.04535 53.92493,17.04535v5.81852c0,0-53.22848-15.63647-55.50013-18.5432s-2.59664-24.72273.64906-27.62954 61.3429,3.27264 61.3429,3.27264z" fill="#078cc9"/>
<path d="m96.66596,522.764c0,0 1.29839,3.99982-.64879,4.36267s-56.47463,4.72653-59.07122,8.72637-3.24569,20.35905-.32454,21.45004 62.64122.72717 62.64122.72717 2.04374,3.79227-.27669,3.89551-60.74149-.26-63.98718-1.71388-3.57063-21.81443-1.94755-25.44994 61.99204-12.72514 63.61476-11.99794z" fill="#ee7500"/>
<path d="m99.26252,524.21908c0,0-1.94755,3.27165 0,3.27165s35.70188,5.08987 36.67547,3.27213 .3248-3.63598.3248-3.63598-36.6759-4.36268-37.00028-2.9078z" fill="#d2650c"/>
<path d="m102.1835,558.03006c0,0 .00044,5.08987 1.62317,4.36268s33.75486-7.27147 33.75486-7.27147l-1.62318-1.81774c0,0-32.78086,3.63548-33.75485,4.72653z" fill="#d2650c"/>
<path d="m102.9779,499.637c0,0 4.68947,16.91391-2.606,20.43214 0,0 25.17958,2.23503 26.8023.41722s3.72206-15.01152 3.72206-15.01152-24.34808-4.74729-27.91836-5.83784z" fill="#007429"/>
<path d="m101.90129,493.76623c0,0 .4087,2.05755-1.22415,2.05755s-55.9163,3.65772-57.54888,2.74318-3.87748-10.97223-2.24495-12.34406 61.01798-8.22953 61.22239-7.08708-.6122,1.14344-.6122,1.14344-59.59008,6.62931-59.38578,8.00064 .40813,8.45889 1.83681,8.68735 57.95676-3.20102 57.95676-3.20102z" fill="#6b1f7c"/>
<path d="m103.94215,479.13582 .40822,1.37233c0,0 24.89704,10.5149 25.91736,9.82928s1.02043-1.37185 1.02043-1.37185-27.14212-10.97221-27.34601-9.82976z" fill="#6b1f7c"/>
<path d="m103.94205,493.30928c0,0-1.50534,1.88251-.34467,2.1979s24.83355,5.11757 24.83355,5.11757l-.81649-1.14295c0,0-23.26417-7.08658-23.67239-6.17252z" fill="#6b1f7c"/>
<path d="m95.1239,469.63773c0,0 .25596,5.4557-1.538,7.17901 0,0 20.50683,4.5945 22.04484,4.5945 2.41838,0 .76872-6.31831.76872-6.31831s-20.50678-6.31637-21.27556-5.4552z" fill="#7e7416"/>
<path d="m48.21335,472.79662c0,0 38.45096-3.44615 43.32132-4.88176 .74409-.21899-1.53801-1.4356-1.53801-1.4356l-41.78331,6.31736z" fill="#7e7416"/>
<path d="m49.23862,480.26238c0,0 33.58037-2.01004 33.32405-1.14887l-32.55518,2.87171-.76887-1.72284z" fill="#7e7416"/>
<path d="m87.68946,440.92355c0,0 0,1.72282-1.53801,1.72282s-32.64315,3.21331-35.41856,6.20119-5.59536,12.46313.30036,18.49284l39.77506-5.60743-.29925,2.16171c0,0-40.07958,6.78509-41.52636,5.74302-7.1775-5.16904-1.53818-22.68401-1.53818-22.68401l40.24494-6.03014z" fill="#c35f10"/>
<path d="m89.4834,441.49811-.51281,2.01004c0,0 21.02005,12.34703 21.27602,11.19861s-20.50635-14.35753-20.7632-13.20865z" fill="#c35f10"/>
<path d="m92.55986,462.45925c0,0-1.41973,1.42325.18756,2.29084s16.47449,4.31324 16.47449,4.31324-15.89284-7.46525-16.66205-6.60408z" fill="#c35f10"/>
<path d="m50.77732,475.09282c0,0 .25597,2.58498-.25689,3.44615s36.4383-.57345 39.98864-2.87121 1.53848-4.30732 1.53848-4.30732-39.47608,2.58399-41.27022,3.73238z" fill="#80827f"/>
<path d="m109.30642,505.47462c0,0 .74451,8.33977-1.48902,11.25844 0,0 1.48902,1.25067 2.23353,0s.37203-9.17375-.74451-11.25844z" fill="#38a825"/>
<path d="m111.91217,505.47462c0,0 .7445,8.33977-1.48901,11.25844 0,0 1.48901,1.25067 2.23351,0s.37248-9.17375-.7445-11.25844z" fill="#38a825"/>
<path d="m115.63435,506.30906c0,0 .7445,8.33977-1.48902,11.25844 0,0 1.48902,1.25124 2.23352,0s.37247-9.17325-.7445-11.25844z" fill="#38a825"/>
<path d="m34.67426,570.0264c0,0 10.38567,15.99727 3.24569,25.44934 0,0 45.76329,8.36454 51.6054,4.72604 5.84269-3.63344 7.12381-24.38154 3.24591-29.44868-1.94752-2.54246-58.097-.7267-58.097-.7267z" fill="#fefbde"/>
<path d="m99.25526,615.14135c0,0-2.26485,1.05795-.31774,1.05795s52.90409-14.53895 52.90409-16.724c0-2.18011-1.9603-2.26415-1.9603-2.26415s-50.43849,16.04184-50.62605,17.9302z" fill="#078cc9"/>
<path d="m93.29898,652.25272c0,0-2.47536,3.57911-.85307,2.85251s63.47997-25.5928 64.58903-26.17614c1.10813-.58828 1.62272-5.09185-.3248-4.36515s-46.85854,24.41616-63.41115,27.68878z" fill="#078cc9"/>
<path d="m95.36803,620.93026c0,0-4.8691,12.7247-3.24591,24.3569 0,0-50.55177-9.92177-52.37743-13.50583-1.82472-3.58406-2.47377-15.5771.44693-16.30875s55.17641,5.45768 55.17641,5.45768z" fill="#fefbde"/>
<path d="m98.61327,621.29065c0,0-6.49139,9.09113-4.21947,22.90346l57.77283-20.35756c0,0-9.08814-10.17876-6.81628-18.17742l-46.73709,15.63152z" fill="#d9b68b"/>
<path d="m96.34162,529.67336c0,0-3.26053,18.77166 2.10198,25.38261 0,0-60.19912,1.52063-61.17267-1.02423s-1.62308-14.90631 2.27166-16.36071 56.79904-7.99767 56.79904-7.99767z" fill="#e0dcbf"/>
<path d="m98.45597,532.80875c0,0-3.73754,16.85996 3.40303,21.94981 10.71079-2.90879 32.45685-3.99932 32.45685-3.99932s-3.40647-13.39551-.48547-15.94045c2.92111-2.54543-35.37441-2.01004-35.37441-2.01004z" fill="#b1936c"/>
<path d="m55.12147,499.85967 1.00634,1.86421c0,0 40.86294-1.13751 41.51208-2.59191l.64879-1.45389c0,0-42.84227.72769-43.16721,2.18159z" fill="#009935"/>
<path d="m55.12147,522.76472c0,0 .32494,1.81774 1.94759,1.81774s38.6233-2.90779 39.27244-4.36218 1.29839-2.90928-1.62273-1.45489-38.62327,2.18159-39.59731,3.99933z" fill="#009935"/>
<path d="m58.36761,503.85892c0,0 4.21884,11.26977.97355,14.90573 0,0 36.02687-.36381 38.29873-2.90822s3.56991-13.81624.64879-13.81624-39.92107,1.81873-39.92107,1.81873z" fill="#fefbde"/>
<path d="m102.30953,481.88013c0,0-3.2649,6.85769-1.01997,9.37247 0,0-55.50822,5.48584-56.52878,4.11449s-1.83686-5.48533-.20389-5.71422 57.75264-7.77274 57.75264-7.77274z" fill="#fefbde"/>
<path d="m103.72287,484.6263c0,0-3.86199,1.82466-1.00488,6.85423 8.7752,2.74317 26.12129,7.54382 26.12129,7.54382s-.81602-4.57127 1.83681-6.40088l-26.95322-7.99717z" fill="#d9b68b"/>
<path d="m87.17706,445.23041c0,0 0,10.91189 2.56328,13.7831 0,0-36.40006,6.60404-37.93824,5.16799s-3.07543-11.19763.25689-13.20817 35.11806-5.74292 35.11806-5.74292z" fill="#f0e7af"/>
<path d="m89.22694,446.6668c0,.86117-1.02519,9.18758 2.56363,12.63376s16.66205,7.17894 16.66205,7.17894-2.05076-9.18901.76884-10.33741-19.99451-9.47529-19.99451-9.47529z" fill="#b2946d"/>
<path d="m73.59101,413.675 5.12681,26.99127 8.90719-1.10986 3.90966,1.39714-1.02561-22.10957c0,0-15.63646-6.60458-16.91805-5.16898z" fill="#e20224"/>
<path d="m64.87578,413.10068c0,0 3.58842,28.71505 5.12641,28.71505s6.40841-1.43604 6.40841-1.43604-5.38321-27.56573-5.89559-28.4269c0,0-5.12682-.28771-5.63923,1.14789z" fill="#e63542"/>
<path d="m51.54616,423.69512c0,0 10.76622-9.76251 11.27909-8.61462l3.58832,25.84294-10.76626,2.01048-4.10115-19.2388z" fill="#e1033c"/>
<path d="m77.69227,421.14085c-.10856.85375-.51237,1.14888 1.02563,1.4361s9.48441.86167 9.48441.86167l.51242-.28772c0,0-10.76605-4.0196-11.02246-2.01005z" fill="#fec500"/>
<path d="m78.20512,424.58778c-.10901.85276-.51282,1.14838 1.02562,1.4356s9.48441.86118 9.48441.86118l.51233-.28722c0,0-10.76596-4.0201-11.02236-2.00956z" fill="#fec500"/>
<path d="m78.20512,428.31981c-.10901.85326-.51282,1.14938 1.02562,1.4361s9.48441.86118 9.48441.86118l.51233-.28722c0,0-10.76596-4.0201-11.02236-2.01006z" fill="#fec500"/>
<path d="m66.92621,419.70547c0,0-1.2816,1.72283.51237,2.01006s3.58881-1.14889 3.58881-1.14889l-1.02519-1.72233c0,0-2.56362-.86166-3.07599.86116z" fill="#fec500"/>
<path d="m83.07553,447.81411c-.0014.1488-.78518.24273-2.01992.51265-1.23796.25756-2.92027.7445-4.79942,1.30954s-3.625,1.00255-4.91851,1.139c-1.29263.1493-2.10069.043-2.10466-.0895-.0057-.14683.77187-.29364 2.00006-.61745 1.23085-.31145 2.90742-.84485 4.79274-1.41188 1.88312-.56751 3.6484-.95954 4.94852-1.04061 1.30103-.0939 2.10417.0677 2.10118.19823z" fill="#26231f"/>
<path d="m84.3571,452.40889c-.0053.27931-2.40255.49139-5.3541.85425-2.95332.35099-5.37264.58086-5.41191.29414-.03795-.26597 2.32443-.9457 5.3179-1.30263 2.99568-.36829 5.45605-.12606 5.44811.15424z" fill="#26231f"/>
<path d="m100.2499,486.00536c0,.14139-1.15452.26102-3.01653.37966s-4.43128.24768-7.25791.4815-5.37351.55615-7.21602.83101-2.98642.45927-3.01643.31739c-.0278-.13003 1.07108-.56802 2.90565-1.02382s4.40438-.90269 7.25973-1.13553c2.85538-.2363 5.44548-.24866 7.31624-.18687s3.02527.19824 3.02527.33666z" fill="#26231f"/>
<path d="m73.59101,506.39223c-.0017.14484-.77401.25212-2.00703.47557l-4.83824.90664c-1.90182.33913-3.66022.54825-4.94839.50078-1.29121-.0311-2.07173-.31638-2.04843-.44738 .02154-.14485.79124-.11866 2.02473-.26894 1.23428-.13347 2.93451-.44788 4.83122-.78602s3.64186-.58334 4.91903-.61794c1.27813-.045 2.06975.10332 2.06711.23729z" fill="#26231f"/>
<path d="m64.87587,509.55069c.04351.28228-.98308.67776-2.24584.94818-1.26408.25855-2.26649.44788-2.36865.20021-.10945-.263.87876-.92741 2.19323-1.19485 1.30675-.27981 2.37903-.22246 2.42127.0465z" fill="#26231f"/>
<path d="m95.89229,538.8395c-.00046.14732-1.13645.2457-2.95472.48694-1.82046.2284-4.31963.65552-7.10213,1.11131s-5.33865.74104-7.19793.74054c-1.86061.0134-3.0023-.19822-2.99568-.32973 .0057-.1483 1.14346-.19131 2.96347-.38559 1.82221-.18192 4.32318-.57197 7.10217-1.02876 2.77857-.4548 5.32712-.77515 7.18383-.8226 1.85614-.0598 3.00271.0949 3.00099.22789z" fill="#26231f"/>
<path d="m94.6107,544.00745c-.0503.13841-.74363-.091-1.87384-.17698-1.13153-.10085-2.69999.0222-4.45469.29611s-3.37831.51116-4.57296.50227c-1.19554.005-1.92724-.19922-1.91533-.33418 .01015-.14386.72906-.19577 1.87031-.38066 1.14478-.17105 2.71413-.51759 4.4997-.79245 1.78205-.2798 3.47231-.29859 4.66167-.00049 1.19515.28376 1.83462.76971 1.78513.88638z" fill="#26231f"/>
<path d="m96.91736,547.7402c-.0018.14287-.57195.25756-1.48371.42366-.91398.15918-2.17484.394-3.60427.54775-1.42811.15523-2.76045.12754-3.70488-.0682-.94796-.18736-1.49034-.48843-1.46077-.61646 .03045-.14238.60682-.0959 1.51726-.0974 .91176.007 2.1629-.0751 3.56498-.2274s2.69515-.27536 3.64178-.25311c.94707.0148 1.53137.15423 1.52961.29117z" fill="#26231f"/>
<path d="m63.08122,579.89821c-.02544.14831-1.46574-.0692-3.80217-.18786-2.33666-.13842-5.57072-.10876-9.16513-.0939-3.5926.0198-6.87493-.14336-9.22199-.58335-2.35145-.41525-3.73529-1.01837-3.70127-1.14195 .03535-.14831 1.45455.20268 3.78013.43009 2.32465.25212 5.55397.30155 9.14313.28178 3.5874-.0148 6.86162.0692 9.21739.39054 2.35818.30649 3.77443.77614 3.74991.90467z" fill="#26231f"/>
<path d="m57.18547,585.64301c-.0328.14337-.92974-.01-2.37476-.14336-1.44502-.14336-3.44392-.21257-5.66778-.17302-2.22337.0346-4.25115.10382-5.72379.0544-1.47308-.0396-2.3837-.17303-2.38286-.31145s.90418-.262 2.36393-.40537c1.45883-.13347 3.4784-.31638 5.73112-.35099 2.25183-.0445 4.30894.14336 5.76777.47458 1.46228.32133 2.31686.72671 2.28636.85523z" fill="#26231f"/>
<path d="m54.10967,593.39441c-.0053.13843-.85769.23235-2.2287.14337-1.37132-.084-3.2465-.39055-5.28415-.81075s-3.8676-.81568-5.19928-1.0678c-1.33001-.26201-2.16137-.41526-2.15532-.55862 .0043-.13842.8559-.23235 2.2273-.15325 1.37091.0742 3.24912.36088 5.28891.78108l5.19839,1.09746c1.32831.26695 2.15838.42515 2.15285.56851z" fill="#26231f"/>
<path d="m64.61933,623.83176c.00044-.13842 1.65367-.26695 4.32856-.37571 2.6744-.0989 6.37399-.19774 10.46728-.0791 4.09232.10876 7.79631.48447 10.45178.93928 .71359.14831 1.25776.34604 1.78029.48447 .5101.1483.94965.25706 1.3107.32133 .72245.14337 1.12091.0742 1.1399.1483 .02256.0593-.39719.2719-1.17167.24718-.38488-.01-.84963-.0643-1.38045-.1582-.52127-.084-1.1475-.25211-1.75474-.33121-2.65536-.2719-6.32942-.52896-10.40011-.63772l-10.43991-.21751c-2.67581-.0742-4.33209-.20269-4.33165-.34111z" fill="#26231f"/>
<path d="m76.1547,628.14286c.01059-.13842.91221-.18291 2.35311-.01 1.44047.1582 3.4039.56357 5.54167,1.07276s4.06192.9541 5.4662,1.22599c1.40209.28179 2.28072.43504 2.27543.5784-.0044.13347-.90384.23729-2.3522.13347-1.44801-.0939-3.42953-.43503-5.57523-.94421s-4.06324-1.02331-5.45825-1.35948c-1.39325-.35099-2.26265-.55368-2.25074-.69704z" fill="#26231f"/>
<path d="m75.1291,633.30903c.07017-.27684 3.52791.61794 7.82328,1.45834 2.14703.42515 4.09681.74648 5.51294.95411s2.29937.31638 2.30017.45975c.0022.13347-.89452.28178-2.34736.25212-1.451-.0247-3.44935-.23235-5.62242-.66738-4.35186-.85028-7.73678-2.19493-7.66661-2.45694z" fill="#26231f"/>
<path d="m123.57679,631.58896c.0393.3065-6.13434,1.32982-13.57108,3.40611-7.44593,2.05157-13.24488,4.61233-13.34418,4.34538-.10503-.24224 5.603-3.2578 13.12445-5.32915 7.50903-2.09606 13.7687-2.67446 13.7908-2.42234z" fill="#26231f"/>
<path d="m140.75197,620.09926c.0539.10876-1.94753,1.48306-5.43307,3.11443-3.47759,1.65609-8.45833,3.44071-14.03745,4.97816-5.57785,1.54733-10.6566,2.73378-14.31249,3.68789-3.65944.92939-5.91238,1.56713-5.94945,1.42868-.0353-.12857 2.16159-1.00847 5.79322-2.12573 3.62721-1.13206 8.69313-2.43716 14.24935-3.97461 5.55886-1.53249 10.51624-3.19353 14.02295-4.66177 3.51201-1.44845 5.60433-2.58547 5.66694-2.44705z" fill="#26231f"/>
<path d="m110.50372,576.45303c0,0 2.56363,10.62366.25641,17.22827 0,0 33.83647-8.32494 35.37449-11.77054s2.56363-8.61171.25643-10.33701-33.58055,2.01202-35.88733,4.87928z" fill="#e20415"/>
<path d="m115.26199,578.86565c0,0-2.60599,10.00571 0,10.00571s5.21155-2.08615 5.21155-2.08615l-.37203-8.33976c0,0-2.60599-1.66598-4.83952.4202z" fill="#ee7a00"/>
<path d="m124.56857,577.19412c0,0-2.60599,10.01066 0,10.01066s5.21155-2.08615 5.21155-2.08615l-.37247-8.33976c0,0-2.60555-1.66598-4.83908.41525z" fill="#ee7a00"/>
<path d="m134.24649,574.69346c0,0-2.60556,10.01066 0,10.01066s5.21155-2.08616 5.21155-2.08616l-.37204-8.33976c0,0-2.60599-1.67092-4.83951.41526z" fill="#ee7a00"/>
<path d="m126.5924,502.59184c0,0-24.34061-30.42552-29.3827-32.91262-2.10068-1.03617-3.43965.5423-2.69294,2.21619s22.04176,37.77765 25.02986,38.33575 9.53563-7.08019 7.04578-7.63932z" fill="#26231f"/>
<path d="m98.75712,471.02564c0,0 4.75262-7.08802 4.15332-8.28584s-3.27377.85574-3.91588-.17302-3.60424-8.98737-4.74726-7.6976-1.08079,4.95838-2.09274,3.44665-2.69205-3.30575-3.14309-2.16429 1.16068,3.89057-.20477,3.45999-1.92239-1.83949-1.80941-.33617 1.019,3.28895-.00045,2.78421c-1.01901-.50573-1.65407.18439-1.63906,1.53003 .0587,5.22437 8.90452,9.46988 9.80349,9.47978s3.68503-1.09847 3.59583-2.04374z" fill="#26231f"/>
<path d="m97.90118,473.5202c0,0-.79571-3.65668-.10107-4.29937s5.11355-6.2101 4.3011-5.80373-4.42819,2.78025-4.73491,2.35164-2.78915-10.56189-2.69868-9.2736 .7604,7.80042.35305,7.53842-4.94543-6.93234-4.76228-6.01284 3.88759,6.66538 2.8165,6.92393-4.4975-4.00526-4.29184-3.41006c.20477.59471 3.05747,4.08089 2.38533,4.39926s-3.63074-2.27304-3.03981-1.09202 5.05355,5.57978 6.30779,6.24123 3.54512,4.15252 3.54512,4.15252-.34466-1.13599-.08031-1.71538z" fill="#f4b891"/>
<path d="m114.88884,459.35869c0,0 28.13775,56.34305 33.86465,54.66968s8.46548-3.90494 8.46548-3.90494-39.59129-51.6007-40.33801-51.6007-1.74322-1.11526-1.99212.83596z" fill="#26231f"/>
<path d="m129.32579,476.22804c0,0-10.31369-14.98296-10.87814-14.98296s-1.8531-.90269-1.8531-.90269 8.62163,18.32279 10.07226,18.32279 2.65898-2.43714 2.65898-2.43714z" fill="#f4b891"/>
<path d="m170.65624,596.029c1.9524-6.27831 23.7527-4.05866 22.59335-1.53745s-24.54575,7.81083-22.59335,1.53745z" fill="#26231f"/>
<path d="m172.89504,595.13972c1.56934-4.6766 19.09369-3.02051 18.16165-1.14691-.93158,1.87855-19.73098,5.8235-18.16165,1.14691z" fill="#0d276a"/>
<path d="m145.33862,602.51588c5.64846-12.44293 20.79894-6.63427 20.79894-6.63427s.57594,3.67307-6.11316,6.59962c-4.89683,2.14054-16.48725,4.00428-14.68578.0347z" fill="#26231f"/>
<path d="m148.40151,601.48705c3.44539-7.58834 12.68614-4.04876 12.68614-4.04876s.35139,2.23942-3.72866,4.02404c-2.98642,1.31005-10.05593,2.44212-8.95748.0247z" fill="#0d2871"/>
<path d="m145.13962,548.36089c-.81291,1.30115 1.56051,10.88914 5.68861,11.27471s16.85576.77125 16.51197-3.0827 1.88054-13.65166-1.2154-12.49586-18.57734.45086-20.98518,4.30385z" fill="#26231f"/>
<path d="m134.82906,482.35893c.39675,1.10637 1.72865,2.53356 2.72824,2.6097l-2.72824-2.6097z" fill="#26231f"/>
<path d="m137.55698,484.96851c-.0194-.32232-.61696-.63771-1.32352-1.33229-.69022-.71928-1.14964-1.37282-1.40472-1.2784-.22066.0667-.003,1.19931.83012,2.05652 .85087.86759 1.93608.83249 1.89812.55417z" fill="#26231f"/>
<path d="m136.48413,481.65915c.0433,1.21908.88176,2.62206 1.76925,3.22171l-1.76925-3.22171z" fill="#26231f"/>
<path d="m138.25242,484.87864c.11563-.2808-.35394-.85821-.83365-1.65955-.44441-.8236-.66419-1.54536-.93516-1.56068-.22242-.0361-.36894,1.08461.20522,2.13265 .60019,1.01243 1.48018,1.33228 1.56359,1.08758z" fill="#26231f"/>
<path d="m137.52324,481.5924c-.29215,1.0599.20213,2.44211.974,3.03337l-.974-3.03337z" fill="#26231f"/>
<path d="m138.49747,484.62572c.12753-.28276-.20919-.8043-.4784-1.53052-.22331-.74252-.24228-1.37282-.49472-1.50283-.19021-.13694-.6558.79294-.31907,1.88447 .38351,1.052 1.20922,1.39063 1.29219,1.14888z" fill="#26231f"/>
<path d="m136.61721,484.90565c-.0525.88934.5821,1.65411 1.41752,1.70996 .83453.0544 1.55345-.62189 1.60684-1.51124s-.58343-1.65114-1.41796-1.7075c-.83542-.0539-1.55565.62042-1.6064,1.50878z" fill="#26231f"/>
<path d="m164.26693,493.42662c0,0 4.88277-2.82573 5.49974,1.32586 0,0 .49074,7.77721-4.69036,7.70746-.13593-.00092.0613-1.02675.0613-1.02675s-.17962-6.0074-.87073-8.00657z" fill="#26231f"/>
<path d="m164.67091,494.82054c0,0 4.04117-2.73032 4.41143.56703 0,0 .87029,3.88415-3.82492,5.04539-.13283.0326 0,0 0,0s.56401-3.50894-.58651-5.61242z" fill="#f09b75"/>
<path d="m165.28909,501.48462c-2.25195,8.98628-11.46324,14.0584-21.6251,12.5472-1.42016-.21108-3.07154.93032-4.51207.45578-1.64517-.54336-2.99523-2.71406-4.45648-3.52974-8.96978-5.00778-14.16809-14.7065-11.96149-23.51196 2.5676-10.23909 14.17523-15.39719 25.9262-11.51997s19.19613,15.31811 16.62894,25.55869z" fill="#26231f"/>
<path d="m163.78479,500.65662c-2.11786,8.45305-10.6822,13.25965-20.10837,11.88334-1.31646-.19428-2.75112.42459-4.08795-.0178-1.52478-.50227-2.8707-2.07574-4.22433-2.83663-8.31045-4.66711-13.10231-13.75686-11.0259-22.04128 2.41446-9.63199 13.20304-14.52857 24.09563-10.93412s17.76804,14.31457 15.35092,23.94653z" fill="#f4b891"/>
<path d="m160.23952,497.19212c.53622,3.49954-3.70975,6.86412-9.48395,7.51275s-10.89006-1.65415-11.42582-5.15221 3.93128-5.33556 9.70463-5.98861 10.67063.12952 11.20514,3.62807z" fill="#f4b891"/>
<path d="m160.16644,497.18039c.53231,3.47383-3.67833,6.81319-9.4058,7.4568-5.72748.64661-10.80134-1.64269-11.33313-5.11504s3.8973-5.30047 9.62343-5.94907 10.58502.13447 11.1155,3.60731z" fill="#f4b791"/>
<path d="m160.09461,497.16849c.52817,3.44665-3.64759,6.76179-9.32776,7.39999s-10.71306-1.63136-11.24088-5.07801 3.86419-5.26586 9.54311-5.90852 10.49851.13891 11.02553,3.58654z" fill="#f4b791"/>
<path d="m160.02153,497.15676c.52472,3.42192-3.61663,6.71234-9.24961,7.34508-5.63302.63624-10.62479-1.62046-11.14863-5.04089-.5265-3.42242 3.83065-5.23226 9.46235-5.86997s10.4129.14385 10.93589,3.56578z" fill="#f4b690"/>
<path d="m159.94971,497.14486c.52069,3.39622-3.58487,6.66143-9.17158,7.28877s-10.53607-1.60913-11.05639-5.00436 3.79712-5.19715 9.38203-5.82893c5.5854-.6308 10.32686.1483 10.84594,3.54452z" fill="#f4b590"/>
<path d="m159.87662,497.13264c.51724,3.3715-3.5539,6.6115-9.09297,7.2334-5.53857.6253-10.44781-1.59726-10.96416-4.96728s3.76402-5.16205 9.3017-5.78889 10.24038.15325 10.75543,3.52277z" fill="#f4b490"/>
<path d="m159.80469,497.1219c.51333,3.34529-3.5226,6.56008-9.01436,7.17753s-10.36-1.58638-10.87237-4.93069c-.51502-3.3453 3.73048-5.12745 9.22094-5.74885s10.15477.1572 10.66579,3.50201z" fill="#f3b490"/>
<path d="m159.73172,497.11c.50929,3.3191-3.49176,6.50966-8.93632,7.12118-5.44501.61502-10.27173-1.57551-10.78013-4.89412s3.69694-5.09234 9.14063-5.7088c5.44373-.61498 10.06825.16264 10.57582,3.48174z" fill="#f3b38f"/>
<path d="m159.65979,497.09777c.50538,3.29388-3.46033,6.45875-8.85815,7.06532s-10.18303-1.56315-10.6879-4.85605c-.50708-3.2934 3.6634-5.05824 9.0603-5.66975s9.98221.16758 10.48575,3.46048z" fill="#f3b28e"/>
<path d="m159.58682,497.08636c.50123,3.26819-3.42961,6.40783-8.78011,7.00947s-10.09477-1.55228-10.59567-4.81997 3.62986-5.02363 8.97955-5.62921c5.34965-.6046 9.89614.17154 10.39623,3.43971z" fill="#f2b18f"/>
<path d="m159.51489,497.07464c.49778,3.24297-3.39865,6.35741-8.70195,6.95409s-10.00606-1.54041-10.50343-4.78289 3.59676-4.98853 8.89922-5.58917 9.8101.17649 10.30616,3.41797z" fill="#f2b18d"/>
<path d="m159.4418,497.06274c.49341,3.21727-3.36722,6.30698-8.62379,6.89774s-9.91779-1.52953-10.41075-4.74581c-.4956-3.21578 3.56278-4.95442 8.81847-5.54963 5.25524-.59421 9.72358.18193 10.21607,3.3977z" fill="#f3b08e"/>
<path d="m159.36997,497.05151c.48939,3.19155-3.33637,6.25556-8.54574,6.84137s-9.82953-1.51817-10.31895-4.70824 3.52968-4.91982 8.73815-5.51057 9.63843.18637 10.12654,3.37744z" fill="#f3af8e"/>
<path d="m159.29758,497.04075c.4864,3.16536-3.30461,6.20515-8.46711,6.78553s-9.74083-1.50681-10.22628-4.67215c-.48766-3.16486 3.4957-4.88473 8.65738-5.46955s9.55192.19132 10.03601,3.35617z" fill="#f3ae8e"/>
<path d="m159.22461,497.02952c.48236,3.13915-3.27376,6.15323-8.38907,6.72916s-9.65256-1.49593-10.13404-4.63458 3.46215-4.85061 8.57662-5.43049 9.46631.19577 9.94649,3.33591z" fill="#f3ae8d"/>
<path d="m159.15268,497.01664c.47845,3.11443-3.24234,6.1038-8.31047,6.67379s-9.56474-1.48405-10.04224-4.598 3.42906-4.81501 8.49629-5.38994 9.37981.20021 9.85642,3.31415z" fill="#f2ac8d"/>
<path d="m159.07971,497.0059c.47442,3.08872-3.2115,6.05238-8.23199,6.61743s-9.47691-1.47269-9.95001-4.56042c-.47618-3.08824 3.39508-4.7814 8.4151-5.35041s9.2942.20566 9.7669,3.2934z" fill="#f2ac8c"/>
<path d="m159.00823,496.99351c.47039,3.06351-3.18019,6.00195-8.15429,6.56206s-9.38776-1.46181-9.85777-4.52384 3.36198-4.7463 8.33522-5.31036 9.20771.20961 9.67684,3.27214z" fill="#f1ab8c"/>
<path d="m158.93515,496.98177c.46648,3.03682-3.14923,5.95055-8.07613,6.50571s-9.29905-1.45044-9.76553-4.48676 3.32888-4.7117 8.2549-5.27032 9.12166.21405 9.58676,3.25137z" fill="#f1ab8c"/>
<path d="m158.86333,496.96988c.46245,3.0116-3.11839,5.90061-7.99809,6.44984s-9.21079-1.43906-9.67285-4.45018 3.29489-4.6766 8.17413-5.23028 9.03562.21999 9.49681,3.23062z" fill="#f2a98a"/>
<path d="m158.79025,496.95864c.459,2.98639-3.08697,5.84971-7.91993,6.39497s-9.12252-1.42818-9.58061-4.4131c-.46074-2.9859 3.26135-4.64347 8.09382-5.19122s8.9491.22394 9.40672,3.20935z" fill="#f2a88b"/>
<path d="m158.71796,496.94691c.45497,2.9602-3.05577,5.79878-7.84141,6.33812s-9.03426-1.41632-9.48882-4.37603c-.45633-2.9597 3.22825-4.60788 8.01349-5.15068 4.7843-.54132 8.8635.22839 9.31674,3.18859z" fill="#f2a88a"/>
<path d="m158.64488,496.93566c.45152,2.935-3.02435,5.74787-7.76325,6.28227-4.73845.53637-8.94556-1.40546-9.39615-4.33896s3.19429-4.57278 7.9323-5.11063 8.77743.23382 9.2271,3.16732z" fill="#f2a78a"/>
<path d="m158.57306,496.92427c.44749,2.90878-2.99305,5.69743-7.6852,6.2259s-8.8573-1.39359-9.30392-4.30188 3.16118-4.53817 7.85197-5.07158 8.69139.23877 9.13715,3.14756z" fill="#f1a689"/>
<path d="m158.50112,496.91203c.44358,2.88358-2.96255,5.64653-7.6066,6.17054-4.64489.52599-8.76948-1.38172-9.21212-4.26529s3.12763-4.50407 7.77165-5.03105 8.60487.24273 9.04707,3.1258z" fill="#f0a589"/>
<path d="m158.42804,496.89965c.43955,2.85787-2.93124,5.5961-7.52887,6.11468s-8.68034-1.37085-9.11945-4.22822 3.09409-4.46946 7.69089-4.991 8.51926.24767 8.95743,3.10454z" fill="#f0a48a"/>
<path d="m158.35622,496.88776c.43598,2.83265-2.9004,5.54518-7.45039,6.05881-4.55046.51561-8.59251-1.35948-9.02765-4.19064s3.06055-4.43486 7.61056-4.95146 8.43322.25212 8.86748,3.08329z" fill="#f0a488"/>
<path d="m158.28314,496.87652c.4316,2.80695-2.86898,5.49475-7.37223,6.00295s-8.50424-1.34811-8.93497-4.15456 3.02701-4.39976 7.52936-4.91142 8.34761.25707 8.77784,3.06303z" fill="#f0a388"/>
<path d="m158.21131,496.86528c.42758,2.78074-2.83813,5.44334-7.29462,5.94659-4.45602.50523-8.4151-1.33673-8.8423-4.11748s2.99348-4.36515 7.44993-4.87137c4.45426-.50474 8.26022.26151 8.68699,3.04226z" fill="#f0a288"/>
<path d="m158.13822,496.85403c.42413,2.75455-2.80636,5.39292-7.21558,5.89074s-8.32727-1.32586-8.7505-4.07991c-.42587-2.75405 2.95994-4.33154 7.36872-4.83183s8.17508.26646 8.59736,3.021z" fill="#f0a187"/>
<path d="m158.0663,496.84215c.42067,2.72933-2.77541,5.34199-7.13743,5.83487s-8.23856-1.314-8.65826-4.04284 2.9264-4.29643 7.28796-4.79178 8.08901.27091 8.50773,2.99975z" fill="#f0a187"/>
<path d="m157.99332,496.82992c.41665,2.70412-2.74409,5.29207-7.05938,5.77999s-8.1503-1.30361-8.56602-4.00723 2.8933-4.26085 7.20765-4.75174 8.00295.27585 8.41775,2.97898z" fill="#f09f87"/>
<path d="m157.92093,496.81852c.41308,2.67792-2.71279,5.24016-6.98076,5.72265s-8.06203-1.29126-8.47378-3.96918 2.85976-4.22722 7.12732-4.71268c4.26667-.48348 7.91679.28129 8.32722,2.95921z" fill="#ef9e86"/>
<path d="m157.84842,496.80678c.40859,2.65271-2.68195,5.19023-6.90317,5.66729s-7.97333-1.28039-8.38155-3.93211 2.82621-4.19212 7.04656-4.67214 7.83084.28475 8.23816,2.93696z" fill="#ef9c86"/>
<path d="m157.77603,496.79489c.40513,2.6265-2.65052,5.13881-6.82455,5.61093s-7.88507-1.26902-8.28931-3.89503c-.40602-2.62602 2.79311-4.15802 6.96623-4.6326s7.74468.29019 8.14763,2.9167z" fill="#ef9c86"/>
<path d="m157.70467,496.78333c.40064,2.60178-2.62014,5.08937-6.74697,5.55605s-7.7968-1.25764-8.19708-3.85845 2.75958-4.12291 6.88548-4.59255 7.65873.29513 8.05857,2.89495z" fill="#ef9b85"/>
<path d="m157.63112,496.77241c.39719,2.57559-2.58838,5.03747-6.66835,5.4992s-7.70853-1.24626-8.10484-3.82135c-.39807-2.57362 2.72604-4.08882 6.80515-4.55252s7.57257.29958 7.96804,2.87467z" fill="#ef9b84"/>
<path d="m157.55919,496.76118c.39328,2.54938-2.55695,4.98655-6.59018,5.44284s-7.61984-1.2349-8.01217-3.78478 2.69249-4.05322 6.7244-4.51198 7.48616.30403 7.87795,2.85392z" fill="#ef9b84"/>
<path d="m157.48621,496.74878c.38926,2.52417-2.5261,4.93613-6.51168,5.38747s-7.53202-1.22401-7.92082-3.7472 2.65939-4.0191 6.64452-4.47341c3.98379-.45234 7.4.30946 7.78798,2.83314z" fill="#ef9983"/>
<path d="m157.41382,496.73689c.3858,2.49797-2.49434,4.88571-6.43351,5.33111s-7.44286-1.21264-7.82769-3.71062c-.3866-2.49698 2.62541-3.9845 6.56331-4.43288s7.31405.31392 7.69789,2.81239z" fill="#ef9883"/>
<path d="m157.34131,496.72516c.38166,2.47226-2.46441,4.83479-6.35548,5.27527s-7.35505-1.2008-7.73591-3.67356 2.59232-3.9499 6.483-4.39284 7.22789.31837 7.60839,2.79113z" fill="#ee9783"/>
<path d="m157.26892,496.71392c.3782,2.44705-2.43253,4.78437-6.27686,5.21939s-7.26678-1.18941-7.64367-3.63646 2.55877-3.9153 6.40223-4.3528 7.14229.32331 7.5183,2.76987z" fill="#ee9783"/>
<path d="m157.1971,496.70153c.37417,2.42184-2.40123,4.73344-6.19926,5.16353s-7.17807-1.17755-7.55055-3.59939c-.37512-2.41987 2.52479-3.88019 6.32147-4.31325s7.05577.32825 7.42834,2.74911z" fill="#ee9682"/>
<path d="m157.12401,496.69029c.37026,2.39614-2.37027,4.68302-6.12065,5.10767-3.7499.42663-7.08982-1.16668-7.4592-3.56282-.37071-2.39415 2.49169-3.84558 6.24114-4.27369s6.97017.33319 7.33871,2.72884z" fill="#ed9482"/>
<path d="m157.05219,496.67954c.36624,2.36945-2.33905,4.63161-6.0426,5.05131s-7.00155-1.15579-7.36652-3.52573c-.36718-2.36895 2.45815-3.81098 6.16039-4.23316s6.88411.33715 7.24873,2.70758z" fill="#ed9482"/>
<path d="m156.97911,496.66715c.36231,2.34424-2.30811,4.58119-5.96445,4.99594-3.65545.41626-6.91328-1.14442-7.27428-3.48915s2.42461-3.77637 6.08007-4.19311c3.65456-.41625 6.7976.34209 7.15866,2.68632z" fill="#ee9482"/>
<path d="m156.90718,496.65542c.3584,2.31903-2.27717,4.53027-5.88629,4.94009s-6.82458-1.13306-7.18205-3.45207 2.39108-3.74178 5.99931-4.15358 6.712.34704 7.06903,2.66556z" fill="#ee9282"/>
<path d="m156.83374,496.64303c.3553,2.29381-2.24545,4.48034-5.80778,4.88422-3.56145.40588-6.73631-1.12118-7.08981-3.4145-.35526-2.29183 2.35753-3.70717 5.91899-4.11402s6.62595.35149 6.9786,2.6443z" fill="#ed9182"/>
<path d="m156.7618,496.6318c.35139,2.2676-2.2145,4.42891-5.72961,4.82786-3.51424.40092-6.64761-1.11031-6.99758-3.37793s2.32399-3.67256 5.83867-4.07348 6.53944.35643 6.88852,2.62355z" fill="#ed9181"/>
<path d="m156.6893,496.6199c.34724,2.24239-2.18325,4.3785-5.65115,4.77249-3.46745.39549-6.55978-1.09944-6.90578-3.34084s2.2909-3.63796 5.75791-4.03394 6.45385.36088 6.79902,2.60229z" fill="#ed9081"/>
<path d="m156.61736,496.60866c.34333,2.21619-2.15231,4.32708-5.57343,4.71614s-6.47108-1.08758-6.8131-3.30377c-.34379-2.21421 2.25735-3.60385 5.67758-3.99439s6.36735.36582 6.70895,2.58202z" fill="#ed8e81"/>
<path d="m156.54428,496.59693c.33942,2.19098-2.12094,4.27716-5.49482,4.66028-3.37346.38511-6.38282-1.07621-6.72131-3.26669s2.22381-3.56875 5.59726-3.95435c3.37213-.38411 6.2813.37077 6.61887,2.56076z" fill="#ed8d80"/>
<path d="m156.47246,496.58504c.33538,2.16527-2.09011,4.22623-5.41678,4.60491s-6.29455-1.06534-6.62907-3.23011c-.33585-2.1633 2.19027-3.53365 5.51694-3.91431 3.32447-.37966 6.19479.37522 6.52891,2.53951z" fill="#ed8d80"/>
<path d="m156.39937,496.57379c.33147,2.14007-2.05873,4.17533-5.33862,4.54806-3.27901.37522-6.20629-1.05346-6.53684-3.19254s2.15718-3.49953 5.43619-3.87425 6.10918.37966 6.43927,2.51873z" fill="#ed8c7f"/>
<path d="m156.32755,496.5614c.32745,2.11436-2.0279,4.1244-5.26057,4.4927s-6.11758-1.04259-6.44416-3.15645 2.1232-3.46395 5.35499-3.83422 6.0231.3851 6.34974,2.49797z" fill="#ed8a7f"/>
<path d="m156.25516,496.55065c.32399,2.08767-1.99606,4.07349-5.18195,4.43585s-6.02932-1.03122-6.35193-3.11839 2.08966-3.43082 5.27466-3.79516c3.18413-.36335 5.93706.38906 6.25922,2.4777z" fill="#ed8a7e"/>
<path d="m156.18219,496.53844c.31997,2.06294-1.96524,4.02355-5.1039,4.38146s-5.94106-1.01985-6.25969-3.0823 2.05655-3.39523 5.19433-3.75462 5.85103.3935 6.16926,2.45546z" fill="#eb897d"/>
<path d="m156.11025,496.52655c.3164,2.03723-1.9343,3.97263-5.02574,4.3251s-5.85279-1.00798-6.16745-3.04522c-.31643-2.03427 2.023-3.36112 5.11357-3.71459s5.76498.39895 6.07962,2.43471z" fill="#eb877c"/>
<path d="m156.03723,496.5148c.31243,2.01203-1.90297,3.92172-4.94764,4.26925s-5.76408-.99662-6.07522-3.00815 1.98947-3.32601 5.03327-3.67503 5.6789.4034 5.98959,2.41393z" fill="#eb877c"/>
<path d="m155.96534,496.50357c.30849,1.98581-1.87208,3.87129-4.86909,4.21338s-5.67626-.98575-5.98342-2.97107c-.30848-1.98385 1.95637-3.29142 4.95294-3.63549s5.59285.40785 5.89957,2.39318z" fill="#eb867b"/>
<path d="m155.89229,496.49266c.30452,1.95912-1.84073,3.81938-4.7914,4.15653s-5.58712-.97437-5.89075-2.93449 1.92283-3.25681 4.87262-3.59495 5.50635.41329 5.80953,2.37291z" fill="#ea847b"/>
<path d="m155.82041,496.47979c.30055,1.9344-1.80985,3.76945-4.71329,4.10116s-5.49885-.963-5.79807-2.89692 1.88885-3.2227 4.79141-3.5554 5.42074.41724 5.71995,2.35116z" fill="#ea837b"/>
<path d="m155.74808,496.46919c.29702,1.90871-1.77852,3.71805-4.6343,4.04481s-5.41103-.95113-5.70671-2.86033 1.85575-3.1876 4.71109-3.51536c2.85446-.32627 5.33512.42268 5.62992,2.33088z" fill="#ea837b"/>
<path d="m155.67505,496.45681c.29348,1.88299-1.74718,3.66811-4.55619,3.98944s-5.32232-.94076-5.61403-2.82326 1.82176-3.1525 4.63032-3.47581 5.24863.42762 5.5399,2.30963z" fill="#ea8179"/>
<path d="m155.60245,496.4454c.28907,1.85729-1.71629,3.6167-4.47808,3.93259s-5.23405-.92839-5.52179-2.78568c-.28951-1.85482 1.78822-3.11839 4.55001-3.43577s5.16256.43157 5.44986,2.28886z" fill="#ea8078"/>
<path d="m155.53057,496.43434c.28553,1.83208-1.68496,3.56627-4.39997,3.87721-2.71411.31145-5.14579-.91751-5.42956-2.7491-.28553-1.82911 1.75514-3.08428 4.46969-3.39572s5.07607.43651 5.35984,2.26761z" fill="#ea8078"/>
<path d="m155.45868,496.42194c.28156,1.80638-1.65407,3.51536-4.32186,3.82136s-5.05752-.90614-5.33732-2.71252c-.28156-1.80291 1.72159-3.04868 4.38893-3.35568s4.99045.44146 5.27025,2.24684z" fill="#ea7e77"/>
<path d="m155.38608,496.41054c.27759,1.77968-1.62318,3.46494-4.24374,3.7655s-4.96882-.89528-5.24509-2.67495 1.68805-3.01507 4.30817-3.31663 4.90439.44591 5.18066,2.22608z" fill="#ea7d78"/>
<path d="m155.3126,496.39881c.27407,1.75447-1.59139,3.41401-4.16517,3.70963s-4.88012-.88391-5.15286-2.63837 1.65451-2.97947 4.22785-3.27609 4.81833.45086 5.09018,2.20483z" fill="#e97c77"/>
<path d="m155.24116,496.38756c.26964,1.72926-1.56096,3.36311-4.08751,3.65328s-4.79186-.87204-5.06062-2.60128 1.62141-2.94537 4.14752-3.23605c2.5248-.29019 4.73184.4553 5.00061,2.18405z" fill="#e97c77"/>
<path d="m155.16769,496.37518c.26611,1.70354-1.52918,3.31217-4.00852,3.59791s-4.70403-.86166-4.96838-2.56471c-.26656-1.70058 1.58743-2.91077 4.06676-3.1965 2.47758-.28475 4.64579.46024 4.91014,2.1633z" fill="#e97a76"/>
<path d="m155.09579,496.36329c.26215,1.67735-1.49828,3.26224-3.93084,3.54205s-4.61533-.85029-4.87615-2.52764c-.26214-1.67487 1.55434-2.87615 3.98644-3.15645s4.56018.46519 4.82055,2.14204z" fill="#e97a76"/>
<path d="m155.0239,496.35221c.25817,1.65213-1.46695,3.21182-3.85229,3.48619-2.38445.27584-4.52706-.83793-4.78391-2.49056s1.52079-2.84106 3.90569-3.11641c2.38357-.27437 4.47367.46963 4.73051,2.12078z" fill="#e87975"/>
<path d="m154.95043,496.34031c.25552,1.62643-1.43561,3.1609-3.77374,3.42983s-4.43879-.82655-4.69167-2.45298c-.25464-1.62446 1.48725-2.80744 3.82537-3.07687s4.3876.47409 4.64004,2.10002z" fill="#e87975"/>
<path d="m154.87898,496.32957c.25066,1.60072-1.40473,3.10949-3.6965,3.37396s-4.3501-.81567-4.599-2.41689 1.4537-2.77185 3.7446-3.03682 4.30199.47952 4.5509,2.07975z" fill="#e87875"/>
<path d="m154.80622,496.31668c.24713,1.57501-1.3734,3.05956-3.61751,3.31761s-4.26183-.80381-4.5072-2.37932c-.24626-1.57205 1.4206-2.73725 3.66384-2.99678s4.21637.48397 4.46087,2.05849z" fill="#e87775"/>
<path d="m154.73405,496.30545c.24274,1.54931-1.34249,3.00864-3.53983,3.26224s-4.17356-.79294-4.41496-2.34225 1.38706-2.70313 3.58351-2.95723 4.12988.48843 4.37128,2.03724z" fill="#e87673"/>
<path d="m154.66057,496.29305c.2392,1.5241-1.31116,2.95822-3.46128,3.20689s-4.0853-.78158-4.32273-2.30567 1.35353-2.66853 3.50321-2.91719 4.04381.49287 4.2808,2.01597z" fill="#e87673"/>
<path d="m154.58869,496.28182c.23523,1.49789-1.28028,2.9068-3.38317,3.15052s-3.99659-.7707-4.23005-2.26909c-.23522-1.49443 1.31955-2.63343 3.42201-2.87714s3.95775.49831 4.19121,1.99571z" fill="#e87573"/>
<path d="m154.51679,496.27058c.23126,1.47268-1.24893,2.85687-3.30504,3.09466-2.05478.23927-3.90833-.75884-4.13826-2.23201s1.28689-2.59833 3.34256-2.83711c2.05347-.23778 3.87082.50276 4.10074,1.97446z" fill="#e87473"/>
<path d="m154.44332,496.25868c.22773,1.44698-1.21716,2.80547-3.22649,3.0383s-3.81962-.74746-4.04602-2.19443c-.22684-1.44401 1.25335-2.56472 3.2618-2.79756s3.7852.50721 4.01071,1.95369z" fill="#e87472"/>
<path d="m154.37188,496.24696c.22331,1.42176-1.18671,2.75503-3.14838,2.98293s-3.73181-.73708-3.95379-2.15835 1.21936-2.52961 3.18103-2.75702 3.69916.51166 3.92114,1.93244z" fill="#e87472"/>
<path d="m154.2984,496.23456c.21978,1.39556-1.15537,2.70413-3.07027,2.92708s-3.64309-.72522-3.8611-2.12078c-.21934-1.39211 1.18582-2.49501 3.10027-2.71796s3.6131.51709 3.8311,1.91166z" fill="#e87272"/>
<path d="m154.22652,496.22382c.21624,1.36985-1.12449,2.65369-2.99217,2.87071s-3.55438-.71384-3.76887-2.08419c-.21536-1.3664 1.15273-2.45991 3.01996-2.67743s3.52703.52155 3.74108,1.89091z" fill="#e87171"/>
<path d="m154.15463,496.21257c.21227,1.34415-1.09315,2.60229-2.91359,2.81486s-3.46658-.70247-3.67709-2.04761c-.21139-1.3407 1.11919-2.42481 2.9392-2.63739s3.44141.526 3.65148,1.87014z" fill="#e86f70"/>
<path d="m154.08159,496.20135c.2083,1.31844-1.06182,2.55136-2.83593,2.75849s-3.37786-.69159-3.5844-2.01004 1.08565-2.39119 2.85887-2.59833 3.35492.53193 3.56146,1.84988z" fill="#e86f70"/>
<path d="m154.00898,496.18945c.20434,1.29273-1.03091,2.50045-2.75736,2.70214s-3.29004-.67974-3.49261-1.97248 1.05211-2.35658 2.77811-2.55828c1.72467-.2012 3.2693.53588 3.47186,1.82862z" fill="#e86e70"/>
<path d="m153.93755,496.17706c.19992,1.26704-1.00004,2.45051-2.6797,2.64677s-3.20134-.66837-3.39993-1.93638c-.20036-1.26357 1.01813-2.32149 2.69735-2.51775s3.18325.54033 3.38228,1.80736z" fill="#e76d6f"/>
<path d="m153.86362,496.16532c.19684,1.24183-.96825,2.3996-2.6007,2.59141s-3.11307-.657-3.30813-1.89931 .98547-2.28688 2.61747-2.4782 3.09675.54527 3.29136,1.7861z" fill="#e76c6f"/>
<path d="m153.79174,496.15408c.19286,1.21612-.93736,2.34868-2.52259,2.53505-1.58389.18638-3.02436-.64562-3.2159-1.86222-.19197-1.21266.95193-2.2518 2.53715-2.43866 1.58258-.18489 3.01069.55022 3.20134,1.76583z" fill="#e76c6f"/>
<path d="m153.71984,496.14269c.1889,1.18991-.90602,2.29726-2.44447,2.47868s-2.9361-.63425-3.12322-1.82515 .91795-2.21768 2.45595-2.39861 2.92507.55467 3.11174,1.74508z" fill="#e76a6f"/>
<path d="m153.64681,496.13096c.18535,1.1647-.87515,2.24733-2.36636,2.42332s-2.84784-.62288-3.03099-1.78858c-.18447-1.16124.88485-2.18306 2.37562-2.35856 1.48859-.175 2.83858.55961 3.02173,1.72382z" fill="#e7696d"/>
<path d="m153.57493,496.11922c.18138,1.139-.84381,2.19642-2.28825,2.36746s-2.75957-.612-2.93919-1.75149 .85175-2.14847 2.29575-2.31853 2.75207.56406 2.93169,1.70256z" fill="#e6676d"/>
<path d="m153.50189,496.10732c.1774,1.11379-.81292,2.146-2.21014,2.31161s-2.67087-.60064-2.84651-1.71443 .81776-2.11336 2.21455-2.27897c1.39501-.16462 2.66645.569 2.8421,1.68179z" fill="#e7666d"/>
<path d="m153.43,496.09609c.17344,1.08758-.78157,2.09458-2.13157,2.25524s-2.58305-.58878-2.75472-1.67636 .78466-2.08024 2.13378-2.23992 2.5804.57395 2.75251,1.66104z" fill="#e7666d"/>
<path d="m153.35696,496.08434c.16947,1.06238-.75068,2.04466-2.05346,2.19989-1.30189.15473-2.49478-.57791-2.66249-1.64076s.75113-2.04416 2.05347-2.1989 2.49434.5784 2.66248,1.63977z" fill="#e6656c"/>
<path d="m126.00873,483.66843c-1.43694,2.26414-.43514,6.51263 2.23661,9.49159s6.00063,3.5668 7.43889,1.30564 .0618-6.40588-2.60864-9.38536-5.62992-3.67206-7.06686-1.41187z" fill="#f4b891"/>
<path d="m126.04878,483.69192c-1.42635,2.24733-.43382,6.46269 2.21631,9.41793s5.95253,3.5356 7.38019,1.29125 .0644-6.35639-2.58437-9.31263-5.58579-3.63994-7.01213-1.39655z" fill="#f4b791"/>
<path d="m126.08927,483.71522c-1.4162,2.23103-.4325,6.41278 2.19556,9.34329s5.90486,3.50545 7.32195,1.2779c1.41484-2.22902.0666-6.30844-2.56009-9.23996s-5.54167-3.60879-6.95742-1.38123z" fill="#f4b791"/>
<path d="m126.12932,483.7382c-1.40561,2.21421-.43117,6.36333 2.17526,9.26964s5.85676,3.47578 7.26325,1.26354c1.4043-2.21122.0693-6.25948-2.53582-9.16678s-5.49753-3.57666-6.90269-1.3664z" fill="#f4b690"/>
<path d="m126.16937,483.76101c-1.39501,2.1979-.42984,6.31342 2.15453,9.19599s5.80909,3.44513 7.20544,1.25027c1.39365-2.19547.0715-6.21161-2.51156-9.09468-2.58569-2.88457-5.45384-3.54552-6.84841-1.35158z" fill="#f4b590"/>
<path d="m126.20942,483.78499c-1.38442,2.18061-.42852,6.26348 2.13423,9.12135s5.76099,3.41454 7.1463,1.23637c1.38309-2.17861.0746-6.16263-2.48685-9.02147s-5.40926-3.51388-6.79368-1.33625z" fill="#f4b490"/>
<path d="m126.24991,483.80732c-1.37427,2.16478-.4272,6.21452 2.11393,9.04818 2.53979,2.83616 5.71289,3.38389 7.0876,1.22252s.0772-6.11417-2.46213-8.9488c-2.542-2.83611-5.36557-3.48273-6.7394-1.3219z" fill="#f3b490"/>
<path d="m126.28952,483.83078c-1.36324,2.14798-.42588,6.16461 2.09318,8.97402s5.66523,3.35368 7.02935,1.20865 .0799-6.06568-2.43785-8.87608-5.32144-3.4506-6.68468-1.30659z" fill="#f3b38f"/>
<path d="m126.33001,483.85477c-1.35309,2.13115-.42455,6.11417 2.07288,8.89986s5.61668,3.32306 6.97065,1.19484 .0825-6.01727-2.41358-8.80345-5.2773-3.41896-6.62995-1.29125z" fill="#f3b28e"/>
<path d="m126.37005,483.87775c-1.34249,2.11435-.42322,6.06523 2.05215,8.8262 2.47492,2.76396 5.56901,3.29294 6.91284,1.18106s.0847-5.96839-2.38931-8.72986c-2.47669-2.76393-5.23362-3.38781-6.57568-1.2774z" fill="#f2b18f"/>
<path d="m126.41011,483.90056c-1.3319,2.09804-.4219,6.01481 2.03185,8.75206s5.52091,3.2622 6.8537,1.16621 .0878-5.91894-2.36459-8.65668-5.18949-3.35568-6.52096-1.26159z" fill="#f2b18d"/>
<path d="m126.44973,483.92404c-1.32088,2.08123-.42014,5.96488 2.01153,8.67741 2.43168,2.71546 5.47325,3.23258 6.79545,1.15328s.09-5.87042-2.34032-8.58393-5.14536-3.32404-6.46666-1.24676z" fill="#f3b08e"/>
<path d="m126.49065,483.948c-1.31116,2.06443-.41925,5.91496 1.9908,8.60424s5.42515,3.20099 6.73675,1.13895 .0927-5.82245-2.31605-8.51175-5.10122-3.2924-6.4115-1.23144z" fill="#f3af8e"/>
<path d="m126.53026,483.97033c-1.30013,2.04762-.41749,5.86601 1.97094,8.52959 2.38753,2.66702 5.3766,3.17079 6.67806,1.12612 1.29924-2.04561.0953-5.77404-2.29179-8.43911s-5.05664-3.26076-6.35721-1.2166z" fill="#f3ae8e"/>
<path d="m126.57031,483.9943c-1.28954,2.0313-.41617,5.81607 1.95019,8.45543s5.32895,3.14064 6.61981,1.11232 .098-5.72514-2.26706-8.36597-5.01296-3.22963-6.30294-1.20178z" fill="#f3ae8d"/>
<path d="m126.61125,484.01613c-1.27983,2.01499-.41528,5.76665 1.92945,8.38228s5.28083,3.11048 6.56111,1.09846 .10062-5.67668-2.24279-8.29329c-2.34562-2.61762-4.96883-3.19799-6.24777-1.18745z" fill="#f2ac8d"/>
<path d="m126.65086,484.04059c-1.2688,1.99769-.41352,5.71672 1.90958,8.30764s5.23274,3.07986 6.50242,1.08411 .10283-5.62724-2.21852-8.21963-4.92469-3.16684-6.19348-1.17212z" fill="#f2ac8c"/>
<path d="m126.69135,484.06406c-1.25865,1.98137-.41264,5.6668 1.88841,8.23398s5.18506,3.04913 6.44459,1.07027 .10504-5.57878-2.19469-8.14696-4.88056-3.1352-6.13831-1.15729z" fill="#f1ab8c"/>
<path d="m126.7314,484.08738c-1.24806,1.96408-.41132,5.61637 1.86766,8.15932 2.27898,2.54595 5.13741,3.01899 6.38591,1.05645s.10812-5.52986-2.16953-8.0743-4.83687-3.10356-6.08404-1.14147z" fill="#f1ab8c"/>
<path d="m126.771,484.11086c-1.23702,1.94775-.40954,5.56644 1.8478,8.08566s5.08888,2.98791 6.32722,1.0426 .11076-5.48141-2.14526-8.00163-4.79229-3.07192-6.02976-1.12663z" fill="#f2a98a"/>
<path d="m126.81194,484.13367c-1.22732,1.93095-.40867,5.517 1.82706,8.01151 2.23485,2.49704 5.04076,2.95822 6.2685,1.02925s.11343-5.43345-2.12053-7.92895c-2.23706-2.496-4.74905-3.04078-5.97503-1.11181z" fill="#f2a88b"/>
<path d="m126.85111,484.15665c-1.21584,1.91513-.4069,5.46756 1.80676,7.93835s4.9931,2.9276 6.21026,1.01491 .11607-5.38452-2.09628-7.85629-4.70446-3.00864-5.92074-1.09697z" fill="#f2a88a"/>
<path d="m126.89204,484.17947c-1.20613,1.89833-.40602,5.41814 1.78602,7.86421s4.94499,2.89744 6.152,1.00155c1.20437-1.89683.11828-5.33606-2.07243-7.78312s-4.66035-2.97799-5.86559-1.08264z" fill="#f2a78a"/>
<path d="m126.93209,484.20344c-1.19554,1.88152-.40469,5.3682 1.76572,7.78956s4.89689,2.86675 6.09287.98721c1.19421-1.87953.12136-5.28662-2.04773-7.71045s-4.61621-2.94536-5.81086-1.06632z" fill="#f1a689"/>
<path d="m126.97169,484.22692c-1.1845,1.8647-.40248,5.31827 1.74543,7.71538s4.84922,2.83665 6.03461.97389c1.18362-1.86273.12401-5.23818-2.02346-7.63729s-4.57208-2.91422-5.75658-1.05198z" fill="#f0a589"/>
<path d="m127.01263,484.2499c-1.1748,1.8479-.40161,5.26834 1.72424,7.64174 2.12628,2.37641 4.80156,2.80594 5.97636.95954s.12665-5.18974-1.99875-7.56363c-2.1276-2.37587-4.52839-2.88258-5.70185-1.03765z" fill="#f0a48a"/>
<path d="m127.05268,484.27321c-1.1642,1.8311-.40027,5.21792 1.70393,7.56709s4.75303,2.77579 5.91811.9462c1.16244-1.83011.12843-5.14129-1.9749-7.49196-2.10554-2.35114-4.48426-2.85044-5.64714-1.02133z" fill="#f0a488"/>
<path d="m127.09273,484.2962c-1.15361,1.81526-.39895,5.16896 1.68363,7.49392 2.0826,2.32795 4.70493,2.74517 5.85941.93235s.13108-5.09285-1.95063-7.4183-4.44012-2.81979-5.59241-1.00797z" fill="#f0a388"/>
<path d="m127.13278,484.32016c-1.14302,1.79797-.39719,5.11905 1.66333,7.41978s4.65725,2.71502 5.80072.91851 .13416-5.04391-1.92548-7.3466-4.39643-2.78718-5.53857-.99169z" fill="#f0a288"/>
<path d="m127.17239,484.34249c-1.13199,1.78115-.39587,5.06911 1.64303,7.34562s4.60915,2.68433 5.74202.90466 .13681-4.99545-1.9012-7.27294-4.35231-2.75603-5.48385-.97734z" fill="#f0a187"/>
<path d="m127.21288,484.36645c-1.12184,1.76534-.39454,5.01969 1.62273,7.27196s4.56104,2.65323 5.68376.89034 .13858-4.94652-1.87693-7.19978-4.30861-2.72489-5.42956-.96252z" fill="#f0a187"/>
<path d="m127.25292,484.39042c-1.11124,1.74755-.39321,4.97024 1.602,7.19731s4.51338,2.62357 5.6255.87699 .14122-4.89807-1.85266-7.12761c-1.99697-2.22954-4.26403-2.69275-5.37484-.94669z" fill="#f09f87"/>
<path d="m127.29298,484.41325c-1.10065,1.73123-.39189,4.92031 1.58125,7.12316 1.97403,2.20679 4.46572,2.59338 5.56726.86314s.14387-4.84913-1.8284-7.05395c-1.9749-2.20581-4.2199-2.6621-5.32011-.93235z" fill="#ef9e86"/>
<path d="m127.33303,484.43622c-1.09006,1.71492-.39057,4.87088 1.56095,7.05s4.41717,2.56224 5.50811.8493 .14697-4.80067-1.80366-6.98227-4.17578-2.62947-5.2654-.91703z" fill="#ef9c86"/>
<path d="m127.37308,484.46003c-1.07947,1.69761-.38924,4.82045 1.54065,6.97486 1.92989,2.15834 4.36907,2.53208 5.44943.83594s.1496-4.75272-1.77941-6.9091-4.13165-2.59882-5.21067-.9017z" fill="#ef9c86"/>
<path d="m127.41357,484.48301c-1.06932,1.68131-.38792,4.77103 1.5199,6.90169s4.32141,2.50144 5.39161.82112 .15182-4.70329-1.75513-6.83544-4.08795-2.56718-5.15638-.88737z" fill="#ef9b85"/>
<path d="m127.45362,484.50633c-1.05873,1.66449-.3866,4.72059 1.4996,6.82704s4.27331,2.47128 5.33247.80778 .15491-4.65485-1.73041-6.76328-4.04381-2.53554-5.10166-.87154z" fill="#ef9b84"/>
<path d="m127.49368,484.52931c-1.04814,1.64768-.38528,4.67165 1.4793,6.75387s4.22476,2.44063 5.27422.79344 .15711-4.60591-1.70658-6.68961c-1.86546-2.0842-3.99924-2.5044-5.04694-.8577z" fill="#ef9b84"/>
<path d="m127.53416,484.55212c-1.03798,1.63186-.38394,4.62172 1.45857,6.67973s4.1771,2.41047 5.21596.78009 .15976-4.55795-1.68231-6.61744-3.95555-2.47276-4.99222-.84238z" fill="#ef9983"/>
<path d="m127.57421,484.57561c-1.02739,1.61506-.38306,4.57229 1.43782,6.60557 1.82133,2.03722 4.12944,2.38031 5.15771.76624s.16241-4.50901-1.65759-6.54476c-1.82222-2.03476-3.91142-2.44063-4.93794-.82705z" fill="#ef9883"/>
<path d="m127.61426,484.59859c-1.0168,1.59824-.3813,4.52235 1.41752,6.53191s4.08133,2.34917 5.09902.7524 .16461-4.46056-1.63333-6.4716-3.86729-2.40899-4.88321-.81271z" fill="#ee9783"/>
<path d="m127.65431,484.62205c-1.00621,1.58144-.38042,4.47293 1.39722,6.45726 1.77764,1.98929 4.03323,2.32002 5.03987.73906s.16771-4.41162-1.6086-6.39892-3.82316-2.37686-4.82849-.7974z" fill="#ee9783"/>
<path d="m127.69481,484.64653c-.99606,1.56413-.37865,4.42249 1.37648,6.3831s3.98556,2.28936 4.98206.72523c.99474-1.56365.16991-4.36368-1.58434-6.32626-1.75689-1.9621-3.77946-2.34572-4.7742-.78207z" fill="#ee9682"/>
<path d="m127.73442,484.66884c-.98503,1.54783-.37777,4.37258 1.35618,6.30896s3.93746,2.2592 4.92336.71188c.98414-1.54734.17256-4.31523-1.56007-6.25359s-3.73533-2.31408-4.71947-.76725z" fill="#ed9482"/>
<path d="m127.77491,484.69232c-.97488,1.53102-.37601,4.32313 1.33587,6.2353 1.71188,1.91611 3.88936,2.22805 4.86468.69704 .97355-1.53053.1752-4.2658-1.53579-6.18043s-3.69121-2.28194-4.66476-.75191z" fill="#ed9482"/>
<path d="m127.81495,484.71464c-.96428,1.5152-.37512,4.2737 1.31514,6.16164s3.84169,2.1979 4.80642.68369 .17784-4.21684-1.51152-6.10726-3.64664-2.25129-4.61004-.73807z" fill="#ee9482"/>
<path d="m127.855,484.73861c-.95369,1.49839-.37335,4.22377 1.29484,6.08798 1.66819,1.86719 3.79314,2.16676 4.74728.66936s.18049-4.1684-1.48637-6.03459-3.60294-2.21965-4.55575-.72275z" fill="#ee9282"/>
<path d="m127.89505,484.76258c-.9431,1.48159-.37247,4.17334 1.27409,6.01333s3.74548,2.13611 4.68903.65601 .18315-4.12044-1.4621-5.96192-3.55881-2.18801-4.50102-.70742z" fill="#ed9182"/>
<path d="m127.93555,484.78539c-.93295,1.46478-.37071,4.12441 1.25379,5.93968s3.69738,2.10595 4.63078.64118 .18535-4.07052-1.43826-5.88826c-1.62583-1.81675-3.51469-2.15687-4.44631-.6926z" fill="#ed9181"/>
<path d="m127.9756,484.80938c-.92236,1.44796-.36983,4.07397 1.23305,5.86502s3.64972,2.0758 4.57252.62833 .18799-4.02257-1.41355-5.81658-3.47098-2.12474-4.39202-.67677z" fill="#ed9081"/>
<path d="m128.01565,484.8322c-.91177,1.43065-.36806,4.02404 1.21275,5.79087s3.60117,2.04564 4.51382.61448 .19065-3.97363-1.38928-5.74292-3.42685-2.09409-4.33729-.66243z" fill="#ed8e81"/>
<path d="m128.05614,484.85517c-.90162,1.41533-.36718,3.9751 1.19244,5.71771 1.55963,1.74605 3.55308,2.01449 4.45514.60064s.19329-3.92568-1.36501-5.67075c-1.56051-1.74309-3.38228-2.06195-4.28257-.6476z" fill="#ed8d80"/>
<path d="m128.09619,484.87799c-.89103,1.39853-.36542,3.92518 1.1717,5.64305s3.50541,1.98484 4.39643.5873 .19639-3.87673-1.34028-5.59758-3.33859-2.03081-4.22785-.63277z" fill="#ed8d80"/>
<path d="m128.13624,484.90147c-.88043,1.38172-.36453,3.87524 1.15141,5.56989 1.51593,1.69762 3.4573,1.95369 4.33818.57246s.19859-3.82779-1.31602-5.52491c-1.51682-1.69514-3.29446-1.99867-4.17357-.61744z" fill="#ed8c7f"/>
<path d="m128.17629,484.92428c-.86984,1.36491-.36276,3.82533 1.13066,5.49525s3.40965,1.92453 4.27993.55962 .2008-3.77935-1.29175-5.45176c-1.49519-1.67141-3.25032-1.96802-4.11884-.60311z" fill="#ed8a7f"/>
<path d="m128.21678,484.94825c-.85969,1.3481-.36188,3.77539 1.11037,5.4211s3.36153,1.89337 4.22123.54478 .20344-3.73041-1.26748-5.37859-3.20619-1.93589-4.06412-.58729z" fill="#ed8a7e"/>
<path d="m128.25639,484.97189c-.84866,1.3313-.36012,3.72546 1.09006,5.34695s3.31344,1.86321 4.16253.53192 .2061-3.68244-1.2432-5.3064-3.16206-1.90327-4.00939-.57247z" fill="#eb897d"/>
<path d="m128.29688,484.9952c-.83851,1.314-.35924,3.67553 1.06932,5.27328s3.26533,1.83208 4.10428.5171 .20874-3.63351-1.21849-5.23324-3.11837-1.87212-3.95511-.55714z" fill="#eb877c"/>
<path d="m128.33693,485.01819c-.82792,1.29816-.35747,3.62658 1.04902,5.19912 1.40693,1.57699 3.21766,1.80192 4.04558.50424s.21139-3.58506-1.19422-5.16106c-1.40781-1.57353-3.07423-1.83999-3.90038-.5423z" fill="#eb877c"/>
<path d="m128.37698,485.041c-.81732,1.28137-.35658,3.57666 1.02829,5.12498 1.38529,1.55277 3.16955,1.77227 3.98732.4904s.21404-3.53611-1.16995-5.0874c-1.38618-1.5503-3.02965-1.80934-3.84566-.52798z" fill="#eb867b"/>
<path d="m128.41659,485.06448c-.80629,1.26506-.35438,3.52672 1.00841,5.05132 1.36325,1.52854 3.12146,1.7416 3.92864.47656s.21625-3.48818-1.14522-5.01523-2.98597-1.77721-3.79183-.51265z" fill="#ea847b"/>
<path d="m128.45752,485.08844c-.79658,1.24825-.35394,3.4768.98723,4.97717s3.0738,1.71145 3.87038.46222 .2189-3.43873-1.12095-4.94157-2.94184-1.74606-3.73666-.49782z" fill="#ea837b"/>
<path d="m128.49713,485.11126c-.78555,1.23094-.35173,3.42687.96737,4.90302s3.0257,1.6803 3.81168.44788c.78468-1.23094.22199-3.38979-1.09668-4.86841s-2.8977-1.71442-3.68237-.48249z" fill="#ea837b"/>
<path d="m128.53762,485.13475c-.7754,1.21511-.35129,3.37743.94663,4.82934 1.29793,1.45539 2.97715,1.64967 3.75298.43454 .77453-1.21513.2242-3.34135-1.0724-4.79623s-2.85358-1.68278-3.62721-.46765z" fill="#ea8179"/>
<path d="m128.57768,485.15706c-.76481,1.19882-.34953,3.3275.92589,4.7557s2.92948,1.61902 3.69474.42069c.76392-1.19831.22683-3.29339-1.0477-4.72306-1.27719-1.42869-2.80989-1.65164-3.57293-.45333z" fill="#ea8078"/>
<path d="m128.61773,485.18153c-.75422,1.18101-.3482,3.27807.90603,4.68055 1.25467,1.40743 2.88138,1.58934 3.63603.40784s.22949-3.24495-1.02342-4.65089c-1.25511-1.40397-2.76575-1.62-3.51864-.4375z" fill="#ea8078"/>
<path d="m128.65822,485.205c-.74407,1.16471-.34688,3.22814.88528,4.6074s2.83328,1.5582 3.57734.39301 .23214-3.196-.99915-4.57773-2.72162-1.58836-3.46347-.42268z" fill="#ea7e77"/>
<path d="m128.69826,485.22733c-.73347,1.14888-.34599,3.17871.86456,4.53324 1.21097,1.35848 2.78561,1.52854 3.51907.38016s.23435-3.14707-.97443-4.50507-2.67749-1.55721-3.4092-.40833z" fill="#ea7d78"/>
<path d="m128.73787,485.2513c-.72244,1.13109-.34379,3.12827.84425,4.45859s2.73795,1.49839 3.46084.36582 .23698-3.09812-.95017-4.4319-2.63337-1.52508-3.35492-.39251z" fill="#e97c77"/>
<path d="m128.7788,485.27362c-.71273,1.11527-.34335,3.07934.8235,4.38542s2.68985,1.46724 3.40214.35198 .23964-3.05017-.92589-4.35921-2.58923-1.49395-3.29975-.37819z" fill="#e97c77"/>
<path d="m128.81913,485.29759c-.70126,1.09797-.34114,3.02892.80364,4.31078 1.14567,1.28631 2.64131,1.43758 3.34345.33813s.24228-3.00121-.90162-4.28654c-1.14611-1.28236-2.5451-1.46181-3.24547-.36237z" fill="#e97a76"/>
<path d="m128.85891,485.32107c-.69155,1.08164-.34026,2.97898.78246,4.23711s2.59363,1.40694 3.28518.32429 .24494-2.95277-.8769-4.21387-2.5014-1.43017-3.19074-.34753z" fill="#e97a76"/>
<path d="m128.89896,485.34404c-.68096,1.06485-.33894,2.92955.76216,4.16297 1.10198,1.23786 2.54553,1.37628 3.22649.31095s.24759-2.90434-.85263-4.14072c-1.10242-1.2344-2.45727-1.39853-3.13602-.3332z" fill="#e87975"/>
<path d="m128.93971,485.36737c-.66992,1.04803-.33716,2.87911.74231,4.08881s2.49742,1.34563 3.16779.2971 .25023-2.85638-.82836-4.06854-2.41314-1.36689-3.08174-.31737z" fill="#e87975"/>
<path d="m128.9795,485.39084c-.66022,1.03122-.33629,2.82968.72112,4.01466 1.05827,1.18892 2.44976,1.31547 3.10953.28276s.25244-2.80695-.80364-3.99488-2.36945-1.33525-3.02701-.30254z" fill="#e87875"/>
<path d="m129.01955,485.41332c-.64962,1.0159-.33496,2.78074.70038,3.94198s2.40166,1.28483 3.05128.26844 .25554-2.758-.77936-3.92172c-1.0371-1.16173-2.32532-1.30361-2.9723-.2887z" fill="#e87775"/>
<path d="m129.0596,485.43664c-.63903.99859-.33364,2.73082.68007,3.86734 1.01504,1.14047 2.35401,1.25467 2.9926.25508s.25817-2.70955-.7551-3.84954c-1.01547-1.13701-2.28119-1.27197-2.91757-.27288z" fill="#e87673"/>
<path d="m129.10036,485.46061c-.628.98228-.33187,2.68088.66021,3.79368 .99297,1.11625 2.30546,1.22402 2.9339.24074s.26082-2.66061-.73083-3.77588c-.99341-1.11328-2.23661-1.24132-2.86328-.25854z" fill="#e87673"/>
<path d="m129.14041,485.48342c-.61741.96449-.33055,2.63047.63947,3.71904s2.25779,1.19387 2.87564.22691 .26303-2.61218-.70611-3.70372-2.19292-1.20869-2.809-.24223z" fill="#e87573"/>
<path d="m129.17975,485.50739c-.60726.94867-.32923,2.58102.61917,3.64488 .94972,1.0683 2.20969,1.16321 2.81695.21406s.26568-2.56423-.68184-3.63105c-.95017-1.06384-2.14879-1.17804-2.75428-.22789z" fill="#e87473"/>
<path d="m129.22051,485.53087c-.59622.93186-.3279,2.5311.59887,3.57072s2.16159,1.13257 2.75825.19973 .26832-2.51429-.65756-3.55738-2.10466-1.14641-2.69956-.21307z" fill="#e87472"/>
<path d="m129.261,485.55369c-.58607.91505-.32657,2.48116.57813,3.49706 .90604,1.01887 2.11393,1.10192 2.7.18588s.27053-2.46584-.63285-3.4852c-.90648-1.0159-2.06097-1.11477-2.64528-.19774z" fill="#e87472"/>
<path d="m129.30105,485.57716c-.57548.89824-.32525,2.43124.55739,3.42291 .8844.99514 2.06626,1.07226 2.64174.17203s.27318-2.41738-.60857-3.41153-2.01684-1.08363-2.59056-.18341z" fill="#e87272"/>
<path d="m129.3411,485.59999c-.56489.88192-.32393,2.38229.53709,3.34876s2.01772,1.0416 2.58304.15868c.56401-.88242.27583-2.36895-.5843-3.33936s-1.97271-1.05199-2.53583-.16808z" fill="#e87171"/>
<path d="m129.38044,485.62346c-.55474.86512-.32261,2.33236.51679,3.2751 .84071.94668 1.9696,1.01095 2.52435.14435s.27847-2.32-.56004-3.2662c-.84071-.94323-1.92857-1.02035-2.4811-.15325z" fill="#e86f70"/>
<path d="m129.42164,485.64628c-.54415.84831-.32128,2.28243.49604,3.20094s1.92195.9808 2.4661.13101 .28112-2.27156-.53532-3.19403-1.88444-.98871-2.42682-.13792z" fill="#e86f70"/>
<path d="m129.4617,485.67024c-.53356.83151-.31996,2.2325.47574,3.12679 .79703.89825 1.87384.94966 2.4074.11717s.28377-2.22362-.51104-3.12136c-.79748-.89478-1.84031-.95707-2.3721-.1226z" fill="#e86e70"/>
<path d="m129.50104,485.69323c-.52341.81519-.31864,2.18307.45544,3.05313s1.82574.92 2.34871.10283 .28641-2.17417-.48678-3.0477c-.7754-.87006-1.79617-.92543-2.31737-.10826z" fill="#e76d6f"/>
<path d="m129.54108,485.71621c-.51281.79887-.3173,2.13313.4347,2.97898s1.77764.88983 2.29046.0895 .28862-2.12572-.46251-2.97502-1.75204-.8933-2.26265-.0934z" fill="#e76c6f"/>
<path d="m129.58228,485.73952c-.50222.78158-.31598,2.08271.41396,2.90483 .73215.82556 1.72997.85918 2.2322.0751s.29171-2.07677-.43824-2.90186c-.73126-.82161-1.7079-.86215-2.20792-.0781z" fill="#e76c6f"/>
<path d="m129.62233,485.7625c-.49163.76527-.31466,2.03427.39366,2.83118s1.68187.82853 2.1735.0618 .29437-2.02834-.41351-2.82969-1.66422-.83002-2.15365-.0633z" fill="#e76a6f"/>
<path d="m129.66239,485.78697c-.48104.74845-.31334,1.98384.37336,2.75701 .68801.77762 1.63376.79839 2.1148.0475s.29657-1.97989-.38924-2.75603c-.68802-.77317-1.61965-.79937-2.09892-.0484z" fill="#e7696d"/>
<path d="m129.70226,485.80945c-.46912.73312-.31201,1.93391.35262,2.68286 .66639.75241 1.58611.76774 2.05655.0341s.30098-1.93293-.36453-2.68385-1.57463-.76625-2.04464-.0331z" fill="#e6676d"/>
<path d="m129.74293,485.83277c-.4603.71532-.31069,1.88498.33231,2.6092 .64477.72868 1.53801.73807 1.9983.0198s.30274-1.88349-.3407-2.6102-1.53182-.73609-1.98991-.0188z" fill="#e7666d"/>
<path d="m129.7828,485.85575c-.44838.70001-.30936,1.83454.31202,2.53505s1.48946.70692 1.93915.006 .30628-1.83554-.31598-2.53851-1.48637-.70297-1.93519-.003z" fill="#e7666d"/>
<path d="m129.82302,485.87907c-.43911.68221-.30804,1.78462.29128,2.46089s1.44223.67678 1.8809-.007 .30716-1.78561-.29127-2.46535-1.444-.67281-1.88091.0119z" fill="#e6656c"/>
<path d="m135.7291,493.53725c0,0 .43293-6.98771 3.47275-.96647 0,0-1.65672,1.88349-3.47275.96647z" fill="#f4b891"/>
<path d="m135.81312,493.50008c0,0 .41396-6.69158 3.32535-.92542 0,0-1.58655,1.8034-3.32535.92542z" fill="#f4b38b"/>
<path d="m135.89829,493.46458c0,0 .39542-6.39596 3.17795-.8849 0,0-1.51638,1.72333-3.17795.8849z" fill="#f2af85"/>
<path d="m135.98231,493.42742c0,0 .37777-6.09984 3.03143-.84386 0,0-1.4462,1.64422-3.03143.84386z" fill="#f2a97f"/>
<path d="m136.06633,493.39143c0,0 .35968-5.80373 2.88403-.80333 0,0-1.37559,1.56463-2.88403.80333z" fill="#f2a579"/>
<path d="m136.15035,493.35526c0,0 .34114-5.5086 2.73751-.76279 0,0-1.30587,1.48503-2.73751.76279z" fill="#f09e74"/>
<path d="m136.23552,493.3181c0,0 .32305-5.21247 2.59011-.72175 0,0-1.23526,1.40545-2.59011.72175z" fill="#ef9a6e"/>
<path d="m136.31954,493.28094c0,0 .30495-4.91635 2.44315-.67974 0,0-1.16509,1.32537-2.44315.67974z" fill="#ef9469"/>
<path d="m136.40356,493.24494c0,0 .28686-4.62024 2.29619-.6397 0,0-1.09536,1.24578-2.29619.6397z" fill="#ee8f62"/>
<path d="m136.48758,493.20829c0,0 .26876-4.32462 2.14923-.59867 0,0-1.02475,1.16569-2.14923.59867z" fill="#ec875a"/>
<path d="m150.02256,499.47966c-.0975.21455-.38174.25954-.63638.10431s-.38086-.45431-.28333-.66886 .38174-.26102.63594-.10629c.25509.1577.38131.45679.28377.67084z" fill="#9e2c14"/>
<path d="m145.3752,496.37505c-.0984.21405-.38351.26102-.63727.10431-.2542-.15474-.3813-.45432-.28377-.66887s.38307-.26052.63639-.10579c.25464.15671.38086.45679.28465.67035z" fill="#9e2c14"/>
<path d="m143.83319,499.32955c-.0971.21405-.38174.26003-.6355.1048-.25508-.15572-.38218-.45431-.28465-.66886s.38174-.26102.63639-.10579 .38174.45678.28376.66985z" fill="#9e2c14"/>
<path d="m153.7242,496.51547c-.0975.21405-.38219.26151-.63683.10431s-.38174-.4558-.28333-.66887 .38175-.26052.63595-.1048c.25464.15474.38086.45481.28421.66936z" fill="#9e2c14"/>
<path d="m148.67277,495.81733c-.0971.21406-.38042.26201-.63506.10728-.25464-.1577-.3813-.45728-.28465-.67134 .0971-.21504.38307-.26151.63727-.10628s.37997.45579.28244.67034z" fill="#9e2c14"/>
<path d="m146.53677,498.66529c-.0988.21306-.38262.26102-.63682.10579-.25552-.15671-.38086-.45679-.28421-.67084s.38174-.26102.63638-.10431c.2542.15473.3813.4558.28465.66936z" fill="#9e2c14"/>
<path d="m132.23736,486.73847c-.0971.21406-.38262.26003-.63638.10579-.25508-.15621-.3813-.4553-.28377-.66935s.38174-.263.63594-.1053c.25465.15473.38175.45579.28421.66886z" fill="#9e2c14"/>
<path d="m132.11581,489.65136c-.098.21405-.38351.26052-.63815.10678-.25288-.1577-.37998-.45678-.28289-.67133s.38307-.25954.63727-.10481c.25376.15671.3813.4553.28377.66936z" fill="#9e2c14"/>
<path d="m129.95919,484.82c-.0975.21257-.38174.26053-.63594.10431-.25508-.15572-.3813-.45481-.28377-.67034 .0971-.21258.38174-.25954.63594-.10332 .25509.15522.38175.4553.28377.66935z" fill="#9e2c14"/>
<path d="m134.64763,490.50224c-.0989.21356-.38263.26053-.63727.1053s-.38174-.45629-.28333-.66886c.0962-.21604.38131-.26201.63595-.10629s.38174.4558.28465.66985z" fill="#9e2c14"/>
<path d="m124.97109,490.21595c.13548-.0628.69375,1.94431 2.60555,4.43288 .94619,1.24083 2.21808,2.58251 3.7724,3.87228s3.3792,2.53802 5.3784,3.67607c1.008.57191 1.97618,1.09939 2.96208,1.48058 .98464.39294 1.96479.69161 2.90696.93377 1.88756.47902 3.62768.71934 5.09065.80935 2.93654.19819 4.73053-.28337 4.76103-.138 .045.12165-1.7552.87161-4.7791.85423-1.5036,0-3.29528-.16999-5.24822-.61196-.97531-.22489-1.9916-.51321-3.02389-.91063-.51585-.19819-1.03574-.42366-1.55344-.6862-.51148-.26241-1.01548-.53738-1.52653-.82753-2.03978-1.16165-3.90259-2.46186-5.47325-3.83666s-2.84696-2.81634-3.76446-4.16495c-.92368-1.34464-1.48725-2.57855-1.79088-3.45899s-.37247-1.40545-.3173-1.42424z" fill="#26231f"/>
<path d="m129.00426,497.28787c.0296-.0564.31731.041.75819.37571s1.01416.9096 1.62582,1.70156c.61608.78801 1.27454,1.78315 1.98771,2.88259 .71626,1.09549 1.48372,2.30963 2.39814,3.43675 .45764.56109.93603,1.06632 1.43781,1.46923 .25111.2007.50752.37521.76747.51807 .13062.0682.26125.13298.39277.18489l.27891.10332 .0243-.005c.049-.0292.0949-.0628.13814-.0994 .0874-.0722.16461-.16016.2383-.26249 .14741-.20566.27451-.47459.43074-.75044 .15402-.27535.35129-.55367.59004-.75982s.49962-.34259.74673-.42563c.49778-.16364.94044-.17106 1.3191-.1587 .37959.0173.69863.0663.95633.11963 .51551.10728.78771.22642.77977.29267s-.29787.0855-.80717.10035c-.49778.0282-1.2688.002-2.03798.32331-.38304.16956-.67301.44937-.90337.94026-.1227.24272-.24008.54132-.43824.85375-.0993.15424-.2211.30947-.36674.44245-.0719.0672-.15005.12803-.23081.18289-.0543.0381-.12357.0737-.18667.1098l-.098.0524-.049.0252-.0512-.0114c-.31952-.0746-.44044-.10969-.60814-.17253-.16372-.0578-.32349-.13048-.4828-.20859-.31598-.16016-.6205-.35741-.91133-.58135-.58121-.44988-1.10815-1.00058-1.59625-1.59875-.97355-1.20129-1.73174-2.45646-2.41403-3.58556s-1.27144-2.15143-1.80455-2.97156-1.00224-1.44204-1.35221-1.84642c-.3482-.40636-.56533-.61349-.53179-.67726z" fill="#26231f"/>
<path d="m140.247,505.27314c0,0-1.59183,2.3121-2.23572,1.9087s-4.52883-5.38105-4.52883-5.38105 4.74596,3.59148 6.76455,3.47235z" fill="#da013c"/>
<path d="m135.97257,491.91801c-.0569-.0178-.0605-.29859.0393-.74302 .0534-.22097.13019-.48693.29436-.76328 .0847-.13644.19286-.27881.34776-.38559s.35129-.17105.54062-.16067 .35746.0707.50266.14435c.17829.0964.26788.19231.38174.29761 .21007.20713.3685.42959.47265.64216 .10592.20961.14873.41427.143.55565s-.0503.21258-.0777.20813c-.064-.0134-.083-.26053-.32967-.56257-.11695-.15227-.27715-.32134-.47089-.48101-.0905-.0727-.21624-.17154-.29656-.20467-.11342-.0514-.23125-.09-.34158-.0929-.43603-.0346-.70303.56703-.86631.92791-.16771.38411-.27671.63821-.33938.61794z" fill="#26231f"/>
<path d="m153.60679,506.0958c-.0358.0564-.18756.0242-.43206-.0697-.23919-.0984-.58607-.26893-.88749-.62338-.30672-.35396-.42411-.82261-.41308-1.1301s.0892-.48644.14696-.4815c.13505.008.1196.72522.59623,1.26406 .23169.27586.51282.48102.71185.657 .20168.17254.3151.32579.27759.38362z" fill="#26231f"/>
<path d="m124.44253,491.83745c-.0296-.13694.35967-.3772.58607-.90171 .2542-.51166.15623-.98129.26303-1.05347 .0503-.0306.17255.0707.24272.31935 .0733.24471.0556.6219-.10282.96498s-.40999.57543-.61785.66837-.35615.0658-.37115.002z" fill="#26231f"/>
<path d="m147.99267,490.26136c-.36939,1.09895-1.67745,2.51726-2.6819,2.59635l2.6819-2.59635z" fill="#26231f"/>
<path d="m145.31106,492.85855c-.0199.31145 1.08874.33617 1.89856-.55268 .83586-.832 1.02563-1.96407.78334-2.04366-.23655-.0895-.68449.57444-1.38266,1.27246-.68404.73066-1.2935,1.0426-1.29924,1.32388z" fill="#26231f"/>
<path d="m146.30707,489.57424c-.0115,1.2077-.82086,2.60229-1.69953,3.19946l1.69953-3.19946z" fill="#26231f"/>
<path d="m144.60769,492.7733c.0909.24074.97002-.0796 1.54816-1.08512 .55209-1.0416.37688-2.15192.15269-2.11435-.2723.0158-.47663.73066-.90426,1.55029-.46295.79493-.92104,1.37085-.79659,1.64918z" fill="#26231f"/>
<path d="m145.25541,489.51094c.32129,1.051-.1399,2.42283-.90338,3.00963l.90338-3.00963z" fill="#26231f"/>
<path d="m144.35214,492.52005c.0896.24074.91441-.0979 1.27365-1.14246 .31069-1.08313-.18315-2.00362-.37027-1.86718-.25111.12952-.25597.75587-.46074,1.49245-.25243.7183-.57857,1.23787-.44264,1.51719z" fill="#26231f"/>
<path d="m146.25561,492.79275c.0759.88242-.5446,1.64224-1.38443,1.70009s-1.58478-.61103-1.66157-1.49197c-.0741-.88143.54592-1.63977 1.38664-1.69662s1.58432.60904 1.65936,1.4885z" fill="#26231f"/>
<path d="m136.99992,483.86552c-.0958,1.16816-1.01769,2.92164-1.96829,3.29586l1.96829-3.29586z" fill="#26231f"/>
<path d="m135.03153,487.16208c.0556.30453 1.13022.002 1.6982-1.095 .60814-1.04803.52297-2.19592.2701-2.20086-.24936-.0168-.52341.75488-1.02917,1.63433-.48678.90467-1.00003,1.38716-.93913,1.66153z" fill="#26231f"/>
<path d="m135.21123,483.69979c.27406,1.16865-.17388,2.75257-.87823,3.58655l.87823-3.58655z" fill="#26231f"/>
<path d="m134.3335,487.28623c.14563.20614.91529-.36286 1.23481-1.50284 .28421-1.16717-.15005-2.18604-.35659-2.08371-.25949.0944-.28509.84634-.5031,1.7609-.25641.90368-.56092,1.59379-.37512,1.82565z" fill="#26231f"/>
<path d="m134.18175,483.94954c.56092.91802.44044,2.37637-.1549,3.16831l.1549-3.16831z" fill="#26231f"/>
<path d="m134.02775,487.11778c.14211.20565.85705-.36434.95546-1.47763 .0419-1.13652-.65271-1.87706-.80011-1.69069-.21228.19873-.0675.80382-.0905,1.57453-.0719.76872-.26259,1.36441-.0649,1.59379z" fill="#26231f"/>
<path d="m135.92806,486.81767c.28289.82904-.13327,1.74606-.9303,2.04861s-1.67349-.12013-1.95682-.94719 .13593-1.7426.93208-2.04663 1.67259.11865 1.95504.94521z" fill="#26231f"/>
<path d="m122.60878,497.29308c0,0-8.14942.43009-10.14154,10.19261 0,0 14.96075,20.21966 16.70398,23.84573s12.25498,24.12841 12.25498,24.12841l29.48908-7.68075c0,0-7.47025-38.21364-8.21744-39.88703s-20.40176,6.06128-22.40982,5.5788c-6.97234-1.67291-13.69505-16.7354-17.67924-16.17777z" fill="#26231f"/>
<path d="m146.01527,559.77181c0,0 17.17932-9.96026 26.39268-5.49723l20.91772,40.08383c0,0-18.17662-3.34685-22.65911,1.67578l-5.56865-14.85532c0,0 2.2256,3.84602-.0163,2.72879l1.10296,12.12653c0,0-10.62662.26702-17.18109,4.18221-3.73489,2.22962-3.73533,3.07005-3.73533,3.07005s-6.72263-31.79697.74716-43.51464z" fill="#26231f"/>
<path d="m162.19937,594.91722c0,0 13.6955,41.83725 15.93651,44.34851s2.49043,6.13998 1.74323,5.58131-7.96849-6.41667-6.72351-4.46396c.32653.50918-20.84181-31.78213-21.10527-42.7123-.24935-10.32213 8.40626-6.38213 10.14904-2.75356z" fill="#26231f"/>
<path d="m172.61592,591.94133c0,0 .78908,6.04596 3.27901,13.85176s15.18891,33.47287 15.18891,33.47287 .00047,7.52895 1.24545,5.29944 3.23705-6.41678 2.24101-7.81081-10.70777-39.04909-11.95273-44.06678-7.26194-2.69918-10.00165-.74648z" fill="#26231f"/>
<path d="m194.60472,635.12346c0,0 5.69571,3.93507 5.09946,6.01136s-2.45021,2.89197-2.5826,3.93011-1.19201,13.27838-2.05302,13.87158-5.96048,3.11943-6.29191,1.85384c-.33055-1.26064.86189-3.04024 1.65628-3.63355s-.46383-15.87368.0658-17.20844 1.85443-4.45413 4.10604-4.8249z" fill="#26231f"/>
<path d="m173.41287,638.46501c-.26478.29661-3.24502,2.74367-2.91403,4.37504s6.62246,9.34821 7.08628,11.42453 6.82057,8.7501 8.80791,8.08266 1.48415-1.24578.55695-2.13558-2.21236-3.79665-2.47765-3.87077c-.26472-.0741-4.03937-14.76145-5.69521-16.46697s-4.43747-1.93293-5.09945-1.26061l-.2648-.1483z" fill="#26231f"/>
<path d="m173.42196,640.38299c0,0-2.36327,1.56216-1.16597,2.01202 1.19775.44492 7.31754,8.04315 7.84932,10.57924 .53224,2.53105 5.58795,8.19638 5.72088,7.75142 .13328-.44979-2.92686-5.96193-3.05968-7.30658s-7.38023-12.96195-9.34455-13.0361c-1.96388-.0791 0,0 0,0z" fill="#092c81"/>
<path d="m149.49447,469.80326c0,0 9.21785-2.37933 13.99119,2.03679s6.21859,12.53581 5.59592,19.27727l-1.95592-.0449c0,0-.72556-.90073-2.80061-1.36548 0,0 1.18225,4.47443.55959,5.17191s-1.67878,1.25327-1.67878,1.25327-1.48104-6.73905-2.51862-6.73905 .62796,2.60967.005,3.30668c-.24849.2783-.31778,1.0209-.84468.14146-.79266-1.32291-2.06055-4.55846-2.06055-4.55846s2.50102,11.57235.66157,10.9841c-.97935-.31352-2.11441-2.84757-2.11441-2.84757s-2.07505-10.9262-5.18814-12.55307c0,0 2.90569,6.27682 2.28302,7.90369 0,0-1.45284-6.74204-4.77334-9.29934s-6.22618.6976-7.47116,3.02252c0,0-2.07505-.69702-1.45239-1.39461s2.28257-3.02148 3.32004-3.71953-10.37629-.00046-14.73433,4.88176l-2.07552-.93031c0,0 5.81087-4.88176 10.79164-5.57878 0,0-8.50869.69748-12.65931,3.25478l-2.90521-.92986c0,0 8.9235-3.02147 7.47067-3.71952s-7.05583,3.02147-7.47067,1.16177c-.41528-1.85983.0225-8.49801 4.38055-10.12592s15.13553-9.05065 23.64416,1.41039z" fill="#26231f"/>
<path d="m155.07313,598.72407c0,0 5.8475-2.57065 6.68291-.70199s15.0376,40.94245 15.0376,40.94245 1.67038,2.33827 2.29707,3.97458 1.84382,3.18859.80002,2.48662-4.55926-5.75924-5.6034-5.75924-16.70838-29.47838-19.2142-40.94242z" fill="#f4b891"/>
<path d="m175.54049,594.27919c0,0 6.4746-1.86866 6.68335,0s10.86002,40.94245 10.86002,40.94245 .62669,3.27261.41791,4.67666-1.46206,14.27201-1.46206,12.86797 .6267-12.39839.20913-14.27202-13.57585-26.20082-15.03751-32.28129c-1.4621-6.08555-1.67084-11.93377-1.67084-11.93377z" fill="#f4b891"/>
<path d="m147.67767,562.00216c0,0 13.37868-8.16229 24.02992-6.52548 0,0 15.10991,30.37907 19.07828,36.23223 .52069.7663-17.96128-.93929-19.21467,1.3991s-3.9679-10.52487-4.38581-14.03481 .00035,2.33827-3.9679,1.40404-.83548,2.80786-.83548,2.80786l1.46206,11.22684c0,0-14.82831,0-17.33458,4.68149 0,0-4.05308-31.34258 1.16818-37.19127z" fill="#021940"/>
<path d="m169.3081,578.88968c-.31422.70199 2.57951,12.34401 2.57951,12.34401s8.20591-2.10095 14.53627-1.05289c0,0-.55211-2.35318-10.04362-2.6399-2.16071-.0643-6.13435-10.75222-7.07216-8.65122z" fill="#092c81"/>
<path d="m123.11814,499.76476c0,0-7.93626,3.50893-8.98087,7.01786 0,0 17.33458,15.90885 18.58797,20.11972s9.39832,23.62867 11.27793,22.9267 21.92918-4.44474 25.27085-3.50844c0,0-6.47409-36.26288-7.72748-36.49672s-20.25834,6.31787-22.34709,6.08354-14.20173-16.14266-16.08131-16.14266z" fill="#021940"/>
<path d="m97.09531,470.993c0,0 23.4752,25.04843 23.52768,27.38727 .0274,1.226-4.18819,3.25581-4.18819,3.25581s-21.04651-28.94843-20.62902-29.65041 .87161-1.46082 1.28953-.99267z" fill="#f4b891"/>
<path d="m116.07399,460.66984c0,0-8.13574-2.62256-8.13574-3.9953s3.79094-.31835 3.90215-1.56759-1.33896-10.54216.22154-10.04335 2.53716,6.50126 2.76002,4.62815 1.4749-7.12464 2.36636-6.37569-.62932,7.49837.37336,6.37569 2.19027-6.12654 2.74768-4.75322-.43564,6.1127.23387,5.1141 1.77235-3.36606 2.21765-2.11732-3.23141,11.98514-4.01161,12.48489-2.34076,1.12275-2.67528.24964z" fill="#26231f"/>
<path d="m117.72338,461.87546c0,0-1.61126-2.16621-2.49788-2.34668s-7.171-2.61761-6.28483-2.70761 5.07606.00046 5.15682-.54129-2.17571-10.74137-1.69202-9.56776 2.73972,7.22152 2.98112,6.77018 1.2891-8.75601 1.53094-7.85332-.48325,7.9433.56445,7.58242 2.17525-5.95698 2.25605-5.32569-.88664,5.23522-.16114,5.14524 2.1753-3.97164 2.1753-2.61761-2.49787,7.49041-3.30372,8.7545 .48368,2.52772.48368,2.52772-.72508.54072-1.20877.1799z" fill="#f4b891"/>
<path d="m147.97073,470.0158c0,0-2.37867-3.48422-7.13613-4.20152s-15.55343,3.58654-16.37692,4.40618c-.23832.23779-.58343.92049-.9409,1.7866-.17697.4291 7.15027-1.76039 6.97904-1.27395-.0808.23037-7.66662,3.1263-7.74252,3.35864-.56048,1.7164-.9484,3.40556-.67434,3.7131 .549.61449 11.16187-3.89452 11.52767-2.66457s-4.20838,2.97153-4.20838,2.97153l-5.76407,2.76792 .8235-.30742c0,0 10.98357-3.88124 13.3574-3.79227 2.74502.10232 4.48296-.20515 4.48296-.20515s-12.80843,6.04646-12.80843,6.45631 11.71088-5.02171 14.91306-3.79169c0,0-3.11079,3.58647-3.11079,4.40664 0,0 7.59328-7.17359 8.32551-5.43145 .64822,1.54285.0913,4.61128.0913,4.61128s.36635-2.04903.91535-1.5364 6.49574,11.16998 6.95301,16.29435c0,0-2.65328-16.60188-1.37251-15.6794s3.47668,9.4279 3.47668,9.4279-2.5619-9.42893-1.00662-8.19891 5.03242,10.86394 5.03242,10.86394-2.74502-8.71155-.91535-8.19834 4.30018,4.09911 4.30018,4.09911 .73177-1.5379.73177-1.23048 .54901,1.43466.54901,1.43466-.18278-13.32191-5.0315-16.90939-11.89404-3.17722-14.18144-1.94776l-1.18893-1.22946z" fill="#4d1918"/>
<path d="m148.42179,552.1146c0,0 .61697,5.1843 2.15982,5.1843s14.80899-4.83875 14.80899-4.83875 .61691-4.14714-.30891-4.14714-12.95722,0-16.6599,3.80159z" fill="#f4b891"/>
<path d="m167.66764,557.35349c0,0-17.11568.7885-19.92909,7.61702-1.4771,3.58507.23434,30.72806.23434,30.72806s6.56508-2.62498 9.61328-2.62498c0,0-6.09596-3.15395-6.56508-8.14205s-1.17215-17.86002.93781-20.48603 13.36402-8.40502 15.70874-7.09202z" fill="#092c81"/>
<path d="m172.75899,567.03414c-.48467-1.08511 3.62146,5.63268 2.01197,8.11434s-9.85869,3.15393-11.06571,3.38136c-1.20745.22248-5.63389,0-5.63389,0s9.65786-2.7041 11.87102-3.38136 3.82277-5.8581 2.81661-8.11434z" fill="#121616"/>
<path d="m160.68793,514.74674c0,0 7.44458,26.81974 6.43842,28.17234s-20.72356,4.73294-21.93057,4.73294 13.07769-5.40924 16.29713-6.31101 4.22468-2.25425 2.61519-2.70404-.60321-.90223-.40203-2.93009-1.60995-12.84634-3.01814-21.63642c-.50538-3.15299 0,.67628 0,.67628z" fill="#121616"/>
<path d="m117.63086,504.83c0,0 5.02973-4.2826 6.23718-3.15597s15.2909,16.45311 15.2909,16.45311-12.07191-11.94558-14.48637-12.17051c-2.41403-.22543-7.84668-.67578-7.04171-1.12663z" fill="#092c81"/>
<path d="m136.14151,528.94532c-.28465.63722 6.23718,16.00231 7.64587,17.57981s4.02348-2.25437 4.02348-2.25437-2.41443.22593-3.62143-1.57692-7.64588-14.65022-8.04792-13.74852z" fill="#092c81"/>
<path d="m140.08775,522.68576c0,0 10.46193-8.78963 19.71728-8.33878 0,0 1.20746,2.02785-1.60949,2.25327s-18.10779,6.08551-18.10779,6.08551z" fill="#5d579e"/>
<path d="m148.37241,471.93765c0,0-4.48905-5.53183-9.50205-5.11262s-8.60354,2.26266-8.60354,2.26266 6.65864-2.933 8.67857-1.25714-4.86336,1.50927-7.10791,3.18464-2.39372,2.51429-2.39372,2.51429 4.26448-2.43025 6.35943-2.43025-3.36684,2.3462-3.36684,2.3462 5.23714-1.67586 7.25751-1.25665-5.23758,3.77094-5.01295,3.6869 7.70633-2.93301 9.72624-2.3462-.74846,4.19065-2.3942,4.60983 2.24458-.50274 3.96537-2.01151-1.64621,3.18513-1.3465,3.0171 3.12011-1.24234 4.02879-3.21928 .4598-4.07151-.2882-3.98797z" fill="#770d24"/>
<path d="m148.37223,472.85941c0,0 9.87587-3.10109 13.46688.67035s5.46218,13.57695 5.46218,13.57695-1.79571-6.70443-3.29218-7.03961 2.16954,5.44774 1.94488,6.6209-1.72067-4.86047-3.29184-5.4473-1.34649,5.44684-1.34649,5.1957-1.42143-5.44783-2.39456-6.3693-.89764,2.51477-.97222,2.09513-3.36683-6.20273-4.41409-6.36933 1.7953,10.47535 1.34648,10.97866-2.39417-8.38082-3.1422-9.72151-3.74108-.4197-3.66606-1.67636c.0746-1.25713-.29921-2.3462.29922-2.51428z" fill="#770d24"/>
<path d="m150.15627,473.435c0,0 9.07354-3.22666 12.2422,3.06548 0,0-3.16866-2.09753-4.753-1.77473s.43206,3.0655.43206,3.0655-3.74461-5.16354-7.92126-4.35625z" fill="#c45557"/>
<path d="m147.99576,473.59552c0,0-1.5839-5.48536-6.33736-5.3242s1.87252.64513 2.30458,1.93639-4.32097.48397-4.32097.48397 7.77739-.16166 8.35375,2.90384z" fill="#c45557"/>
<path d="m99.38972,474.51583c0,0 17.91623,25.15029 18.93701,24.76863s1.24717-1.26996 1.24717-1.26996-20.52444-24.00687-20.18418-23.49867z" fill="#f8d7bc"/>
<path d="m118.77989,462.95636 3.96879,6.35098 .56665-1.0164c0,0-5.10254-6.22442-4.53544-5.33458z" fill="#f8d7bc"/>
<path d="m156.82398,600.21677c0,0 8.11544,24.44087 13.96907,31.59426 0,0-13.03833-30.10131-12.37281-31.74257 0,0-1.86238-.44492-1.59626.14831z" fill="#f8d7bc"/>
<path d="m176.78006,597.53687c0,0 5.98695,20.56518 10.3772,28.31166 0,0-9.04706-26.67535-8.64767-28.31166s-1.72953-1.34465-1.72953,0z" fill="#f8d7bc"/>
<path d="m195.53836,637.92143c0,0 4.38981,2.23448 3.05968,3.12926s-2.39462,3.57914-2.39462,3.57914-1.19729,11.92388-1.86236,12.51708c-.66551.59815-3.59191,2.23446-3.06012,1.48795 .53223-.74144 1.06446-2.67941 1.5967-4.01912s.93074-7.30651 1.1973-9.6893 .66507-7.00501 1.46342-7.00501z" fill="#092c81"/>
<path d="m114.3007,507.8273c0,0 6.90445-5.91496 9.56694-6.15374s1.84737,1.8919 1.84737,1.8919-7.60924,3.34925-8.69621,6.39349l-2.7181-2.13165z" fill="#06a1d8"/>
<path d="m145.65605,595.82188 .8544,3.3715c0,0 7.3824-7.23241 17.33465-4.68154l-.41572-2.8376c0,0-10.92316-2.90186-17.77333,4.14764z" fill="#06a1d8"/>
<path d="m142.13875,549.57616 1.66599,1.86668c0,0 9.34406-3.96225 24.80841-4.77002 1.18974-.0623-.18496-3.31811-.18496-3.31811s-15.18141.82903-26.28944,6.22145z" fill="#06a1d8"/>
<path d="m147.32196,561.19065c0,0 11.37414-8.93794 24.38598-5.71376l.79266,1.77325c0,0-14.44089-2.69621-25.91918,7.25858l.74054-3.31807z" fill="#06a1d8"/>
<path d="m139.15894,518.12726c0,0 13.36806-9.05707 22.38818-8.30318l.89636,2.57411c0,0-13.37778-.50227-23.28454,5.72907z" fill="#06a1d8"/>
<path d="m170.83425,591.4667 .737,1.64125c0,0 12.40778-4.75075 19.07259-.60311l-1.85142-3.52475c0,0-11.84853-3.52475-17.95817,2.48661z" fill="#06a1d8"/>
</g>
</svg>
