<?xml version="1.0" encoding="UTF-8" standalone="no"?>
<svg viewBox="0 0 511.15579 499.97876" xmlns="http://www.w3.org/2000/svg" xmlns:xlink="http://www.w3.org/1999/xlink">
<defs>
<linearGradient id="linearGradient4098-2-9-1-0">
<stop offset="0" stop-color="#ffb142"/>
<stop offset="1" stop-color="#c87600"/>
</linearGradient>
<linearGradient gradientUnits="userSpaceOnUse" id="linearGradient22301" x2="0" y1="-150.69685" y2="327.66039">
<stop offset="0" stop-opacity="0"/>
<stop offset=".5"/>
<stop offset="1" stop-opacity="0"/>
</linearGradient>
<linearGradient id="linearGradient5060-2-4-4-9-1-9">
<stop offset="0"/>
<stop offset="1" stop-opacity="0"/>
</linearGradient>
<linearGradient gradientUnits="userSpaceOnUse" id="linearGradient22307" x1="1627.03335" x2="1631.6683">
<stop offset="0" stop-opacity=".0686"/>
<stop offset="1" stop-color="#fff"/>
</linearGradient>
<linearGradient id="linearGradient2803-3-4-4-8-2-6">
<stop offset="0" stop-color="#fff"/>
<stop offset="1" stop-color="#cbcbcb"/>
</linearGradient>
<linearGradient gradientTransform="matrix(1.33131,-2.71128,2.91011,1.42894,3942.9187,305.2744)" gradientUnits="userSpaceOnUse" id="linearGradient22311" x1="6.58718" x2="14.5114">
<stop offset="0" stop-color="#182d41"/>
<stop offset="1" stop-color="#0f1821"/>
</linearGradient>
<linearGradient gradientTransform="matrix(1.42538,-2.90286,2.71001,1.33068,3940.8639,307.7788)" gradientUnits="userSpaceOnUse" id="linearGradient22313" x1="73.36198" x2="-2.75829" y1="26.6522" y2="21.27038">
<stop offset="0" stop-color="#282828"/>
<stop offset="1" stop-color="#a9a9a9" stop-opacity="0"/>
</linearGradient>
<linearGradient gradientTransform="matrix(.16842,-3.23578,-3.47308,-.18078,4301.042,344.9798)" gradientUnits="userSpaceOnUse" id="linearGradient22317" x1="6.58718" x2="14.5114">
<stop offset="0" stop-color="#b44"/>
<stop offset="1" stop-color="#ee0d0d"/>
</linearGradient>
<linearGradient gradientTransform="matrix(.18033,-3.46443,-3.23427,-.16835,4301.6596,348.3996)" gradientUnits="userSpaceOnUse" id="linearGradient22319" x1="73.36198" x2="-2.75829" y1="26.6522" y2="21.27038">
<stop offset="0" stop-color="#fff"/>
<stop offset="1" stop-color="#fff" stop-opacity="0"/>
</linearGradient>
<linearGradient gradientUnits="userSpaceOnUse" id="linearGradient22287" x1="4124.04225" x2="4124.0422" xlink:href="#linearGradient4098-2-9-1-0" y1="380.54239" y2="394.62251"/>
<linearGradient gradientUnits="userSpaceOnUse" id="linearGradient22291" x1="4124.04227" x2="4124.04221" xlink:href="#linearGradient4098-2-9-1-0" y1="380.54239" y2="394.62251"/>
<linearGradient gradientUnits="userSpaceOnUse" id="linearGradient22293" x1="4124.04227" x2="4124.04222" xlink:href="#linearGradient4098-2-9-1-0" y1="380.54239" y2="394.62251"/>
<linearGradient gradientUnits="userSpaceOnUse" id="linearGradient22299" x1="4115.34031" x2="4123.83027" xlink:href="#linearGradient4098-2-9-1-0"/>
<linearGradient gradientTransform="matrix(3.14529,-6.40555,1.25109,.61431,3942.0607,304.8531)" gradientUnits="userSpaceOnUse" id="linearGradient22309" x1="10.49612" x2="10.2199" xlink:href="#linearGradient2803-3-4-4-8-2-6" y1="93.33804" y2="84.28708"/>
<linearGradient gradientTransform="matrix(.39791,-7.64472,-1.49311,-.07772,4302.066,345.0331)" gradientUnits="userSpaceOnUse" id="linearGradient22315" x1="10.49612" x2="10.2199" xlink:href="#linearGradient2803-3-4-4-8-2-6" y1="93.33804" y2="84.28708"/>
<radialGradient cx="605.71429" cy="486.64789" gradientTransform="matrix(2.77439,0,0,1.96971,-1891.633,-872.8854)" gradientUnits="userSpaceOnUse" id="radialGradient22303" r="117.14286" xlink:href="#linearGradient5060-2-4-4-9-1-9"/>
<radialGradient cx="605.71429" cy="486.64789" gradientTransform="matrix(-2.77439,0,0,1.96971,112.7623,-872.8854)" gradientUnits="userSpaceOnUse" id="radialGradient22305" r="117.14286" xlink:href="#linearGradient5060-2-4-4-9-1-9"/>
</defs>
<g transform="matrix(1.35232,0,0,1.35232,-5314.62983,-47.07771)">
<path d="m4114.0421,379.0186a14.25,23.02385 0 0,1 -28.5,0 14.25,23.02385 0 1,1 28.5,0z" fill="url(#linearGradient22287)" stroke="#000" stroke-linecap="round" stroke-linejoin="round" stroke-width="5"/>
<path d="m4079.5421,379.0186a14.25,23.02385 0 0,1 -28.5,0 14.25,23.02385 0 1,1 28.5,0z" fill="url(#linearGradient22287)" stroke="#000" stroke-linecap="round" stroke-linejoin="round" stroke-width="5"/>
<path d="m4096.5421,379.0186a14.25,23.02385 0 0,1 -28.5,0 14.25,23.02385 0 1,1 28.5,0z" fill="url(#linearGradient22291)" stroke="#000" stroke-linecap="round" stroke-linejoin="round" stroke-width="5"/>
<path d="m4191.0421,379.0186a14.25,23.02385 0 0,1 -28.5,0 14.25,23.02385 0 1,1 28.5,0z" fill="url(#linearGradient22293)" stroke="#000" stroke-linecap="round" stroke-linejoin="round" stroke-width="5"/>
<path d="m4156.5421,379.0186a14.25,23.02385 0 0,1 -28.5,0 14.25,23.02385 0 1,1 28.5,0z" fill="url(#linearGradient22287)" stroke="#000" stroke-linecap="round" stroke-linejoin="round" stroke-width="5"/>
<path d="m4173.5421,379.0186a14.25,23.02385 0 0,1 -28.5,0 14.25,23.02385 0 1,1 28.5,0z" fill="url(#linearGradient22291)" stroke="#000" stroke-linecap="round" stroke-linejoin="round" stroke-width="5"/>
<path d="m4065.2923,355.9908c-5.8064,0-10.7803,5.6304-13,13.6875 18.9711,5.0743 39.8142,8.0342 61.7188,8.4375-.2984-12.2848-6.5429-22.125-14.2188-22.125-3.3009,0-6.3333,1.8275-8.75,4.875-2.4167-3.0475-5.4491-4.875-8.75-4.875-3.1858,0-6.1261,1.7049-8.5,4.5625-2.3739-2.8576-5.3142-4.5625-8.5-4.5625zm77,0c-7.6562,0-13.8907,9.7905-14.2187,22.0313 21.8805-.7044 42.6158-3.9836 61.4375-9.3438-2.3472-7.5156-7.1572-12.6875-12.7188-12.6875-3.3009,0-6.3333,1.8275-8.75,4.875-2.4167-3.0475-5.4491-4.875-8.75-4.875-3.1858,0-6.1261,1.7049-8.5,4.5625-2.3739-2.8576-5.3142-4.5625-8.5-4.5625z" fill-opacity=".3137"/>
<path d="m4284.7005,202.9297a165.56416,165.56416 0 0,1 -331.1283,0 165.56416,165.56416 0 1,1 331.1283,0z" fill="#784421" stroke="#000" stroke-linecap="round" stroke-width="5"/>
<path d="m4200.9727,285.7099c-26.4999-4.9236-2.2474,21.6311-6.3107,31.2326-16.0633-7.8984-9.9427,18.25-17.2065,25.5139-13.7639-.7361-15.9123,13.1432-25.5139,17.2065-11.6016-6.4366-20.1562,6.3108-31.2326,6.3108s-17.6311-12.2474-31.2327-6.3108c-9.6015-4.0633-11.75-17.4426-25.5138-17.2065-7.2639-7.2639-6.1432-34.9123-17.2066-25.5139-4.0633-9.6015 14.6892-38.1562-6.3107-31.2326 0-11.0764 22.2473-31.6311 6.3107-31.2327 4.0634-9.6015 24.4427-16.7499 17.2066-25.5138 14.5277-14.5277 34.5937-23.5173 56.7465-23.5173s42.2187,8.9896 56.7465,23.5173c-10.7361,5.2639 13.1431,15.9123 17.2065,25.5138-17.9366-.8984 6.3107,20.1563 6.3107,31.2327z" fill="#fff" stroke="#000" stroke-linecap="round" stroke-linejoin="round" stroke-width="4.99998"/>
<path d="m4073.1854,75.12958c-31.2345,0-56.6034,29.33139-56.6034,65.47172s25.3689,65.4717 56.6034,65.4717c18.3556,0 34.6444-10.1409 44.9847-25.8295 10.3397,15.7 26.6639,25.8295 45.0274,25.8295 31.2344,0 56.6033-29.3314 56.6033-65.4717s-25.3689-65.47171-56.6033-65.47172c-18.3613,0-34.6875,10.13264-45.0274,25.82947-10.3405-15.68518-26.6314-25.82946-44.9847-25.82947z" fill="#fff" stroke="#000" stroke-linecap="round" stroke-width="5"/>
<path d="m4119.8849,186.0385c-9.288,0-19.3837,10.3273-18.9799,16.8497s16.5569,33.6994 20.1913,33.6994 17.7684-26.6334 17.3645-34.2429-12.5186-16.8497-18.5759-16.3062z" fill-opacity=".3137" fill-rule="evenodd"/>
<path d="m4117.7635,175.4297c-9.288,0-19.3836,9.3062-18.9798,15.1838s16.5569,30.3675 20.1913,30.3675 17.7683-24.0001 17.3645-30.8573-12.5186-15.1838-18.576-14.694z" fill="url(#linearGradient22299)" fill-rule="evenodd" stroke="#000" stroke-width="5"/>
<path d="m4132.0127,86.14831c13.2759-32.15975 35.6656-36.51322 35.6656-36.51322s-12.4533,16.77531-1.174,12.10875c17.4653-7.22586 72.9967,15.41831 72.9967,15.41831s-73.5744-17.12602-107.4883,8.98616z" fill="#fff" fill-rule="evenodd" stroke="#000" stroke-linejoin="round" stroke-width="5"/>
<path d="m4101.5716,83.14832c-13.276-32.15976-35.6656-36.51323-35.6656-36.51323s12.4533,16.77532 1.174,12.10875c-17.4654-7.22586-72.9968,15.41831-72.9968,15.41831s73.5744-17.12602 107.4884,8.98617z" fill="#fff" fill-rule="evenodd" stroke="#000" stroke-linejoin="round" stroke-width="5"/>
<g transform="translate(3930.0423,34.8658)">
<path d="m184.55268,110.16501a16.38711,16.38711 0 1,1 -32.77422,0 16.38711,16.38711 0 1,1 32.77422,0z" stroke="#000" stroke-linecap="round" stroke-width="5"/>
<path d="m166.50028,104.42584a4.25,4.25 0 0,1 -8.5,0 4.25,4.25 0 1,1 8.5,0z" fill="#fff"/>
</g>
<g transform="translate(3930.0423,34.8658)">
<path d="m226.05268,110.16501a16.38711,16.38711 0 1,1 -32.77422,0 16.38711,16.38711 0 1,1 32.77422,0z" stroke="#000" stroke-linecap="round" stroke-width="5"/>
<path d="m208.00028,104.42584a4.25,4.25 0 0,1 -8.5,0 4.25,4.25 0 1,1 8.5,0z" fill="#fff"/>
</g>
<g transform="matrix(.02927,-.0596,.05907,.02901,4117.2123,243.8142)">
<path d="m-1559.2523-150.69685h1339.6335v478.35718h-1339.6335z" fill="url(#linearGradient22301)" opacity=".4021"/>
<path d="m-219.61876-150.68038v478.33079c142.87417.90045 345.40022-107.16966 345.40014-239.19618s-159.43682-239.13459-345.40014-239.13462z" fill="url(#radialGradient22303)" opacity=".4021"/>
<path d="m-1559.2523-150.68038v478.33079c-142.8742.90045-345.4002-107.16966-345.4002-239.19618s159.4368-239.13459 345.4002-239.13462z" fill="url(#radialGradient22305)" opacity=".4021"/>
</g>
<path d="m1627.0334,3690.551h6.30748v93.36587h-6.30748z" fill="url(#linearGradient22307)" opacity=".4804" transform="matrix(.44076,-.89763,.88126,.47263,0,0)"/>
<path d="m3967.6168,298.5546c-5.2949-2.9188-6.9909-6.973-4.6331-11.8123l40.5107-83.1461c.3407-.699 1.3569-1.3312 2.0983-1.0539l97.8303,36.5887-1.668,3.8022 19.1215,7.1784c1.8541.696 3.0298,2.1249 1.8045,4.6504l-42.2772,87.1405c-3.4864,7.186-13.0231,11.6484-20.1439,7.7229l-92.6431-51.0708z" fill="#242a3a" stroke="#000" stroke-linecap="round" stroke-linejoin="round" stroke-width="3.15374"/>
<path d="m4097.6499,243.7886-40.2178,82.8001c-1.6601,4.6536.043,9.9025 4.5832,12.132s9.7349.3673 12.4021-3.7918l40.9255-82.4526-.177-.087c-2.5226,4.5782-8.0983,6.5637-12.8396,4.2356s-6.5796-7.9541-4.4995-12.7496l-.1769-.087z" fill="url(#linearGradient22309)"/>
<path d="m3964.5755,285.3856c-2.3726,4.832-.8097,8.8687 4.3211,11.6738l88.716,49.381c8.5868,4.5394 16.2089,1.5404 20.3894-3.3832-10.5239,9.7645-30.5804-2.0601-23.1088-17.0564l42.9497-87.4693-92.2259-33.6471c-.7172-.2617-1.7029.3862-2.0447,1.0821l-38.9968,79.4191z" fill="url(#linearGradient22311)"/>
<path d="m3966.3117,285.579c-2.3407,4.7669-1.1754,7.6325 3.8709,10.3924l82.8077,45.2243c-3.2511-4.8756-2.788-9.9404.5659-16.7707l41.6335-84.7889-88.3933-33.4748c-.7023-.266-1.6765.3827-2.0136,1.0692l-38.4711,78.3485z" fill="none" stroke="url(#linearGradient22313)" stroke-linecap="round" stroke-miterlimit="20" stroke-width="3.15374"/>
<path d="m3993.4979,281.9338c-.5399,1.0995-.7769,2.386-.5022,3.5619 .3432,1.47 1.3749,2.3336 2.6117,2.6155-.9121,1.2574-1.3036,2.9867-.9542,4.4825 .5492,2.3519 2.7002,3.4082 4.8971,2.4046s3.5628-3.7854 3.0135-6.1373c-.1091-.4674-.274-.8374-.5022-1.1988l22.9033-10.4625-1.0046-4.3018-22.9033,10.4625c.032-.4801.01-.9149-.1004-1.3823-.5493-2.3519-2.8259-3.4698-5.0227-2.4662-1.0984.5017-1.8961,1.3225-2.436,2.4219zm26.2182-53.3947c-.5399,1.0995-.7769,2.386-.5023,3.5619 .5493,2.3519 2.8259,3.4698 5.0227,2.4663 .4365-.1994.7947-.4471 1.1552-.7658l5.7259,24.5202 4.0181-1.8355-5.7259-24.5202c.4255-.04.8192-.1361 1.2557-.3356 2.1969-1.0035 3.5628-3.7854 3.0136-6.1373s-2.7003-3.4082-4.8971-2.4046c-1.3731.6272-2.4377,1.8833-2.888,3.3426-.9794-.8063-2.3689-.9412-3.7419-.314-1.0985.5018-1.8961,1.3225-2.436,2.422zm8.388,50.202 5.7259,24.5202c-.4255.041-.8192.1362-1.2557.3356-2.1969,1.0035-3.5628,3.7854-3.0136,6.1373s2.7003,3.4082 4.8971,2.4046c1.3972-.6382 2.4007-2.067 2.8378-3.5577 .982.8424 2.3948,1.1675 3.7921.5291 2.1969-1.0036 3.4875-3.632 2.9383-5.9839s-2.8258-3.4698-5.0227-2.4663c-.4365.1995-.7947.4472-1.1552.7658l-5.7259-24.5202-4.0181,1.8355zm10.1708-20.7135 1.0046,4.3018 22.9033-10.4625c-.032.4801-.01.915.1004,1.3823 .5493,2.3519 2.8259,3.4698 5.0227,2.4663s3.4875-3.632 2.9383-5.9839c-.3494-1.4958-1.3951-2.5686-2.6621-2.8306 .8794-1.2486 1.3477-2.7975 1.0046-4.2674-.5493-2.3519-2.7003-3.4081-4.8972-2.4046s-3.5627,3.7854-3.0135,6.1373c.1091.4674.2741.8374.5022,1.1988l-22.9033,10.4625z" fill="#fff" stroke="#fff" stroke-width="2.47412"/>
<path d="m4012.9894,256.5205c-6.1786,12.5831-4.4574,26.1849 3.968,30.322 5.7317,2.8144 13.0767.4213 19.1112-5.2788l7.2829,3.5761 10.8489-22.0944-7.2829-3.576c.8204-8.2604-1.8526-15.3821-7.5843-18.1966-8.4253-4.137-20.1652,2.6647-26.3438,15.2477z" fill="#fff" stroke="#fff" stroke-width="2.47412"/>
<path d="m4031.0347,269.4311c2.4518,1.2039 3.2469,4.6086 1.7758,7.6046s-4.6513,4.4487-7.1032,3.2448-3.2468-4.6086-1.7757-7.6046 4.6513-4.4487 7.1031-3.2448z" fill="#0f1821"/>
<path d="m320.2913,451.53443-.42791.74116-.4279.74116-.42791-.74116-.42791-.74116h.85582z" fill="#0f1821" transform="matrix(-2.41087,4.90986,-4.01814,-1.97301,6627.5111,-405.93284)"/>
<path d="m320.1426,449.11172c0,.43934-.35615.7955-.79549.7955s-.7955-.35616-.7955-.7955 .35616-.79549.7955-.79549 .79549.35616.79549.79549z" fill="#0f1821" transform="matrix(3.34843,-6.81925,5.58075,2.74029,461.56114,1204.6825)"/>
<path d="m4042.6753,279.5011 2.7485,1.3496 .4594-.9355-2.7486-1.3496-.4593.9355z" fill="#0f1821"/>
<path d="m4044.6121,275.5567 2.7485,1.3496 .4593-.9354-2.7485-1.3496-.4593.9354z" fill="#0f1821"/>
<path d="m4046.5489,271.6124 2.7485,1.3496 .4593-.9355-2.7485-1.3496-.4593.9355z" fill="#0f1821"/>
<path d="m4048.4857,267.668 2.7485,1.3496 .4593-.9355-2.7485-1.3496-.4593.9355z" fill="#0f1821"/>
<g transform="translate(3930.0423,34.8658)">
<path d="m55.7364,131.04476c48.1112,17.30003-14.16343,94.14271 37.81914,161.19179 9.60838,12.39326-57.86796,2.09077-81.72278-66.58505-23.19831-66.78576-1.13236-107.53908 43.90364-94.60674z" fill="#784421" fill-rule="evenodd" stroke="#000" stroke-width="5"/>
<path d="m4.0625,160.84375c-3.45178,16.50581-1.29853,38.67265 7.78125,64.8125 23.85482,68.67582 91.32713,78.987 81.71875,66.59375-4.10892-5.29984-7.52039-10.67453-10.3125-16.0625-18.9515-4.54141-54.0478-24.37623-69.90625-70.03125-5.87955-16.92667-8.85389-32.18045-9.28125-45.3125zm71.28125,6.34375c-.88285,8.53607-1.85621,17.61189-2.28125,27.125 .99329-9.79063 2.07939-18.94113 2.28125-27.125z" fill-opacity=".3137" fill-rule="evenodd"/>
</g>
<path d="m4003.1856,156.8631c-13.3887-4.609-27.221,7.5839-29.8652,14.1799 13.5123-3.4522 19.7196-4.4258 23.2184-1.3807-1.5067,3.3715-17.4082,6.7419-22.3373,28.8712 12.4287-8.6166 22.3035-18.5756 26.2724-14.4831-2.8816,5.0338-6.1995,14.4973-3.9636,23.8807 7.1415-9.4244 14.4387-19.3784 21.1415-19.6478" fill="#784421" fill-rule="evenodd" stroke="#000" stroke-linecap="round" stroke-linejoin="round" stroke-width="5"/>
<path d="m4281.4085,325.7853c6.4857.03 10.1922-2.8831 10.51-8.649l5.4613-99.0657c.046-.8329-.5763-1.9559-1.4158-2.0833l-110.777-16.8047-.4226,4.4338-21.6662-3.2594c-2.1008-.316-3.9486.4089-4.1194,3.4152l-5.892,103.7311c-.4859,8.5542 6.1199,17.7158 14.8422,17.7562l113.4795.5258z" fill="#623c3c" stroke="#000" stroke-linecap="round" stroke-linejoin="round" stroke-width="3.38309"/>
<path d="m4188.1642,206.5617-5.5551,98.5885c-.8746,5.2275-5.2113,9.2567-10.6301,8.9746s-9.3138-4.7397-9.641-10.0297l4.7104-98.6325 .2112.011c-.027,5.6073 4.1606,10.3795 9.8192,10.6741s10.3191-4.0171 10.8743-9.597l.2108.011z" fill="url(#linearGradient22315)"/>
<path d="m4291.1355,315.0337c-.3003,5.7669-3.8728,8.7331-10.1454,8.6823l-108.917-.058c-10.4168-.2306-15.9927-7.0212-17.3387-13.8179 4.7618,14.6454 29.7305,14.0395 30.5607-3.9143l5.4336-104.3905 103.9893,16.6344c.8088.1294 1.3942,1.2512 1.3509,2.0817l-4.9334,94.7828z" fill="url(#linearGradient22317)"/>
<path d="m4289.4076,314.3082c-.2962,5.6892-2.8846,7.7658-9.0543,7.7165l-101.2102-.8677c5.5901-2.8756 7.8035-7.8584 8.2278-16.0101l5.2671-101.1915 100.3082,14.7943c.7969.1176 1.3711,1.2341 1.3284,2.0536l-4.867,93.5049z" fill="none" stroke="url(#linearGradient22319)" stroke-linecap="round" stroke-miterlimit="20" stroke-width="3.38309"/>
<g fill="#fff" stroke="#fff" stroke-width="6.9982" transform="matrix(.02511,-.48232,-.4228,-.02201,4276.887,309.6627)">
<path d="m87.90625.5-29.46875,92.09376 5.96875,4.8125 22.75-71.75001 11.6875,35.06251 8.6875-.25-19.625-59.96876zm7.09375,11.96875 2.46875,8.1875c23.70816,3.04905 43.67374,18.0525 53.6875,38.75001l8.84375.375c-10.89813-26.0605-35.61285-44.87681-65-47.31251zm-13.8125.0625c-29.94904,2.79815-54.94417,22.62726-65.1875,49.71876h8.53125c9.41611-21.92341 29.75891-38.03748 54.1875-41.46876l2.46875-8.25zm94.8125,49.43751-97.8125,1.625-2.15625,7.21875 77.28125-.875-32.40625,23.875 2,7.625 53.09375-39.46876zm-111.5,1.875-64,1.0625 79.28125,56.43751 6.71875-5.21875-61.5625-44.71876 37.40625-.4375 2.15625-7.125zm47,8.78125-8.59375.25 24.21875,72.75001-30.1875-21.9375-7.15625,4.78125 52.15625,37.15625-30.4375-93.00001zm52.78125.8125-7.15625,4.8125c.6132,3.71504.9375,7.51717.9375,11.40625 0,19.91804-8.37005,37.87459-21.78125,50.56251l2.34375,8.53125c16.72779-14.21786 27.34375-35.42317 27.34375-59.09376 0-5.56319-.57343-10.98809-1.6875-16.21875zm-152.0625,2.6875c-.77394,4.39417-1.1875,8.91496-1.1875,13.53125 0,23.17834 10.18351,43.98293 26.3125,58.18751l2.53125-8.40625c-12.94161-12.63866-20.96875-30.27036-20.96875-49.78126 0-3.036.18514-6.0355.5625-8.96875l-7.25-4.5625zm97.78125,25.75001-61.34375,45.25 11.5625-36.5-6.21875-4.25-19.4375,60.71875 77.59375-57.6875-2.15625-7.53125zm8.5625,50.5625c-9.0953,4.36532-19.29953,6.8125-30.0625,6.8125-10.73589,0-20.91858-2.43655-30-6.78125l-7.40625,5.0625c11.08951,6.13013 23.8395,9.625 37.40625,9.625 13.56349,0 26.3186-3.49762 37.40625-9.625l-7.34375-5.09375z" fill="#fff" stroke="#fff" stroke-width="6.9982"/>
</g>
<g transform="translate(3930.0423,34.8658)">
<path d="m322.17899,131.04476c-48.1112,17.30003 14.16343,94.14271-37.81914,161.19179-9.60838,12.39326 57.86796,2.09077 81.72278-66.58505 23.19831-66.78576 1.13236-107.53908-43.90364-94.60674z" fill="#784421" fill-rule="evenodd" stroke="#000" stroke-width="5"/>
<path d="m337.9375,128.65625c-.41261-.0006-.83163.0205-1.25.0312 16.21208,13.06454 23.07333,43.29712 14.78125,85.34375-11.02308,55.89475-53.57658,80.00799-67.71875,81.28125 4.59211,6.52643 60.97088-8.12575 82.34375-69.65625 20.29853-58.43754 5.92075-96.95013-28.15625-97z" fill-opacity=".3137" fill-rule="evenodd"/>
</g>
<path d="m4234.5461,156.8631c13.3887-4.609 27.221,7.5839 29.8652,14.1799-13.5123-3.4522-19.7197-4.4258-23.2184-1.3807 1.5067,3.3715 17.4082,6.7419 22.3373,28.8712-12.4287-8.6166-22.3035-18.5756-26.2724-14.4831 2.8816,5.0338 6.1995,14.4973 3.9636,23.8807-7.1415-9.4244-14.4387-19.3784-21.1415-19.6478" fill="#784421" fill-rule="evenodd" stroke="#000" stroke-linecap="round" stroke-linejoin="round" stroke-width="5"/>
</g>
</svg>
