<?xml version="1.0" encoding="UTF-8" standalone="no"?>
<svg fill-rule="evenodd" height="174.89789" viewBox="0 0 19.334491 22.447126" width="150.64499" xml:space="preserve" xmlns="http://www.w3.org/2000/svg" xmlns:xlink="http://www.w3.org/1999/xlink"><defs>
  
 <filter height="1.32066" id="filter3846-7-5" width="1.95412" x="-.47706" y="-.16033"><feGaussianBlur stdDeviation="6.99128"></feGaussianBlur></filter><filter height="1.96718" id="filter3829-2" width="1.31921" x="-.15961" y="-.48359"><feGaussianBlur stdDeviation="7.01456"></feGaussianBlur></filter><filter height="1.44971" id="filter3825-2" width="1.51467" x="-.25734" y="-.22485"><feGaussianBlur stdDeviation="7.52562"></feGaussianBlur></filter><filter height="1.96895" id="filter3817-1" width="1.32072" x="-.16036" y="-.48448"><feGaussianBlur stdDeviation="7.03795"></feGaussianBlur></filter><filter height="2.30526" id="filter4103" width="2.11045" x="-.55522" y="-.65263"><feGaussianBlur stdDeviation="10.80008"></feGaussianBlur></filter><filter height="3.2261" id="filter4111" width="1.82139" x="-.41069" y="-1.11305"><feGaussianBlur stdDeviation="8.31512"></feGaussianBlur></filter><filter height="2.2" id="filter4117" width="2.2" x="-.6" y="-.6"><feGaussianBlur stdDeviation="23.69051"></feGaussianBlur></filter><linearGradient id="linearGradient3995"><stop offset="0" stop-color="#f60"></stop><stop offset="1" stop-color="#fca"></stop></linearGradient><linearGradient gradientUnits="userSpaceOnUse" id="linearGradient3052" x1="98.38628" x2="77.60502" y1="25.32667" y2="85.07279"><stop offset="0" stop-color="#633"></stop><stop offset="1" stop-color="#2b1100"></stop></linearGradient><linearGradient gradientUnits="userSpaceOnUse" id="linearGradient3058" x1="119.81696" x2="86.69682" y1="171.44492" y2="189.97284"><stop offset="0" stop-color="#054"></stop><stop offset="1" stop-color="#002b22"></stop></linearGradient><linearGradient gradientUnits="userSpaceOnUse" id="linearGradient3064" x1="151.66989" x2="182.79083" y1="196.65799" y2="184.13808"><stop offset="0" stop-color="#483737"></stop><stop offset="1" stop-color="#ac9393"></stop></linearGradient><linearGradient gradientUnits="userSpaceOnUse" id="linearGradient3066" x1="30.52248" x2="19.48243" y1="120.60721" y2="134.88647"><stop offset="0" stop-color="#f60"></stop><stop offset="1" stop-color="#ffb380"></stop></linearGradient><linearGradient gradientUnits="userSpaceOnUse" id="linearGradient3068" x1="62.9932" x2="32.14601" y1="191.25204" y2="184.4332"><stop offset="0" stop-color="#501616"></stop><stop offset="1" stop-color="#c83737"></stop></linearGradient><linearGradient gradientUnits="userSpaceOnUse" id="linearGradient3072" x1="82.47563" x2="79.45571" y1="88.96928" y2="118.89321"><stop offset="0" stop-color="#ff7f2a"></stop><stop offset="1" stop-color="#ffb380"></stop></linearGradient><linearGradient gradientUnits="userSpaceOnUse" id="linearGradient3060" x1="98.68632" x2="123.71344" xlink:href="#linearGradient3995" y1="136.05182" y2="140.27301"></linearGradient><linearGradient gradientUnits="userSpaceOnUse" id="linearGradient3062" x1="46.43313" x2="53.1695" xlink:href="#linearGradient3995" y1="195.79794" y2="177.60078"></linearGradient><radialGradient cx="115.19185" cy="86.7672" gradientTransform="matrix(1.24721,5.1007475e-7,-4.5471766e-7,1.11185,-25.51552,-8.49635)" gradientUnits="userSpaceOnUse" id="radialGradient3054" r="31.52423"><stop offset="0" stop-color="#fc9"></stop><stop offset="1" stop-color="#f95"></stop></radialGradient><radialGradient cx="76.05147" cy="130.2776" gradientTransform="matrix(.6989,-.46324,.39098,.58988,-28.03675,86.51303)" gradientUnits="userSpaceOnUse" id="radialGradient3056" r="42.05717"><stop offset="0" stop-color="#0cf"></stop><stop offset="1" stop-color="#05f"></stop></radialGradient><radialGradient cx="32.28272" cy="118.01267" gradientTransform="matrix(.71587,1.03312,-.82795,.5737,108.7964,17.9511)" gradientUnits="userSpaceOnUse" id="radialGradient3070" r="12.5709"><stop offset="0" stop-color="#87aade"></stop><stop offset="1" stop-color="#330f99"></stop></radialGradient><radialGradient cx="104.30186" cy="127.72424" gradientTransform="matrix(1,0,0,.79269,0,26.47911)" gradientUnits="userSpaceOnUse" id="radialGradient3074" r="10.61129"><stop offset="0" stop-color="#8080ff"></stop><stop offset="1" stop-color="#2a2aff"></stop></radialGradient><radialGradient cx="110.54846" cy="81.06923" gradientTransform="matrix(2.83995,.29554,-.40157,3.85881,-170.849,-264.12545)" gradientUnits="userSpaceOnUse" id="radialGradient3076" r="4.8829"><stop offset="0" stop-color="#fff"></stop><stop offset="1" stop-color="#2bd2ff"></stop></radialGradient><radialGradient cx="127.06571" cy="80.43199" gradientTransform="matrix(1.66005,.2051,-.33844,2.73921,-56.64796,-165.42571)" gradientUnits="userSpaceOnUse" id="radialGradient3078" r="3.6204"><stop offset="0" stop-color="#fff"></stop><stop offset="1" stop-color="#afdde9"></stop></radialGradient><radialGradient cx="112.15621" cy="69.38096" gradientTransform="matrix(1,1.1066166e-6,-1.1667003e-6,1.0543,8.0169697e-5,-3.73099)" gradientUnits="userSpaceOnUse" id="radialGradient3080" r="5.20005"><stop offset="0" stop-color="#ffe6d5"></stop><stop offset="1" stop-color="#a40"></stop></radialGradient><radialGradient cx="128.57718" cy="70.9006" gradientTransform="matrix(1.72631,.20118,-.13255,1.13741,-84.17594,-35.77881)" gradientUnits="userSpaceOnUse" id="radialGradient3082" r="3.12412"><stop offset="0" stop-color="#ffe6d5"></stop><stop offset="1" stop-color="#d45500"></stop></radialGradient></defs><title>ReaderBoy</title>
 
<g transform="translate(-.00135,-207.12085)"></g><g transform="matrix(.09778,0,0,.09778,-1.3197528e-4,-4.9881304e-4)">
  
  
   <path d="m86.216,210.161 7.47218,6.97726 5.69615-2.06431c.24457,1.04946.68474,4.39975 1.81183,4.39975l.5218.0614 5.28868-.30415 .91857,5.93672c1.22031-.0272 7.34562-1.53301 7.30715-2.59375l-.30419-3.82015 .95132-.3121 .32798,5.17312c1.28357.29896 8.28198.2146 8.28198-1.29426l.006-5.66559 4.1344-.80457c.52821,6.3445 4.05918,5.00072 4.65865,7.24657-1.19125.0266-4.5908,1.03936-6.70095,1.32241-2.24676.3011-4.7687.73121-7.02374.9993-4.16282.4946-10.2243,1.81942-14.2269,1.81942-1.56971,0-16.766-10.3921-20.0136-11.1416l.89229-5.93549zm47.0729-16.8274c1.28848-.30019 4.37469-2.32935 4.91759-2.32935 .76787,0 6.04704,1.70787 6.46033,2.0805 .71748.64654 2.72795,3.67986 3.52642,4.75556 .84277,1.13532 6.83606,9.14981 6.83606,9.72818 0,1.00967-1.53274,5.32229-1.90655,6.63396-.63371,2.22111-2.87256,2.61517-4.73541,3.54689-3.78223,1.89191-7.30774,3.67558-10.9573,5.6066l-6.16719-4.71918-.91553-4.57888c-.37236-.33198-.36013-.5368-.94064-.5368-1.56603,0-3.50709.70675-4.91723,1.03509v-1.55288c0-2.04748 1.07693-6.1128 1.55288-8.02304 1.0772-4.32458.49183-3.10577 6.21153-3.10577 1.06806-1.5954 1.03504-6.09447 1.03504-8.54088zm-18.6343,23.2933c-2.01933-8.66776 1.11085-8.92911 2.58793-15.27h1.81183c-.0715,3.21095-3.36471,7.16162-3.36471,11.1288v3.36471c0,.78256-.30447.71562-1.03504.77646zm-22.5841-23.349c.59397,1.15337.60161,6.52609 1.62014,6.52609 2.89516,0 6.53464-1.5804 9.3173-1.81178l2.45468,2.74045c-1.7317.48055-4.66602.99502-5.3975,2.34003-.33043.60834-2.23366,4.85188-2.23366,5.27217 0,1.21754.75814,3.46771 1.03536,4.65838l-4.89431,1.87322-6.81591-6.72692-5.88628-.61016 .37327-1.68586 10.4269-12.5756zm30.2308,6.06269 2.70562-.0544c0,3.94335-2.58797,9.44872-2.58797,13.1995v8.79982l-4.40675.45822-.46554-10.017 4.75465-12.3861zm-12.8233,23.4978c-.18159-2.18259-1.38721-12.1519-1.08825-13.2332 .30233-1.09434 3.83821-10.6192 4.19402-10.5776l3.09999.30874c-.0373,1.88854-3.05169,7.78824-3.72602,10.1946-.52212,1.86253 1.14387,9.67983 1.14387,12.2721l-3.62361,1.03536zm-31.0577-18.8935c2.31557-4.3756 5.8695-9.7676 9.83514-12.4231l1.33555,1.52082-9.74709,11.786-1.42359-.88374zm35.7163-10.6113c1.29858,0 7.93745-2.18291 9.78166-2.64145 .82321-.20478 4.1937-1.26215 4.87539-1.15151 .98584.16049 4.08123,1.15733 4.49512,1.72256l-2.05635,1.06042-.33471,5.92357 .0617,1.55684h-3.62329l.22715-1.81696-.26595-.49951c-.54171-.14826-.55604-.27177-1.25515-.27177h-4.39975c-1.0375,0-1.34624,1.44192-1.55288,2.32935l-1.81701-.22711 .005-.80825c0-1.28998-5.5433-1.81151-6.98795-1.81151-1.12281,1.67672-2.97802,7.05462-3.78318,9.41634-.85409,2.50511-1.34378,2.27737-1.13441,5.07503 .1458,1.94566.47991,4.26432.51784,5.95477l-4.91236.32952-.74682-4.17291c.21247-.10455-.60219-1.50886-.81157-2.36787-.199-.81557-.51725-1.62837-.51725-2.58824 0-.3338 1.71582-3.24883 1.81151-4.40002 1.28448-.10669 6.72937-1.49727 6.72937-2.58797 0-.56764-4.16405-5.43507-4.91759-5.43507-2.70375,0-5.82603,1.49235-8.54083,1.55288-.13511-.58051-.25894-.59519-.25894-1.2943v-.77642c1.89891-.44235 10.2212-3.88223 11.1291-3.88223 2.39138,0 5.89056,1.81183 8.28194,1.81183zm-37.2692,5.43507c.07062-.8455 1.82128-5.91593 2.1976-6.34359 .21183-.24084 4.56206-2.97461 5.04929-3.2326l1.69413,1.42878c-.2941,1.40736-6.06969,5.21469-7.1292,9.18278l-1.81183-1.03536zm-4.91727.51757c1.5859-2.99726 2.64418-6.2244 4.22126-9.23694 .41206-.78715 5.85354-6.01803 6.64897-6.55056l2.20583,2.74782c-.98984.32711-7.57796,4.67334-7.90903,5.26608-1.21786,2.18014-2.16609,6.84765-3.3552,9.32648l-1.81183-1.55288zm70.9149-12.1642c.32647-.48728 3.34788-4.39975 3.62329-4.39975 .75045,0 2.95538,1.79404 4.14113,2.0704l-3.56339,3.43069-4.20102-1.10135zm41.669-12.682c1.28662,4.8185 3.6025,2.03707 2.56009,9.80699-.41083,3.06147-1.52473,9.0257-1.52473,11.9334l-13.965,11.6598-14.5103.6343c.0941-.93449.2644-.44903.2644-1.42387 0-.14002-8.43969-11.6298-9.3173-12.9406 1.33037-.30996 2.99544-.41783 3.9519-1.22427 .70952-.59819 1.98545-1.92888 2.77747-2.14039 .55086,2.36445 1.95148,8.86581 3.36439,10.0938l1.31354-1.01335-3.08776-11.0906 .32802.0633 3.21091-2.76615c.19564,1.84084 1.38507,6.17397 1.86039,8.07593 .40106,1.60423 1.08643,7.24871 2.58642,7.24871 .31515,0 .77646-.53553.77646-1.03536 0-4.25818-3.36439-11.7478-3.36439-15.7877 0-.37632 3.59518-3.33442 4.14081-3.62333l3.5643,17.8701 .84095.23261c.32189-.15894 1.02986-.34144 1.02986-.76209 0-5.11291-3.50591-13.6262-3.62329-18.8935 .33503-.50038 5.66436-5.35562 6.11185-5.53994 .68784-.28337 8.91228.62239 10.711.62239zm-61.8565-11.9053c-6.2516,0-12.6878-1.07752-18.6319-1.03809-4.70235.0315-5.04411-.0614-7.76719-2.06768-1.21786-.89721-4.84146-3.22223-5.17617-4.65865l38.0414,1.89678c-.53344.71775-3.61933,4.52295-3.61933,5.09122v.25889c0,.50989 6.46374,9.21156 7.2915,10.3077 1.02927,1.36275 6.62973,9.87948 7.7198,9.87948 .49979,0 1.03536-.46126 1.03536-.77646 0-.50038-.33011-.91671-.55695-1.25483-.0183-.0275-.25494-.37354-.32252-.45394-.0544-.0648-.23079-.0978-.26622-.25126-.0186-.081-.192-.0666-.14857-.11037l.21579-.30201 1.07388.33748c.16476-.27482.52211-.65723.52211-.81189 0-.68629-4.44618-7.55013-5.12787-8.58917-.75445-1.14937-4.52904-7.97474-5.48341-7.97474h-.2589c-.72571,0-.63034.3106-1.03536.77646l9.18005,14.8383-.0783.21583c-1.26402-1.86622-11.4311-15.4151-11.4311-16.0895 0-.19991 2.90344-3.83211 3.36471-4.14113l13.7776,23.5161-3.8498,4.7702-18.4686-23.3688zm-97.3139,14.7524c5.19268-.43226 7.80079-2.76065 11.3877-4.65865 0,5.77596-4.98085,8.4351-6.21153,13.717h-.51752c-.06112-2.74782-.44417-1.58071.8596-4.058 .50561-.96137 1.72865-2.51607 1.72865-3.70642 0-.59643-.18004-.77647-.77642-.77647h-.25894c-.7676,0-3.3653,4.89131-3.72202,5.85973-.38428,1.04268.56368,7.3398 1.91024,7.3398 1.01976,0 5.01505-9.45454 6.47043-11.1291l-.52607,10.8699 10.5559,10.6758 10.6739-1.883c.94946-4.06195 3.13819-10.6238 1.03659-15.004 .74831.19992 8.02336,6.31972 8.02336,6.98795 0,.006-7.35453,9.65387-8.08693,10.548-1.23714,1.51009-12.509,2.91044-15.4653,2.91044-.38391,0-8.30395-4.16409-9.49152-4.74333-1.89314-.92289-4.76197-6.29316-6.03731-8.1973-1.53669,0-4.06473-.13447-4.51285-1.4401-.36254-1.05614-1.43978-3.3668-1.43978-4.25391 0-.67646.71225-1.77972 1.14114-2.22325 1.14478-1.18302.27359-.89961 1.07511-2.28987 .57437-.99657 1.94844-3.53561 2.1835-4.54528zm163.053-7.76441c1.38507,0 5.6167,11.6216 6.988,13.1995l-7.17936,9.1122c.13666-2.5057.73549-5.35898.95987-7.82617 .43348-4.76261 1.15183-3.07248-.85318-6.89536-.80885-1.54188-1.96003-4.70667-4.04358-4.75588-2.87593-.0682-5.16094-.50502-8.03591-.50502 .36776-.54899 2.1343-2.3293 2.84687-2.3293h9.3173zm-126.883-3.0416 12.2287.18495 .74527.56491 8.05269-.32984 36.2376.99534 17.5748,21.6196-.2363.19414c-.49551-.23784-7.33125-2.32935-7.76441-2.32935-2.74932,0-11.5057,3.88223-14.4935,3.88223-1.8106,0-5.57786-1.81183-8.28225-1.81183-1.52387,0-9.10306,3.69209-11.3877,3.88223 0-1.17843-.16262-3.62329-1.29394-3.62329-.98647,0-1.01217,1.20103-2.32935,1.55288l-1.38476-2.26759-1.72619.16535-1.63451-1.15455 1.75921-1.54129-4.25177-6.00702-.39619.0584-3.81802,3.56399-17.5992-17.5993zm37.0546-3.19317 21.2485,1.21599-1.2411,1.45415-22.0974-.88129 2.08996-1.78886zm-13.4465.72935c.4524.018.44139.49428.52575.84677h-4.14113c.35153-.47964.01987-.42857.77706-.51325l2.83832-.33352zm-47.3548,25.9515c0-3.41969.5258-8.00867.7786-11.3856 .45026-6.02171-.01955-5.23429 1.91269-9.99289 1.08366-2.66892 2.41366-5.61024 3.68136-8.22386 .56122-1.15733 6.06269-4.3022 7.60334-4.3022l3.88891,3.09935c.98338.78833 1.59659,3.36007 2.167,4.82064 1.57676,4.03689 3.38335,5.01418 6.17274,7.80325 1.83534,1.83534 13.3203,12.7951 13.6526,14.0405-2.27919.60861-4.60394,5.30823-5.17622,7.76441-.95218-.25431-11.9248-9.73945-13.6504-11.1957-1.18944-1.00389-2.0524-1.93375-3.32801-2.88352-1.88027-1.40067-1.81824-1.29949-2.43267-3.77891-.47959-1.93652-2.0704-8.31131-2.0704-10.0938l-.9953-.82044c-.36713.21701-1.07511.39951-1.07511.82044 0,1.92338 1.3074,7.01946 1.75707,8.85421 1.08948,4.44832.33048,4.15886 3.62974,6.72296 2.05144,1.59413 1.99273,4.76197 2.38556,7.96738 .41452,3.3809-1.03413,5.32597-1.30222,8.5482l-8.52282,1.40372c-.17363-.084-8.53842-8.36447-9.07645-9.16813zm26.1402-25.6223c.4197-.62667.75841-1.03536 1.81178-1.03536h1.81183c.99011,0 2.16118.71129 2.58793,1.29394l-6.21153-.25858zm83.5969,25.8812c1.30344,0 30.9049-27.4913 35.4575-30.5399l1.01089,2.33999c-.57591.88561-16.1891,14.5467-17.9893,15.8801-2.14958,1.59231-7.21847,6.06696-9.09874,7.98302-1.41291,1.43978-3.08194,2.55368-4.52536,4.01548-1.49758,1.51714-3.23296,2.17068-5.89029,2.3917-.66396-2.48706-7.05953-1.99673-8.69832-4.24231-1.72619-2.36541-3.82807-4.71672-5.72793-6.95407-2.31434-2.72549-10.1668-11.7325-11.455-14.1673 .31761-.47441 1.08639-1.55288 1.81178-1.55288 .2131,0 9.99781,12.7239 11.0255,14.0793 1.85462,2.44549 3.57563,4.58407 5.38713,7.03597 1.54888,2.09578.69756,1.92583 3.62361,2.58797 1.6718.37813 3.2381,1.14296 5.06857,1.14296zm-128.889-12.4231c1.26797-2.64263 2.77315-11.4773 4.99918-12.6001 1.57671-.79538 10.5801-6.29316 11.3061-6.29316 .65841,0 4.06468,2.13061 4.39971,2.58793-1.69927.81557-9.01924,3.77036-9.90635,4.58743-.97269.89566-6.65752,6.67039-6.65752,7.57673 0,.31515.53526.77646 1.03504.77646 1.32455,0 5.60965-5.88815 7.08427-6.89172 .74158-.50465 9.02475-4.17778 9.73854-4.23708-4.14449,7.83258-1.09193,4.82496-8.58886,9.78684-2.46691,1.63265-4.27687,1.23036-7.10109,2.2162-1.1023.38487-3.17148,4.34809-3.46221,5.59619l-2.84682-3.10577zm47.7515-22.9197 1.1436,6.35919-2.30856-.003c-1.26156,0-3.97728,2.21225-5.17649,2.84682l-.91521-2.71267 7.25667-6.48998zm-37.6021.68501c1.0656.07 3.58631,1.40649 3.82657,2.30611l-5.99938,3.28276-.09659-.12902 2.26941-5.45985zm145.804.89111 1.15519,2.18714c-2.08114,3.09967-23.5605,20.1759-23.5605,21.4858v.2589c0,.60588.42948,1.03504 1.03536,1.03504 .31242,0 11.2997-9.96261 12.73-11.0805 2.0845-1.62901 4.1509-3.93053 6.2299-5.67568 1.24351-1.04364 5.75881-4.23072 5.88597-5.76036h2.32935c-1.38203,2.06399-11.3761,9.94305-14.0444,12.3543-1.2411,1.12154-13.8143,12.2329-13.9072,12.2329-.41661,0-3.76113-1.99123-4.50917-2.44763l26.6555-24.59zm-2.735-.3916-25.3594,23.5522-12.4225-21.1452 37.7818-2.40698zm-89.5501,6.20635c-1.22732,0-5.82362-6.67557-6.47016-8.02304l3.09813.32461 .22684-.206 4.94874,7.74427-.25067.16016h-1.55288zm4.14113-13.1995c-2.77929-.23111-5.05543-2.00928-5.69401-4.39975l6.42704,2.19665-.73303,2.2031zm10.356-11.8955 8.65061,16.2344-8.65521-.43471c-.13848-1.69836-2.06095-4.37833-1.91206-5.58182 .22193-1.79714.98311-4.5752 1.39544-6.34541l.11801-.31151-3.1446-1.19125-.07122-1.0641 3.61901-1.30558zm-35.7197-1.56266c1.37375-.11433 4.04699-1.01794 5.5378-1.45015 1.87417-.54321 2.14776-2.36877 3.00308-3.98492 4.10811.9571 3.28703.65723 6.36711,2.69125 1.75007,1.1561 3.68109,2.49256 5.32415,3.73425 3.17362,2.39874 7.62567,4.80417 12.6371,5.2211l-1.29308,6.21158 2.08355,4.91177-3.37198-.31274-1.04177.0596c-.16813-2.02152-.34362-2.4449-2.07045-2.84719 .30569-.63703 1.29399-3.08617 1.29399-3.88218 0-.71166-8.0903-3.26534-9.28519-3.65539-3.45825-1.12859-4.63636-6.69699-6.24364-6.69699h-.25862c-.59642,0-.77646.18004-.77646.77646v.25858c0,.54263 4.24418,6.623 4.86716,7.55568l2.4846,3.72693c1.46452,2.20765.7263,1.55593 3.48604,2.46687 .82017.27054 3.95436,1.21113 4.33495,1.87663 .50988.89257.92927,3.60678 1.47798,4.47461 .36868.58297 6.27911,5.097 6.90118,5.2633l-3.13328,3.07461-5.64999-1.09284c-.84677-1.48103-6.63037-10.8353-7.56636-11.5137-5.59896-4.058-6.13877-3.0159-7.9787-10.9145h-.77646c-.69238,0-.76573.37355-1.03536.77647 .89875,3.85772 2.58824,7.5052 2.58824,11.3877 1.44315.76359.6117,1.24596 1.49022,2.65059 .39342.62912 1.30194,1.77695 1.80755,2.33362 1.18084,1.30008 2.75055,3.18921 3.68991,4.59203-.30201.45149-.83727,1.29394-1.55288,1.29394h-3.88218c-.53403,0-4.15245-2.44213-4.91727-2.84682l-1.35238-9.26996 .31702-.0474c-.85377-1.61341-1.18361-7.50547-2.32935-7.50547h-.25858c-.69238,0-.76578.37354-1.03536.77642l1.14109,6.97058-7.59138,6.50986c-.77797-.57741-1.98391-2.02452-3.12596-2.86915-.33107-.24484-3.10577-2.42194-3.10577-2.58824 0-.69024 7.10964-11.3171 8.02331-12.6817l.77646-5.43511zm-35.5192-2.1413 7.56696,3.69482-1.63633,4.10475c-1.50272-1.12709-3.20113-6.1761-5.35134-6.1761l-2.23025-.18309 1.65098-1.44037zm-17.02-4.07023c1.87722-.15621 7.55991-2.40666 8.73652-3.42765 .58628-.50865 6.74492-5.37213 6.79231-5.37213 2.35259,0 4.75465,4.69562 5.69374,6.47043-1.20808.80916-7.92281,6.55729-8.02304,7.76446l-5.44366-.40292c-.45699.2901-.76792.19473-.76792.92044v.2589c0,1.44651 8.80805,1.55288 10.6113,1.55288 1.39394,2.08141 2.79061,4.0479 4.19279,6.1596 1.38999,2.09332 3.61169,3.0376 5.89733,4.19674 2.52007,1.27807 11.2776,6.5356 13.2032,6.98404-2.23853,1.94566-6.97667,2.4479-7.24689,5.69401-1.44588-.12047-16.3022-9.1232-18.9779-10.5266-3.27298-1.71673-6.13358-3.62911-9.40657-5.34584-2.36386-1.23987-7.92217-3.54507-10.9552-3.79755l5.69401-11.1288zm85.6673,2.0704c3.23201-1.71032 7.87874-3.02323 10.5404-5.24707 2.54727-2.1282 5.9997-5.16794 8.61178-6.9171 .26076.49278 1.55288,2.91108 1.55288,3.36471 0,.0498-7.75314,8.3119-8.48217,8.85817-1.6336,1.22336-10.1567,3.36012-12.7404,4.59994l.51752-4.65865zm-70.368-19.6125c1.33187.25985 10.1246,2.78939 10.6247,3.26475 .83267.79111 5.44089,6.71991 6.16874,7.80689l.61475,11.6415-3.44634,2.61207-10.5838-5.0276 3.64134-3.24761 .19809.23325c.18618.69756 2.35349,4.65865 3.10577,4.65865 .60588,0 1.03504-.42948 1.03504-1.03504 0-.56341-5.03588-9.18987-5.69706-10.3493-.67924-1.19034-7.7198-6.99131-9.05503-6.99131-.07122,0-.47318.17818-.77642.2589v1.55288l2.83218,1.83261-5.27035,4.31107-1.12522-7.57855 7.73354-3.94308zm139.989-5.23365c0-.25553 1.79345-1.62592 2.0704-1.81146 1.83384,1.34346 4.58011,11.2214 4.65865,14.7524l-4.08642,2.42039c.0507-1.35815.72203-2.10037.72203-3.19685 0-.98247-2.21497-.55572-2.58824-5.17649-.19228-2.37914-.77642-4.45046-.77642-6.988zm-78.1006-2.04808c.58996.15162 3.0446,2.02916 3.0446,2.30702 0,.61043-.50774,1.15151-.77642,1.55288l-3.38913-.78533 1.12095-3.07457zm85.6089-8.81537c.2192,2.66101 2.58552,8.20644 2.58552,10.3459 0,.29655-2.54791,5.34984-2.84687,5.69401-.0486-2.1685-1.99428-5.6353-2.84714-7.24689l.55513-.74526-.0401-7.02557 2.59343-1.02222zm-101.975,2.32262c.80366-.08409.92381-.25862 1.81183-.25862h1.81178l-1.86194,4.24108-1.76166-3.98246zm56.2481,43.566c1.15642-.48541 10.0656-8.58763 10.7846-9.66119l1.15551-10.3383c.0556-1.49572-.86082-3.61778-.86296-4.93442-.002-1.17597 1.00175-3.10085 1.00175-4.65619 0-.32033-1.46975-5.06093-1.71555-5.79001-1.4049-4.16496.68019-3.30477.68019-5.33879 0-1.96617-1.03536-4.21816-.99016-6.35551l2.81813-1.10903 5.18476,5.63075c-.96874,1.80596-1.85062,4.37956-2.69461,6.41054-.85686,2.06154.0816,5.42865.0816,8.10494 .87364.5851 4.65928,2.32935 5.95295,2.32935 1.0103,0 7.04848-3.74253 8.54088-4.14085-.40843.77128-1.81183,3.24856-1.81183,4.14085s4.48475,4.92 5.17617,5.95291c-1.48835,2.22298-1.33614,1.67485-4.66843,1.80173-1.51345.0578-4.17628.41725-5.68209.52944-2.82299.21033-3.60037-.53862-5.02733,1.44283-.56732.78779-2.48033,2.87193-2.48033,3.73152 0,.31488.53557.77646 1.03536.77646 .91216,0 2.95174-3.10213 3.36471-3.88223l13.4575-.78624c.42461-.79143 2.32994-3.05319 2.32994-3.61351 0-1.26738-5.17617-5.43752-5.17617-6.21153 0-.7474.82594-1.98664 1.29394-2.32935 .71289.47718 7.50583,5.76495 7.50583,5.95263 0,.99348-1.72715,5.46172-2.12025,6.93847-.97483,3.66121-.67983,3.79783-4.12371,4.93469-5.15752,1.70268-8.75757,2.31952-14.6133,3.50378-4.21239.85164-3.16111.80702-5.47086,3.58754-1.38417,1.66566-2.76037,3.27207-4.0574,5.00099-1.51159,2.01542-6.07824,8.88632-6.62514,11.2331l-20.4491-.9767 .27572-.20419-8.9936-16.8396c3.225-.80579 7.18273-2.16977 9.49738-3.71956l6.43955,14.7658-1.56512,2.28778 .35003.78593c.68597.1895.39433.27722.98707.27722s3.77613-5.17617 4.34072-6.01189c1.00448-1.48658 4.98881-2.42839 6.87367-3.22014zm-68.6711-45.1189c2.69798,0 8.65307-3.36439 11.6466-3.36439h2.84714l3.87795.3026-1.11454,2.24499-7.42971.44294 .0076.89166c0,.92563 2.71849,6.52427 3.28126,7.84759 1.39453,3.27939 1.78518,4.38784 2.41275,8.45743 .42857,2.7802 4.43704,15.5291 6.21126,15.5291 1.16524,0 10.9368-18.9033 12.1642-21.2229 2.1187.49369 3.91488,1.17661 5.91989,1.84452 1.48044.49369 4.67943.89748 5.32538,2.43908 .93659,2.23457.93354,3.64252 3.07611,4.6883 2.98102,1.45538 1.6733,1.63938 6.12503,1.63938-4.03171,3.50441-10.7066,9.24672-16.5642,10.6116l1.91328-12.1486c-.56855-.32861-.55631-.53344-1.13682-.53344s-.56795.20483-1.03504.51752l-3.40718,22.2512c-8.23582-.68196-13.6089-10.8632-21.9565-10.8632h-.77646c-1.45506,6.24487-5.22078,3.72693-9.3173,6.47016 0,5.22115-1.33828,6.86998-3.413,10.0455-.87638,1.34196-4.84788,7.02192-5.12787,8.07165l-17.5922-9.33076 2.13307-5.13279c1.45202.0966 1.71246,1.00507 3.0361,1.00507 .80821,0 4.72741-3.47076 5.17617-4.14113v-4.14081c1.20594-1.80077 6.34055-3.96136 6.96935-5.71234 .49151-1.36825 2.22662-8.87467 2.34795-10.334-.26958-.40292-.34298-.77646-1.03536-.77646-1.55839,0-2.53686,7.05403-2.82818,8.55952-.59183,3.0587-3.55971,4.23344-5.71265,5.67505l-.33443-5.94804c-1.45261-2.28714-4.08824-5.5549-5.94008-7.70602-1.92583-2.23671-.95009-1.57767-4.23344-2.49561-1.56575-.43776-3.68504-1.31691-5.27954-1.44961 1.42728-2.13152 8.29481-7.64213 10.6755-10.0292 2.3886-2.39506 2.95874-2.66405 6.32709-4.02557 1.12891-.45672 6.56643-2.76801 7.32575-2.76801 .06908,0 4.24936,2.58797 5.43511,2.58797zm100.679,13.9759c1.02708-.27417 4.14999-8.96181 4.14722-10.8638-.003-2.32475-.16963-5.2734-.0156-7.52139 .11742-1.71432 2.182-3.12473 2.59743-4.90781l3.61687.32493-1.29885,8.47271 .0113,5.95445c-1.29703.10824-4.53855,3.18894-5.17622,4.14113l1.15124,8.52619-5.03342-4.12644zm-85.6673-6.988c1.52692-.12683 2.32139-3.34602 2.93427-4.5712 .8807-1.76076 1.52569-3.3326 2.41343-5.09213 .85405-1.6935 1.77508-3.31118 2.45159-5.05393 .97638-2.51425 1.01917-2.99935 3.84735-3.65844 0,2.30333-.50865,6.73792-.80148,9.30511-.33507,2.93823 1.57794,4.72373 1.57794,7.77665 0,.98398-2.07072,4.72436-2.07072,6.21153 0,.9305 3.65876,1.57885 4.65865,1.81178l-8.10558,15.1073c-1.95639-3.46003-4.98544-11.7894-5.09363-16.6602 2.19847-.0492 3.98155-.0889 4.5697-1.90041 .27299-.84095 1.38294-4.47711 1.38294-5.08754 0-.54749-.09264-.34116-.25894-1.03536h-.77642c-1.20562,0-2.04748,4.48411-2.32935,5.69401l-3.35825.3182-1.0415-3.16539zm44.2572-55.6446c0-.91644-2.34122-4.83964-2.84318-5.69801-1.2411-2.12266-.95128-3.5111-.26258-6.46647 1.68954,1.13163 3.54411,2.77042 5.22233,4.09465 2.6656,2.10315 1.95276,2.72031 2.64877,6.66884 .39801,2.25722 1.511,15.118 3.2577,15.118h.25894c.87178,0 4.33736-6.92687 4.91723-8.02336l4.62108,1.65957c.0376,3.83239 1.55807,18.5903.0376,20.3397-.0816-.98397-.65695-5.94954-.91708-6.84734-.25889-.89293-3.38426-3.76422-3.74162-3.76422-.58569,0-3.25888,1.58895-3.97696,1.97563-1.09403.58937-1.64183,2.53354-2.23426,3.71838-1.22704,2.45341-1.81178,6.51963-1.81178,10.0937 0,.60315 1.92365,3.12718 2.31984,3.63279 .89352,1.13991 2.66005.50833 4.92673.50833l.23048.14339 2.95751-4.75097 .21978.16444c-.37904.4298-2.42162,4.4731-2.37241,4.9607l.5655,6.46556c.30051,3.44506-5.03556,10.5917-6.70672,12.7569-1.43337,1.85767-2.86369,3.76545-3.72602,6.10885-.6343,1.72256-1.94966,5.46749-4.10875,5.46749h-6.47011c-1.91851,0-3.84553-1.52078-4.43704-3.06879-.91002-2.38187-.67405-3.35611-3.1009-4.14599-3.7358-1.21572-7.06653-2.32048-10.9442-3.54934-3.90301-1.23678-4.52872-5.08262-5.6931-9.06113-.77492-2.64786.62298-9.26536.62298-13.044 0-.35517-.54012-.61839-.77642-.77642-.9611.22374-3.86113,1.42114-4.65865,1.29399l-5.68914-.80671c-.37905-1.57708-1.53792-3.73093-2.25777-5.22237-.51511-1.06715-.59397-5.23333-.59397-6.91155v-2.32935c0-.62053 4.75861-6.23627 5.43511-7.24689l2.8395-.31761 2.85451.05871c.92467,0 5.59314,4.80385 6.98795,5.17649 0,3.05288.25862,5.17249.25862,8.28194 0,2.93764-.54995,6.12781 1.03536,7.50552 2.25472-1.1928 5.94986-14.3572 7.50552-17.5993l-3.60955-8.02945c1.23928-1.86467 3.39586-4.10074 4.97689-5.87314 .67251-.7535 1.96372-7.36304 1.99732-8.87281 2.10924,1.41227 2.86401,4.59903 5.53571,5.33452 2.13457.58719 6.8975,2.07313 8.69918,1.65343v-.77642zm16.1167,29.2542 .96474-.0083-1.29826,2.84623 .33352-2.83795zm-8.09366-3.37294c.97911-.08163 1.72774-.51752 2.58824-.51752 1.05646,0 2.40575.67492 3.62329.77642l.24457.78165c-.28277,1.27011-.33352,2.6078-.64499,3.99378-.32739,1.45661-1.09771,1.81515-1.41136,2.98898-.56063-.37568-.86141-.77642-1.81151-.77642h-.77642c-.95009,0-1.25119.40074-1.81183.77642l-.78469-1.28876 .78469-6.73456zm1.03536-2.32935c.26012-3.125 2.17987-2.8863 3.62329-4.14113l2.42257,1.96313 .20237,2.94987c-1.44683-.32402-3.3879-1.03077-4.95424-1.03077-.69911,0-.71348.12379-1.29399.2589zm5.17617-19.6697c.16144-.32525.36531-1.03536.77646-1.03536 .39128,0 .48606.48605.71958.83331 .10823.16081.21396.30633.32342.45335 .0446.05989.33748.18004.25099.26622l-.21551.30205-1.85494-.81958zm-25.8812-31.8341c.92076,0 3.2241-6.43377 3.72665-7.66109 1.27716-3.11954 2.12998-4.85124 2.22598-9.16172l9.4781,7.36822 .0981,5.31346c0,.89839 2.69248,6.72905 3.10577,6.72905 .91003,0 20.3816-5.03128 21.2226-5.43479l6.29562,10.3001-7.07208.0523c-.99498,0-6.46984,5.49132-6.98795,6.47043 .8183,1.54679 8.42437,3.89019 10.6113,4.39975l.97847,8.54761-4.46851,8.7276-.39219.06544c-.0284-1.27962-2.17586-10.1512-2.68515-11.8084-.37873-1.23127-8.21563-4.23831-9.99653-4.23831-.59642,0-.77646.18004-.77646.77642v2.84719c0,4.72495.93176,4.09342-1.34656,7.71212-.68502,1.08825-3.06234,5.1915-3.31209,6.26383h-.51784l-2.69066-16.8063-9.65751-7.87447c-2.02884,1.12736-1.59172,5.74049-2.1453,8.11658l2.97402,5.62675c-3.18312-1.39945-4.86866.02811-7.11515-3.03851-.57228-.78106-3.87946-5.17649-4.65838-5.17649-.58051,0-.56828.20478-1.03536.51779l-1.90105,10.5945-5.98747,6.89872c.65782,1.21813 3.74739,7.80994 3.74739,8.64693 0,.60706-3.75471,9.90817-4.14081,10.3523l-.33016-9.31425c-.57928-.9742-7.55136-6.7321-8.72856-6.7321h-1.55288l-5.43143.30842c-.80457,1.14664-6.47379,8.06001-6.47379,8.74998v2.07072c0,7.07326.44139,7.89766 2.76369,12.7651 1.36675,2.86456 1.47921,2.14867 5.0698,2.69643 2.8224.43071.24762,1.73752-.32798,4.20807-2.8325-1.89678-5.35198-4.548-8.12636-6.62573-1.39117-1.04177-8.27311-5.47791-8.6965-6.05596 1.84852-.43071 6.46893-2.67106 7.24694-4.14113-.19687-.40961-.25894-.37172-.25894-1.03536v-3.36439c0-2.43844 3.36471-7.9857 3.36471-10.0937 0-.3152-.53558-.77646-1.03536-.77646-.75473,0-4.65988,3.17516-5.50815,3.80915-2.04385,1.52814-2.29328,4.3973-3.80919,5.50815-2.15049-4.48165-1.70018-6.14-.51752-10.8702 .52184-2.08846 2.58797-9.34422 2.58797-11.1291 0-.42061-.70798-.60311-1.03509-.77642l-9.66333,10.5064c2.39442-5.50174 3.56367-16.4444 7.26954-20.1469 3.46739-3.46403 3.95954-3.17848 8.34642-5.37058 1.09803-.54872 8.7995-3.94731 8.7995-4.65865 0-.54749-.09264-.34116-.25862-1.03536l-15.0061-1.11053c.31547-1.12554 2.14439-2.46173 3.03637-3.3537 1.94143-1.94143 1.21754-1.51714 4.20534-2.26482 2.06918-.51784 8.52405-2.32935 10.3523-2.32935 .32402,0 9.67924,7.76441 10.6116,7.76441 .13725,0 .56795-.37291.77642-.51779l-.87511-14.7622c1.37221.04398 4.25696.81221 5.94436,1.1521 1.504.30296 4.81454.37782 5.33911,1.6492 .61962,1.50213 2.7108,10.1494 4.08519,10.1494h.2589zm-104.561,120.866v.2589l.2589.77642c5.08481,1.18457 10.3802,2.83341 14.3902,5.27954 4.0705,2.48306 8.35747,4.93742 12.5264,7.14357-.43407.82017-3.10577,7.03966-3.10577,7.76441v.77646c-3.60801.84032-3.64439,3.29831-4.75583,6.63182-.46741,1.40126-2.74969,7.7088-2.74969,8.63811 0,.5967 3.10181,4.31748 3.62333,4.91727-.26076.49274-1.55288,2.91104-1.55288,3.36466 0,1.19553 2.38647,6.715 3.34543,7.00696 5.08262,1.54643 3.31055-.61993 6.23782,4.37374 2.16427,3.69268 1.85644,3.09049 5.43175,5.17954 2.12452,1.2411 4.74942,2.37059 7.0714,3.54016 1.96649.99043 1.44101.77888 3.85594.40688 1.76076-.27118 2.98257-.38273 4.7531-.68201 1.41654-.23934 8.50786-1.14109 9.08132-1.52996 1.90901-1.29517 7.11333-10.2952 9.47901-11.922l3.51451,2.93123-1.78399,3.89505c.41265.77978 3.56185,4.14113 4.39975,4.14113h.2589c.99621,0 1.32482-2.18596 1.85676-3.15374l1.24901,1.08302c-.29928.56582-1.29426,1.97349-1.29426,2.58824 0,1.05769 1.70145,1.47189 2.3293,2.32935-.38791.57955-1.03504.90907-1.03504,1.55288l-.0095,1.12645 6.80241.69511-1.09926,6.46038c1.34901,2.54913 18.2611,10.1751 21.7404,13.1995h.2589c.7957-.50502 13.5924-1.96222 15.5897-2.26818 2.61176-.40015 5.27858-.74895 7.73172-1.06838 2.97216-.38701 4.70844-1.25483 7.21847-1.83961 .52089.34876 1.04482,1.03504 1.81178,1.03504 .60311,0 9.91981-4.83351 11.3006-5.5222 5.8881-2.93737 5.94863-2.17282 7.59292-9.23021 2.12575-.17668 15.2843-.57987 16.1485-.93295 .85132-.34758 7.98115-6.77462 9.4258-7.91453 1.6281-1.2848 3.10336-2.50784 4.64491-3.89628 1.87476-1.68858.44567-1.00171 1.4954-2.64568 .5102-.79907 1.38417-1.67058 1.9775-2.42226 2.49929-3.16661 5.12851-6.64319 7.71798-9.6224v-.2589c-1.48658-2.13921-3.8654-7.99002-5.26362-10.7828-.74831-1.49513-1.27411-4.63118-3.26566-4.75742-2.43294-.15403-5.52647.0116-8.03495.0116 .61689-.92135 5.17649-4.33799 5.17649-4.91759 0-.72812-2.16731-5.06521-2.58824-5.69401h-6.21153l-2.39934-3.23201-.18372.20451-42.1969,2.68911c-.34881-.58906-.61748-1.73201-1.5477-1.73201h-1.03536c.23079-2.77165 5.71543-9.88984 7.35085-12.0603 4.40707-5.84777 3.85622-5.73558 12.3463-7.06467 3.20204-.50133 5.06243-1.07634 7.8344-2.00042 2.7405-.91371 5.10468-1.02254 5.95295-3.62333 .43375-1.32941.84886-2.40452 1.23191-3.68532 .67127-2.24467.3066-1.20076 2.2419-2.41707 1.5376-.9666 4.99399-2.40879 5.74599-3.82993l-1.08243-4.90718c.51934-.7153 4.18819-8.48099 4.18819-9.06881 0-1.20835-1.2958-5.16576-1.65711-6.62482-.31638-1.27807-1.11272-6.05687-2.22511-6.05687-.7309,0-2.53658.76209-3.10577,1.03504l1.38507-8.26634-.66028-.48146-5.89333-.6444c-1.21663.88465-4.16314,5.26639-4.15518,7.31506 .0177,4.64064.37628,6.86635-.8691,10.519-1.17288,3.43988-1.33828,5.60906-4.30066,7.08704-2.56746,1.28112-5.00809,2.56073-7.50552,3.88223l-3.8599-1.35542c-.10118-3.47076-1.17047-4.35205.2363-7.4444 .36713-.80639 2.3293-5.52861 2.3293-6.21153v-.25858c0-.60866-5.9419-6.97854-6.72905-7.50552-1.67853.80516-4.83351,1.22059-5.69401,2.84682l1.27989,6.73183c-.37996.74254-1.27989,2.33362-1.27989,3.36193 0,2.08114 2.32935,6.55638 2.32935,8.54088 0,1.09803-1.13505,3.19931-.94459,4.548 .17026,1.20622.82167,3.65876.68597,4.76929l-1.06074,9.57287c-2.15813,1.46516-6.46161,5.69828-8.56962,7.71339-.83327.79629-4.19734,1.91142-5.56072,2.46259-1.12004.4524-2.06245.57287-2.67901,1.46179-.50347.72599-.80521,1.81669-1.79991,2.08232-.60402-2.5922-5.95259-12.8358-5.95259-13.9756 0-.64595 7.50547-7.2674 7.50547-8.2823 0-.83053-1.77785-3.40318-2.0704-4.65865h.77646c1.21022,0 2.58151-1.43396 3.29681-2.13794 1.82647-1.79777.99839-.94641 1.98268-3.45243 1.43273-3.64807 1.9307-3.85135 3.88587-6.72541 2.27036-3.33747 7.13993-9.04403 7.13993-14.083 0-7.80812-1.32882-4.77848 1.89464-11.5638 2.80862-5.91198 2.50266-3.58327 2.50511-11.4709 .001-4.2811-.21247-9.67188-.50838-13.9851-.19105-2.78875-4.15031-3.97023-4.15031-10.3432v-2.3293c1.20808.10055 4.11029,1.38107 5.40546,1.84143 2.08355.74036 1.76808,2.5274 2.359,4.88762 .4298,1.71673 1.69654,10.8702 3.36466,10.8702h.25862c.93386,0 4.80631-8.39872 5.51824-9.75196 1.35115-2.56778 1.71551-1.92552 1.15519-5.72093-.28459-1.92706-.72053-4.537-.72053-6.78503-.82562-1.23282-7.6308-3.7202-9.57619-3.88218l4.3389-4.20716c1.99946.06603 9.37814.67833 9.37814-.96901 0-1.33955-7.90293-13.4585-8.54088-13.4585-1.88732,0-8.3391,2.086-10.5578,2.64177-2.2147.55449-8.33055,2.48829-10.4061,2.53445-.36804-1.58012-1.53637-3.06879-1.76749-4.44377-.2161-1.28603-.044-4.42877-.044-5.90861-.58721-.87697-11.62858-9.83478-12.16418-9.83478h-1.03536c-.56427,2.42253-.63244,6.91855-1.44283,8.90951-.57073,1.40217-2.41093,6.28825-3.21582,6.87794-.41788-1.79345-1.24569-3.86113-1.84452-5.66099-1.04973-3.15315-.55999-2.71635-4.08856-3.41696-2.98348-.59242-9.55573-2.30979-12.4426-2.30979-.36286,0-.51784.35276-.51784.77646v.2589c0,.42002 1.83443,2.44672 1.81273,5.95172-.0156,2.56255.25799,4.47679.25799,7.2478l-8.9719-6.58571c-2.50325,1.27475-9.87852,2.34372-13.1824,3.32464-1.20867.3589-8.127,6.98981-8.127,7.91944 0,.58046.20483.56827.51757,1.03536l12.9372.82776c-.54626.69911-8.11413,4.13044-9.57715,4.86165-1.56234.78042-2.58824,2.20829-3.81342,3.43347-2.08996,2.08996-1.52601,1.34992-2.55523,4.43272-1.22518,3.67131-2.24708,7.26222-3.42888,10.8057-1.08884,3.26657-2.64172,7.59324-3.39741,10.8372 .26963.40287.34298.77642 1.03536.77642h.25862c1.0641,0 8.59527-10.2111 10.0938-10.6113-.56186,2.41189-2.84687,9.92259-2.84687,11.9056 0,.79934 2.69921,9.3173 3.62329,9.3173h.2589c1.4939,0 3.42005-8.1059 6.988-9.05872-.54899,2.35627-3.41269,7.27504-1.81178,10.6116-1.2411.65663-8.28198,3.52242-8.28198,4.65865 0,1.22795 8.13828,5.61729 9.50962,6.79572 1.68372,1.44679 8.0108,6.27147 8.86613,7.43885l-5.43084-.32034-1.81578.06176c-2.14071,0-8.6879,2.73527-11.388,3.36434l-5.48523-2.74718c-5.88874,2.74996-10.2371,2.80498-14.8967,7.47036-2.25686,2.25962-9.51507,9.33534-11.7108,10.80569-.40965-.19655-.37172-.25889-1.03536-.25889-1.05492,0-9.61412,4.71918-10.0938,5.43507l1.66416,9.55696c-.0156.57136-5.21992,2.11292-5.8374,2.31652-3.00949.99161-2.5103,1.11267-3.93294,3.83116-1.01549,1.94016-4.548,8.69491-5.61088,9.91799z"></path>
   <path d="m104.561,19.9286h-.2589c-1.37439,0-3.46557-8.64725-4.08519-10.1494-.52457-1.27138-3.83512-1.34624-5.33911-1.6492-1.6874-.33989-4.57215-1.10812-5.94436-1.1521l.87515,14.7622c-.20846.14489-.63917.51779-.77642.51779-.93236,0-10.2876-7.76441-10.6116-7.76441-1.82829,0-8.28316,1.81151-10.3523,2.32935-2.9878.74768-2.26391.32338-4.20534,2.26482-.89197.89197-2.7209,2.22816-3.03637,3.3537l15.0061,1.11053c.16599.6942.25862.48787.25862,1.03536 0,.71134-7.70147,4.10993-8.7995,4.65865-4.38688,2.1921-4.87903,1.90655-8.34642,5.37058-3.70587,3.70251-4.87512,14.6451-7.26954,20.1469l9.66333-10.5064c.32711.17331 1.03509.35581 1.03509.77642 0,1.7849-2.06613,9.04066-2.58797,11.1291-1.18266,4.73018-1.63297,6.38853.51752,10.8702 1.51591-1.11085 1.76535-3.98 3.80919-5.50815 .84827-.63399 4.75342-3.80915 5.50815-3.80915 .49979,0 1.03536.46127 1.03536.77646 0,2.10801-3.36471,7.65527-3.36471,10.0937v3.36439c0,.66364.06208.62575.25894,1.03536-.77801,1.47007-5.39841,3.71042-7.24694,4.14113 .42339.57805 7.30533,5.01418 8.6965,6.05596 2.77438,2.07773 5.29386,4.72895 8.12636,6.62573 .57559-2.47055 3.15038-3.77736.32798-4.20807-3.59059-.54776-3.70305.16813-5.0698-2.69643-2.3223-4.86748-2.76369-5.69187-2.76369-12.7651v-2.07072c0-.68997 5.66922-7.60334 6.47379-8.74998l5.43143-.30842h1.55288c1.1772,0 8.14928,5.7579 8.72856,6.7321l.33016,9.31425c.3861-.44417 4.14081-9.74528 4.14081-10.3523 0-.83699-3.08958-7.4288-3.74739-8.64693l5.98747-6.89872 1.90105-10.5945c.46708-.31301.45485-.51779 1.03536-.51779 .77892,0 4.0861,4.39543 4.65838,5.17649 2.24649,3.06661 3.93203,1.63906 7.11515,3.03851l-2.97402-5.62675c.55358-2.3761.11646-6.98922 2.1453-8.11658l9.65751,7.87447 2.69066,16.8063h.51784c.24975-1.07233 2.62708-5.17558 3.31209-6.26383 2.27832-3.61869 1.34656-2.98716 1.34656-7.71212v-2.84719c0-.59638.18004-.77642.77646-.77642 1.7809,0 9.6178,3.00704 9.99653,4.23831 .50929,1.65711 2.65673,10.5287 2.68515,11.8084l.39219-.06544 4.46851-8.7276-.97847-8.54761c-2.18691-.50956-9.79298-2.85296-10.6113-4.39975 .51811-.97911 5.99297-6.47043 6.98795-6.47043l7.07208-.0523-6.29562-10.3001c-.84095.40351-20.3125,5.43479-21.2226,5.43479-.41329,0-3.10577-5.83067-3.10577-6.72905l-.0981-5.31346-9.4781-7.36822c-.096,4.31048-.94882,6.04218-2.22598,9.16172-.50256,1.22732-2.80589,7.66109-3.72665,7.66109z" fill="url(#linearGradient3052)"></path>
   <path d="m116.449,94.1831 4.46574.80912c-.0483,4.27869.49706,3.33779-1.17015,6.63492-.70857,1.40099-.88588,1.24783-.94518,3.19567-.0333,1.0867-.21092,2.58456-1.29762,2.58456h-3.10577c-2.4027,0-4.46301-1.08579-5.91412-2.10892-1.32423-.93386-1.35633-4.34532-2.10924-5.91412 .98097-1.12859 3.14278-1.55288 5.08385-1.68404l4.99249-3.51719zm-2.82945-3.59855v-.77646c0-.49979.46131-1.03504.77646-1.03504 .85532,0 3.28581,1.81151 4.14113,1.81151 .36409,0 1.34897-1.24842 1.55288-1.55288-.19686-.40961-.25894-.37141-.25894-1.03504v-1.81183c0-.49979.46131-1.03536.77647-1.03536 .54749,0 .34116.09264 1.03536.25894l.5102,4.40062c-.4017.60957-2.58461,3.10486-3.35734,3.10486-1.34719,0-3.89719-1.98755-5.17622-2.3293zm-10.0938-16.5639c.93818-1.95517.49124-5.04197 1.99982-6.54105 .72999-.72539 3.53434-4.07055 4.21175-4.07055h1.55288l3.36007.2996c2.43817,3.59395 4.14545,2.66283 4.14545,9.27664l-1.23928.63371-.0547,2.73099c0,.83235-1.59781,5.21346-1.97536,5.78906-.35794.54567-3.91124,3.26934-4.49512,3.26934-4.98726,0-5.78173-1.91883-7.50552-5.17622 .42921-1.84234.72144-4.84815 0-6.21153zm-29.2459-1.55288c.59852-1.24719 1.51164-5.69401 2.84687-5.69401h.2589l4.13776.29405c.8223.51325 4.14417,6.00675 4.14417,7.21147 0,.5001-.46127,1.03536-.77642,1.03536-1.11026,0-1.59754-1.41013-1.81183-2.32935l-.17727-.21519-1.994,1.64611-.20419,4.51804c-.42093.3167-.4087.52152-.98888.52152s-.56827-.20483-1.03536-.51784c0-4.60608.22438-6.09384 3.10577-8.02304-.52516-.99257-.8596-2.07072-2.32935-2.07072h-1.81178c-.08222.99134-1.23591,4.65865-2.32935,4.65865-.80944,0-.73303-.46431-1.03504-1.03504zm29.5048-19.4111c4.78153-1.1139 6.6135-3.14765 13.4581-1.55288v1.55288l-6.98795.00091c-.48514-.0171-4.67852,1.5743-5.69374,1.81087l-.75809-.30719-.0183-1.50459zm12.4231-5.17617v.77642c-1.80168.4197-6.56461-1.06624-8.69918-1.65343-2.67169-.73549-3.42647-3.92225-5.53571-5.33452-.0336,1.50977-1.32482,8.11931-1.99732,8.87281-1.58103,1.7724-3.73761,4.00847-4.97689,5.87314l3.60955,8.02945c-1.55566,3.2421-5.2508,16.4065-7.50552,17.5993-1.58531-1.37771-1.03536-4.56788-1.03536-7.50552 0-3.10945-.25862-5.22906-.25862-8.28194-1.39481-.37263-6.06328-5.17649-6.98795-5.17649l-2.85451-.05871-2.8395.31761c-.67651,1.01062-5.43511,6.62637-5.43511,7.24689v2.32935c0,1.67822.07886,5.8444.59397,6.91155 .71985,1.49144 1.87872,3.6453 2.25777,5.22237l5.68914.80671c.79752.12715 3.69755-1.07024 4.65865-1.29399 .2363.15803.77642.42125.77642.77642 0,3.77859-1.3979,10.3961-.62298,13.044 1.16438,3.9785 1.79009,7.82435 5.6931,9.06113 3.87764,1.22886 7.20837,2.33362 10.9442,3.54934 2.42685.78988 2.19087,1.76412 3.1009,4.14599 .59151,1.54802 2.51853,3.06879 4.43704,3.06879h6.47011c2.15908,0 3.47444-3.74494 4.10875-5.46749 .86233-2.3434 2.29265-4.25118 3.72602-6.10885 1.67117-2.16518 7.00723-9.31179 6.70672-12.7569l-.5655-6.46556c-.0492-.4876 1.99337-4.53091 2.37241-4.9607l-.21978-.16444-2.95751,4.75097-.23048-.14339c-2.26668,0-4.03321.63158-4.92673-.50833-.39619-.50561-2.31984-3.02964-2.31984-3.63279 0-3.57408.58474-7.64031 1.81178-10.0937 .59242-1.18484 1.14023-3.129 2.23426-3.71838 .71807-.38669 3.39127-1.97563 3.97696-1.97563 .35736,0 3.48272,2.87129 3.74162,3.76422 .26013.8978.83545,5.86336.91708,6.84734 1.52046-1.74943 0-16.5073-.0376-20.3397l-4.62108-1.65957c-.57987,1.09648-4.04544,8.02336-4.91723,8.02336h-.25894c-1.7467,0-2.85969-12.8608-3.2577-15.118-.69602-3.94853.0168-4.56569-2.64877-6.66884-1.67822-1.32423-3.53279-2.96302-5.22233-4.09465-.6887,2.95538-.97852,4.34382.26258,6.46647 .50197.85837 2.84318,4.78157 2.84318,5.69801z" fill="url(#radialGradient3054)"></path>
   <path d="m56.9389,96.5372c-1.18575,0-5.36603-2.58797-5.43511-2.58797-.75932,0-6.19684,2.31129-7.32575,2.76801-3.36835,1.36152-3.93848,1.63051-6.32709,4.02557-2.38069,2.3871-9.24822,7.89771-10.6755,10.0292 1.59449.1327 3.71379,1.01185 5.27954,1.44961 3.28335.91794 2.30761.2589 4.23344,2.49561 1.85184,2.15112 4.48748,5.41888 5.94008,7.70602l.33443,5.94804c2.15294-1.4416 5.12082-2.61635 5.71265-5.67505 .29132-1.5055 1.26979-8.55952 2.82818-8.55952 .69238,0 .76578.37354 1.03536.77646-.12133,1.45934-1.85644,8.96576-2.34795,10.334-.6288,1.75098-5.76341,3.91156-6.96935,5.71234v4.14081c-.44876.67037-4.36796,4.14113-5.17617,4.14113-1.32364,0-1.58408-.90848-3.0361-1.00507l-2.13307,5.13279 17.5922,9.33076c.28-1.04973 4.2515-6.72969 5.12787-8.07165 2.07472-3.17548 3.413-4.82432 3.413-10.0455 4.09651-2.74323 7.86223-.22529 9.3173-6.47016h.77646c8.34765,0 13.7207,10.1812 21.9565,10.8632l3.40718-22.2512c.46709-.31269.45486-.51752 1.03504-.51752s.56827.20483 1.13682.53344l-1.91328,12.1486c5.85759-1.36488 12.5325-7.10719 16.5642-10.6116-4.45173,0-3.14401-.184-6.12503-1.63938-2.14258-1.04578-2.13953-2.45372-3.07611-4.6883-.64595-1.5416-3.84494-1.94539-5.32538-2.43908-2.00501-.66791-3.80119-1.35083-5.91989-1.84452-1.22736,2.31957-10.9989,21.2229-12.1642,21.2229-1.77422,0-5.78269-12.7489-6.21126-15.5291-.62757-4.06959-1.01822-5.17803-2.41275-8.45743-.56277-1.32332-3.28126-6.92196-3.28126-7.84759l-.0076-.89166 7.42971-.44294 1.11454-2.24499-3.87795-.3026h-2.84714c-2.99358,0-8.94866,3.36439-11.6466,3.36439z" fill="url(#radialGradient3056)"></path>
   <path d="m79.1326,184.08 3.81802-3.56399 .39619-.0584 4.25177,6.00702-1.75921,1.54129 1.63451,1.15455 1.72619-.16535 1.38476,2.26759c1.31718-.35185 1.34287-1.55288 2.32935-1.55288 1.13132,0 1.29394,2.44486 1.29394,3.62329 2.28469-.19014 9.86388-3.88223 11.3877-3.88223 2.70439,0 6.47166,1.81183 8.28225,1.81183 2.98775,0 11.7441-3.88223 14.4935-3.88223 .43316,0 7.2689,2.09151 7.76441,2.32935l.2363-.19414-17.5748-21.6196-36.23761-.99534-8.05269.32984-.74527-.56491-12.2287-.18496 17.5992,17.5993z" fill="url(#linearGradient3058)"></path>
   <path d="m135.663,94.5817c-.0452,2.13735.99016,4.38934.99016,6.35551 0,2.03402-2.08509,1.17384-.68019,5.33879 .2458.72908 1.71555,5.46967 1.71555,5.79001 0,1.55534-1.00389,3.48022-1.00175,4.65619 .002,1.31663.91858,3.4387.86296,4.93442l-1.15551,10.3383c-.71898,1.07356-9.62817,9.17577-10.7846,9.66119-1.88486.79174-5.86918,1.73356-6.87367,3.22014-.56459.83572-3.75017,6.01189-4.34072,6.01189s-.3011-.0877-.98707-.27722l-.35003-.78593 1.56512-2.28778-6.43955-14.7658c-2.31466,1.54979-6.27238,2.91376-9.49738,3.71956l8.9936,16.8396-.27572.20419 20.4491.9767c.5469-2.34676 5.11355-9.21766 6.62514-11.2331 1.29703-1.72892 2.67324-3.33533 4.0574-5.00099 2.30975-2.78052 1.25847-2.73591 5.47086-3.58754 5.85572-1.18425 9.45577-1.80109 14.6133-3.50378 3.44388-1.13686 3.14888-1.27348 4.12371-4.93469 .39309-1.47676 2.12025-5.94499 2.12025-6.93847 0-.18768-6.79295-5.47545-7.50583-5.95263-.468.34271-1.29394,1.58194-1.29394,2.32935 0,.77401 5.17617,4.94415 5.17617,6.21153 0,.56031-1.90532,2.82208-2.32994,3.61351l-13.4575.78624c-.41297.7801-2.45254,3.88223-3.36471,3.88223-.49979,0-1.03536-.46158-1.03536-.77646 0-.8596 1.91301-2.94373 2.48033-3.73152 1.42696-1.98145 2.20433-1.2325 5.02733-1.44283 1.50581-.11219 4.16864-.47168 5.68209-.52944 3.33228-.12688 3.18007.42125 4.66843-1.80173-.69143-1.03291-5.17617-5.06216-5.17617-5.95291s1.4034-3.36957 1.81183-4.14085c-1.4924.39833-7.53057,4.14085-8.54088,4.14085-1.29367,0-5.07931-1.74425-5.95295-2.32935 0-2.67629-.93845-6.0434-.0816-8.10494 .844-2.03098 1.72588-4.60458 2.69461-6.41054l-5.18476-5.63075-2.81813,1.10903z" fill="url(#linearGradient3060)"></path>
   <path d="m37.7868,189.969c.53803.80366 8.90282,9.08409 9.07645,9.16813l8.52282-1.40372c.26808-3.22223 1.71673-5.1673 1.30222-8.5482-.39282-3.2054-.33412-6.37325-2.38556-7.96738-3.29927-2.5641-2.54027-2.27464-3.62974-6.72296-.44967-1.83475-1.75707-6.93083-1.75707-8.85421 0-.42093.70798-.60343 1.07511-.82044l.9953.82044c0,1.78245 1.59081,8.15724 2.0704,10.0938 .61443,2.47942.5524,2.37823 2.43267,3.77891 1.27561.94977 2.13857,1.87963 3.32801,2.88352 1.7256,1.45629 12.6982,10.9414 13.6504,11.1957 .57227-2.45618 2.89703-7.1558 5.17622-7.76441-.3323-1.24537-11.8172-12.2051-13.6526-14.0405-2.78939-2.78907-4.59598-3.76636-6.17274-7.80325-.57041-1.46057-1.18361-4.0323-2.167-4.82064l-3.88891-3.09935c-1.54065,0-7.04211,3.14488-7.60334,4.3022-1.2677,2.61362-2.5977,5.55494-3.68136,8.22386-1.93225,4.75861-1.46243,3.97118-1.91269,9.99289-.2528,3.3769-.7786,7.96587-.7786,11.3856z" fill="url(#linearGradient3062)"></path>
   <path d="m176.256,190.742c-.38332-1.48685-.78347-2.85696-1.1943-4.50003-.5001-1.99978-1.77817-7.84968-2.49042-9.27114l1.03536-1.03536c2.18901,1.18543 2.4268,6.32831 3.19654,8.82424 .37081,1.2029 2.29601,8.35806 2.29601,9.35031 0,.42093-.70798.60343-1.03536.77646-1.46452-.77491-1.33678-2.31589-1.80782-4.14449zm-8.54452-11.3844c.11737,5.2673 3.62329,13.7806 3.62329,18.8935 0,.42066-.70798.60315-1.02986.76209l-.84095-.23261-3.5643-17.8701c-.54563.28891-4.14081,3.24702-4.14081,3.62333 0,4.03994 3.36439,11.5295 3.36439,15.7877 0,.49983-.46131,1.03536-.77646,1.03536-1.49999,0-2.18537-5.64449-2.58642-7.24871-.47532-1.90196-1.66475-6.23509-1.86039-8.07593l-3.21091,2.76615-.32803-.0633 3.08776,11.0906-1.31354,1.01335c-1.41291-1.22795-2.81352-7.72931-3.36438-10.0938-.79202.21152-2.06795,1.5422-2.77747,2.14039-.95646.80644-2.62153.91431-3.9519,1.22427 .8776,1.31081 9.3173,12.8006 9.3173,12.9406 0,.97484-.17027.48938-.2644,1.42387l14.5103-.6343 13.965-11.6598c0-2.90767 1.1139-8.8719 1.52473-11.9334 1.04241-7.76992-1.27348-4.98849-2.56009-9.80699-1.79868,0-10.0231-.90575-10.711-.62239-.44749.18432-5.77682,5.03956-6.11186,5.53994z" fill="url(#linearGradient3064)"></path>
   <path d="m61.08,135.618-.77646,5.43511c-.91367,1.36456-8.02331,11.9914-8.02331,12.6817 0,.16631 2.7747,2.3434 3.10577,2.58824 1.14205.84463 2.34799,2.29174 3.12596,2.86915l7.59138-6.50986-1.14109-6.97058c.26958-.40288.34298-.77642 1.03536-.77642h.25858c1.14573,0 1.47557,5.89206 2.32935,7.50547l-.31702.0474 1.35238,9.26996c.76482.40469 4.38324,2.84682 4.91727,2.84682h3.88218c.71562,0 1.25087-.84245 1.55288-1.29394-.93936-1.40281-2.50907-3.29195-3.68991-4.59203-.50561-.55668-1.41413-1.7045-1.80755-2.33362-.87851-1.40463-.04707-1.887-1.49022-2.65059 0-3.8825-1.68949-7.52998-2.58824-11.3877 .26963-.40292.34298-.77647 1.03536-.77647h.77646c1.83993,7.89861 2.37973,6.85652 7.9787,10.9145 .936.67833 6.71959,10.0326 7.56636,11.5137l5.64999,1.09284 3.13328-3.07461c-.62207-.1663-6.5325-4.68034-6.90118-5.2633-.54872-.86782-.9681-3.58204-1.47798-4.47461-.38059-.6655-3.51478-1.60609-4.33495-1.87663-2.75974-.91093-2.02152-.25921-3.48604-2.46687-.88925-1.34014-1.60946-2.41675-2.4846-3.72693-.62298-.93267-4.86716-7.01305-4.86716-7.55568v-.25858c0-.59642.18004-.77646.77646-.77646h.25862c1.60727,0 2.78538,5.5684 6.24364,6.69699 1.19489.39005 9.28519,2.94373 9.28519,3.65539 0,.79602-.98829,3.24515-1.29399,3.88218 1.72683.40228 1.90232.82567 2.07045,2.84719l1.04177-.0596 3.37198.31274-2.08355-4.91177 1.29308-6.21158c-5.01141-.41693-9.46346-2.82236-12.6371-5.2211-1.64306-1.24169-3.57408-2.57815-5.32415-3.73425-3.08007-2.03402-2.25899-1.73415-6.36711-2.69125-.85532,1.61614-1.12891,3.4417-3.00308,3.98492-1.49081.43221-4.16405,1.33582-5.5378,1.45015z" fill="#fc9"></path>
   <path d="m133.289,193.334c0,2.4464.033,6.94547-1.03504,8.54088-5.7197,0-5.13433-1.21881-6.21153,3.10577-.47596,1.91024-1.55288,5.97555-1.55288,8.02304v1.55288c1.41013-.32834 3.3512-1.03509 4.91723-1.03509 .58051,0 .56827.20483.94063.5368l.91553,4.57888 6.16719,4.71918c3.64957-1.93102 7.17509-3.71469 10.9573-5.6066 1.86285-.93172 4.1017-1.32577 4.73541-3.54689 .37382-1.31168 1.90655-5.62429 1.90655-6.63396 0-.57837-5.99329-8.59286-6.83606-9.72818-.79847-1.0757-2.80894-4.10902-3.52642-4.75556-.41329-.37263-5.69246-2.0805-6.46033-2.0805-.54289,0-3.62911,2.02916-4.91759,2.32935z" fill="#f63"></path>
   <path d="m8.54088,129.407-5.69401,11.1288c3.033.25249 8.59131,2.55768 10.9552,3.79755 3.27298,1.71673 6.13358,3.62911 9.40657,5.34584 2.67565,1.4034 17.532,10.4061 18.9779,10.5266 .27022-3.24611 5.00836-3.74835 7.24689-5.69401-1.92552-.44844-10.6831-5.70597-13.2032-6.98404-2.28564-1.15915-4.50735-2.10342-5.89733-4.19674-1.40217-2.1117-2.79885-4.07819-4.19279-6.1596-1.80323,0-10.6113-.10637-10.6113-1.55288v-.2589c0-.72571.31092-.63034.76792-.92044l5.44366.40292c.10023-1.20717 6.81496-6.9553 8.02304-7.76446-.93909-1.77481-3.34115-6.47043-5.69374-6.47043-.04739,0-6.20603,4.86347-6.79231,5.37213-1.17661,1.02099-6.8593,3.27144-8.73652,3.42765z" fill="url(#linearGradient3066)"></path>
   <path d="m146.493,179.622 25.36-23.552-37.782,2.406z" fill="#e5e5e5"></path>
   <path d="m25.3637,177.287c-.23507,1.00967-1.60914,3.54871-2.1835,4.54528-.80152,1.39026.06967,1.10685-1.07511,2.28987-.42889.44353-1.14114,1.54679-1.14114,2.22325 0,.88711 1.07725,3.19776 1.43978,4.25391 .44812,1.30563 2.97616,1.4401 4.51285,1.4401 1.27534,1.90414 4.14417,7.27441 6.03731,8.1973 1.18757.57923 9.1076,4.74333 9.49152,4.74333 2.95633,0 14.2282-1.40035 15.4653-2.91044 .7324-.89416 8.08693-10.5422 8.08693-10.548 0-.66823-7.27504-6.78804-8.02336-6.98795 2.1016,4.38015-.08713,10.942-1.03659,15.004l-10.6739,1.883-10.5559-10.6758 .52607-10.8699c-1.45538,1.67458-5.45067,11.1291-6.47043,11.1291-1.34656,0-2.29451-6.29712-1.91024-7.3398 .35672-.96842 2.95442-5.85973 3.72202-5.85973h.25894c.59638,0 .77642.18004.77642.77646 0,1.19034-1.22304,2.74505-1.72865,3.70642-1.30376,2.47728-.92071,1.31018-.8596,4.058h.51752c1.23068-5.28195 6.21153-7.94109 6.21153-13.717-3.58691,1.898-6.19502,4.2264-11.3877,4.65865z" fill="url(#linearGradient3068)"></path>
   <path d="m122.678,162.535 18.4686,23.3688 3.8498-4.7702-13.7776-23.5161c-.46127.30901-3.36471,3.94121-3.36471,4.14113 0,.67432 10.1671,14.2232 11.4311,16.0895l.0783-.21583-9.18005-14.8383c.40502-.46586.30965-.77647 1.03536-.77647h.2589c.95437,0 4.72895,6.82537 5.48341,7.97474 .68169,1.03904 5.12787,7.9029 5.12787,8.58917 0,.15467-.35735.53708-.52211.81189l-1.07388-.33748-.21579.30201c-.0434.0438.12993.0294.14857.11037 .0354.15344.21183.18646.26622.25126 .0676.0804.30419.42643.32252.45395 .22684.33811.55695.75445.55695,1.25483 0,.31519-.53558.77646-1.03536.77646-1.09007,0-6.69053-8.51673-7.7198-9.87948-.82776-1.09616-7.2915-9.79785-7.2915-10.3077v-.2589c0-.56827 3.08589-4.37347 3.61933-5.09122l-38.0414-1.89678c.33471,1.43642 3.95831,3.76144 5.17617,4.65865 2.72308,2.00624 3.06484,2.09915 7.76719,2.06768 5.94408-.0394 12.3803,1.03809 18.6319,1.03809z" fill="#e5e5e5"></path>
   <path d="m114.137,193.334c-2.39138,0-5.89056-1.81183-8.28194-1.81183-.90789,0-9.23021,3.43988-11.1291,3.88223v.77642c0,.69911.12383.7138.25894,1.2943 2.7148-.0605 5.83708-1.55288 8.54083-1.55288 .75355,0 4.91759,4.86743 4.91759,5.43507 0,1.09071-5.44489,2.48128-6.72937,2.58797-.0957,1.15119-1.81151,4.06623-1.81151,4.40002 0,.95987.31825,1.77267.51725,2.58824 .20938.859 1.02404,2.26332.81157,2.36787l.74682,4.17291 4.91236-.32952c-.0379-1.69045-.37204-4.00911-.51784-5.95477-.20937-2.79766.28032-2.56992 1.13441-5.07503 .80516-2.36173 2.66037-7.73963 3.78318-9.41634 1.44465,0 6.98795.52152 6.98795,1.81151l-.005.80825 1.81701.22711c.20665-.88743.51539-2.32935 1.55288-2.32935h4.39975c.69911,0 .71344.12351 1.25515.27177l.26595.49951-.22716,1.81696h3.62329l-.0617-1.55684 .33471-5.92357 2.05635-1.06042c-.41388-.56523-3.50928-1.56207-4.49512-1.72256-.68169-.11065-4.05217.94673-4.87539,1.15151-1.8442.45854-8.48308,2.64145-9.78166,2.64145z" fill="#c63"></path>
   <path d="m16.1066,115.808 1.12522,7.57855 5.27035-4.31107-2.83218-1.83261v-1.55288c.30324-.0807.7052-.2589.77642-.2589 1.33523,0 8.3758,5.80097 9.05503,6.99131 .66118,1.15947 5.69706,9.78593 5.69706,10.3493 0,.60557-.42916,1.03504-1.03504,1.03504-.75227,0-2.91959-3.96109-3.10577-4.65865l-.19809-.23324-3.64134,3.24761 10.5838,5.0276 3.44634-2.61207-.61475-11.6415c-.72785-1.08698-5.33606-7.01578-6.16874-7.80689-.5001-.47537-9.29288-3.0049-10.6247-3.26475l-7.73354,3.94308z" fill="url(#radialGradient3070)"></path>
   <path d="m71.9502,103.525 1.0415,3.16539 3.35825-.3182c.28186-1.2099 1.12372-5.69401 2.32935-5.69401h.77642c.16631.6942.25894.48787.25894,1.03536 0,.61043-1.10994,4.24659-1.38294,5.08754-.58815,1.81146-2.37123,1.85121-4.5697,1.90041 .10819,4.8708 3.13724,13.2002 5.09363,16.6602l8.10558-15.1073c-.99989-.23293-4.65865-.88128-4.65865-1.81178 0-1.48717 2.07072-5.22756 2.07072-6.21153 0-3.05292-1.91301-4.83842-1.57794-7.77665 .29282-2.56719.80148-7.00177.80148-9.30511-2.82818.65909-2.87097,1.14419-3.84735,3.65844-.67651,1.74275-1.59754,3.36043-2.45159,5.05393-.88775,1.75953-1.53274,3.33137-2.41343,5.09213-.61289,1.22518-1.40736,4.44436-2.93427,4.5712z" fill="url(#linearGradient3072)"></path>
   <path d="m81.6436,205.854-.37327,1.68586 5.88628.61016 6.81591,6.72692 4.89431-1.87322c-.27722-1.19066-1.03536-3.44084-1.03536-4.65838 0-.4203 1.90323-4.66383 2.23366-5.27217 .73149-1.34501 3.66581-1.85948 5.3975-2.34003l-2.45468-2.74045c-2.78266.23138-6.42213,1.81178-9.3173,1.81178-1.01854,0-1.02618-5.37272-1.62014-6.52609l-10.4269,12.5756z" fill="#c93"></path>
   <path d="m126.588,224.419c2.11015-.28304 5.50969-1.2958 6.70095-1.32241-.59947-2.24585-4.13044-.90207-4.65865-7.24657l-4.1344.80457-.006,5.66559c0,1.50886-6.99841,1.59322-8.28198,1.29426l-.32798-5.17312-.95132.3121 .30419,3.82015c.0385,1.06074-6.08683,2.56655-7.30715,2.59375l-.91858-5.93672-5.28868.30415-.52179-.0614c-1.12709,0-1.56725-3.35029-1.81183-4.39975l-5.69615,2.06431-7.47218-6.97726-.89229,5.93549c3.24761.74954 18.4439,11.1416 20.0136,11.1416 4.00265,0 10.0641-1.32482 14.2269-1.81942 2.25504-.26808 4.77698-.6982 7.02374-.9993z" fill="#c63"></path>
   <path d="m147.524,190.228c-1.83047,0-3.39677-.76482-5.06857-1.14296-2.92604-.66214-2.07472-.49219-3.62361-2.58797-1.81151-2.45191-3.53252-4.59048-5.38713-7.03597-1.02768-1.35538-10.8124-14.0793-11.0255-14.0793-.72539,0-1.49417,1.07847-1.81178,1.55288 1.28816,2.43481 9.14062,11.4418 11.455,14.1673 1.89987,2.23735 4.00174,4.58866 5.72793,6.95407 1.63879,2.24558 8.03436,1.75525 8.69832,4.24231 2.65732-.22101 4.3927-.87456 5.89029-2.3917 1.44342-1.46179 3.11245-2.57569 4.52536-4.01548 1.88027-1.91606 6.94916-6.39071 9.09874-7.98302 1.80018-1.33337 17.4134-14.9945 17.9893-15.8801l-1.01089-2.33999c-4.5526,3.0486-34.154,30.5399-35.4575,30.5399z" fill="#699"></path>
   <path d="m18.6346,177.805 2.84682,3.10577c.29073-1.2481 2.35991-5.21132 3.46221-5.59619 2.82422-.98584 4.63418-.58355 7.10109-2.2162 7.49692-4.96188 4.44436-1.95426 8.58886-9.78684-.7138.0593-8.99696,3.73243-9.73854,4.23708-1.47462,1.00357-5.75972,6.89172-7.08427,6.89172-.49979,0-1.03504-.46131-1.03504-.77646 0-.90635 5.68482-6.68107 6.65752-7.57673 .88711-.81708 8.20708-3.77186 9.90635-4.58743-.33503-.45732-3.7413-2.58793-4.39971-2.58793-.72603,0-9.7294,5.49778-11.3061,6.29316-2.22602,1.12277-3.7312,9.95742-4.99918,12.6001z" fill="#369"></path>
   <path d="m106.114,74.2792c1.54802-.36072 3.16079-2.0704 4.65869-2.0704h2.3293c1.11299,0 1.40281.30169 2.32935.51752v3.62361c0,2.33817-1.85948,4.94479-3.36471,5.95259-.49765-.74308-1.09616-1.29394-2.3293-1.29394-.94032,0-1.52323.66882-2.07045,1.03504l.037.77646-2.03834-2.89212 .44844-5.64876zm.51757-5.17617c.79201-.53039 3.23169-3.62333 3.88218-3.62333h1.81183c1.63601,0 2.73741,2.0805 3.88218,2.84687l.30633,2.58151c-1.14114-.24821-1.92001-.76969-3.15347-.76969h-1.55288c-3.64684,0-3.47167,1.29394-5.69374,1.81146l.51756-2.84682zm-3.10581,4.91755c.72144,1.36338.4292,4.36919 0,6.21153 1.72378,3.25738 2.51826,5.17622 7.50552,5.17622 .58387,0 4.13717-2.72367 4.49512-3.26934 .37754-.57559 1.97536-4.9567 1.97536-5.78906l.0547-2.73099 1.23928-.63371c0-6.61382-1.70728-5.68269-4.14545-9.27664l-3.36007-.2996h-1.55288c-.67742,0-3.48176,3.34515-4.21175,4.07055-1.50859,1.49908-1.06165,4.58589-1.99982,6.54105z"></path>
   <path d="m147.932,181.051c.74804.4564 4.09256,2.44763 4.50917,2.44763 .093,0 12.6661-11.1114 13.9072-12.2329 2.66833-2.41125 12.6624-10.2903 14.0444-12.3543h-2.32935c-.12715,1.52964-4.64246,4.71672-5.88597,5.76036-2.079,1.74516-4.1454,4.04667-6.2299,5.67568-1.43028,1.11786-12.4176,11.0805-12.73,11.0805-.60588,0-1.03536-.42916-1.03536-1.03504v-.2589c0-1.30986 21.4793-18.3861 23.5605-21.4858l-1.15519-2.18714-26.6555,24.59z" fill="#ccc"></path>
   <path d="m117.004,96.307c.66209.30965-.23325.2302.75655.2302h1.03509c.0886,1.06378.25889.57832.25889,1.55288 0,.55176-.5866,1.25542-.77646,2.07072l-5.80097-.66977 4.5269-3.18403zm-5.54762,1.39331c-1.94107.13115-4.10288.55545-5.08385,1.68404 .75291,1.5688.78501,4.98026 2.10924,5.91412 1.45111,1.02313 3.51142,2.10892 5.91412,2.10892h3.10577c1.0867,0 1.26429-1.49786 1.29762-2.58456 .0593-1.94785.23661-1.79468.94518-3.19567 1.66721-3.29713 1.12186-2.35622 1.17015-6.63492l-4.46574-.80912-4.99249,3.51719z"></path>
   <path d="m94.2081,131.477-.51752,4.65865c2.58365-1.23982 11.1068-3.37658 12.7404-4.59994 .72903-.54626 8.48217-8.80837 8.48217-8.85817 0-.45363-1.29212-2.87193-1.55288-3.36471-2.61207,1.74916-6.06451,4.78889-8.61178,6.9171-2.66164,2.22384-7.30838,3.53675-10.5404,5.24707z" fill="url(#radialGradient3074)"></path>
   <path d="m176.252,171.852c2.87497,0 5.15998.43685 8.03591.50501 2.08355.0492 3.23474,3.214 4.04358,4.75588 2.00501,3.82288 1.28666,2.13275.85318,6.89536-.22438,2.46719-.82321,5.32047-.95987,7.82617l7.17936-9.1122c-1.3713-1.57794-5.60292-13.1995-6.988-13.1995h-9.3173c-.71257,0-2.4791,1.78031-2.84687,2.3293z" fill="#f63"></path>
   <path d="m157.618,110.513 5.03342,4.12644-1.15124-8.52619c.63767-.95218 3.87918-4.03289 5.17622-4.14113l-.0113-5.95445 1.29885-8.47271-3.61687-.32493c-.41543,1.78308-2.48001,3.19349-2.59743,4.90781-.15403,2.24799.0126,5.19663.0156,7.52139 .003,1.90196-3.12014,10.5896-4.14722,10.8638z" fill="#fc9"></path>
   <path d="m117.547,211.727 .46554,10.017 4.40675-.45822v-8.79982c0-3.75076 2.58797-9.25613 2.58797-13.1995l-2.70562.0544-4.75465,12.3861z" fill="#963"></path>
   <path d="m93.1807,138.486 .07122,1.0641 3.1446,1.19125-.11801.31151c-.41234,1.77021-1.17352,4.54828-1.39544,6.34541-.14889,1.20349 1.77358,3.88346 1.91206,5.58182l8.65521.43471-8.65061-16.2344-3.61901,1.30558z" fill="#fff"></path>
   <path d="m109.478,222.838 3.62361-1.03536c0-2.59225-1.66598-10.4095-1.14387-12.2721 .67432-2.40638 3.68873-8.30608 3.72602-10.1946l-3.09999-.30874c-.35581-.0416-3.89169,9.48329-4.19402,10.5776-.29896,1.08125.90666,11.0506 1.08825,13.2332z" fill="#963"></path>
   <path d="m106.114,74.2792-.44844,5.64876 2.03834,2.89212-.037-.77646c.54722-.36622 1.13013-1.03504 2.07045-1.03504 1.23314,0 1.83165.55086 2.3293,1.29394 1.50522-1.0078 3.36471-3.61442 3.36471-5.95259v-3.62361c-.92654-.21583-1.21636-.51752-2.32935-.51752h-2.3293c-1.4979,0-3.11068,1.70969-4.65869,2.0704z" fill="url(#radialGradient3076)"></path>
   <path d="m163.829,106.631c0,2.53754.58414,4.60885.77642,6.988 .37327,4.62077 2.58824,4.19402 2.58824,5.17649 0,1.09648-.67128,1.8387-.72203,3.19685l4.08642-2.42039c-.0785-3.53102-2.82481-13.4089-4.65865-14.7524-.27695.18554-2.0704,1.55593-2.0704,1.81146z" fill="#fc9"></path>
   <path d="m74.2796,72.4677c.30201.57073.22561,1.03504 1.03504,1.03504 1.09343,0 2.24713-3.66731 2.32935-4.65865h1.81178c1.46975,0 1.80419,1.07815 2.32935,2.07072-2.88138,1.9292-3.10577,3.41696-3.10577,8.02304 .46709.31301.45517.51784 1.03536.51784s.56795-.20483.98888-.52152l.20419-4.51804 1.994-1.64611 .17727.21519c.21429.91922.70156,2.32935 1.81183,2.32935 .31515,0 .77642-.53526.77642-1.03536 0-1.20472-3.32187-6.69822-4.14417-7.21147l-4.13776-.29405h-.2589c-1.33523,0-2.24835,4.44682-2.84687,5.69401z"></path>
   <path d="m168.744,96.7897 .0401,7.02556-.55513.74527c.85287,1.61159 2.79853,5.0784 2.84714,7.24689 .29897-.34417 2.84687-5.39746 2.84687-5.69401 0-2.13948-2.36632-7.68492-2.58552-10.3459l-2.59343,1.02222z" fill="#fc9"></path>
   <path d="m124.23,73.7617-.78469,6.73456 .78469,1.28876c.56063-.37568.86173-.77642 1.81183-.77642h.77642c.95009,0 1.25087.40074 1.81151.77642 .31365-1.17384 1.08398-1.53237 1.41136-2.98898 .31147-1.38598.36222-2.72367.64499-3.99378l-.24457-.78165c-1.21754-.1015-2.56682-.77642-3.62329-.77642-.86051,0-1.60914.43589-2.58824.51752z" fill="url(#radialGradient3078)"></path>
   <path d="m71.9502,199.286 1.81183,1.55288c1.18912-2.47883 2.13735-7.14634 3.3552-9.32648 .33107-.59274 6.91919-4.93896 7.90903-5.26608l-2.20583-2.74782c-.79543.53253-6.23691,5.76341-6.64897,6.55056-1.57708,3.01254-2.63536,6.23968-4.22126,9.23694z" fill="#f00"></path>
   <path d="m172.571,176.971c.71225,1.42146 1.99032,7.27136 2.49042,9.27114 .41083,1.64306.81098,3.01318 1.1943,4.50003 .47104,1.82861.3433,3.36957 1.80782,4.14449 .32738-.17304 1.03536-.35554 1.03536-.77646 0-.99225-1.9252-8.14742-2.29601-9.35031-.76973-2.49593-1.00753-7.63881-3.19654-8.82424l-1.03536,1.03536z"></path>
   <path d="m106.631,69.1031-.51757,2.84682c2.22207-.51752 2.04689-1.81146 5.69374-1.81146h1.55288c1.23346,0 2.01233.52148 3.15347.76969l-.30633-2.58151c-1.14478-.76637-2.24617-2.84687-3.88218-2.84687h-1.81183c-.65049,0-3.09017,3.09294-3.88218,3.62333z" fill="url(#radialGradient3080)"></path>
   <path d="m78.4204,203.945 1.42359.88374 9.74709-11.786-1.33555-1.52082c-3.96563,2.6555-7.51957,8.0475-9.83514,12.4231z" fill="#f00"></path>
   <path d="m98.588,163.288-2.0899,1.789 22.0969.881 1.242-1.454z" fill="#366"></path>
   <path d="m76.8675,198.769 1.81183,1.03536c1.05951-3.96809 6.8351-7.77542 7.1292-9.18278l-1.69413-1.42878c-.48723.25799-4.83746,2.99176-5.04929,3.2326-.37632.42766-2.12698,5.4981-2.1976,6.34359z" fill="#f00"></path>
   <path d="m59.1295,161.375 .91521,2.71267c1.19921-.63458 3.91493-2.84682 5.17649-2.84682l2.30856.003-1.1436-6.35919-7.25667,6.48998z" fill="#06f"></path>
   <path d="m114.655,216.627c.73058-.0609 1.03504.006 1.03504-.77646v-3.36471c0-3.96718 3.29317-7.91785 3.36471-11.1288h-1.81183c-1.47707,6.34087-4.60726,6.60222-2.58793,15.27z" fill="#f63"></path>
   <path d="m119.831,86.1848v1.81183c0,.66364.0621.62544.25894,1.03504-.20391.30446-1.1888,1.55288-1.55288,1.55288-.85532,0-3.28581-1.81151-4.14113-1.81151-.31515,0-.77646.53526-.77646,1.03504v.77646c1.27902.34175 3.82902,2.3293 5.17622,2.3293 .77273,0 2.95565-2.49529 3.35734-3.10486l-.5102-4.40062c-.6942-.16631-.48787-.25894-1.03536-.25894-.31515,0-.77647.53558-.77647,1.03536z"></path>
   <path d="m103.784,53.0567 .0183,1.50459 .75809.30719c1.01522-.23657 5.20859-1.82797 5.69374-1.81087l6.98795-.00091v-1.55288c-6.84461-1.59477-8.67658.43898-13.4581,1.55288z"></path>
   <path d="m82.3026,162.276h1.55288l.25067-.16017-4.94874-7.74427-.22684.20601-3.09813-.32461c.64654,1.34747 5.24284,8.02304 6.47016,8.02304z" fill="#e5e5e5"></path>
   <path d="m142.865,187.122 4.20102,1.10135 3.56339-3.43069c-1.18575-.27636-3.39068-2.0704-4.14113-2.0704-.27541,0-3.29681,3.91247-3.62329,4.39975z" fill="#b2b2b2"></path>
   <path d="m23.9099,134.917 2.23025.18309c2.15022,0 3.84862,5.04902 5.35134,6.1761l1.63633-4.10475-7.56696-3.69482-1.65098,1.44037z" fill="#fff"></path>
   <path d="m125.266,71.4324c.58051-.13511.59488-.2589 1.29399-.2589 1.56634,0 3.50741.70675 4.95424,1.03077l-.20237-2.94987-2.42257-1.96313c-1.44342,1.25483-3.36316,1.01612-3.62329,4.14113z" fill="url(#radialGradient3082)"></path>
   <path d="m26.5146,161.03 .09659.12902 5.99938-3.28276c-.24025-.89962-2.76096-2.23607-3.82657-2.30611l-2.26941,5.45985z" fill="#0055d4"></path>
   <path d="m112.477,99.491 5.80097.66978c.18986-.8153.77646-1.51896.77646-2.07072 0-.97456-.17026-.4891-.25889-1.55288h-1.03509c-.9898,0-.0945.07945-.75655-.2302l-4.5269,3.18403z" fill="#fff"></path>
   <path d="m86.4437,149.076 .73303-2.2031-6.42704-2.19665c.63858,2.39047 2.91472,4.16864 5.69401,4.39975z" fill="#59f"></path>
   <path d="m84.6075,107.657 3.38913.78533c.26868-.40137.77642-.94245.77642-1.55288 0-.27786-2.45463-2.1554-3.0446-2.30702l-1.12095,3.07457z" fill="#fc9"></path>
   <path d="m69.362,98.0901 1.76166,3.98246 1.86194-4.24108h-1.81178c-.88802,0-1.00817.17454-1.81183.25862z" fill="#fc9"></path>
   <path d="m63.9269,164.347 6.21153.25858c-.42675-.58264-1.59781-1.29394-2.58793-1.29394h-1.81183c-1.05337,0-1.39208.40869-1.81178,1.03536z" fill="#366"></path>
   <path d="m82.3032,164.351c-.75718.0847-.42552.0336-.77706.51325h4.14113c-.08436-.35249-.07335-.82872-.52575-.84677l-2.83832.33352z" fill="#366"></path>
   <path d="m130.442,51.7627 1.85494.81958 .21551-.30205c.0865-.08618-.20637-.20633-.25098-.26622-.10946-.14702-.2152-.29255-.32343-.45335-.23352-.34726-.32829-.83331-.71957-.83331-.41115,0-.61503.71011-.77647,1.03536z" fill="#fc9"></path>
   <path d="m133.289,77.1264-.965.0083-.333,2.8379z" fill="#fc9"></path>
  
 <path d="m452.61757,16.77908c0,0 32.20115,16.99505 34.88457,44.72382s-14.31162,59.92991-14.31162,59.92991 1.78895-42.04039 1.78895-56.35201-22.3619-45.6183-22.3619-48.30172z" fill="#fff" fill-rule="evenodd" filter="url(#filter3846-7-5)" transform="matrix(.12834,0,0,.12834,54.72414,5.6262)"></path><path d="m8.38954,8.38954c0,0 32.20115,16.99505 34.88457,44.72382s-14.31162,59.92991-14.31162,59.92991 1.78895-42.04039 1.78895-56.35201-22.3619-45.6183-22.3619-48.30172z" fill="#fff" fill-rule="evenodd" filter="url(#filter3817-1)" transform="matrix(.01983,-.12939,.1268,.00327,129.7867,26.29894)"></path><path d="m8.38954,8.38954c0,0 32.20115,16.99505 34.88457,44.72382s-14.31162,59.92991-14.31162,59.92991 1.78895-42.04039 1.78895-56.35201-22.3619-45.6183-22.3619-48.30172z" fill="#fff" fill-rule="evenodd" filter="url(#filter3825-2)" transform="matrix(.08919,-.05156,.05156,.08919,90.53164,8.91815)"></path><path d="m8.38954,8.38954c0,0 32.20115,16.99505 34.88457,44.72382s-14.31162,59.92991-14.31162,59.92991 1.78895-42.04039 1.78895-56.35201-22.3619-45.6183-22.3619-48.30172z" fill="#fff" fill-rule="evenodd" filter="url(#filter3829-2)" transform="matrix(.04915,-.13768,.13768,.04915,66.42933,20.35924)"></path><path d="m8.38954,8.38954c0,0 32.20115,16.99505 34.88457,44.72382s-14.31162,59.92991-14.31162,59.92991 1.78895-42.04039 1.78895-56.35201-22.3619-45.6183-22.3619-48.30172z" fill="#fff" fill-rule="evenodd" filter="url(#filter3846-7-5)" transform="matrix(-.05901,-.18078,.1545,-.06905,57.11387,46.63136)"></path><path d="m8.38954,8.38954c0,0 32.20115,16.99505 34.88457,44.72382s-14.31162,59.92991-14.31162,59.92991 1.78895-42.04039 1.78895-56.35201-22.3619-45.6183-22.3619-48.30172z" fill="#fff" fill-rule="evenodd" filter="url(#filter3846-7-5)" opacity=".5" transform="matrix(.11729,.14969,-.12156,.11773,93.99692,35.45375)"></path><path d="m820.1097,695.08691c0,10.9674-10.45063,19.85823-23.34212,19.85823s-23.34212-8.89083-23.34212-19.85823 10.45062-19.85822 23.34212-19.85822 23.34212,8.89083 23.34212,19.85822z" fill="#f00" fill-rule="evenodd" filter="url(#filter4103)" transform="matrix(.12834,0,0,.12834,.71542,.89379)"></path><path d="m820.1097,695.08691c0,10.9674-10.45063,19.85823-23.34212,19.85823s-23.34212-8.89083-23.34212-19.85823 10.45062-19.85822 23.34212-19.85822 23.34212,8.89083 23.34212,19.85822z" fill="#f00" fill-rule="evenodd" filter="url(#filter4103)" opacity=".5" transform="matrix(.09904,0,0,.09904,47.74843,23.67609)"></path><path d="m899.54256,858.13336c0,4.81026-10.91856,8.70975-24.38729,8.70975s-24.38729-3.89949-24.38729-8.70975 10.91857-8.70974 24.38729-8.70974 24.38729,3.89948 24.38729,8.70974z" fill="#750000" fill-rule="evenodd" filter="url(#filter4111)" opacity=".504" transform="matrix(.12779,.01191,-.01191,.12779,10.70293,-9.41002)"></path><path d="m1112.0603,1615.8812c0,26.1678-21.2132,47.381-47.381,47.381s-47.381-21.2132-47.381-47.381 21.2132-47.381 47.381-47.381 47.381,21.2132 47.381,47.381z" fill="#fff" fill-rule="evenodd" filter="url(#filter4117)" stroke="#000" transform="matrix(.12834,0,0,.12834,1.43085,-4.9490182e-4)"></path></g></svg>
